/* XPM */
static char * dir_xpm[] = {
"16 20 8 1",
" 	c None",
".	c #5D5D5D",
"+	c #000000",
"@	c #A0A0A0",
"#	c #C3C3C3",
"$	c #DCDCDC",
"%	c #FFA858",
"&	c #FFDCA8",
"      ++++      ",
"     ++ ++++ +  ",
"    +     ++++  ",
"    +     ++++  ",
"           +++  ",
"          ++++  ",
" ++++           ",
"+%&&%+++++++    ",
"+%&&%+++++++    ",
"+&&&&%%%%%%%+   ",
"+&&+++++++++++++",
"+&%+$$$$$$$$$$$+",
"+&+$####@#@#@@+ ",
"+&+$####@#@#@@+ ",
"+%+$###@#@#@@@+ ",
"++$###@#@#@@@+  ",
"++$##@#@#@@@@+  ",
"+$##@#@#@@@@+   ",
"+$##@#@#@@@@+   ",
"+++++++++++++   "};
