/* XPM */
static char * next_xpm[] = {
"16 20 9 1",
" 	c None",
".	c #FFFFFF",
"+	c #000000",
"@	c #00C0C0",
"#	c #008080",
"$	c #C0FFFF",
"%	c #004040",
"&	c #00FFFF",
"*	c #FFFFFF",
"                ",
"       ++       ",
"       +$+      ",
"       +$+      ",
"       +&$+     ",
"       +@&$+    ",
"  ++++++@@&$+   ",
"  +***$&@@@&$+  ",
"  +***$&@@@&$+  ",
"  +*@@@@@@@@&$+ ",
"  +$@@@@@@@@@#%+",
"  +$@@@@@@@@#%+ ",
"  +@####@@@#%+  ",
"  +@####@@@#%+  ",
"  ++++++@@#%+   ",
"       +@#%+    ",
"       +#%+     ",
"       +%+      ",
"       +%+      ",
"       ++       "};
