/* XPM */
static char *down_pix[] = {
/* columns rows colors chars-per-pixel */
"24 24 72 1",
"  c Gray0",
". c #010101010101",
"X c Gray1",
"o c #040404040404",
"O c Gray2",
"+ c #060606060606",
"@ c Gray3",
"# c Gray4",
"$ c #5f5f7b7b5252",
"% c #63637f7f5555",
"& c #676784845959",
"* c #676785855858",
"= c #6a6a88885c5c",
"- c #6e6e8b8b6060",
"; c #73738f8f6565",
": c #727291916363",
"> c #737391916464",
", c #767695956868",
"< c #7d7d99997070",
"1 c #7f7f9d9d7171",
"2 c None",
"3 c #8787a3a37b7b",
"4 c #8686a4a47878",
"5 c #8686a8a87676",
"6 c #8686a8a87777",
"7 c #8989a6a67b7b",
"8 c #8989acac7979",
"9 c #8a8aadad7a7a",
"0 c #8b8baeae7b7b",
"q c #8d8daeae7d7d",
"w c #8e8eaeae7e7e",
"e c #8f8fadad8181",
"r c #8f8fafaf8080",
"t c #8f8fafaf8181",
"y c #9090abab8383",
"u c #9191afaf8282",
"i c #9393b3b38585",
"p c #9a9ab5b59090",
"a c #a3a3acac9e9e",
"s c #a3a3baba9797",
"d c #a6a6bdbd9b9b",
"f c #b0b0c4c4a6a6",
"g c #bbbbc0c0b8b8",
"h c #d2d2d4d4d0d0",
"j c #d4d4d5d5d1d1",
"k c #d4d4d5d5d2d2",
"l c #dbdbdbdbdada",
"z c #dbdbdcdcd9d9",
"x c #e0e0e0e0dfdf",
"c c #e1e1e1e1e0e0",
"v c #e3e3e3e3e1e1",
"b c #e4e4e4e4e2e2",
"n c #e9e9e8e8e8e8",
"m c #e9e9eaeae8e8",
"M c #ebebe9e9eaea",
"N c #ececebebebeb",
"B c #eeeeedededed",
"V c #eeeeececeeee",
"C c #eeeeeeeeeded",
"Z c #f0f0eeeeefef",
"A c #f1f1efeff1f1",
"S c #f2f2efeff2f2",
"D c #f3f3efeff3f3",
"F c Gray94",
"G c #f1f1f0f0f1f1",
"H c #f2f2f0f0f2f2",
"J c #f3f3f0f0f3f3",
"K c #f3f3f3f3f2f2",
"L c #f3f3f3f3f3f3",
"P c #f4f4f0f0f4f4",
"I c #f5f5f1f1f5f5",
"U c #f6f6f2f2f6f6",
/* pixels */
"222222222222222222222222",
"222222222222222222222222",
"222222222222222222222222",
"222222222222222222222222",
"222222222222222222222222",
"22222 +++@#OOOO@   22222",
"22222 zmCLKFfdsp3; 22222",
"222222.bZGHGitr6> 222222",
"222222olMDII9984= 222222",
"2222222 xSPU095, 2222222",
"2222222 jBHI9q7= 2222222",
"22222222 vAJwe: 22222222",
"22222222 kNVu1& 22222222",
"222222222Xcny- 222222222",
"222222222 hz<% 222222222",
"2222222222 g* 2222222222",
"2222222222 a$ 2222222222",
"22222222222  22222222222",
"22222222222  22222222222",
"222222222222222222222222",
"222222222222222222222222",
"222222222222222222222222",
"222222222222222222222222",
"222222222222222222222222"
};
