/* XPM */
static char *icemenu_icewm[] = {
/* width height num_colors chars_per_pixel */
"    48    15      114            2",
/* colors */
".. c #b2c0dc",
".# c #6382c6",
".a c #6080c1",
".b c #405580",
".c c #5571ab",
".d c #95aad5",
".e c #718dc7",
".f c #cad4ea",
".g c #829bce",
".h c #5c7dbd",
".i c #000000",
".j c #3d537e",
".k c #c8d3e9",
".l c #ffffff",
".m c #92a8d3",
".n c #7f99cb",
".o c #b6c4e1",
".p c #587ab9",
".q c #3a517b",
".r c #a2b4d8",
".s c #b4c3df",
".t c #8fa6d0",
".u c #d9e1ef",
".v c #eceff7",
".w c #5577b5",
".x c #384f78",
".y c #1c273c",
".z c #263550",
".A c #4b69a1",
".B c #2f4264",
".C c #283141",
".D c #555555",
".E c #aaaaaa",
".F c #d9e0ee",
".G c #a0b3d5",
".H c #6785bd",
".I c #c6d1e6",
".J c #5174b1",
".K c #364d76",
".L c #1b263b",
".M c #48679d",
".N c #090d14",
".O c #121927",
".P c #393939",
".Q c #c5d0e5",
".R c #6483b9",
".S c #8ba2cb",
".T c #9eb1d3",
".U c #4e71ad",
".V c #344b73",
".W c #22324d",
".X c #080c13",
".Y c #3c5887",
".Z c #45649a",
".0 c #c4cfe3",
".1 c #4d607f",
".2 c #d7dfec",
".3 c #89a0c8",
".4 c #6180b6",
".5 c #afbfda",
".6 c #4a6fa9",
".7 c #314a70",
".8 c #101825",
".9 c #182538",
"#. c #2c3541",
"## c #333a45",
"#a c #869fc5",
"#b c #aebed8",
"#c c #eaeef5",
"#d c #d6deeb",
"#e c #c2cfe2",
"#f c #466ca5",
"#g c #2e486e",
"#h c #1f3049",
"#i c #3c5274",
"#j c #b5b9be",
"#k c #c1cee1",
"#l c #d5deea",
"#m c #acbdd6",
"#n c #839dc3",
"#o c #5a7cae",
"#p c #4369a1",
"#q c #2c466b",
"#r c #162335",
"#s c #253a59",
"#t c #e9edf4",
"#u c #aabbd4",
"#v c #819bc0",
"#w c #c0cddf",
"#x c #5779ab",
"#y c #d4dde9",
"#z c #3f669d",
"#A c #2a4468",
"#B c #314f7a",
"#C c #233857",
"#D c #070b11",
"#E c #7f8894",
"#F c #727272",
"#G c #bfccde",
"#H c #7f99bd",
"#I c #d4dce9",
"#J c #94a9c8",
"#K c #3b6399",
"#L c #274266",
"#M c #060b11",
"#N c #2e4d77",
"#O c #151719",
"#P c #bdcbdd",
"#Q c #6685af",
"#R c #91a8c6",
"#S c #5074a4",
"#T c #376094",
"#U c #244062",
"#V c #376095",
/* pixels */
".#.#.#.#.#.#.#.#.#.#.#.#.#.#.#.#.#.#.#.#.#.#.#.#.#.#.#.#.#.#.#.#.#.#.#.#.#.#.#.#.#.#.#.#.#.#.#.#",
".#.#.#.#.#.#.#.#.#.#.#.#.#.#.#.#.#.#.#.#.#.#.#.#.#.#.#.#.#.#.#.#.#.#.#.#.#.#.#.#.#.#.#.#.#.#.#.#",
".a.a.a.a.b.b.c.a.a.a.a.a.a.a.a.a.a.d.d.d.a.a.a.d.d.d.e.a.a.e.d.d.e.f.f.f.f.g.a.a.g.f.f.f.f.a.a.a",
".h.h.h.h.i.i.j.h.h.h.h.h.h.h.h.h.h.k.l.l.m.h.h.l.l.l.k.h.h.k.l.l.n.l.l.l.l.o.h.h.k.l.l.l.l.h.h.h",
".p.p.p.p.i.i.q.p.p.p.p.p.p.p.p.p.p.r.l.l.s.p.t.l.l.l.u.p.p.v.l.v.p.l.l.l.l.u.p.p.v.l.l.l.l.p.p.p",
".w.w.w.w.i.i.x.w.w.x.y.y.z.A.w.w.B.C.D.E.F.w.G.l.l.l.l.w.H.l.l.I.w.l.l.l.l.l.w.H.l.l.l.l.l.w.w.w",
".J.J.J.J.i.i.K.J.L.i.i.i.i.K.M.N.i.O.P.i.D.J.Q.l.l.l.l.R.S.l.l.S.J.l.l.l.l.l.S.T.l.l.Q.l.l.J.J.J",
".U.U.U.U.i.i.V.W.i.X.Y.U.Z.Z.W.i.W.U.0.P.i.1.2.l.2.l.l.3.0.l.l.4.U.l.l.0.l.l.5.0.l.0.0.l.l.U.U.U",
".6.6.6.6.i.i.7.8.i.7.6.6.6.6.X.i.8.9#..P.i##.l.l#a.l.l#b#c.l#d.6.6.l.l#e#e.l#d.l.l#a#e.l.l.6.6.6",
"#f#f#f#f.i.i#g.i.i#g#f#f#f#f.i.i#h#g#i.E.E#j.l.l#f#k.l#l.l.l#m#f#f.l.l#k#n.l.l.l.l#o#k.l.l#f#f#f",
"#p#p#p#p.i.i#q#r.i#s#p#p#p#p#r.i#s#p#p#t.l.l.l#t#p#u.l.l.l.l#v#p#p.l.l#w#x.l.l.l#y#p#w.l.l#p#p#p",
"#z#z#z#z.i.i#A#B.i.i#C#A#A#B#B.i#D#C#A#E#F.l.l#G#z#H.l.l.l.l#z#z#z.l.l#G#z#I.l.l#J#z#G.l.l#z#z#z",
"#K#K#K#K.i.i#L#K#L#M.i.i.i#N#K#L#M.i.i.i#O#P#P#Q#K#K#P#P#P#R#K#K#K#P#P#R#K#R#P#P#S#K#R#P#P#K#K#K",
"#T#T#T#T#T#T#T#T#T#T#U#U#T#T#T#V#V#V#V#V#V#V#V#V#V#V#V#V#V#V#V#V#V#V#V#V#V#V#V#V#V#V#V#V#V#V#V#V",
"#T#T#T#T#T#T#T#T#T#T#T#T#T#T#T#T#T#T#T#T#T#T#T#T#T#T#T#T#T#T#T#T#T#T#T#T#T#T#T#T#T#T#T#T#T#T#T#T"
};
