/* XPM */
static char*icemenu_clipboard[]={
"16 16 6 1",
"  c None",
"e c #808000",
"a c #000000",
"c c #ffff00",
"d c #ffffc0",
"b c #ffffff",
"                ",
"                ",
"      aaaa      ",
"  aaaaabbaaaaa  ",
" abccabaababbda ",
" abcabbbbbbabda ",
" abcaaaaaaaacea ",
" abccccccccccea ",
" abcccccaaaaaaa ",
" abcccccabbbbaa ",
" abcccccabbbbaba",
" abcccccabaabaaa",
" abcccccabbbbbba",
" adeeeeeabaaaaba",
"  aaaaaaabbbbbba",
"        aaaaaaaa"};
