/* XPM */
static char *icepref[] = {
/* width height num_colors chars_per_pixel */
"    24    24      116            2",
/* colors */
".. c None",
".# c #000102",
".a c #040204",
".b c #06000a",
".c c #e3e3e3",
".d c #030a03",
".e c #e9e9e9",
".f c #1c111f",
".g c #0c000a",
".h c #0a0008",
".i c #11000b",
".j c #150417",
".k c #0b010c",
".l c #150013",
".m c #060007",
".n c #e8e8e8",
".o c #04060c",
".p c #000704",
".q c #080e0e",
".r c #000a06",
".s c #010100",
".t c #210002",
".u c #d7d7d7",
".v c #dddddd",
".w c #140300",
".x c #ddc6c0",
".y c #b6233d",
".z c #96031d",
".A c #d65d66",
".B c #d8d8d8",
".C c #dedede",
".D c #e4e4e4",
".E c #130101",
".F c #6f5852",
".G c #eb5a77",
".H c #880013",
".I c #bc404b",
".J c #a1222d",
".K c #d9d8d8",
".L c #4f1312",
".M c #be001c",
".N c #f73456",
".O c #fe7484",
".P c #b60307",
".Q c #5b0002",
".R c #a56969",
".S c #fe3b59",
".T c #c2011c",
".U c #fa364a",
".V c #b40004",
".W c #7f230e",
".X c #c1614b",
".Y c #9f9c9c",
".Z c #8d141d",
".0 c #840717",
".1 c #aa030a",
".2 c #ec4650",
".3 c #ff7676",
".4 c #b00204",
".5 c #d06168",
".6 c #888686",
".7 c #8d8a8a",
".8 c #939191",
".9 c #999797",
"#. c #9f9d9d",
"## c #520002",
"#a c #ab0511",
"#b c #a50004",
"#c c #f44446",
"#d c #ff666b",
"#e c #6b0304",
"#f c #c6595e",
"#g c #8e8b8b",
"#h c #949191",
"#i c #9a9797",
"#j c #a09e9e",
"#k c #090400",
"#l c #c3695e",
"#m c #741b0b",
"#n c #b80000",
"#o c #ff3a49",
"#p c #ff768d",
"#q c #bb1227",
"#r c #c45359",
"#s c #8f8c8c",
"#t c #959292",
"#u c #b95b4f",
"#v c #d00314",
"#w c #be0201",
"#x c #ed4151",
"#y c #ff6b79",
"#z c #7e0f18",
"#A c #c25157",
"#B c #898686",
"#C c #a56d76",
"#D c #632d3a",
"#E c #b90005",
"#F c #fa3443",
"#G c #fc737d",
"#H c #a90b1a",
"#I c #b25158",
"#J c #8a8787",
"#K c #96616b",
"#L c #bd0004",
"#M c #ad0002",
"#N c #e54551",
"#O c #ff7884",
"#P c #7f1f2a",
"#Q c #d15354",
"#R c #a5232b",
"#S c #740d11",
"#T c #af4b4d",
"#U c #c78c8e",
"#V c #de5b60",
"#W c #7a171a",
"#X c #72090e",
/* pixels */
"................................................",
"................................................",
".........#.....................a.a.a.a..........",
".......b.c.d.................a.e.e.e.a..........",
".....f.c.c.c.g.............a.e.e.e.a............",
".......h.c.c.i.............a.e.e.a..............",
".........j.k.c.b...........a.e.e.a.........a.a..",
".............l.c.m.........a.n.e.a.......o.e.a..",
"...............p.c.q.......a.c.e.e.a.a.a.e.e.a..",
".................r.c.s.t.j.u.v.c.e.e.e.e.e.e.a..",
"...................w.x.y.A.j.B.C.D.e.e.e.e.a....",
"...................E.F.G.I.J.j.K.a.a.a.a.a......",
"...................j.R.S.U.V.W.X.j..............",
".........a.a.a.a.a.Y.j.Z.1.2.3.4.5.j............",
".......a.6.6.6.7.8.9#..j#a#b#c#d#e#f.j..........",
".....a.6.6.6.6.6#g#h#i#j#l#m#n#o#p#q#r.j........",
".....a.6.6.a.a.a.6#s#t.a.j#u#v#w#x#y#z#A.j......",
".....a.6.o.......a#B#s.a...j#C#D#E#F#G#H#I.j....",
".....a.a.a.......a.6#J.a.....j#K#L#M#N#O#P.j....",
".................a.6.6.a.......j#Q#R#S#T#U.j....",
".............a.a.6.6.6.a.........j#V#W#X.j......",
".............a.6.6.6.a.............j.j.j........",
".............a.a.a.a............................",
"................................................"
};
