/* XPM */
static char * new_menu_xpm[]={
"22 22 5 1",
"# c #000000",
"c c #c0c0c0",
"a c #ffffff",
"b c #dcdcdc",
"  c None",
"                      ",
"                      ",
"                      ",
"                      ",
"  ##################  ",
"  #aaaaaaaaaaaaabbb#  ",
"  #aa####aa####aaab#  ",
"  ##################  ",
"         #aaaacccc#   ",
"         #a#####ac#   ",
"         #aaaaaaac#   ",
"         #a####aaa#   ",
"         #aaaaaaaa#   ",
"         ##########   ",
"         #aaaaaaaa#   ",
"         #a######a#   ",
"         #aaaaaaaa#   ",
"         ##########   ",
"                      ",
"                      ",
"                      ",
"                      "};

