/* XPM */
static char * new_sep_xpm[]={
"22 22 2 1",
"# c #000000",
"  c None",
"                      ",
"                      ",
"                      ",
"                      ",
"                      ",
"                      ",
"                      ",
"                      ",
"                      ",
"                      ",
"   #              #   ",
"    ##############    ",
"   #              #   ",
"                      ",
"                      ",
"                      ",
"                      ",
"                      ",
"                      ",
"                      ",
"                      ",
"                      "};

