/* XPM */
static char*folder_open[]={
"16 16 17 1",
"a c #808080",
"m c #f7f7e7",
"c c #94968c",
"n c #efeb31",
"i c #c6c75a",
"j c #4a4d39",
"h c #e7e752",
"k c #c6c38c",
"o c #000000",
"# c #cecfce",
"f c #efebd6",
"b c #bdbab5",
"g c #6b6d6b",
"e c #efefa5",
". c None",
"d c #efefef",
"l c #ffffff",
"...#aaaa........",
"..#abbbbc.......",
".#adefefbcaaaaa.",
".gdehhhhfbbbbbca",
".gdhihhhhfffffbj",
"#g#bikikikikiicj",
"gcccccccccccgiij",
"gldfdfmfmmmkjgcj",
"gd#nknknkhhhjjgj",
".gdknknknkhhcjjj",
".gdnknknknihhjjj",
"..gdnknknknkhijo",
"..ggggggggggggjo",
"...ooooooooooooo",
"................",
"................"};
