/* XPM */
static char *up_pix[] = {
/* columns rows colors chars-per-pixel */
"24 24 73 1",
"  c Gray0",
". c #010101010101",
"X c Gray1",
"o c #060606060606",
"O c #1d1d1d1d1d1d",
"+ c #60607c7c5353",
"@ c #676784845858",
"# c #686885855959",
"$ c #696987875b5b",
"% c #6a6a87875b5b",
"& c #71718e8e6262",
"* c #727290906363",
"= c #737392926464",
"- c #737393936464",
"; c #757592926767",
": c #7a7a95956d6d",
"> c None",
", c #85859f9f7676",
"< c #8989a6a67c7c",
"1 c #8a8aa6a67f7f",
"2 c #8b8babab7e7e",
"3 c #8a8aacac7a7a",
"4 c #8a8aadad7a7a",
"5 c #8b8badad7b7b",
"6 c #8b8baeae7b7b",
"7 c #8d8dadad7f7f",
"8 c #8c8ca4a48080",
"9 c #8e8eaaaa8181",
"0 c #8f8faeae8181",
"q c #9191aaaa8585",
"w c #9292abab8787",
"e c #9090aeae8181",
"r c #9090aeae8383",
"t c #9292aeae8585",
"y c #9494a9a98989",
"u c #9191b1b18282",
"i c #9595b4b48787",
"p c #9797b0b08d8d",
"a c #9999b4b48c8c",
"s c #9d9db5b59191",
"d c #b9b9bebeb5b5",
"f c #bbbbbfbfb7b7",
"g c #bdbdc1c1b8b8",
"h c #bebec2c2baba",
"j c #bebec2c2bbbb",
"k c #bfbfc3c3bbbb",
"l c #d6d6d9d9d5d5",
"z c #d9d9d9d9d7d7",
"x c #dcdcdddddada",
"c c #e2e2e0e0e0e0",
"v c #e2e2e1e1e1e1",
"b c #e3e3e2e2e2e2",
"n c #e4e4e3e3e3e3",
"m c #e5e5e4e4e3e3",
"M c #e7e7e7e7e7e7",
"N c #e9e9e8e8e8e8",
"B c #eaeae9e9e9e9",
"V c #eaeae9e9eaea",
"C c #ebebeaeaeaea",
"Z c #ececeaeaebeb",
"A c #ececebebebeb",
"S c #eeeeececeeee",
"D c #efefececeeee",
"F c #efefececefef",
"G c #f0f0ececf0f0",
"H c #f1f1ededf0f0",
"J c #f0f0eeeef0f0",
"K c #f2f2efeff2f2",
"L c #f3f3efeff2f2",
"P c #f3f3efeff3f3",
"I c #f4f4f0f0f4f4",
"U c #f5f5f1f1f5f5",
"Y c #f6f6f2f2f6f6",
/* pixels */
">>>>>>>>>>>>>>>>>>>>>>>>",
">>>>>>>>>>>>>>>>>>>>>>>>",
">>>>>>>>>>>>>>>>>>>>>>>>",
">>>>>>>>>>>>>>>>>>>>>>>>",
">>>>>>>>>>>>>>>>>>>>>>>>",
">>>>>>>>>>>  >>>>>>>>>>>",
">>>>>>>>>>>  >>>>>>>>>>>",
">>>>>>>>>>Olyo>>>>>>>>>>",
">>>>>>>>>> xw >>>>>>>>>>",
">>>>>>>>> cbp% >>>>>>>>>",
">>>>>>>>>XNVs8 >>>>>>>>>",
">>>>>>>> bSGaq@ >>>>>>>>",
">>>>>>>>.CJPit; >>>>>>>>",
">>>>>>> nDLYue,# >>>>>>>",
">>>>>>> ZHIY659: >>>>>>>",
">>>>>> vFKUI4371$ >>>>>>",
">>>>>> zmABM0r2<& >>>>>>",
">>>>> dfgkhj==-*#+ >>>>>",
">>>>>              >>>>>",
">>>>>>>>>>>>>>>>>>>>>>>>",
">>>>>>>>>>>>>>>>>>>>>>>>",
">>>>>>>>>>>>>>>>>>>>>>>>",
">>>>>>>>>>>>>>>>>>>>>>>>",
">>>>>>>>>>>>>>>>>>>>>>>>"
};
