/* XPM */
static char *install-pix[] = {
/* columns rows colors chars-per-pixel */
"40 40 257 2",
"   c #000000",
".  c #00000a",
"X  c #001e3d",
"o  c #18182e",
"O  c #062606",
"+  c #112d11",
"@  c gray23",
"#  c #003663",
"$  c #242440",
"%  c #005f00",
"&  c #1b491b",
"*  c #1f5726",
"=  c #066b05",
"-  c #0d730c",
";  c #11770d",
":  c #107b2c",
">  c #215721",
",  c #2d542b",
"<  c #385436",
"1  c #2f7c2f",
"2  c #2c762b",
"3  c #307d2f",
"4  c #317f30",
"5  c #014978",
"6  c #005576",
"7  c #0c7679",
"8  c #297d46",
"9  c #0c5350",
"0  c #555755",
"q  c #485247",
"w  c #587155",
"e  c #686968",
"r  c #747475",
"t  c #004e87",
"y  c #00518f",
"u  c #005797",
"i  c #005ebe",
"p  c #0b738f",
"a  c #0067a6",
"s  c #0565b7",
"d  c #0078b9",
"f  c #0d71a7",
"g  c #2678b2",
"h  c #005dc0",
"j  c #0063c4",
"k  c #006cc9",
"l  c #0566c3",
"z  c #0071cc",
"x  c #0573c9",
"c  c #0176d0",
"v  c #017bd3",
"b  c #0b7cd2",
"n  c #1878ca",
"m  c #137cd1",
"M  c #146ac6",
"N  c #267acc",
"B  c #3b7dd5",
"V  c #3f74f9",
"C  c #4b4b89",
"Z  c #53538e",
"A  c #5a5a92",
"S  c #5959a2",
"D  c #656598",
"F  c #7171a0",
"G  c #7a7ab4",
"H  c #497fef",
"J  c #0e8604",
"K  c #0c980b",
"L  c #138b00",
"P  c #198608",
"I  c #198911",
"U  c #139c03",
"Y  c #1f9722",
"T  c #0ea200",
"R  c #17a802",
"E  c #239f0f",
"W  c #2b961c",
"Q  c #258916",
"!  c #3a8838",
"~  c #349d2e",
"^  c #24a813",
"/  c #31bc0e",
"(  c #2cb110",
")  c #2da527",
"_  c #37ac37",
"`  c #3bb72a",
"'  c #3bb03a",
"]  c #3eab2c",
"[  c #178951",
"{  c #1e8868",
"}  c #238e53",
"|  c #33996b",
" . c #33a643",
".. c #438838",
"X. c #509f39",
"o. c #44ac31",
"O. c #46b736",
"+. c #4aa435",
"@. c #799d3d",
"#. c #599955",
"$. c #439a7a",
"%. c #49b548",
"&. c #4eba48",
"*. c #52bc47",
"=. c #5aad4f",
"-. c #4eac6f",
";. c #60815d",
":. c #6e9273",
">. c #63b655",
",. c #61be67",
"<. c #74ba72",
"1. c #78bd72",
"2. c #72ae6a",
"3. c #49c12a",
"4. c #4ec03a",
"5. c #5bd02e",
"6. c #64d538",
"7. c #67ce3b",
"8. c #4fd513",
"9. c #55c048",
"0. c #6bc757",
"q. c #71d051",
"w. c #6dc462",
"e. c #77c964",
"r. c #7ad364",
"t. c #77ca71",
"y. c #1d8282",
"u. c #3b8fa9",
"i. c #0186cc",
"p. c #0082d6",
"a. c #0289da",
"s. c #0591de",
"d. c #178ed8",
"f. c #0395e2",
"g. c #1198e2",
"h. c #00a5ed",
"j. c #18a8e8",
"k. c #1fb0ef",
"l. c #288bd7",
"z. c #318ad2",
"x. c #239be1",
"c. c #38b6ee",
"v. c #469296",
"b. c #5096b0",
"n. c #5aae86",
"m. c #7081bf",
"M. c #659dab",
"N. c #6fae91",
"B. c #6ea5a7",
"V. c #739587",
"C. c #468cd3",
"Z. c #4695d8",
"A. c #5996d6",
"S. c #579ad8",
"D. c #4b8eca",
"F. c #47bcf1",
"G. c #5abff0",
"H. c #4ab2e6",
"J. c #639ed1",
"K. c #6091eb",
"L. c #6aa1da",
"P. c #79a9de",
"I. c #73a8de",
"U. c #6cb4e6",
"Y. c #78c394",
"T. c #5bc4f2",
"R. c #73ccf4",
"E. c #70c5f0",
"W. c #98b556",
"Q. c #96ad49",
"!. c #98bd62",
"~. c #82b671",
"^. c #adbd4e",
"/. c #86d856",
"(. c #83d84b",
"). c #86c677",
"_. c #83d864",
"`. c #91d971",
"'. c #9ae677",
"]. c #b7cc73",
"[. c #b7e87f",
"{. c #d69c5b",
"}. c #c0b94b",
"|. c #d6ab65",
" X c #e89f60",
".X c #c7d37d",
"XX c #d6ea75",
"oX c #fed55b",
"OX c #f3da6b",
"+X c #e7e375",
"@X c #fee06a",
"#X c #fde675",
"$X c #848585",
"%X c #939893",
"&X c #8a9887",
"*X c #8a8abe",
"=X c #8585ba",
"-X c #9090bf",
";X c #86b886",
":X c #9fbf96",
">X c #93aa93",
",X c #8eafa1",
"<X c #a5aca5",
"1X c #b1bbb0",
"2X c #8e8ec0",
"3X c #9393c2",
"4X c #9a9ac4",
"5X c #8ab5e2",
"6X c #88b6e3",
"7X c #9abfe6",
"8X c #97bde5",
"9X c #aaaacb",
"0X c #87cc85",
"qX c #8bd286",
"wX c #92c888",
"eX c #9bca93",
"rX c #92d48d",
"tX c #95d889",
"yX c #90d198",
"uX c #9ae085",
"iX c #a2d699",
"pX c #b0d187",
"aX c #b8ccb2",
"sX c #a9e987",
"dX c #ade893",
"fX c #bbe289",
"gX c #b5ed9b",
"hX c #b4f28e",
"jX c #b3f093",
"kX c #beebb1",
"lX c #89d3f5",
"zX c #9dc1e7",
"xX c #92d1f2",
"cX c #a8caeb",
"vX c #a5d8f4",
"bX c #bbd4ee",
"nX c #b5d2ef",
"mX c #bcd9f1",
"MX c #b7e4f8",
"NX c #abe1f9",
"BX c #cae79d",
"VX c #cfec85",
"CX c #c0eead",
"ZX c #c6eeb8",
"AX c #cbeeae",
"SX c #e6e884",
"DX c #fdf184",
"FX c #fcfa92",
"GX c #c6dbf1",
"HX c #dbdbe0",
"JX c #c8e3f5",
"KX c #dbe8f6",
"LX c #d7e7f5",
"PX c #e1eef8",
"IX c #e6f0f9",
"UX c #fefefe",
"YX c None",
/* pixels */
"YXYXYXYXYXYXYXYXYXYXYXYXYXYXYXYXYXYXYXYXYXYXYXYXYXYXYXYXYXYXYXYXYXYXYXYXYXYXYXYX",
"YXYXYXYXYXYXYXYXYXYXYXh.k.F.lXNXNXMXMXNXlXR.c.k.h.YXYXYXYXYXYXYXYXYXYXYXYXYXYXYX",
"YXYXYXYXYXYXYXYXYXYXG.E.R.E.xXNXMXMXJXNXvXlXT.F.c.j.YXYXYXYXYXYXYXYXYXYXYXYXYXYX",
"YXYXYXYXYXYXYXYXYXYXG.lXMXKXPXPXIXIXIXIXPXKXKXvXT.j.YXYXYXYXYXYXYXYXYXYXYXYXYXYX",
"YXYXYXYXYXYXYXYXYXG.vXGXGXPXKXPXLXLXKXKXKXKXKXGXxXU.g.YXYXYXYXYXYXYXYXYXYXYXYXYX",
"YXYXYXYXYXYXYXf.f.lXnXGXGXGXGXGXPXIXIXKXJXGXGXGXbXlXH.i.i.YXYXYXYXYXYXYXYXYXYXYX",
"YXYXYXYXYXYXf.g.g.6XcXGXbXbXbXGXPXUXUXPXGXbXbXbXbXcXU.i.d a YXYXYXYXYXYXYXYXYXYX",
"YXYXYXYXYXYXa.g.x.6XcXcXcXcXcXbXPXUXUXKXGXcXcXcXcXcXE.s.d a . YXYXYXYXYXYXYXYXYX",
"YXYXYXYXYXYXs.s.x.U.7X7X8X8X7XcXGXUXUXGXcX7X7X7X8X8XU.x.i.a   YXYXYXYXYXYXYXYXYX",
"YXYXYXYXYXYXa.a.d.I.5X5X5X5X5X5X8XbXGXzX5X5X5X5X5X5XL.s.p.a X YXYXYXYXYXYXYXYXYX",
"YXYXYXYXYXb p.a.s.S.P.P.P.P.P.5XcXGXGXcX5XP.P.P.P.I.Z.a.p.a #   YXYXYXYXYXYXYXYX",
"*X*X*X*XJ.G p.p.v l.S.L.L.L.L.5XGXUXUXGX5XL.L.L.L.Z.l.i.v a 5 . YXYXYXYXYXYXYXYX",
"*X2X3X3X2XG z p.v p.l.A.A.A.A.5XGXUXUXGX5XA.A.A.Z.l.v v v s t . YXYXYXYXYXYXYXYX",
"*X4XHXHX4XF u v v v b m z.C.C.I.GXUXUXGXP.C.C.z.m v v v v a 6     YXYXYXYXYXYXYX",
"*X2X9XHX4XD u c c c c c m n N L.nXUXUXcXS.N m m c c z c z 7 : L L L L L L J J = ",
"*X*X2XHX4XD t k z z z z z z b Z.cXUXUXcXZ.b k z z z z z z { _ o.O.o.o.o.o.] R - ",
"YX*X3XHX-XD 5 d k k k k k k c z.cXUXUXcXz.c k k k k z k d | >._.q.r.r.q.r.r.` - ",
"YX*X3XHX4XD 9 7 l k k k k k k C.cXUXUXcXC.k k k k k k l f -.).`.q.q.0.0.t.iX9.; ",
"YX*X4XHX4XD * 8 s k j j l j l C.cXUXUXcXz.l j h l j j s { =.e.9./ ( ( ( 4.uX4.; ",
"YX*X-XHX-XD > ! b.M j h j j h N 5XUXUX5XB h h h j j l g :.;XwX~.=.( R R 3.qXO.J ",
"YX*X3XHX-XD > ! yXu.s j i h h M C.7X8XC.M i i i i i g M.,X%X$X:.w W ^ R ` qX4.; ",
"YX*X3XHX-XD > ! sXY.u.s i i h h h N N l i i i i s f v.;X%XV.r 0 q Q R T ` qX' ; ",
"YX*X3XHX-XD > ! sXhXyXu.s s h h i h h h i i i s p } +.=.~.r e q < I T T ` qXO.; ",
"YX*X3XHX-XA > ! sXhXdXrXN.7 s h h h h h i i 7 [ Q E ( W +.+.W Q I U T T ` qX .; ",
"YX*X3XHX3XA > ! '.hXhXsX`.&._ $.v.{ v.b.B.B.N.;X).wXtXtXiXeXeX:XwXwXt.w.t.qX' - ",
"YX*X3XHX2XA > ..]..XVXhXgX'.7.1.,X:.V.#.,.>.w.0.q.e.r.tXaX1X<X%X&X~.0XrXyXqX' - ",
"YX*X3XHX*XA > ..|.|..X'.dXZX_.`.<X%Xr =.4.O.3.3.3.3.4.,.<X$Xr e 0 #.).tXrX0X' - ",
"YX*X3XHX*XZ > ..{. X^.5.8.kX/.~.%Xe 0 ~.'.sXyXrXyXtXtXiX>X$Xe 0 q 2.Y.Y.0X0X_ - ",
"YX*X3XHX*XZ > ..{. X^.8.8.CX/.2.$X0 @ X.4.,.D.H Z.$.4.>.:.;.w < , ! ) ) %.qX_ - ",
"YX*X3XHX*XZ > ..].fXfX`.5.CXq._.aX:XX.( / _ z.V B | ( ^ ) W I L - K K K _ qX .- ",
"YX*X3XHX*XZ > ..iXsXgXdX7.CX7./.ZXAX9./ o.,.J.K.A.n.9.9.*.&.*.&.%.%.%.%.,.yX_ - ",
"YX*X-XHX=XZ > ..gXfXVXVX(.BX(.`.BXBX(.7./.eXN.B.N.N.1.<.<.<.<.<.<.<.<.<.1.1.) = ",
"YX*X3XHX=XC > ..SX+XOX+XXX@XXX+XOXOXXXXXXX^.1 1 1 4 1 4 4 1 1 1 1 1 1 1 2 = = % ",
"YX2X3XHX=XC > ..SX#XoX@XFXOXDX#XoXoX#XFXDX}.1 & + + + + + + + + + + + + + O O O ",
"YX*X3XHX=XC > ..SX@XoX@XFXoXDX#XoXoXDXFX#X}.2 +                                 ",
"YX2X2XHX=XC > ! W.W.Q.W.).Q.W.W.Q.Q.W.!.W.@.1 +   YXYXYXYXYXYXYXYXYXYXYXYXYXYXYX",
"YX*X2X9XG C & ! 3 2 2 3 2 2 2 2 2 2 2 2 2 2 2 +   YXYXYXYXYXYXYXYXYXYXYXYXYXYXYX",
"YX*X*XS A C                                       YXYXYXYXYXYXYXYXYXYXYXYXYXYXYX",
"YX*XF $ $ o                                       YXYXYXYXYXYXYXYXYXYXYXYXYXYXYX",
"YXYX    .     YXYXYXYXYXYXYXYXYXYXYXYXYXYXYXYXYXYXYXYXYXYXYXYXYXYXYXYXYXYXYXYXYX"
};
