/* XPM */
static char * pyvoice_talk_xpm[] = {
"23 23 228 2",
"  	c None",
". 	c #5F6562",
"+ 	c #748C92",
"@ 	c #74858B",
"# 	c #748C95",
"$ 	c #80A3B1",
"% 	c #8FB5C1",
"& 	c #8EB6C1",
"* 	c #7FA8B5",
"= 	c #76919A",
"- 	c #5E6461",
"; 	c #565756",
"> 	c #688492",
", 	c #85AFC1",
"' 	c #96B3BF",
") 	c #6A7478",
"! 	c #596164",
"~ 	c #788E98",
"{ 	c #8DB7CA",
"] 	c #6B8C9A",
"^ 	c #6892A8",
"/ 	c #96B6C5",
"( 	c #65696B",
"_ 	c #4C4C4C",
": 	c #373737",
"< 	c #2C2E2F",
"[ 	c #6A8592",
"} 	c #76A3BA",
"| 	c #578398",
"1 	c #7FB0C7",
"2 	c #6E7D84",
"3 	c #5C5C5C",
"4 	c #474847",
"5 	c #363636",
"6 	c #252525",
"7 	c #262D2F",
"8 	c #77A1B6",
"9 	c #427B95",
"0 	c #164B5F",
"a 	c #5C879D",
"b 	c #7DA4B7",
"c 	c #717373",
"d 	c #525252",
"e 	c #838383",
"f 	c #868686",
"g 	c #2F3030",
"h 	c #516C79",
"i 	c #75B7D5",
"j 	c #085B80",
"k 	c #114D67",
"l 	c #134558",
"m 	c #174657",
"n 	c #598EAC",
"o 	c #7D95A1",
"p 	c #717171",
"q 	c #656565",
"r 	c #AEAEAE",
"s 	c #EBEBEB",
"t 	c #EEEEEE",
"u 	c #A6A6A6",
"v 	c #394951",
"w 	c #7FB8D4",
"x 	c #45A8D6",
"y 	c #2777A3",
"z 	c #094869",
"A 	c #06415D",
"B 	c #538CAD",
"C 	c #83939A",
"D 	c #797979",
"E 	c #969696",
"F 	c #E8E8E8",
"G 	c #F2F2F2",
"H 	c #ECECEC",
"I 	c #D4D4D4",
"J 	c #5C6265",
"K 	c #6DA3BE",
"L 	c #83D0F7",
"M 	c #83D5FD",
"N 	c #42B2E0",
"O 	c #208DB8",
"P 	c #1B6281",
"Q 	c #486F85",
"R 	c #538AAB",
"S 	c #838E94",
"T 	c #7E7E7E",
"U 	c #B4B4B4",
"V 	c #EAEAEA",
"W 	c #E5E5E5",
"X 	c #D8D8D8",
"Y 	c #7C7D7D",
"Z 	c #679BB4",
"` 	c #7CCCF2",
" .	c #83D3F9",
"..	c #7BD0FA",
"+.	c #77CAF1",
"@.	c #4C94B3",
"#.	c #426C84",
"$.	c #5589A8",
"%.	c #8B9296",
"&.	c #8A8A8A",
"*.	c #C2C2C2",
"=.	c #DCDCDC",
"-.	c #DEDEDE",
";.	c #CFCFCF",
">.	c #8C8C8C",
",.	c #57869C",
"'.	c #66BBE2",
").	c #61BBE2",
"!.	c #63BCE3",
"~.	c #6ABFE5",
"{.	c #3480AA",
"].	c #336780",
"^.	c #5890B0",
"/.	c #90979B",
"(.	c #8E8E8E",
"_.	c #BABABA",
":.	c #CECECE",
"<.	c #CDCDCD",
"[.	c #C6C6C6",
"}.	c #BEBEBE",
"|.	c #898989",
"1.	c #54859D",
"2.	c #51AED4",
"3.	c #43A6CB",
"4.	c #3DA2C7",
"5.	c #186186",
"6.	c #30647D",
"7.	c #4880A2",
"8.	c #959EA1",
"9.	c #959595",
"0.	c #AAAAAA",
"a.	c #B7B7B7",
"b.	c #B5B5B5",
"c.	c #ACACAC",
"d.	c #858585",
"e.	c #538AA2",
"f.	c #3BA2C8",
"g.	c #2393B5",
"h.	c #1F91B2",
"i.	c #0A86A6",
"j.	c #044966",
"k.	c #2F637C",
"l.	c #3B7CA1",
"m.	c #92A3AA",
"n.	c #9B9B9B",
"o.	c #9D9D9D",
"p.	c #A1A1A1",
"q.	c #A3A3A3",
"r.	c #9F9F9F",
"s.	c #777979",
"t.	c #4796B8",
"u.	c #2293B6",
"v.	c #017F9E",
"w.	c #007894",
"x.	c #00637B",
"y.	c #02394B",
"z.	c #297099",
"A.	c #8EA8B2",
"B.	c #A0A0A0",
"C.	c #989898",
"D.	c #848484",
"E.	c #6F797D",
"F.	c #3E98BD",
"G.	c #1284A6",
"H.	c #00728D",
"I.	c #006279",
"J.	c #00475A",
"K.	c #093340",
"L.	c #0F628A",
"M.	c #76A1B3",
"N.	c #AAABAB",
"O.	c #828282",
"P.	c #626262",
"Q.	c #575757",
"R.	c #646565",
"S.	c #608897",
"T.	c #2298C3",
"U.	c #04647E",
"V.	c #023B4D",
"W.	c #042631",
"X.	c #05232E",
"Y.	c #606462",
"Z.	c #09597B",
"`.	c #3D8DAF",
" +	c #B0B5B6",
".+	c #AFAFAF",
"++	c #7D7D7D",
"@+	c #6D6D6D",
"#+	c #888B8C",
"$+	c #4792AB",
"%+	c #027FA9",
"&+	c #053443",
"*+	c #10303D",
"=+	c #13313B",
"-+	c #17323B",
";+	c #606562",
">+	c #074D6F",
",+	c #0A6F9A",
"'+	c #9DB6BF",
")+	c #B2B2B2",
"!+	c #A9A9A9",
"~+	c #A5A5A5",
"{+	c #8D9FA6",
"]+	c #1C86AE",
"^+	c #034D69",
"/+	c #054E74",
"(+	c #3593B6",
"_+	c #B0BFC3",
":+	c #B9B9B9",
"<+	c #AEB3B5",
"[+	c #4B95AF",
"}+	c #045B82",
"|+	c #12506B",
"1+	c #095D85",
"2+	c #489AB9",
"3+	c #97B9C5",
"4+	c #99B6BF",
"5+	c #589CB6",
"6+	c #09648E",
"7+	c #0B4D6A",
"8+	c #14516C",
"9+	c #064A70",
"0+	c #125B83",
"a+	c #125F87",
"b+	c #074D74",
"c+	c #0F506D",
"d+	c #0D5069",
"e+	c #0B4C66",
"                                              ",
"      . .               + + @                 ",
"    . .             # $ % & * =               ",
"  . . .       - ; > , ' ) ! ~ { ]             ",
"  . .       . -   ^ / ( _ : < [ }             ",
"  . .     . .   | 1 2 3 4 5 6 7 8 9 0         ",
"  .       .     a b c 3 d e f g h i j k l m   ",
"  .     . .     n o p q r s t u v w x y z A   ",
". .     . .     B C D E F G H I J K L M N O P ",
". .     . .   Q R S T U s V W X Y Z `  ...+.@.",
". .     . .   #.$.%.&.*.=.-.X ;.>.,.'.).!.~.{.",
". .     . .   ].^./.(._.:.<.[.}.|.1.2.3.3.4.5.",
". .     . .   6.7.8.9.0.a.a.b.c.d.e.f.g.h.i.j.",
". .     . .   k.l.m.n.o.p.q.r.9.s.t.u.v.w.x.y.",
". .     . .     z.A.B.C.(.&.D.D E.F.G.H.I.J.K.",
"  .     . .     L.M.N.q.O.P.Q.R.S.T.U.V.W.X.  ",
"  .       . Y.  Z.`. +.+q.++@+#+$+%+&+*+=+-+  ",
"  . .     . ;+  >+,+'+_.)+!+~+{+]+^+          ",
"  . .       . .   /+(+_+}.:+<+[+}+            ",
"    . .           |+1+2+3+4+5+6+7+            ",
"    . .             8+9+0+a+b+c+              ",
"      . .               d+e+                  ",
"                                              "};
