/* XPM */
static char * pyvoice_info_xpm[] = {
"22 22 251 2",
"  	c None",
". 	c #D2D3D3",
"+ 	c #B4B5B5",
"@ 	c #CBCCCD",
"# 	c #CED0D4",
"$ 	c #C8C9CD",
"% 	c #C7C9CD",
"& 	c #C8CACE",
"* 	c #CBCCCF",
"= 	c #D2D2D2",
"- 	c #D8D8D8",
"; 	c #D7D7D7",
"> 	c #D5D5D5",
", 	c #DADADA",
"' 	c #D9D9D9",
") 	c #D7D9DD",
"! 	c #C4C5C6",
"~ 	c #666D7A",
"{ 	c #6D788F",
"] 	c #616F8C",
"^ 	c #5F6F8F",
"/ 	c #7082A1",
"( 	c #7A8BA8",
"_ 	c #7E8BA4",
": 	c #7E889A",
"< 	c #9096A1",
"[ 	c #B8B9BB",
"} 	c #C7C7C7",
"| 	c #CBCBCC",
"1 	c #D4D4D4",
"2 	c #DBDBDB",
"3 	c #E1E1E1",
"4 	c #C4C5C7",
"5 	c #47546F",
"6 	c #576277",
"7 	c #535F77",
"8 	c #485876",
"9 	c #526B96",
"0 	c #7F99C4",
"a 	c #92A7CA",
"b 	c #97A7C2",
"c 	c #8491A8",
"d 	c #7C8392",
"e 	c #A9ABAF",
"f 	c #C9C9CA",
"g 	c #D7D7D8",
"h 	c #F2F2F2",
"i 	c #BCBDC0",
"j 	c #535E6F",
"k 	c #808285",
"l 	c #898D93",
"m 	c #898B90",
"n 	c #69768A",
"o 	c #99ADCB",
"p 	c #C5D5ED",
"q 	c #DCE5F4",
"r 	c #D7DDE6",
"s 	c #979CA8",
"t 	c #7B828F",
"u 	c #C4C4C5",
"v 	c #D6D6D6",
"w 	c #CECECE",
"x 	c #CBCBCB",
"y 	c #C8C9CA",
"z 	c #888C93",
"A 	c #4E5864",
"B 	c #68707E",
"C 	c #526281",
"D 	c #A8ABB0",
"E 	c #9098A6",
"F 	c #9AA8C1",
"G 	c #D6E0EF",
"H 	c #EEF2F8",
"I 	c #EBF0F6",
"J 	c #B8C2D1",
"K 	c #6E798C",
"L 	c #B1B3B6",
"M 	c #E0E0E0",
"N 	c #B9B9BA",
"O 	c #909090",
"P 	c #656D7C",
"Q 	c #4B6BA0",
"R 	c #5B82BC",
"S 	c #516EA1",
"T 	c #6A80A9",
"U 	c #6F86AC",
"V 	c #727C8D",
"W 	c #8E959F",
"X 	c #9EA8BB",
"Y 	c #E5EAF1",
"Z 	c #ECF1F7",
"` 	c #D7E1F0",
" .	c #A5B7D3",
"..	c #5F6E8A",
"+.	c #9B9DA2",
"@.	c #DEDEDF",
"#.	c #CCCDCE",
"$.	c #B2B2B4",
"%.	c #8A909B",
"&.	c #536F9C",
"*.	c #7094CC",
"=.	c #90AFDF",
"-.	c #9CB6DC",
";.	c #788BAB",
">.	c #68707F",
",.	c #7B828E",
"'.	c #B3BDCF",
").	c #EAEFF7",
"!.	c #D8E1F0",
"~.	c #B8C9E2",
"{.	c #8398B4",
"].	c #536071",
"^.	c #9E9FA1",
"/.	c #CFCFCF",
"(.	c #C2C2C2",
"_.	c #798699",
":.	c #677FA8",
"<.	c #7C96BD",
"[.	c #7F91B0",
"}.	c #5B677B",
"|.	c #777B83",
"1.	c #8B939F",
"2.	c #CFD4DA",
"3.	c #D6DEEA",
"4.	c #A1B2CA",
"5.	c #7C8DA5",
"6.	c #5C697D",
"7.	c #787C82",
"8.	c #BABABA",
"9.	c #E0E1E1",
"0.	c #DDDDDD",
"a.	c #BBBCBC",
"b.	c #7D8390",
"c.	c #5A657A",
"d.	c #676D7A",
"e.	c #7B7C7F",
"f.	c #7B818D",
"g.	c #A0ACC1",
"h.	c #AEB9C9",
"i.	c #8895A7",
"j.	c #5D697B",
"k.	c #61666D",
"l.	c #7F8286",
"m.	c #A9A9A9",
"n.	c #C9CACA",
"o.	c #E2E2E2",
"p.	c #DDDDDE",
"q.	c #C5C5C6",
"r.	c #C3C3C4",
"s.	c #C1C1C1",
"t.	c #B0B0B0",
"u.	c #969697",
"v.	c #8B8C8D",
"w.	c #848588",
"x.	c #777F8C",
"y.	c #7F899A",
"z.	c #707883",
"A.	c #6D7279",
"B.	c #7E7F81",
"C.	c #949494",
"D.	c #A3A3A4",
"E.	c #B4B4B5",
"F.	c #D1D1D1",
"G.	c #E4E4E4",
"H.	c #E3E3E3",
"I.	c #D3D4D5",
"J.	c #8B9098",
"K.	c #6E737C",
"L.	c #88898A",
"M.	c #9C9D9F",
"N.	c #B2B2B2",
"O.	c #CACACA",
"P.	c #DCDDDD",
"Q.	c #E7E7E7",
"R.	c #F0F0F0",
"S.	c #ECECEC",
"T.	c #D1D2D2",
"U.	c #C7C9CC",
"V.	c #818895",
"W.	c #5A6579",
"X.	c #525B6D",
"Y.	c #63676F",
"Z.	c #9A9A9D",
"`.	c #EDEEEE",
" +	c #F9F9F9",
".+	c #FBFBFB",
"++	c #E9E9E9",
"@+	c #D4D4D5",
"#+	c #CCCCCD",
"$+	c #C5C6C8",
"%+	c #788496",
"&+	c #899BB6",
"*+	c #97AED1",
"=+	c #88A2C9",
"-+	c #556D93",
";+	c #586372",
">+	c #BCBCBD",
",+	c #D3D4D4",
"'+	c #E9EAEA",
")+	c #C2C4C7",
"!+	c #7085A2",
"~+	c #A2BADC",
"{+	c #89A8D3",
"]+	c #7496C9",
"^+	c #5C85BF",
"/+	c #2D476B",
"(+	c #9C9EA1",
"_+	c #E5E5E5",
":+	c #EAEAEA",
"<+	c #EFEFEF",
"[+	c #D8D9D9",
"}+	c #C0C1C3",
"|+	c #667A95",
"1+	c #85A3CE",
"2+	c #7096CA",
"3+	c #5884C1",
"4+	c #406FB1",
"5+	c #2E4667",
"6+	c #999B9E",
"7+	c #DEDEDE",
"8+	c #EBEBEB",
"9+	c #E4E4E5",
"0+	c #E1E2E2",
"a+	c #838E9C",
"b+	c #5F7A9E",
"c+	c #5374A4",
"d+	c #41689D",
"e+	c #355582",
"f+	c #535D6B",
"g+	c #9EA0A1",
"h+	c #F7F7F7",
"i+	c #F4F4F4",
"j+	c #EEEFEF",
"k+	c #FAFAFA",
"l+	c #CCCED0",
"m+	c #7E8690",
"n+	c #646F7F",
"o+	c #5D6A7B",
"p+	c #656D76",
"q+	c #898A8B",
"r+	c #BDBEBE",
"s+	c #F6F7F7",
"t+	c #F3F3F3",
"u+	c #ECEDED",
"v+	c #EDEDED",
"w+	c #EEEEEE",
"x+	c #DFDFDF",
"y+	c #B8B9B9",
"z+	c #9F9FA0",
"A+	c #9B9B9C",
"B+	c #B1B1B1",
"                                            ",
"                                            ",
"            . + @ # $ % & * = - ; > , '     ",
"          ) ! ~ { ] ^ / ( _ : < [ } | 1     ",
"        2 3 4 5 6 7 8 9 0 a b c d e f g     ",
"      2 3 h i j k l m n o p q r s t u ,     ",
"    v w x y z A B C D E F G H I J K L M     ",
"    N O P Q R S T U V W X Y Z `  ...+.@.    ",
"    #.$.%.&.*.=.-.;.>.,.'.).!.~.{.].^.,     ",
"    - /.(._.:.<.[.}.|.1.2.3.4.5.6.7.8.9.    ",
"    0.w | a.b.c.d.e.f.g.h.i.j.k.l.m.n.o.    ",
"    p.q.r.s.t.u.v.w.x.y.z.A.B.C.D.E.F.G.    ",
"    H.> ' 0.2 1 I.y J.K.L.M.N.O.P.Q.R.S.    ",
"    o.= T.2 ' 0.U.V.W.X.Y.Z.w `. +.+.+R.    ",
"    ++Q.Q.@+#+$+%+&+*+=+-+;+>+,+v I.p.++    ",
"    '+' - 2 2 )+!+~+{+]+^+/+(+2 2 0._+:+    ",
"    <+M g [+' }+|+1+2+3+4+5+6+> 7+S.h 8+    ",
"    R.9+@.0+H.P.a+b+c+d+e+f+g+; :+h+i+j+    ",
"    h+ + +k+.+ +l+m+n+o+p+q+r+s+.+t+u+v+    ",
"    R.R.w+<+R.<+x+y+z+A+z+B+1 R.<+8+:+G.    ",
"                                            ",
"                                            "};
