/* XPM */
static char * pyvoice_ignore_xpm[] = {
"22 22 234 2",
"  	c None",
". 	c #6C6C6C",
"+ 	c #717171",
"@ 	c #696969",
"# 	c #636263",
"$ 	c #5B5B5B",
"% 	c #595959",
"& 	c #505050",
"* 	c #454446",
"= 	c #333233",
"- 	c #101010",
"; 	c #B7B7B7",
"> 	c #ECECEC",
", 	c #F0F0F0",
"' 	c #E8E8E8",
") 	c #BEBEBE",
"! 	c #414141",
"~ 	c #4A4A4A",
"{ 	c #BCBCBC",
"] 	c #FAFAFA",
"^ 	c #FEFEFE",
"/ 	c #FDFDFD",
"( 	c #DCDCDC",
"_ 	c #6B6B6B",
": 	c #989898",
"< 	c #555355",
"[ 	c #BCBBBD",
"} 	c #FCFAFD",
"| 	c #E4E4E4",
"1 	c #888888",
"2 	c #E7E7E7",
"3 	c #A1A1A1",
"4 	c #5D5D5D",
"5 	c #B8B7B9",
"6 	c #FBFAFB",
"7 	c #909090",
"8 	c #EAEAEA",
"9 	c #E3E3E3",
"0 	c #9C9C9C",
"a 	c #565656",
"b 	c #EBEBEB",
"c 	c #929292",
"d 	c #A6A6A7",
"e 	c #AAA9AA",
"f 	c #89898A",
"g 	c #484748",
"h 	c #1C1C1C",
"i 	c #F7F7F7",
"j 	c #D0D0D0",
"k 	c #BBB9BB",
"l 	c #A9A5AA",
"m 	c #8C878E",
"n 	c #6B676F",
"o 	c #2F2E30",
"p 	c #B5B4B6",
"q 	c #FBFAFC",
"r 	c #F8F7F9",
"s 	c #EDE9EF",
"t 	c #D5CEDA",
"u 	c #B6AEBD",
"v 	c #535055",
"w 	c #B3B3B3",
"x 	c #F2F0FC",
"y 	c #EBE9FB",
"z 	c #FAF9FD",
"A 	c #FCFCFD",
"B 	c #F1EDFC",
"C 	c #DFD9FA",
"D 	c #DED5F2",
"E 	c #D5CBDF",
"F 	c #635D67",
"G 	c #B2B2B2",
"H 	c #C1BEEE",
"I 	c #7D75EB",
"J 	c #CCC8F8",
"K 	c #FBFAFE",
"L 	c #FDFDFE",
"M 	c #EBE7FB",
"N 	c #A59BFB",
"O 	c #695FEC",
"P 	c #A397E6",
"Q 	c #E0D3EB",
"R 	c #69646F",
"S 	c #E2DCEB",
"T 	c #6960BF",
"U 	c #584DEA",
"V 	c #BEB9FD",
"W 	c #FAFAFE",
"X 	c #FEFDFE",
"Y 	c #F0ECFC",
"Z 	c #A6A0FD",
"` 	c #493DEF",
" .	c #4338C9",
"..	c #ADA3D7",
"+.	c #DED1EA",
"@.	c #67606E",
"#.	c #B1B1B1",
"$.	c #F4F4F4",
"%.	c #6C66BE",
"&.	c #3B2EE0",
"*.	c #A49DFA",
"=.	c #E6E1FB",
"-.	c #9D93FB",
";.	c #493CED",
">.	c #483CC6",
",.	c #B3A9D4",
"'.	c #E3D5F2",
").	c #D6C4E8",
"!.	c #645B6D",
"~.	c #AEAEAE",
"{.	c #DEDDE9",
"].	c #6D66C4",
"^.	c #3326DF",
"/.	c #655AFC",
"(.	c #2F20EE",
"_.	c #3E32C9",
":.	c #AEA4D1",
"<.	c #E2D6F0",
"[.	c #E0D0F1",
"}.	c #D3C0E8",
"|.	c #63596C",
"1.	c #ADADAD",
"2.	c #F8F7F8",
"3.	c #D8D6E8",
"4.	c #4E45C2",
"5.	c #1302F6",
"6.	c #2214D4",
"7.	c #9388D4",
"8.	c #E2D2F1",
"9.	c #E1D2F1",
"0.	c #DBC7F0",
"a.	c #D0BCE6",
"b.	c #62586C",
"c.	c #A9A9A9",
"d.	c #FDFCFD",
"e.	c #F5F3FC",
"f.	c #C7C2FA",
"g.	c #5A4FED",
"h.	c #2F21D8",
"i.	c #2A1CDF",
"j.	c #796BF6",
"k.	c #CBBAF3",
"l.	c #DAC8F1",
"m.	c #D9C4EE",
"n.	c #CBB3E2",
"o.	c #60546B",
"p.	c #F8F8F9",
"q.	c #FBFAFD",
"r.	c #F9F6FC",
"s.	c #C9C4FB",
"t.	c #6258EB",
"u.	c #4338C7",
"v.	c #988DC6",
"w.	c #655AC6",
"x.	c #3E30DB",
"y.	c #8172F9",
"z.	c #BAA8F3",
"A.	c #D1BAED",
"B.	c #C9AFE2",
"C.	c #5E526A",
"D.	c #A7A7A7",
"E.	c #F6F4F8",
"F.	c #F5F0FA",
"G.	c #DBD6FB",
"H.	c #6C62EA",
"I.	c #5046C8",
"J.	c #A59BD2",
"K.	c #DFD0EE",
"L.	c #BFAFDF",
"M.	c #6B5CC7",
"N.	c #3F32DD",
"O.	c #7769F5",
"P.	c #B9A3F0",
"Q.	c #C6A8E1",
"R.	c #5C4C6A",
"S.	c #A4A3A4",
"T.	c #F2EEF6",
"U.	c #DCD5FA",
"V.	c #8279EA",
"W.	c #5A50C9",
"X.	c #AB9FD4",
"Y.	c #DDD1EB",
"Z.	c #DFCDF1",
"`.	c #DCC8F0",
" +	c #BEAADF",
".+	c #6252C3",
"++	c #493CDC",
"@+	c #9B85EE",
"#+	c #C2A2E0",
"$+	c #5A4A69",
"%+	c #A3A2A4",
"&+	c #EEE8F4",
"*+	c #D7CDF8",
"=+	c #9A8DE4",
"-+	c #B0A1DA",
";+	c #DBCCEC",
">+	c #DECEF0",
",+	c #DAC6EF",
"'+	c #D6C0EC",
")+	c #D1B9E9",
"!+	c #B198DB",
"~+	c #8D76D8",
"{+	c #AD91E7",
"]+	c #BF9DDD",
"^+	c #5A4968",
"/+	c #9F9CA2",
"(+	c #E4DBEE",
"_+	c #DFD3F0",
":+	c #D4C5EA",
"<+	c #D8C7E9",
"[+	c #DAC6ED",
"}+	c #D6BFEC",
"|+	c #D4BDEB",
"1+	c #CDB5E5",
"2+	c #CAAEE5",
"3+	c #C4A4E3",
"4+	c #BC9ADF",
"5+	c #BE9CE0",
"6+	c #B996D9",
"7+	c #584767",
"8+	c #59565C",
"9+	c #79727F",
"0+	c #78707E",
"a+	c #766D7E",
"b+	c #73677D",
"c+	c #72657D",
"d+	c #70627C",
"e+	c #6D5E7B",
"f+	c #6C5C7A",
"g+	c #695879",
"h+	c #675478",
"i+	c #655178",
"j+	c #645076",
"k+	c #30263A",
"        . + @ # $ % & * = -                 ",
"        ; > , , , , , ' ) ! ~               ",
"        { ] ^ ^ ^ ^ ^ / ( _ : <             ",
"        [ } ^ ^ ^ ^ ^ ^ | 1 2 3 4           ",
"        5 6 ^ ^ ^ ^ ^ ^ 2 7 8 9 0 a         ",
"        ; ] ^ ^ ^ ^ ^ ^ b c d e f g h       ",
"        ; ] ^ ^ ^ ^ ^ ^ i j k l m n o       ",
"        p q ^ ^ ^ ^ ^ ^ ^ / r s t u v       ",
"        w ] x y z ^ ^ ^ ^ A B C D E F       ",
"        G ] H I J K ^ ^ L M N O P Q R       ",
"        G ] S T U V W X Y Z `  ...+.@.      ",
"        #.^ ^ $.%.&.*.=.-.;.>.,.'.).!.      ",
"        ~.] ^ ^ {.].^./.(._.:.<.[.}.|.      ",
"        1.] ^ ^ 2.3.4.5.6.7.8.9.0.a.b.      ",
"        c.] ^ d.e.f.g.h.i.j.k.l.m.n.o.      ",
"        c.p.q.r.s.t.u.v.w.x.y.z.A.B.C.      ",
"        D.E.F.G.H.I.J.K.L.M.N.O.P.Q.R.      ",
"        S.T.U.V.W.X.Y.Z.`. +.+++@+#+$+      ",
"        %+&+*+=+-+;+>+,+'+)+!+~+{+]+^+      ",
"        /+(+_+:+<+[+}+|+1+2+3+4+5+6+7+      ",
"        8+9+9+0+a+b+c+d+e+f+g+h+i+j+k+      ",
"                                            "};
