/* XPM */
static char * pyvoice_head_xpm[] = {
"180 28 473 2",
"  	c None",
". 	c #343029",
"+ 	c #454443",
"@ 	c #606061",
"# 	c #494949",
"$ 	c #333333",
"% 	c #39332A",
"& 	c #595958",
"* 	c #828282",
"= 	c #919191",
"- 	c #818181",
"; 	c #5F5F5E",
"> 	c #3F3F3E",
", 	c #B28C31",
"' 	c #D4B243",
") 	c #D5B243",
"! 	c #A7832A",
"~ 	c #332F28",
"{ 	c #4B4C4C",
"] 	c #6D706E",
"^ 	c #8D8D8D",
"/ 	c #9A9A9B",
"( 	c #797B79",
"_ 	c #5E5F5E",
": 	c #515151",
"< 	c #303030",
"[ 	c #B38728",
"} 	c #E5BF2E",
"| 	c #F7DD52",
"1 	c #F8EB80",
"2 	c #F8EA7F",
"3 	c #F0D345",
"4 	c #CC9F22",
"5 	c #2A2524",
"6 	c #4A322A",
"7 	c #4F3731",
"8 	c #4B4A49",
"9 	c #76787A",
"0 	c #767877",
"a 	c #5C5D5B",
"b 	c #4A4A4A",
"c 	c #363636",
"d 	c #282828",
"e 	c #3D76CD",
"f 	c #A27329",
"g 	c #F1B52D",
"h 	c #FFDE38",
"i 	c #FEE769",
"j 	c #FEEF85",
"k 	c #FEEA68",
"l 	c #FEDF39",
"m 	c #FAD022",
"n 	c #C99226",
"o 	c #5D4023",
"p 	c #B76A33",
"q 	c #DD7737",
"r 	c #D66B34",
"s 	c #B3522B",
"t 	c #723D28",
"u 	c #51392F",
"v 	c #463935",
"w 	c #383634",
"x 	c #2E2E2E",
"y 	c #202020",
"z 	c #3A6EBF",
"A 	c #3965AA",
"B 	c #396BB7",
"C 	c #3A6DBD",
"D 	c #3862A5",
"E 	c #3B6FC1",
"F 	c #396AB5",
"G 	c #DA9C2F",
"H 	c #FDD035",
"I 	c #F6E478",
"J 	c #F3EECF",
"K 	c #FAF5D3",
"L 	c #FEF397",
"M 	c #FFDD38",
"N 	c #FEC72B",
"O 	c #F3AC36",
"P 	c #AC7928",
"Q 	c #BE6D2B",
"R 	c #FCA546",
"S 	c #FEAB49",
"T 	c #FEAD4B",
"U 	c #FBA447",
"V 	c #F4923F",
"W 	c #E28139",
"X 	c #C56D33",
"Y 	c #93562D",
"Z 	c #332922",
"` 	c #1D1D1C",
" .	c #324F7B",
"..	c #3C73C8",
"+.	c #292929",
"@.	c #365B97",
"#.	c #3C73C9",
"$.	c #335183",
"%.	c #2E3E57",
"&.	c #2A313B",
"*.	c #304362",
"=.	c #365D9B",
"-.	c #F3B62C",
";.	c #ECB533",
">.	c #E0A23E",
",.	c #DA9F44",
"'.	c #DEAD55",
").	c #E9C75C",
"!.	c #FADC40",
"~.	c #FCCC29",
"{.	c #FCB73E",
"].	c #D59E3B",
"^.	c #C8712E",
"/.	c #EF9441",
"(.	c #F59A42",
"_.	c #F8A043",
":.	c #FAA143",
"<.	c #F9A043",
"[.	c #F69B42",
"}.	c #EF933F",
"|.	c #E88B3D",
"1.	c #AF6531",
"2.	c #3D2A1F",
"3.	c #3B6EC0",
"4.	c #3A6CBB",
"5.	c #2E3C52",
"6.	c #314970",
"7.	c #345489",
"8.	c #3C74CB",
"9.	c #375E9D",
"0.	c #2C3644",
"a.	c #F6B844",
"b.	c #FBB956",
"c.	c #FEBD5A",
"d.	c #FEBF5C",
"e.	c #FABA57",
"f.	c #F3B753",
"g.	c #F3B94E",
"h.	c #F8BE4E",
"i.	c #FEC35F",
"j.	c #E8AF4E",
"k.	c #BE642A",
"l.	c #E4853B",
"m.	c #E78A3C",
"n.	c #EC8F3E",
"o.	c #EC903E",
"p.	c #E3843A",
"q.	c #DD7D39",
"r.	c #CE6D33",
"s.	c #783C23",
"t.	c #3B70C2",
"u.	c #345488",
"v.	c #2F415E",
"w.	c #2A3039",
"x.	c #304568",
"y.	c #3B71C4",
"z.	c #FBB851",
"A.	c #FFC260",
"B.	c #FFC563",
"C.	c #FFC866",
"D.	c #FFCB69",
"E.	c #FFCC6B",
"F.	c #FECC6B",
"G.	c #FFC968",
"H.	c #FEC665",
"I.	c #F2B751",
"J.	c #AB5226",
"K.	c #D67537",
"L.	c #DA7938",
"M.	c #DF7F39",
"N.	c #DE7E39",
"O.	c #DA7A38",
"P.	c #D16F35",
"Q.	c #BA5C2C",
"R.	c #7A3D23",
"S.	c #3A6BB9",
"T.	c #3C72C6",
"U.	c #2D394B",
"V.	c #F8B249",
"W.	c #FFBC5A",
"X.	c #FFC05D",
"Y.	c #FFC361",
"Z.	c #FFC462",
"`.	c #FEC15E",
" +	c #F3B44D",
".+	c #934525",
"++	c #C2622F",
"@+	c #CC6B33",
"#+	c #CF6D34",
"$+	c #D06E34",
"%+	c #CD6B34",
"&+	c #C96732",
"*+	c #C36130",
"=+	c #A24724",
"-+	c #2F425E",
";+	c #34558B",
">+	c #3760A2",
",+	c #335181",
"'+	c #355992",
")+	c #3864A9",
"!+	c #ECA541",
"~+	c #FFB652",
"{+	c #FFB956",
"]+	c #FFBC59",
"^+	c #FFBE5B",
"/+	c #FFBD5A",
"(+	c #FEBA58",
"_+	c #ECA743",
":+	c #AB4A29",
"<+	c #BD5A2F",
"[+	c #C05D2F",
"}+	c #C15E30",
"|+	c #BE5B2F",
"1+	c #BA572E",
"2+	c #AE4B29",
"3+	c #81331E",
"4+	c #3969B3",
"5+	c #30486D",
"6+	c #304567",
"7+	c #B87C2E",
"8+	c #FCAE4B",
"9+	c #FFB350",
"0+	c #FFB551",
"a+	c #FFB753",
"b+	c #FFB754",
"c+	c #FEB451",
"d+	c #D8963A",
"e+	c #80301F",
"f+	c #A84629",
"g+	c #B14F2B",
"h+	c #B14E2A",
"i+	c #B04D2A",
"j+	c #B04D2B",
"k+	c #A74528",
"l+	c #893124",
"m+	c #3B70C3",
"n+	c #3967B0",
"o+	c #2B323D",
"p+	c #E99D3A",
"q+	c #FEAC49",
"r+	c #FFAE4B",
"s+	c #FFB04D",
"t+	c #FFAE4C",
"u+	c #F9A946",
"v+	c #B87E2E",
"w+	c #9C6B27",
"x+	c #B06B26",
"y+	c #8D3729",
"z+	c #993824",
"A+	c #A03F28",
"B+	c #9F3E27",
"C+	c #983825",
"D+	c #893021",
"E+	c #7F5038",
"F+	c #375FA0",
"G+	c #B8812B",
"H+	c #EE9E3B",
"I+	c #F7A542",
"J+	c #F9A643",
"K+	c #FBA643",
"L+	c #FAA643",
"M+	c #F8A643",
"N+	c #DA9134",
"O+	c #88643A",
"P+	c #915923",
"Q+	c #D58432",
"R+	c #F3A642",
"S+	c #E1A445",
"T+	c #B9AC9D",
"U+	c #A37482",
"V+	c #955559",
"W+	c #925456",
"X+	c #9C6F76",
"Y+	c #AC7A3D",
"Z+	c #C5812D",
"`+	c #8A5D22",
" @	c #B38629",
".@	c #D99230",
"+@	c #E49A37",
"@@	c #E69B38",
"#@	c #E49A36",
"$@	c #D79332",
"%@	c #797F2A",
"&@	c #567934",
"*@	c #A9782B",
"=@	c #F0923F",
"-@	c #FDAA49",
";@	c #E4A344",
">@	c #E1DECC",
",@	c #EEF6F8",
"'@	c #E8EEF0",
")@	c #E0EAEB",
"!@	c #CBBE99",
"~@	c #E49B39",
"{@	c #F69C42",
"]@	c #CC722D",
"^@	c #8B511F",
"/@	c #429341",
"(@	c #488D3A",
"_@	c #A8A266",
":@	c #C39749",
"<@	c #C29039",
"[@	c #C29E56",
"}@	c #B9B79B",
"|@	c #53A656",
"1@	c #7BD27D",
"2@	c #56A84C",
"3@	c #818930",
"4@	c #EB9E41",
"5@	c #E69D39",
"6@	c #E5D8B8",
"7@	c #FDFEFE",
"8@	c #FDFDFC",
"9@	c #E1D6B7",
"0@	c #DA9D41",
"a@	c #FEA847",
"b@	c #F3923F",
"c@	c #E67838",
"d@	c #C06129",
"e@	c #314C75",
"f@	c #2D3A4F",
"g@	c #3966AC",
"h@	c #3F9D3F",
"i@	c #71CF70",
"j@	c #6CC56D",
"k@	c #72B580",
"l@	c #D9E6DE",
"m@	c #DFE9E1",
"n@	c #E3ECEC",
"o@	c #DFF0F7",
"p@	c #5EAD63",
"q@	c #9CE79D",
"r@	c #83DC83",
"s@	c #56BA54",
"t@	c #888D31",
"u@	c #EC9A3A",
"v@	c #D5C292",
"w@	c #F6FFFF",
"x@	c #F0F5ED",
"y@	c #D0A150",
"z@	c #F6A241",
"A@	c #F69540",
"B@	c #EC833A",
"C@	c #E16E35",
"D@	c #CF5A2C",
"E@	c #934523",
"F@	c #35568D",
"G@	c #369337",
"H@	c #60C860",
"I@	c #76D776",
"J@	c #89DF89",
"K@	c #64BF64",
"L@	c #ACCFA7",
"M@	c #FCFCFB",
"N@	c #ECF5F1",
"O@	c #60B363",
"P@	c #93E493",
"Q@	c #7FDB7F",
"R@	c #6CD36C",
"S@	c #509A39",
"T@	c #D38534",
"U@	c #CB994F",
"V@	c #E9F8F3",
"W@	c #CEB880",
"X@	c #E58F36",
"Y@	c #F39140",
"Z@	c #EC823A",
"`@	c #E47336",
" #	c #DA6130",
".#	c #D1522C",
"+#	c #9C3F27",
"@#	c #3B71C5",
"##	c #3FB13F",
"$#	c #61CD61",
"%#	c #6ED36E",
"&#	c #80DB80",
"*#	c #8ADF8A",
"=#	c #5CB35C",
"-#	c #CFE4D1",
";#	c #F8FEFD",
">#	c #C9E2D1",
",#	c #66BE68",
"'#	c #87DF87",
")#	c #74D774",
"!#	c #69D267",
"~#	c #44A940",
"{#	c #BF762F",
"]#	c #D08438",
"^#	c #C9BC8B",
"/#	c #CD883B",
"(#	c #EA813A",
"_#	c #E67938",
":#	c #E16E34",
"<#	c #DA6331",
"[#	c #D0532C",
"}#	c #CA4529",
"|#	c #993827",
"1#	c #3965AB",
"2#	c #2E842F",
"3#	c #41BA41",
"4#	c #54C854",
"5#	c #63CF63",
"6#	c #70D470",
"7#	c #7CDA7C",
"8#	c #73D173",
"9#	c #68B16E",
"0#	c #E6F8F2",
"a#	c #93CB9B",
"b#	c #68C868",
"c#	c #75D876",
"d#	c #68D168",
"e#	c #5CCC5B",
"f#	c #3DA73B",
"g#	c #874A23",
"h#	c #B15029",
"i#	c #A55B23",
"j#	c #C95B2A",
"k#	c #D35E2E",
"l#	c #CE572D",
"m#	c #CA5029",
"n#	c #C44828",
"o#	c #B73923",
"p#	c #A33222",
"q#	c #7F3938",
"r#	c #44A548",
"s#	c #39B639",
"t#	c #49C249",
"u#	c #55C955",
"v#	c #63CE63",
"w#	c #6BD36B",
"x#	c #73D673",
"y#	c #51B751",
"z#	c #97CAA5",
"A#	c #71BD77",
"B#	c #67CC67",
"C#	c #67D167",
"D#	c #5ACB5A",
"E#	c #46BB45",
"F#	c #368636",
"G#	c #6C574E",
"H#	c #7C4D49",
"I#	c #7F4644",
"J#	c #81433F",
"K#	c #813F39",
"L#	c #813E39",
"M#	c #803D39",
"N#	c #81423D",
"O#	c #814645",
"P#	c #714240",
"Q#	c #30A530",
"R#	c #38B538",
"S#	c #43BE43",
"T#	c #4FC44F",
"U#	c #56C856",
"V#	c #5DCC5D",
"W#	c #59C859",
"X#	c #39993B",
"Y#	c #379D38",
"Z#	c #4FBA4F",
"`#	c #43AF43",
" $	c #379637",
".$	c #3B773B",
"+$	c #356B35",
"@$	c #368236",
"#$	c #3B903B",
"$$	c #3B993B",
"%$	c #3D9A3D",
"&$	c #3D983D",
"*$	c #3C903C",
"=$	c #398739",
"-$	c #3E823D",
";$	c #376F36",
">$	c #446844",
"                                                                                                                                                                                                                                                                                                                                                                        ",
"                                                                                                                                                                                                                                                                                                                                                                        ",
"                                    . + @ # $                                                                                                                                                                                                                                                                                                                           ",
"                                  % & * = - ; >                                                                                                                                                                                                                                                                                                                         ",
"            , ' ) !             ~ { ] ^ / ( _ : <                                                                                                                                                                                                                                                                                                                       ",
"        [ } | 1 2 3 4           5 6 7 8 9 0 a b c d                                                                                                                                                                                                                       e e e                                                                                         ",
"      f g h i j k l m n       o p q r s t u v w x y                                       e z               e A     e e B                   e                   e                             e C                                                                     e e B D E e F           e                                               e                         ",
"      G H I J K L M N O P     Q R S T U V W X Y Z `                                         e  .          e ..+.    e e @.+.                #.$.              e #.+.                            %.+.                                                                e C &.+.+.+.*.e =.        e +.                                            e +.                      ",
"      -.;.>.,.'.).!.~.{.].    ^./.(._.:.<.[.}.|.1.2.                                        3.4.          e 5.+.      e 6.+.                  C +.            e 7.+.                                                                                              e 8.+.+.        9.e 0.      e +.                                            e +.                      ",
"      a.b.c.d.e.f.g.h.i.j.    k.l.m.n.o.n.|.p.q.r.s.                                          t.u.      e C +.        e v.                    e *.            e w.                                                                                                e x.+.            y.$.      e +.                                            e +.                      ",
"      z.A.B.C.D.E.F.G.H.I.    J.K.L.q.M.N.O.K.P.Q.R.                e   e e e e e             S.e 0.    e &.+.        e v.                    ..@.          e z +.        e e e e T.          e e           e e e e e             e e e e 3.                      e +.                +.+.    e U.e e e e T.            e e e e T.        e e e e e e                   ",
"      V.W.X.A.Y.Z.Z.Y.`. +    .+++@+#+$+$+%+&+*+=+                  e e z -++.w.$.e ;+          y.@.  e >++.          e v.                      e +.        e ,++.      e 8.5.+.w.@.e         e D +.      e e 7.+.w.@.e '+      e 9.+.+.6.4.A                   e B +.                        e e F %.+.w.)+=.        e z *.+.+.@.C       ;+$.e v.v.U.+.                ",
"      !+~+{+]+^+^+^+/+(+_+      :+<+[+}+[+|+1+2+3+                  e 6.+.+.      A 4.            e 4+8.+.+.          e v.                      e 6.        e +.      e 8.&.+.      D )+      e D +.      e 5++.      D $.    e 9.+.      6+e %.                e D +.                        e w.+.+.      e +.      ;++.+.      e *.      ;+e +.                      ",
"      7+8+9+0+a+b+a+~+c+d+      e+f+g+h+i+j+k+l+                    e v.            e &.          m+e  .+.            e U.                      e )+      e n++.      e =.+.          e o+    e D +.    e #.+.          +.+.  e +.          m+6.                e D +.                        e +.          e +.                  e v.        e +.                      ",
"        p+q+r+s+s+s+t+u+v+    w+x+y+z+A+B+C+D+E+                    e v.            e v.            e +.              e +.                        e o+    e x.+.      e x.+.          e v.    e D +.    e A +.                e e e e e e e e F+                e D +.                        e +.          e +.          e e e e e v.        e +.                      ",
"        G+H+I+J+K+L+M+N+O+P+Q+R+S+T+U+V+W+X+Y+Z+`+                  e v.            e v.            e +.              e +.                        T.6.    8.+.        e v.            e v.    e D +.    e D +.                e v.v.v.v.v.v.v.U.+.                e +.                        e +.          e +.      e e B 5+w.+.e v.        e +.                      ",
"           @.@+@@@#@$@%@&@*@=@-@;@>@,@'@)@!@~@{@]@^@                e v.            e v.            e +.                +.                        e C   e >++.        e 6.            e v.    e D +.    e 4++.                e w.                                e U.                e       e +.          e +.    e 8.&.+.+.    e v.        e +.                      ",
"        /@(@_@:@<@[@}@|@1@2@3@4@5@6@7@8@9@0@a@b@c@d@                e v.            e +.            e +.                                            e e@e f@+.        e g@            e +.    e D +.      e o+                e 6.          e                     m+)+              e >++.    e +.          e +.    e x.+.        e v.        e +.                      ",
"      h@i@j@k@l@m@n@o@p@q@r@s@t@u@v@w@x@y@z@A@B@C@D@E@              e 4.9.        e >++.            e +.              e                             #.4.y.+.            e F+        e >++.    e D +.      T.4.        e B     e e 6+      e e e@                    e F@          e e &.+.    e +.          e +.    e $.        e e v.        e w.                      ",
"    G@H@I@J@K@L@M@7@N@O@P@Q@R@S@T@U@V@W@X@Y@Z@`@ #.#+#              e $.C y.e e e C +.+.            e +.            e e D                             e e@+.              e E e e e B +.+.    e D +.        C e @#e e z w.+.    A e m+e e e 5++.                      e B       e e 5++.      e +.          e +.      e B e e e   e v.        e e @#                    ",
"    ##$#%#&#*#=#-#;#>#,#'#)#!#~#{#]#^#/#(#_#:#<#[#}#|#              e v.+.e@=.D 5++.+.              B +.              D 6.+.                          n+w.                  6.=.D 5.+.+.        ,++.          e@@.D x.+.+.        %.@.F+,+w.+.                          @.e e T.>+&.+.        B +.          B +.      6+@.F+,+&.+.1#6.          @.@.,+                  ",
"  2#3#4#5#6#7#8#9#0#a#b#c#d#e#f#g#h#i#j#k#l#m#n#o#p#q#              e v.      +.+.                    +.                +.                              +.                      +.+.                              +.+.                +.+.                                +.+.+.+.+.            +.            +.          +.+.      +.            +.+.                  ",
"  r#s#t#u#v#w#x#y#z#A#B#C#D#E#F#G#H#I#J#K#L#M#N#O#P#                e v.                                                                                                                                                                                                                                                                                                ",
"    Q#R#S#T#U#V#W#X#Y#Z#`# $.$                                      e v.                                                                                                                                                                                                                                                                                                ",
"    +$@$#$$$%$&$*$=$-$;$>$                                          e U.                                                                                                                                                                                                                                                                                                ",
"                                                                      +.                                                                                                                                                                                                                                                                                                ",
"                                                                                                                                                                                                                                                                                                                                                                        ",
"                                                                                                                                                                                                                                                                                                                                                                        "};
