/* XPM */
static char * buddidle_xpm[] = {
"23 23 97 2",
"  	c None",
". 	c #0688A0",
"+ 	c #3F4045",
"@ 	c #3A8296",
"# 	c #D8B02F",
"$ 	c #F8E0A6",
"% 	c #F6C63E",
"& 	c #5C5C69",
"* 	c #828294",
"= 	c #CAAE6A",
"- 	c #8F54D1",
"; 	c #8E8D9D",
"> 	c #454651",
", 	c #E1C37D",
"' 	c #0890AA",
") 	c #3A7A92",
"! 	c #737586",
"~ 	c #969A76",
"{ 	c #4A98C2",
"] 	c #4E4E62",
"^ 	c #0E9CAC",
"/ 	c #82C2CE",
"( 	c #8ACAD6",
"_ 	c #9898A4",
": 	c #32AACE",
"< 	c #9565C8",
"[ 	c #76AE96",
"} 	c #7EAEA6",
"| 	c #FAE2AA",
"1 	c #39BAE1",
"2 	c #DEC282",
"3 	c #DAC286",
"4 	c #0BABC3",
"5 	c #B097CE",
"6 	c #6A9E76",
"7 	c #E2DAC6",
"8 	c #797A8F",
"9 	c #BEAE8A",
"0 	c #7E6EC6",
"a 	c #9E8AB2",
"b 	c #AED6E2",
"c 	c #C2AED3",
"d 	c #E2EAEB",
"e 	c #22AED2",
"f 	c #8436D0",
"g 	c #B9A3CE",
"h 	c #BEBECA",
"i 	c #0FB2D3",
"j 	c #836E3D",
"k 	c #6A9EB6",
"l 	c #6EAAA2",
"m 	c #8B4CCB",
"n 	c #C4B1EE",
"o 	c #C2C6A6",
"p 	c #C6C6D0",
"q 	c #AA91C6",
"r 	c #8A7A9E",
"s 	c #46B6DE",
"t 	c #D9D5DF",
"u 	c #B69CE4",
"v 	c #65657A",
"w 	c #638AAB",
"x 	c #748CBE",
"y 	c #6D6D75",
"z 	c #BDA5E6",
"A 	c #05BFD9",
"B 	c #B6B6C0",
"C 	c #52A6C6",
"D 	c #FAFAFA",
"E 	c #986DCD",
"F 	c #C6AA5E",
"G 	c #C2AA6E",
"H 	c #6A7EA2",
"I 	c #B192DE",
"J 	c #0FBEE2",
"K 	c #F7D371",
"L 	c #2A7A8E",
"M 	c #2A96BA",
"N 	c #CDBADA",
"O 	c #4EB6DA",
"P 	c #6696C4",
"Q 	c #D1C4F1",
"R 	c #905DCB",
"S 	c #A17CCB",
"T 	c #2DBAE2",
"U 	c #CBBAF2",
"V 	c #20BBE5",
"W 	c #B49ECD",
"X 	c #853FCE",
"Y 	c #E6DFEC",
"Z 	c #B2D6E2",
"` 	c #60B6D0",
" .	c #7686BA",
"..	c #EDEDF1",
"+.	c #D6CAE1",
"@.	c #9C74CA",
"#.	c #A687C9",
"              5 5 q 5 W 5 q q 5               ",
"            5 c +.Y ......Y Y N W q           ",
"          g Q Y d Y Y Y Y Y Y Y t c q         ",
"        W +.t +.+.* ; ; ; * +.+.+.+.g #.      ",
"      #.c N N N ! * * * * * ! N N N N q @.    ",
"    @.q c c c + 8 _ 8 ! ! _ * + c c c W R <   ",
"    - q W W W > Y D p & B D d ] g W g W < m   ",
"  R m #.W 5 5 y d _ ; 8 t _ B * 5 5 5 q < f < ",
"  X m @.#.#.#.! t > + v p + + * a #.q a - f R ",
"  f X < S S #.> t _ & & B y y & S #.@.E - X X ",
"  f m m < @.@.j G 3 , , , , = j @.@.< R - m X ",
"  X - 0 x P l [ o $ | | | | $ % % E < - - m X ",
"  m x ` s 1 T e e [ K K K K K % # E E < R - X ",
"   .O 1 T T T V V i 6 # # # F j ; ! S @.< m m ",
"  C 1 T e e J J J J 4 ~ 9 7 d v & ] + S @.- R ",
"k 1 ` ` ` ` ` ` ` T J P I I I I I I I I @.-   ",
"C T Z D D ........( i { u u u u u u u I S R   ",
": T b d ....d d d / A { z z z z z z z I @.    ",
"M V T 1 1 T T V V J 4 { n n n n n z z #.S     ",
"  i V J J J A A A A ^  .U U U U U n I q       ",
"  ' i J J A A A A ^ @ * Q Q U U z u q         ",
"    . i A A A 4 ^ ) w q U U n z W             ",
"          ' . L H r a 5 W u W                 "};
