/* XPM */
static char * buddonline_xpm[] = {
"23 23 97 2",
"  	c None",
". 	c #3D4048",
"+ 	c #8E7A5A",
"@ 	c #F9D36C",
"# 	c #D4AF3A",
"$ 	c #CAAE6A",
"% 	c #4E4E62",
"& 	c #7A7A8D",
"* 	c #5F5F71",
"= 	c #8F8F9D",
"- 	c #FAD676",
"; 	c #DEC27F",
"> 	c #9052D4",
", 	c #F2D286",
"' 	c #BEAE8A",
") 	c #9696AA",
"! 	c #6D7185",
"~ 	c #BAAE8E",
"{ 	c #A17CCD",
"] 	c #FAE2AA",
"^ 	c #9A9AAA",
"/ 	c #C6C6D0",
"( 	c #826A2E",
"_ 	c #74748A",
": 	c #8436D0",
"< 	c #D7CFE1",
"[ 	c #F2EEF6",
"} 	c #C1AFD1",
"| 	c #B59ED2",
"1 	c #9166BD",
"2 	c #BABAC6",
"3 	c #7E6A32",
"4 	c #D6AA26",
"5 	c #E2DAC6",
"6 	c #76768E",
"7 	c #8C4CCB",
"8 	c #AE92CE",
"9 	c #A789C7",
"0 	c #CDBADA",
"a 	c #D2AA2E",
"b 	c #B8A2D2",
"c 	c #9E9EAA",
"d 	c #C3AED6",
"e 	c #EEBA1A",
"f 	c #9672BA",
"g 	c #9F76CD",
"h 	c #6F6F77",
"i 	c #905EC4",
"j 	c #B2A272",
"k 	c #CABAF1",
"l 	c #E2DACA",
"m 	c #F2CA4A",
"n 	c #B19DC9",
"o 	c #EBEAEF",
"p 	c #525256",
"q 	c #D2C6F6",
"r 	c #833ACF",
"s 	c #AB91C7",
"t 	c #C5B0ED",
"u 	c #B6A2D6",
"v 	c #B79DE3",
"w 	c #686877",
"x 	c #E0DFE7",
"y 	c #B9A3CE",
"z 	c #D6C9E0",
"A 	c #B6B6BE",
"B 	c #E6C67A",
"C 	c #8642CE",
"D 	c #EABA1A",
"E 	c #9665CD",
"F 	c #DAC286",
"G 	c #47474E",
"H 	c #AA89D6",
"I 	c #BBA2E3",
"J 	c #CFBFF3",
"K 	c #E9E1EF",
"L 	c #A282C9",
"M 	c #9672BE",
"N 	c #B096CA",
"O 	c #8A7656",
"P 	c #818294",
"Q 	c #FADEA6",
"R 	c #B192DE",
"S 	c #F6C63E",
"T 	c #C3AA65",
"U 	c #8A56BE",
"V 	c #AE96D2",
"W 	c #986ACF",
"X 	c #BFA7E9",
"Y 	c #F7F7F9",
"Z 	c #CABAD6",
"` 	c #96969C",
" .	c #9A6FCF",
"..	c #965ED3",
"+.	c #9057D3",
"@.	c #B296DE",
"#.	c #DCD6E2",
"              V V s N n n s s V               ",
"            n d < K o [ o K x Z n s           ",
"          u z x K K K K K K K K #.} s         ",
"        n z < z z P = = = & z z z z d L       ",
"      9 } 0 0 0 ! P P P P P _ 0 Z Z Z s f     ",
"    f s } d d . & ) 6 _ 6 ) P . d d d | 1 1   ",
"    U s | y u G x Y / * A Y o % | | y n 1 7   ",
"  i 7 L n 8 N w o ` = & < c A P N N N s 1 : 1 ",
"  C C { 9 9 s h #.G . w / . . P 9 9 9 L U : i ",
"  r C ..{ { { G #.` * * 2 w h * L { { W > C C ",
"  r 7 7 W g g 3 T F ; B ; ; $ ( g g W +.7 7 C ",
"  r > +...E D , Q ] ] ] ] ] ] m e W E ..+.7 r ",
"  C > .. . .a S @ - @ @ @ - @ m 4 g W E ..> C ",
"  C .. .{ w = + T # # # # 4 T O ` ! {  .E > 7 ",
"  7 E { . % * w x 5 ' j ' 5 K w * % . {  .> i ",
"  i W L R R R R R R @.R @.R R R R R R H { +.  ",
"    M H @.v v v v v v v v | v v v v v R g i   ",
"    g H v X X X X X X X X X X I I X I R g     ",
"      9 @.X t t t t t t t t t t t t I H {     ",
"        8 u t k k k k k k k k k k X R s       ",
"        V n I t J q q q q q J k t n s         ",
"              u X t k k k t t u v             ",
"                n n | | u | |                 "};
