/* XPM */
static char * buddaway_xpm[] = {
"23 23 97 2",
"  	c None",
". 	c #5A0602",
"+ 	c #826A2E",
"@ 	c #F7D16D",
"# 	c #833ACE",
"$ 	c #A2865E",
"% 	c #720F0A",
"& 	c #6E5F7D",
"* 	c #91919D",
"= 	c #E1C37D",
"- 	c #A50A05",
"; 	c #696A7E",
"> 	c #864AC2",
", 	c #FAD676",
"' 	c #9A2212",
") 	c #C6AC6C",
"! 	c #9E5E22",
"~ 	c #51313E",
"{ 	c #8444C2",
"] 	c #9769CB",
"^ 	c #DEC282",
"/ 	c #D7CCE1",
"( 	c #F8DEA6",
"_ 	c #A35F6A",
": 	c #C57665",
"< 	c #B8A2D0",
"[ 	c #D6AE82",
"} 	c #88445C",
"| 	c #B13522",
"1 	c #9286AE",
"2 	c #5F5F70",
"3 	c #8D49CF",
"4 	c #FAE2AA",
"5 	c #DAC286",
"6 	c #818296",
"7 	c #BEAE8A",
"8 	c #E2DAC6",
"9 	c #9C9CAA",
"0 	c #9C74CA",
"a 	c #BCB7C7",
"b 	c #F5F3F4",
"c 	c #DEAA9E",
"d 	c #AE564E",
"e 	c #D4AD34",
"f 	c #C12D19",
"g 	c #B26E3A",
"h 	c #404148",
"i 	c #764E6A",
"j 	c #E2AEA6",
"k 	c #8E321E",
"l 	c #CDBADA",
"m 	c #AA8AD6",
"n 	c #B39DCD",
"o 	c #935ED2",
"p 	c #D9401E",
"q 	c #7E6A32",
"r 	c #E9E2EB",
"s 	c #7A7B8C",
"t 	c #C65542",
"u 	c #C2ADD5",
"v 	c #B22010",
"w 	c #D1C5EC",
"x 	c #9696AA",
"y 	c #F0C02C",
"z 	c #9282AA",
"A 	c #8E0602",
"B 	c #6D6D75",
"C 	c #8A4EC6",
"D 	c #CE3217",
"E 	c #BEA5E9",
"F 	c #C96143",
"G 	c #4E4E59",
"H 	c #B79DE5",
"I 	c #C3B2EE",
"J 	c #C02410",
"K 	c #8F5DC1",
"L 	c #C4ADEC",
"M 	c #965A78",
"N 	c #96120A",
"O 	c #AD93C8",
"P 	c #C6C6D0",
"Q 	c #8F53D2",
"R 	c #8A7656",
"S 	c #C6AA5E",
"T 	c #E3DCE8",
"U 	c #A17ECB",
"V 	c #777189",
"W 	c #EDE9EA",
"X 	c #C53723",
"Y 	c #B194DC",
"Z 	c #A78AC6",
"` 	c #8E5AA2",
" .	c #D63A1A",
"..	c #AA1309",
"+.	c #CBBBF2",
"@.	c #8942D1",
"#.	c #D25036",
"              Y Y O O n n Z O Y               ",
"            n u / r W b W W T l n Z           ",
"          < / T r r T T T T r r T u Z         ",
"        n w / / / 6 * * * s w / / / u U       ",
"      Z u l l l V 6 6 6 6 6 V l l l l O 0     ",
"    0 Z a u u h s x s V s 9 6 h u u u n K ]   ",
"    ` O < < < h T b P 2 a b r G < < < n ] >   ",
"  K 3 Z O O O B W x 1 s / 9 a 6 O O O O ] # ] ",
"  # 3 U Z Z Z V T h h ; P h h 6 Z Z Z U ` # K ",
"  # @.o U U z G 8 x 2 2 P 2 B 2 Z U U ] 3 @.{ ",
"  # C C ] 0 0 q 7 5 5 = 5 = S + 0 0 ] K Q 3 # ",
"  # C ` _ d ! g ) ( 4 4 4 4 4 @ y ] o Q Q C { ",
"  { _ t #. . .D | g @ @ , , @ y e 0 0 ] o Q @.",
"  _ #. . .D D f J v ! e e e S R * V U ] o C > ",
"  #. . .D D J J J v ' $ 7 8 r ; 2 G h U 0 Q o ",
"_ p #.F t t t t #.| ..M Y O Y Y Y m Y Y 0 Q   ",
"d  .j b b b W r r : - } H H H H H H H Y U o   ",
"| D c W W r r r r : - } E E E E E E H Y 0     ",
"k f D X X f f v v ..A i I L L I L L E m U     ",
"  v J J v v ....- A % & +.+.+.+.+.L Y Z       ",
"  % v v ....- - - % ~ V w w +.+.L H m         ",
"    % N ..- - A . ~ ; 1 +.I L < n             ",
"          . . ~ i V z O < H n                 "};
