/* XPM */
static char * buddoffline_xpm[] = {
"23 23 97 2",
"  	c None",
". 	c #32323A",
"+ 	c #726642",
"@ 	c #977E47",
"# 	c #A69266",
"$ 	c #96969E",
"% 	c #BAAA82",
"& 	c #56565B",
"* 	c #B6AA96",
"= 	c #76767C",
"- 	c #B2B2B6",
"; 	c #3C3E40",
"> 	c #BEA660",
", 	c #BABAB6",
"' 	c #AA9A7A",
") 	c #726A56",
"! 	c #D2BA86",
"~ 	c #7A7A86",
"{ 	c #494A4F",
"] 	c #7E725E",
"^ 	c #C2C2C6",
"/ 	c #9C8E6E",
"( 	c #B2A690",
"_ 	c #BEAA76",
": 	c #7E7E82",
"< 	c #A2A2AA",
"[ 	c #6E6246",
"} 	c #B29A4A",
"| 	c #625A4E",
"1 	c #666662",
"2 	c #8E8266",
"3 	c #968E76",
"4 	c #AAAAB2",
"5 	c #BAA26E",
"6 	c #A28A46",
"7 	c #D2B686",
"8 	c #6A6A66",
"9 	c #5A5A66",
"0 	c #CAAE68",
"a 	c #757276",
"b 	c #414246",
"c 	c #BAA052",
"d 	c #82827E",
"e 	c #C2AA72",
"f 	c #3A3A3F",
"g 	c #C2A652",
"h 	c #9A864A",
"i 	c #525250",
"j 	c #8A8A90",
"k 	c #B29E72",
"l 	c #C6C6C6",
"m 	c #C6AE72",
"n 	c #BEBEBE",
"o 	c #C3A662",
"p 	c #C2AA80",
"q 	c #626269",
"r 	c #9E9A9A",
"s 	c #6B6A74",
"t 	c #6E6E70",
"u 	c #CAAA66",
"v 	c #BEA25A",
"w 	c #45464A",
"x 	c #968658",
"y 	c #BE9E4E",
"z 	c #968247",
"A 	c #C6AA65",
"B 	c #BAB6BA",
"C 	c #BAA27A",
"D 	c #726652",
"E 	c #BABAC1",
"F 	c #615E5D",
"G 	c #AAA6A6",
"H 	c #72727E",
"I 	c #CDB277",
"J 	c #67666D",
"K 	c #B6B6BA",
"L 	c #BA9A4A",
"M 	c #7A6E5E",
"N 	c #C4AE82",
"O 	c #3D3E47",
"P 	c #6E6E77",
"Q 	c #5E5E66",
"R 	c #36363A",
"S 	c #D2BE86",
"T 	c #B5A274",
"U 	c #BFA251",
"V 	c #BEA66A",
"W 	c #9C9CA4",
"X 	c #86868A",
"Y 	c #C2BEC2",
"Z 	c #B6AE9B",
"` 	c #C6C6CD",
" .	c #A6A6AE",
"..	c #ACAEB4",
"+.	c #8E8E92",
"@.	c #BEBEC4",
"#.	c #C2C2CA",
"                                              ",
"                                              ",
"                    P H H H P J               ",
"                  J = P s P H s               ",
"                b d $ : Q H $ +.{             ",
"                & E - $ 9 W K K q             ",
"                s K s q q  .= : a             ",
"                8 4 w f & W b f Q             ",
"                i G : F F r 8 q i             ",
"                [ / T k T 5 k # [             ",
"              6 A 7 S S ! S S ! A 6           ",
"              @ L A u u 0 u u o L @           ",
"            q H D x @ @ h z z x ) a J         ",
"          ; { & 8 B Z 3 2 / * B s & { ;       ",
"          . . b j l ^ n n n l Y j w . .       ",
"        O f R w W E ^ ^ Y ^ n E < { . f O     ",
"          { | ] ( ..E @.@.@.E ..( ] | { w     ",
"            T % N * @.@.@.@.E Z p p T         ",
"            I I A V ^ ^ ^ l #.% o m I         ",
"            c g U V ` ` ` ` #.% y U U         ",
"            } y > ' ..#.` ` ..' o y L         ",
"              c e               V o           ",
"                                              "};
