/* XPM */
static char * chat_xpm[] = {
"16 16 33 1",
" 	c None",
".	c #05293A",
"+	c #2A2624",
"@	c #522612",
"#	c #56763E",
"$	c #D9A267",
"%	c #07844B",
"&	c #5A8242",
"*	c #046A42",
"=	c #163E52",
"-	c #764420",
";	c #F7D3A1",
">	c #667E3A",
",	c #8C4F23",
"'	c #B97034",
")	c #E3AC6E",
"!	c #127EA2",
"~	c #C47C3C",
"{	c #0A432D",
"]	c #52422E",
"^	c #0AA658",
"/	c #AB662E",
"(	c #D28F4F",
"_	c #2C904C",
":	c #0E7A9E",
"<	c #0A6680",
"[	c #82662E",
"}	c #054460",
"|	c #EAB980",
"1	c #1286AA",
"2	c #39706A",
"3	c #50683E",
"4	c #8D6535",
"                ",
"   ~$|||$       ",
"  ,(|;;;)'/'    ",
"  ,(||$|)~(|)   ",
"  -(||$$$);;;|  ",
"  -~$)||($|$|)~ ",
"  -/($))$$|$$)  ",
"  -,'((((($||(  ",
"  @-,////~$$))( ",
"  +]-4/44~((((( ",
"  +=<2223/~~'/  ",
"  =}<1!<34/'/4  ",
"  }}<!:<__>>#3  ",
"  =}<<<}%^^%%*  ",
"  .=}<}}*^%%**  ",
"   .....{{{     "};
