/* XPM */
static char * colors_xpm[] = {
"14 14 8 1",
" 	c None",
".	c #0000FF",
"+	c #FF00FF",
"@	c #00FFFF",
"#	c #00FF00",
"$	c #FFFF00",
"%	c #FFA500",
"&	c #FF0000",
"..++@@##$$%%&&",
"..++@@##$$%%&&",
"..++@@##$$%%&&",
"..++@@##$$%%&&",
"..++@@##$$%%&&",
"..++@@##$$%%&&",
"..++@@##$$%%&&",
"..++@@##$$%%&&",
"..++@@##$$%%&&",
"..++@@##$$%%&&",
"..++@@##$$%%&&",
"..++@@##$$%%&&",
"..++@@##$$%%&&",
"..++@@##$$%%&&"};
