/* XPM */
static char * games_xpm[] = {
"16 16 33 1",
" 	c None",
".	c #4A4E7A",
"+	c #A0A0A0",
"@	c #BABFC7",
"#	c #A2DAAE",
"$	c #FEDE6A",
"%	c #6870A6",
"&	c #CEE6F2",
"*	c #C4CEEA",
"=	c #828282",
"-	c #F2B692",
";	c #8C9BD5",
">	c #F5F9FE",
",	c #B2B2B2",
"'	c #7B8AC4",
")	c #A6DABE",
"!	c #EEF2F7",
"~	c #A6AEB6",
"{	c #E3D7D6",
"]	c #A9BEED",
"^	c #E9F2FC",
"/	c #BECADA",
"(	c #8FA2E2",
"_	c #8595D1",
":	c #9A9EFE",
"<	c #5B6496",
"[	c #717BB1",
"}	c #A4AED4",
"|	c #CCDDF8",
"1	c #97ABE2",
"2	c #DAE9FD",
"3	c #B9D0F9",
"4	c #B6BED6",
"       '[       ",
"      '<        ",
"     ;          ",
"    ]%   ['     ",
"    1;'_]2^}    ",
"    ;1/2:*)&}   ",
"   (3&2{{2#!>;  ",
" (}4,||-{$!!>!% ",
"(]@@+~22^22^>>4 ",
"1},+=*22|4'[|>2<",
";3/@||3]_<  %1;.",
" ]|2&1'<        ",
" 1|&2'          ",
" ;3&2'          ",
"  1|3'          ",
"  ';_<          "};
