/* XPM */
static char * launchcast_xpm[] = {
"16 13 36 1",
" 	c None",
".	c #062C92",
"+	c #00278F",
"@	c #0B3194",
"#	c #0C3899",
"$	c #093798",
"%	c #103C9B",
"&	c #022890",
"*	c #1C56AB",
"=	c #2A6FBA",
"-	c #1D56AC",
";	c #032A90",
">	c #0D3B9B",
",	c #1B54AA",
"'	c #2867B5",
")	c #2463B3",
"!	c #1A52A9",
"~	c #0C399A",
"{	c #164AA4",
"]	c #3578C0",
"^	c #3477BF",
"/	c #1549A3",
"(	c #0C3A9A",
"_	c #01288F",
":	c #1A54AA",
"<	c #367AC0",
"[	c #3479C0",
"}	c #022990",
"|	c #1B55AB",
"1	c #337AC1",
"2	c #327AC1",
"3	c #3078C0",
"4	c #3178C0",
"5	c #3179C0",
"6	c #347BC1",
"7	c #357BC2",
"      .+++@     ",
"      #$$$%     ",
"     &*===-;    ",
"    >,'   )!~   ",
"   >{]     ^/(  ",
"  _:<       [:} ",
";}+|1       2|_.",
"+++|3       4|++",
"+++|3       5|++",
"+++|3       1|++",
"+++|3       6|++",
"}&+|3       7|++",
"  }|3       1|+ "};
