/* XPM */
static char * mail_xpm[] = {
"16 12 87 1",
" 	c None",
".	c #85B1E4",
"+	c #004A80",
"@	c #93BCE8",
"#	c #F6FCFF",
"$	c #FFFFFF",
"%	c #FBFFFF",
"&	c #F0F9FF",
"*	c #EAF5FF",
"=	c #E4F0FE",
"-	c #C9DEF6",
";	c #88B3E4",
">	c #C3D9F5",
",	c #FCFFFF",
"'	c #F7FDFF",
")	c #F1F8FF",
"!	c #EBF5FF",
"~	c #E4F1FE",
"{	c #CBDEF6",
"]	c #B5D0F0",
"^	c #F4FBFF",
"/	c #FDFFFF",
"(	c #F8FDFF",
"_	c #F2F9FF",
":	c #ECF5FF",
"<	c #E5F1FE",
"[	c #B5D1F1",
"}	c #CADEF6",
"|	c #C2D8F5",
"1	c #93BBE8",
"2	c #EEF6FF",
"3	c #F9FEFF",
"4	c #F4F9FF",
"5	c #E8F1FE",
"6	c #CBDFF7",
"7	c #B6D2F0",
"8	c #C4D9F5",
"9	c #BED7F4",
"0	c #E3EFFE",
"a	c #EFF7FF",
"b	c #E8F2FE",
"c	c #C6DDF5",
"d	c #86B3E4",
"e	c #B7D2F1",
"f	c #CCE1F7",
"g	c #C5DBF5",
"h	c #BED6F4",
"i	c #95BCE9",
"j	c #91B8E6",
"k	c #D8E9F9",
"l	c #CCDEF7",
"m	c #86B2E4",
"n	c #89B3E4",
"o	c #BED8F4",
"p	c #C5DCF5",
"q	c #92B9E8",
"r	c #AECCEF",
"s	c #B2CFF0",
"t	c #8EB7E5",
"u	c #AAC9EE",
"v	c #8AB5E4",
"w	c #B1CFEF",
"x	c #DEEBFC",
"y	c #D7E6F9",
"z	c #D0E2F8",
"A	c #C8DDF6",
"B	c #A3C5EB",
"C	c #89B5E4",
"D	c #A9C9EE",
"E	c #ABCAEE",
"F	c #F0F8FF",
"G	c #AFCCEF",
"H	c #E5F0FE",
"I	c #DEECFD",
"J	c #D8E9FB",
"K	c #D1E3F8",
"L	c #BBD5F2",
"M	c #9DC1EA",
"N	c #9EC2EA",
"O	c #93B9E8",
"P	c #ECF6FF",
"Q	c #E6F1FE",
"R	c #DEECFC",
"S	c #D2E4F9",
"T	c #BDD5F2",
"U	c #B5D1F0",
"V	c #95BCE8",
"...............+",
".@#$$$$$%#&*=-;+",
".>@#$$$,')!~{;]+",
".$>@^$/(_:<{;[}+",
".$$|1234256;7{8+",
".$$$910abcdefgh+",
".$$$2ijklmnop9e+",
".$$aqrst;euv]ew+",
".$aqr!=xyzABCDE+",
".FqG:HIJK}|LM;N+",
".OGPQRJS{>TUrVm+",
"++++++++++++++++"};
