/* XPM */
static char * no_photo_xpm[] = {
"100 88 3 1",
" 	c None",
".	c #000000",
"+	c #FFFFFF",
"....................................................................................................",
"....................................................................................................",
"....................................................................................................",
"...........++++++++++++++++++++++++++++++++++++++++++++++++++++++++++++++++++++++++++++++...........",
".........++++++++++++++++++++++++++++++++++++++++++++++++++++++++++++++++++++++++++++++++++.........",
".........++++++++++++++++++++++++++++++++++++++++++++++++++++++++++++++++++++++++++++++++++.........",
".........++++++++++++++++++++++++++++++++++++++++++++++++++++++++++++++++++++++++++++++++++.........",
".......++++++++++++++++++++++++++++++++++++++++++++++++++++++++++++++++++++++++++++++++++++++.......",
".......++++++++++++++++++++++++++++++++++++++++++++++++++++++++++++++++++++++++++++++++++++++.......",
".....++++++++++++++++++++++++++++++++++++++++++++++++++++++++++++++++++++++++++++++++++++++++++.....",
".....++++++++++++++++++++++++++++++++++++++++++++++++++++++++++++++++++++++++++++++++++++++++++.....",
".....++++++++++++++++++++++++++++++++++++++++++++++++++++++++++++++++++++++++++++++++++++++++++.....",
"...++++++++++++++++++++++++++++++++++++++++++++++++++++++++++++++++++++++++++++++++++++++++++++++...",
"...++++++++++++++++++++++++++++++++++++++++++++++++++++++++++++++++++++++++++++++++++++++++++++++...",
"...++++++++++++++++++++++++++++++++++++++++++++++++++++++++++++++++++++++++++++++++++++++++++++++...",
"...++++++++++++++++++++++++++++++++++++++++++++++++++++++++++++++++++++++++++++++++++++++++++++++...",
"...++++++++++++++++++++++++++++++++++++++++++++++++++++++++++++++++++++++++++++++++++++++++++++++...",
"...++++++++++++++++++++++++++++++++++++++++++++++++++++++++++++++++++++++++++++++++++++++++++++++...",
"...++++++++++++++++++++++++++++++++++++++++++++++++++++++++++++++++++++++++++++++++++++++++++++++...",
"...++++++++++++++++++++++++++++++++++++++++++++++++++++++++++++++++++++++++++++++++++++++++++++++...",
"...++++++++++++++++++++++++++++++++++++++++++++++++++++++++++++++++++++++++++++++++++++++++++++++...",
"...++++++++++++++++++++++++++++++++++++++++++++++++++++++++++++++++++++++++++++++++++++++++++++++...",
"...++++++++++++++++++++++++++++++++++++++++++++++++++++++++++++++++++++++++++++++++++++++++++++++...",
"...++++++++++++++++++++++++++++++++++++++++++++++++++++++++++++++++++++++++++++++++++++++++++++++...",
"...++++++++++++++++++++++++++++++++++++++++++++++++++++++++++++++++++++++++++++++++++++++++++++++...",
"...++++++++++++++++++++++++++++++++++++++++++++++++++++++++++++++++++++++++++++++++++++++++++++++...",
"...++++++++++++++++++++++++++++++++++++++++++++++++++++++++++++++++++++++++++++++++++++++++++++++...",
"...++++++++++++++++++++++++++++++++++++++++++++++++++++++++++++++++++++++++++++++++++++++++++++++...",
"...++++++++++++++++++++++.+++++.+++++++++++++++++++.+++++++++++++.+++++++++++++++++++++++++++++++...",
"...++++++++++++++++++++++..++++.+++++++++++++++++++.+++++++++++++.+++++++++++++++++++++++++++++++...",
"...++++++++++++++++++++++.+.+++.+++...++++++.+..+++.+..++++...++...+++...++++++++++++++++++++++++...",
"...++++++++++++++++++++++.+.+++.++.+++.+++++..++.++..++.++.+++.++.+++.+++.+++++++++++++++++++++++...",
"...++++++++++++++++++++++.++.++.++.+++.+++++.+++.++.+++.++.+++.++.+++.+++.+++++++++++++++++++++++...",
"...++++++++++++++++++++++.+++.+.++.+++.+++++.+++.++.+++.++.+++.++.+++.+++.+++++++++++++++++++++++...",
"...++++++++++++++++++++++.+++.+.++.+++.+++++.+++.++.+++.++.+++.++.+++.+++.+++++++++++++++++++++++...",
"...++++++++++++++++++++++.++++..++.+++.+++++..++.++.+++.++.+++.++.+++.+++.+++++++++++++++++++++++...",
"...++++++++++++++++++++++.+++++.+++...++++++.+..+++.+++.+++...+++..+++...++++++++++++++++++++++++...",
"...+++++++++++++++++++++++++++++++++++++++++.++++++++++++++++++++++++++++++++++++++++++++++++++++...",
"...+++++++++++++++++++++++++++++++++++++++++.++++++++++++++++++++++++++++++++++++++++++++++++++++...",
"...++++++++++++++++++++++++++++++++++++++++++++++++++++++++++++++++++++++++++++++++++++++++++++++...",
"...++++++++++++++++++++++++++++++++++++++++++++++++++++++++++++++++++++++++++++++++++++++++++++++...",
"...++++++++++++++++++++++++++++++++++++++++++++++++++++++++++++++++++++++++++++++++++++++++++++++...",
"...++++++++++++++++++++++++++++++++++++++++++++++++++++++++++++++++++++++++++++++++++++++++++++++...",
"...++++++++++++++++++++++++++++++++++++++++++++++++++++++++++++++++++++++++++++++++++++++++++++++...",
"...++++++++++++++++++++++++++++++++++++++++++++++++++++++++++++++++++++++++++++++++++++++++++++++...",
"...++++++++++++++++++++++++++++++++++++++++++++++++++++++++++++++++++++++++++++++++++++++++++++++...",
"...++++++++++++++++++++++++++++++++++++++++++++++++++++++++++++++++++++++++++++++++++++++++++++++...",
"...++++++++++++++++++++++++++++++++++++++++++++++++++++++++++++++++++++++++++++++++++++++++++++++...",
"...+++++++++++++++++++++++++++++++++++++.+++++++++++++++.++++++++++++++.+++++++++++++++++++++++++...",
"...+++++++++++++++++++++++++++++++++++++.+++++++++++++++.++++++++++++++.+++++++++++++++++++++++++...",
"...++++++++++++++++++++++++...++++...+++.+++...++++..++...+++...++++..+.+++++++++++++++++++++++++...",
"...+++++++++++++++++++++++.+++.++.+++.++.++.+++.++.++.++.+++.+++.++.++..+++++++++++++++++++++++++...",
"...+++++++++++++++++++++++.++++++.+++.++.++.+++.++.+++++.+++.+++.++.+++.+++++++++++++++++++++++++...",
"...++++++++++++++++++++++++...+++.....++.++.....++.+++++.+++.....++.+++.+++++++++++++++++++++++++...",
"...+++++++++++++++++++++++++++.++.++++++.++.++++++.+++++.+++.++++++.+++.+++++++++++++++++++++++++...",
"...+++++++++++++++++++++++.+++.++.+++.++.++.+++.++.++.++.+++.+++.++.++..+++++++++++++++++++++++++...",
"...++++++++++++++++++++++++...++++...+++.+++...++++..+++..+++...++++..+.+++++++++++++++++++++++++...",
"...++++++++++++++++++++++++++++++++++++++++++++++++++++++++++++++++++++++++++++++++++++++++++++++...",
"...++++++++++++++++++++++++++++++++++++++++++++++++++++++++++++++++++++++++++++++++++++++++++++++...",
"...++++++++++++++++++++++++++++++++++++++++++++++++++++++++++++++++++++++++++++++++++++++++++++++...",
"...++++++++++++++++++++++++++++++++++++++++++++++++++++++++++++++++++++++++++++++++++++++++++++++...",
"...++++++++++++++++++++++++++++++++++++++++++++++++++++++++++++++++++++++++++++++++++++++++++++++...",
"...++++++++++++++++++++++++++++++++++++++++++++++++++++++++++++++++++++++++++++++++++++++++++++++...",
"...++++++++++++++++++++++++++++++++++++++++++++++++++++++++++++++++++++++++++++++++++++++++++++++...",
"...++++++++++++++++++++++++++++++++++++++++++++++++++++++++++++++++++++++++++++++++++++++++++++++...",
"...++++++++++++++++++++++++++++++++++++++++++++++++++++++++++++++++++++++++++++++++++++++++++++++...",
"...++++++++++++++++++++++++++++++++++++++++++++++++++++++++++++++++++++++++++++++++++++++++++++++...",
"...++++++++++++++++++++++++++++++++++++++++++++++++++++++++++++++++++++++++++++++++++++++++++++++...",
"...++++++++++++++++++++++++++++++++++++++++++++++++++++++++++++++++++++++++++++++++++++++++++++++...",
"...++++++++++++++++++++++++++++++++++++++++++++++++++++++++++++++++++++++++++++++++++++++++++++++...",
"...++++++++++++++++++++++++++++++++++++++++++++++++++++++++++++++++++++++++++++++++++++++++++++++...",
"...++++++++++++++++++++++++++++++++++++++++++++++++++++++++++++++++++++++++++++++++++++++++++++++...",
"...++++++++++++++++++++++++++++++++++++++++++++++++++++++++++++++++++++++++++++++++++++++++++++++...",
"...++++++++++++++++++++++++++++++++++++++++++++++++++++++++++++++++++++++++++++++++++++++++++++++...",
"...++++++++++++++++++++++++++++++++++++++++++++++++++++++++++++++++++++++++++++++++++++++++++++++...",
"...++++++++++++++++++++++++++++++++++++++++++++++++++++++++++++++++++++++++++++++++++++++++++++++...",
"...++++++++++++++++++++++++++++++++++++++++++++++++++++++++++++++++++++++++++++++++++++++++++++++...",
".....++++++++++++++++++++++++++++++++++++++++++++++++++++++++++++++++++++++++++++++++++++++++++.....",
".....++++++++++++++++++++++++++++++++++++++++++++++++++++++++++++++++++++++++++++++++++++++++++.....",
".....++++++++++++++++++++++++++++++++++++++++++++++++++++++++++++++++++++++++++++++++++++++++++.....",
".......++++++++++++++++++++++++++++++++++++++++++++++++++++++++++++++++++++++++++++++++++++++.......",
".......++++++++++++++++++++++++++++++++++++++++++++++++++++++++++++++++++++++++++++++++++++++.......",
".........++++++++++++++++++++++++++++++++++++++++++++++++++++++++++++++++++++++++++++++++++.........",
".........++++++++++++++++++++++++++++++++++++++++++++++++++++++++++++++++++++++++++++++++++.........",
".........++++++++++++++++++++++++++++++++++++++++++++++++++++++++++++++++++++++++++++++++++.........",
"...........++++++++++++++++++++++++++++++++++++++++++++++++++++++++++++++++++++++++++++++...........",
"....................................................................................................",
"...................................................................................................."};
