/* XPM */
static char * pm_audible_xpm[] = {
"24 24 33 1",
" 	c None",
".	c #434248",
"+	c #CEB256",
"@	c #AE9E50",
"#	c #827E77",
"$	c #5958A6",
"%	c #7D633B",
"&	c #888989",
"*	c #AEAEAE",
"=	c #4C4C8B",
"-	c #F4DE80",
";	c #514C4D",
">	c #BCBDBD",
",	c #F2A642",
"'	c #7F819E",
")	c #C48438",
"!	c #5F5F6F",
"~	c #7573B3",
"{	c #C2C4F9",
"]	c #9D9C9C",
"^	c #F2E68A",
"/	c #D2CE7A",
"(	c #696890",
"_	c #BBA367",
":	c #8685CB",
"<	c #9E9CE1",
"[	c #55557A",
"}	c #3E3F76",
"|	c #59585B",
"1	c #E0E2E6",
"2	c #6B6B70",
"3	c #6464AF",
"4	c #D3D3D4",
"                        ",
"      ~                 ",
"      3=!               ",
"     '~}=$              ",
"     (:}$33             ",
"     ]:3$$$(            ",
"      :33$=}    ;..!    ",
"      :~'~=;_ |..;|||   ",
"      <'']!)+;...|!22|  ",
"       :~__-#..||;2#&#  ",
"       '3_^/;.#*&|!&]]! ",
"       ~[@-@.!>*&22]*>2 ",
"       ~!),%.2]]#22**>2 ",
"     ~((3%)|;2##22#>>>! ",
"   <<:3=~|%|||2~#(]>>>; ",
"  *1{<3=3! |!!2~(&1>4&; ",
" :{1>:3=3$ |2#2']44>1!  ",
" ~:<<~$=~!  !]]*4>>1].  ",
" $3~3$}3:[  2&**>>1].   ",
" $=}}=3:~.   2]*>*#;    ",
"  3$3~::=     2||..     ",
"  ~3~~3}|               ",
"    3[!                 ",
"                        "};
