/* XPM */
static char * pm_buzz_xpm[] = {
"22 22 97 2",
"  	c None",
". 	c #0E1216",
"+ 	c #66829C",
"@ 	c #6EAAF2",
"# 	c #BEE4FD",
"$ 	c #ACADBF",
"% 	c #343C42",
"& 	c #AEC2DD",
"* 	c #3A4A56",
"= 	c #C2C2CE",
"- 	c #7A8AB2",
"; 	c #426ED6",
"> 	c #DFE2EC",
", 	c #424E5A",
"' 	c #7AA6D6",
") 	c #BFDAEE",
"! 	c #9EC2E2",
"~ 	c #5A6E82",
"{ 	c #CEE6F2",
"] 	c #AACEE2",
"^ 	c #7EA6EA",
"/ 	c #DAE6EE",
"( 	c #6F8EBE",
"_ 	c #9AB2BE",
": 	c #7A97AE",
"< 	c #A6B2C6",
"[ 	c #869EAE",
"} 	c #C6D6E2",
"| 	c #627E96",
"1 	c #8393AE",
"2 	c #B3B5C5",
"3 	c #C7CFE0",
"4 	c #252D33",
"5 	c #A6D6FA",
"6 	c #4A5E66",
"7 	c #DCEAF8",
"8 	c #8A9EA6",
"9 	c #629AE2",
"0 	c #9AA2DA",
"a 	c #89BDF6",
"b 	c #EAF9FD",
"c 	c #929292",
"d 	c #667E96",
"e 	c #90AAD8",
"f 	c #CAEEFE",
"g 	c #96B2C2",
"h 	c #CAD6E6",
"i 	c #B2BEDE",
"j 	c #9FA0B3",
"k 	c #5C92E4",
"l 	c #8A98BA",
"m 	c #626E76",
"n 	c #65657E",
"o 	c #8AB2D6",
"p 	c #5E7EDA",
"q 	c #DBF5FE",
"r 	c #D0EAF8",
"s 	c #98B9E4",
"t 	c #BEC6E7",
"u 	c #CAE7F6",
"v 	c #9ECEFA",
"w 	c #7C7C96",
"x 	c #86AEDE",
"y 	c #D5D6DF",
"z 	c #AED6F6",
"A 	c #DADCE6",
"B 	c #D2D2DE",
"C 	c #A9BEDB",
"D 	c #BECADE",
"E 	c #CEEFFE",
"F 	c #A2CAF2",
"G 	c #9CCAF5",
"H 	c #767692",
"I 	c #B3DDFB",
"J 	c #E6F6FE",
"K 	c #467ADA",
"L 	c #9697AB",
"M 	c #81B4F1",
"N 	c #E2F5FD",
"O 	c #A5A6B9",
"P 	c #ACCAE1",
"Q 	c #97C5F5",
"R 	c #6AA6EE",
"S 	c #D5F3FE",
"T 	c #729AD6",
"U 	c #7286B6",
"V 	c #6B6B86",
"W 	c #6E8EA6",
"X 	c #8487A1",
"Y 	c #8E90A6",
"Z 	c #C4EAFE",
"` 	c #C8D0F0",
" .	c #BCBDCC",
"..	c #A6D1F6",
"+.	c #72728A",
"@.	c #2E3438",
"#.	c #C7C8D4",
"               . .=  .2 2 $                 ",
"          #.B A > A > A B #.2               ",
"        B > A A A 3 i 3 3 #.#.= j           ",
"      A > y A / N ` 0 N / ) &  . .j         ",
"    B > 3 ) S J J / ` q q S ) s $ 2 Y       ",
"  #.> 3 z E S q b N N q { _ g ..e 2 j X     ",
"  A A P # Z S S q S q u 8 % 6 ! s [ $ X     ",
"= A D F I # Z f E E Z 8 @.% : G G T L c     ",
"= > & Q z I # # I & [ 4 % : G G a 9 Y L     ",
"#.A g ^ Q ..5 ] : m @.4 + o a M k K - L V   ",
"#.A e p ^ Q Q M ~ c @.. 4 * ( R ; ; U Y n   ",
" .A s @ M a Q Q W * , + | + ' M R 9 U Y n   ",
" .A i M a G ..z I P ] I z v Q a M 9 X X     ",
"2 3 D a Q ..I Z u E E f # I 5 Q M - X H     ",
"   .B C G I # E q S S q E # I v x - X +.    ",
"    #.= C I f q q b b N S E # ! 1 X +.      ",
"    $ #. .& u q J A t b q Z ] l X w V       ",
"      O = = < 3 / D 0 / } < Y Y w V         ",
"        L 2 2 $ $ $ $ j L Y X w V           ",
"          X Y j j j j L Y w H               ",
"                  +.V n                     ",
"                                            "};
