/* XPM */
static char * pm_close_xpm[] = {
"22 22 92 2",
"  	c None",
". 	c #2E2E4A",
"+ 	c #D2D2DA",
"@ 	c #AAAABA",
"# 	c #7E7E96",
"$ 	c #62627E",
"% 	c #DEDEE6",
"& 	c #424262",
"* 	c #9E9EB2",
"= 	c #EAEAF2",
"- 	c #B6B6C6",
"; 	c #5A5A76",
"> 	c #9292AA",
", 	c #72728E",
"' 	c #F6F6F6",
") 	c #4E4E6A",
"! 	c #BEBECE",
"~ 	c #8A8AA2",
"{ 	c #32324E",
"] 	c #C6C6D2",
"^ 	c #6A6A86",
"/ 	c #363652",
"( 	c #FAFAFA",
"_ 	c #7A7A92",
": 	c #565672",
"< 	c #3E3E5A",
"[ 	c #CECED6",
"} 	c #D6D6DE",
"| 	c #AEAEBE",
"1 	c #E2E2EA",
"2 	c #A6A6BA",
"3 	c #86869E",
"4 	c #4A4A66",
"5 	c #52526E",
"6 	c #F2F2F2",
"7 	c #9A9AAE",
"8 	c #FEFEFE",
"9 	c #82829A",
"0 	c #666682",
"a 	c #CACAD6",
"b 	c #5E5E7A",
"c 	c #6E6E86",
"d 	c #DADAE2",
"e 	c #E6E6EA",
"f 	c #3A3A56",
"g 	c #767692",
"h 	c #C2C2CE",
"i 	c #A2A2B6",
"j 	c #9696AE",
"k 	c #7A7A9A",
"l 	c #EEEEF2",
"m 	c #8E8EA6",
"n 	c #464662",
"o 	c #B2B2BE",
"p 	c #6E6E8E",
"q 	c #4E4E6E",
"r 	c #5A5A7A",
"s 	c #3A3A5A",
"t 	c #3E3E5E",
"u 	c #C6C6D6",
"v 	c #666686",
"w 	c #B2B2C6",
"x 	c #D6D6E2",
"y 	c #4A4A6A",
"z 	c #E6E6EE",
"A 	c #FAFAFE",
"B 	c #7A7A96",
"C 	c #464666",
"D 	c #626282",
"E 	c #82829E",
"F 	c #CACADA",
"G 	c #6E6E8A",
"H 	c #AAAABE",
"I 	c #7E7E9A",
"J 	c #727292",
"K 	c #525272",
"L 	c #DADAE6",
"M 	c #D2D2DE",
"N 	c #F6F6FA",
"O 	c #F2F2F6",
"P 	c #6A6A8A",
"Q 	c #565676",
"R 	c #B2B2C2",
"S 	c #CECEDA",
"T 	c #A6A6BE",
"U 	c #5E5E7E",
"V 	c #C2C2D2",
"W 	c #DEDEEA",
"X 	c #9E9EB6",
"Y 	c #363656",
"Z 	c #B6B6CA",
"` 	c #9A9AB2",
"                                            ",
"                                            ",
"              t y b c c $ y <               ",
"          t q # @ h S M ] o I ) f           ",
"        & ; * M 1 z e e 1 e M H $ s         ",
"      t Q i S M x } x x x M L } | b Y       ",
"      4 m ! ! % W F V ] u } = 1 ] 7 4       ",
"    t v 2 w L A ( d ! - F l 8 l ! * $ /     ",
"    n B X 2 [ O 8 N x ] l 8 N a 3 P Q f     ",
"    y I m > ` V O 8 N l A ( ] _ r K q s     ",
"    ) J I I 9 m V O 8 8 A [ g Q K K q t     ",
"    C $ v v v J 2 l 8 8 O R v K K K K t     ",
"    & Q r r v * e 8 A O 8 l @ 0 K K q s     ",
"    & q Q U j 1 8 A [ R l 8 = 2 D K ) /     ",
"    s y ; , + A ' a # P | l 8 % I Q C {     ",
"      & r P 2 e a 3 v v g | 1 - , r s       ",
"      s ) P g j 3 J , J J k j k P 4 .       ",
"        s 5 , k I I k k I I B , ) {         ",
"          Y 4 v g 9 9 E I g $ & .           ",
"              s 4 : b ; 5 n f               ",
"                                            ",
"                                            "};
