/* XPM */
static char * pm_encrypt_xpm[] = {
"22 22 55 1",
" 	c None",
".	c #161616",
"+	c #6A6A6A",
"@	c #C2C2C2",
"#	c #868686",
"$	c #424242",
"%	c #AAAAAA",
"&	c #FAFAFA",
"*	c #5E5E5E",
"=	c #929292",
"-	c #E6E6E6",
";	c #2A2A2A",
">	c #D6D6D6",
",	c #525252",
"'	c #B6B6B6",
")	c #969696",
"!	c #767676",
"~	c #2E2E2E",
"{	c #A2A2A2",
"]	c #CECECE",
"^	c #3A3A3A",
"/	c #464646",
"(	c #7E7E7E",
"_	c #9A9A9A",
":	c #666666",
"<	c #CACACA",
"[	c #8E8E8E",
"}	c #4A4A4A",
"|	c #363636",
"1	c #BABABA",
"2	c #565656",
"3	c #1E1E1E",
"4	c #B2B2B2",
"5	c #6E6E6E",
"6	c #9E9E9E",
"7	c #C6C6C6",
"8	c #AEAEAE",
"9	c #8A8A8A",
"0	c #626262",
"a	c #EEEEEE",
"b	c #4E4E4E",
"c	c #A6A6A6",
"d	c #7A7A7A",
"e	c #3E3E3E",
"f	c #BEBEBE",
"g	c #323232",
"h	c #DEDEDE",
"i	c #262626",
"j	c #5A5A5A",
"k	c #D2D2D2",
"l	c #727272",
"m	c #FEFEFE",
"n	c #828282",
"o	c #DADADA",
"p	c #222222",
"        ____9+        ",
"       _{'''%(*       ",
"      6%7-a-o8n*      ",
"     6877<@77f%d,     ",
"    _477=:}}:[@#j^    ",
"    )f]%+3  b97=*g    ",
"    _@7=}    =]_0|    ",
"    )11ne    6]60g    ",
"    )''9,^   )76:^.   ",
"  l99=_{1c9(dd!5:*,/  ",
"  0n)8f]&h<@186#52$g  ",
"  0![c']mo718c=lj}e|  ",
"  0l#6%@m]'%6)#0b$|g  ",
"  jl[c1]&o718{9+,$^|  ",
"  j5#_%@&<'%6=(0be|g  ",
"  jl[%'<&>@'869:,/||  ",
"  j5#68@&]1%6=(*}$|g  ",
"  2l#6%f-]1%6[d0,e||  ",
"  b:!9){1'_#!+*b}$|g  ",
"  }/b2*+dl*bb/$$$e||  ",
"   ~;;~|eg~;;;;;iipp  ",
"                      "};
