/* XPM */
static char * pm_erase_xpm[] = {
"24 24 61 1",
" 	c None",
".	c #020202",
"+	c #BEBEBE",
"@	c #8E8E8E",
"#	c #5E5E5E",
"$	c #3E3E3E",
"%	c #2A2A2A",
"&	c #DADADA",
"*	c #1E1E1E",
"=	c #DEDEDE",
"-	c #B2B2B2",
";	c #E2E2E2",
">	c #7E7E7E",
",	c #161616",
"'	c #EAEAEA",
")	c #A6A6A6",
"!	c #C2C2C2",
"~	c #525252",
"{	c #121212",
"]	c #727272",
"^	c #F2F2F2",
"/	c #C6C6C6",
"(	c #0A0A0A",
"_	c #9E9E9E",
":	c #D2D2D2",
"<	c #FAFAFA",
"[	c #2E2E2E",
"}	c #4E4E4E",
"|	c #929292",
"1	c #323232",
"2	c #262626",
"3	c #666666",
"4	c #363636",
"5	c #060606",
"6	c #CECECE",
"7	c #969696",
"8	c #424242",
"9	c #868686",
"0	c #FEFEFE",
"a	c #B6B6B6",
"b	c #5A5A5A",
"c	c #AEAEAE",
"d	c #7A7A7A",
"e	c #F6F6F6",
"f	c #9A9A9A",
"g	c #222222",
"h	c #D6D6D6",
"i	c #0E0E0E",
"j	c #1A1A1A",
"k	c #CACACA",
"l	c #3A3A3A",
"m	c #464646",
"n	c #626262",
"o	c #767676",
"p	c #6A6A6A",
"q	c #8A8A8A",
"r	c #BABABA",
"s	c #E6E6E6",
"t	c #EEEEEE",
"u	c #565656",
"v	c #A2A2A2",
"                        ",
"                        ",
"                        ",
"                        ",
"                        ",
"  $9ffff777||@dl        ",
"  ~!====&&&hh:/q1       ",
"  }a66&&:kk/6:+co[      ",
"  m)+6t^:a-+^^/)|32     ",
"  lq)k^0t+-;0<k@>]}j    ",
"  1]97ke0ss<0h>pnb~4i   ",
"  2b33]!<000&3}}8$l4*5  ",
"  ,48$mnh000b1%22g**ji. ",
"  {22[u!<e<0=b*,{{ii5.  ",
"  (,*}ae<-)^06u{((55.   ",
"  5i*o;e-lg7e^f*....    ",
"  ..52@v15.(_)4....     ",
"  ....2g5...,4....      ",
"  ...............       ",
"  ..............        ",
"                        ",
"                        ",
"                        ",
"                        "};
