/* XPM */
static char * pm_file_xpm[] = {
"22 22 95 2",
"  	c None",
". 	c #004BD1",
"+ 	c #0046CB",
"@ 	c #0042C6",
"# 	c #0050D9",
"$ 	c #004CD3",
"% 	c #0045CA",
"& 	c #0041C4",
"* 	c #003CBF",
"= 	c #0056E1",
"- 	c #003FC2",
"; 	c #003BBD",
"> 	c #0036B6",
", 	c #005CE8",
"' 	c #0039BB",
") 	c #0035B5",
"! 	c #0031B0",
"~ 	c #0062EF",
"{ 	c #0043C8",
"] 	c #0040C4",
"^ 	c #0034B4",
"/ 	c #0030AD",
"( 	c #002DA9",
"_ 	c #0067F6",
": 	c #0040C3",
"< 	c #002EAC",
"[ 	c #002AA6",
"} 	c #0026A2",
"| 	c #0066F6",
"1 	c #0063F1",
"2 	c #003ABC",
"3 	c #0028A5",
"4 	c #00249F",
"5 	c #002099",
"6 	c #0060EE",
"7 	c #005DE9",
"8 	c #0030AE",
"9 	c #002AA7",
"0 	c #00239D",
"a 	c #001F98",
"b 	c #001B92",
"c 	c #005EEC",
"d 	c #005BE8",
"e 	c #0056E2",
"f 	c #002FAD",
"g 	c #002BA7",
"h 	c #001E96",
"i 	c #001990",
"j 	c #00158B",
"k 	c #0066F5",
"l 	c #0059E5",
"m 	c #0056E0",
"n 	c #0051DB",
"o 	c #0029A5",
"p 	c #00188F",
"q 	c #001389",
"r 	c #001084",
"s 	c #0061EF",
"t 	c #004DD4",
"u 	c #00239E",
"v 	c #002098",
"w 	c #001387",
"x 	c #000D81",
"y 	c #000A7D",
"z 	c #004FD7",
"A 	c #004BD2",
"B 	c #0047CC",
"C 	c #001E97",
"D 	c #001A91",
"E 	c #000D80",
"F 	c #00087A",
"G 	c #005AE6",
"H 	c #0057E1",
"I 	c #0049D0",
"J 	c #0041C5",
"K 	c #001489",
"L 	c #000779",
"M 	c #000475",
"N 	c #0055DF",
"O 	c #0051DA",
"P 	c #001388",
"Q 	c #000677",
"R 	c #000474",
"S 	c #004FD8",
"T 	c #004CD2",
"U 	c #001287",
"V 	c #004AD1",
"W 	c #0031AF",
"X 	c #0044C9",
"Y 	c #002BA8",
"Z 	c #003EC2",
"` 	c #00249E",
" .	c #001F97",
"..	c #00198F",
"+.	c #002FAC",
"                                            ",
"              . + @                         ",
"            # $ % & *                       ",
"          =       - ; >                     ",
"        ,           ' ) !                   ",
"      ~         { ]   ^ / (                 ",
"    _             : ;   < [ }               ",
"    | 1             2 )   3 4 5             ",
"      6 7             ^ 8 9 0 a b           ",
"      c d e             f g   h i j         ",
"    k   l m n             o 4   p q r       ",
"      s     # t             u v   w x y     ",
"      6 ,   z A B             C D   E F     ",
"        G H   I % J             p K   L M   ",
"          N O A   - ;             P r Q R   ",
"            S T     ' )           U r Q R   ",
"              V +     ^ W         U r Q R   ",
"                X ]     < Y       P r Q R   ",
"                  Z ;     o `  ...q   Q R   ",
"                      ^ f [           L R   ",
"                        +.[ `  ...P E F R   ",
"                                            "};
