/* XPM */
static char * pm_ignore_xpm[] = {
"22 22 94 2",
"  	c None",
". 	c #360202",
"+ 	c #F2F2EE",
"@ 	c #EEEAE6",
"# 	c #D2968A",
"$ 	c #8A5A4E",
"% 	c #7A1A0E",
"& 	c #822A1A",
"* 	c #C6463A",
"= 	c #E6E6E2",
"- 	c #C2664E",
"; 	c #9E2E1A",
"> 	c #8E0E06",
", 	c #C22612",
"' 	c #C63216",
") 	c #960A06",
"! 	c #BE5A42",
"~ 	c #560A06",
"{ 	c #CA8E82",
"] 	c #B21A0A",
"^ 	c #CA3E22",
"/ 	c #A66252",
"( 	c #AA2612",
"_ 	c #6A261A",
": 	c #A2160A",
"< 	c #DE4622",
"[ 	c #CE3216",
"} 	c #760E06",
"| 	c #D23616",
"1 	c #CE624E",
"2 	c #8E5E52",
"3 	c #B61E0E",
"4 	c #BA6A56",
"5 	c #C22E16",
"6 	c #BA361A",
"7 	c #CA4E3E",
"8 	c #BE2612",
"9 	c #8E665E",
"0 	c #DA3E1A",
"a 	c #A60E06",
"b 	c #D63A1A",
"c 	c #F6F6F6",
"d 	c #DA6A4E",
"e 	c #8A1A0A",
"f 	c #AE160A",
"g 	c #D2664E",
"h 	c #BA220E",
"i 	c #96665A",
"j 	c #DA4222",
"k 	c #D65236",
"l 	c #86160A",
"m 	c #C62A12",
"n 	c #CA3A26",
"o 	c #DE4E2E",
"p 	c #DA5E42",
"q 	c #C62E16",
"r 	c #DA3A1A",
"s 	c #AE120A",
"t 	c #F2EEEE",
"u 	c #B61A0E",
"v 	c #DE6246",
"w 	c #D23A1A",
"x 	c #FAFAFA",
"y 	c #BE220E",
"z 	c #CE523E",
"A 	c #BE2A12",
"B 	c #CA2E16",
"C 	c #D69A8E",
"D 	c #CA4A32",
"E 	c #CA3616",
"F 	c #926A62",
"G 	c #AA1206",
"H 	c #DE421E",
"I 	c #9A0E06",
"J 	c #DE4A26",
"K 	c #761206",
"L 	c #BE6E5A",
"M 	c #9A6A5E",
"N 	c #D6624A",
"O 	c #D2361A",
"P 	c #BA1E0E",
"Q 	c #B2160A",
"R 	c #C64A3A",
"S 	c #F2F2F2",
"T 	c #AA6252",
"U 	c #925E52",
"V 	c #92665E",
"W 	c #EAE6E6",
"X 	c #DA3E1E",
"Y 	c #EEEAEA",
"Z 	c #CE5242",
"` 	c #9A0A06",
" .	c #AA0E06",
"..	c #CA361A",
"                                            ",
"            $ U T - 1 g - T U $             ",
"          2 L p J j O b j o p L 2           ",
"        i d J X X b O O b r X < d i         ",
"      i p X X b O b [ [ w b X X X v M       ",
"    V N H X 0 b b [ [ [ [ O O b 0 j N V     ",
"  9 4 < 0 b O O | [ B B [ | O b r 0 < 4 9   ",
"  F k r r b | [ [ B B B B [ [ | w b 0 k F   ",
"  / j X ....' q 5 A 8 A A 5 q q ' ..b j /   ",
"  ! 0 O { @ Y W W W = W W W @ @ Y { | r !   ",
"  D b | # c x x c S S S c c c x c C | O D   ",
"  n | [ # c S S S S t + + S c S c # | | ^   ",
"  6 [ [ C S t + t S t t t t S S S # [ [ 6   ",
"  ; [ ' n k Z 7 7 * * * R 7 7 z 7 n B ' ;   ",
"  & m B , m , y h u ] u 3 y y , m m m m &   ",
"  _ ( , m y y h u 3 Q ] u 3 P y y , m ( _   ",
"    % h 8 h P P u ] f Q Q 3 P h y , 8 %     ",
"      e P P P u Q Q s s Q Q u u h P e       ",
"        l 3 ] ] f s G G s f u u 3 l         ",
"          } : f s G a  .s s G : K           ",
"            ~ } > ` ) ` ) > } ~             ",
"                  . . . .                   "};
