/* XPM */
static char * pm_join_xpm[] = {
"22 22 97 2",
"  	c None",
". 	c #081C2A",
"+ 	c #222224",
"@ 	c #267C4A",
"# 	c #36924A",
"$ 	c #ECB979",
"% 	c #027648",
"& 	c #3E2216",
"* 	c #3E8A3E",
"= 	c #468E42",
"- 	c #D99E63",
"; 	c #044562",
"> 	c #763A16",
", 	c #4E8642",
"' 	c #86461A",
") 	c #B6763E",
"! 	c #163A4E",
"~ 	c #06A656",
"{ 	c #F9D8A5",
"] 	c #107CA1",
"^ 	c #CA9A6A",
"/ 	c #5A6242",
"( 	c #025C38",
"_ 	c #965A26",
": 	c #0A261E",
"< 	c #BE9672",
"[ 	c #086E4A",
"} 	c #3A3E32",
"| 	c #F5D19F",
"1 	c #06994F",
"2 	c #0E749A",
"3 	c #7C6838",
"4 	c #A1642E",
"5 	c #DAB282",
"6 	c #266E42",
"7 	c #168EB2",
"8 	c #22A452",
"9 	c #BD8048",
"0 	c #022232",
"a 	c #424E46",
"b 	c #F4CA94",
"c 	c #096084",
"d 	c #E3A765",
"e 	c #AA6A32",
"f 	c #52260E",
"g 	c #098D4D",
"h 	c #0A7292",
"i 	c #C68043",
"j 	c #022E42",
"k 	c #F1C68D",
"l 	c #227286",
"m 	c #2E8292",
"n 	c #0A5475",
"o 	c #7E5A2A",
"p 	c #8A5222",
"q 	c #5A361E",
"r 	c #EDBF86",
"s 	c #C6864C",
"t 	c #D49252",
"u 	c #367E86",
"v 	c #0B6B8E",
"w 	c #DAAB7E",
"x 	c #B36F35",
"y 	c #72643E",
"z 	c #123246",
"A 	c #CE7A32",
"B 	c #026A3F",
"C 	c #1288AC",
"D 	c #6E3717",
"E 	c #A45624",
"F 	c #06B65E",
"G 	c #326E6A",
"H 	c #CA874B",
"I 	c #D89A5F",
"J 	c #027F49",
"K 	c #E8AE6C",
"L 	c #8F5E2F",
"M 	c #DCA26E",
"N 	c #BE712F",
"O 	c #0A3325",
"P 	c #033B57",
"Q 	c #E1A05C",
"R 	c #7D441C",
"S 	c #FBDFAD",
"T 	c #C27833",
"U 	c #CF823D",
"V 	c #E7B275",
"W 	c #A25D26",
"X 	c #366A4A",
"Y 	c #366E76",
"Z 	c #AC5E28",
"` 	c #BF7A42",
" .	c #054B6A",
"..	c #A26E42",
"+.	c #B4692E",
"@.	c #DE964E",
"#.	c #D28844",
"                                            ",
"        4 s t - M - I                       ",
"      > x w r b | { | w 9                   ",
"      R 9 V k | { { S k i E Z +.+.          ",
"      R 9 V k b r w | r 9 x H M M I         ",
"      R 9 V r r < L w $ H - r | { { V       ",
"      R ) d $ $ $ d $ ^ I r | { { S r )     ",
"      R e @.Q K $ $ $ t - V k w < b $ i     ",
"      D 4 s t Q K V $ Q t M r ^ ..$ 5 `     ",
"      D _ ) #.@.Q Q Q d I I $ r V $ I       ",
"      D R 4 T #.#.#.U U #.#.d $ $ V H       ",
"      f D ' W +.+.+.Z E N #.I d K $ K s     ",
"      & q R p W +.T e _ T #.@.@.Q Q d -     ",
"      + } a / y 3 o y / N U #.#.T i H H     ",
"      + z  .l u u Y G X W N A A N +.Z       ",
"      z P n ] C C 2 v X o W +.T A +.E       ",
"      P P n ] C ] h c @ , 3 4 4 4 L o       ",
"      P ;  .v ] ] v n g 8 8 # = * @ 6       ",
"      P P  .v v h c  .J ~ F ~ g g % [       ",
"      j P ; n c c n ; B 1 ~ 1 g J % [       ",
"      0 j P ;  . .; P ( % J J % [ B (       ",
"          . . . . . . : O O O               "};
