/* XPM */
static char * pm_profile_xpm[] = {
"22 22 97 2",
"  	c None",
". 	c #022A96",
"+ 	c #2064D4",
"@ 	c #7A8ABE",
"# 	c #8CA4D2",
"$ 	c #A4C8FE",
"% 	c #BADCFE",
"& 	c #EAEAEF",
"* 	c #327ADA",
"= 	c #0446EE",
"- 	c #70A8E4",
"; 	c #9EAAD2",
"> 	c #3E8ADE",
", 	c #F2F2F6",
"' 	c #063CD2",
") 	c #AED0FE",
"! 	c #BEE2FE",
"~ 	c #74BEFA",
"{ 	c #B1B1B4",
"] 	c #4AA1E9",
"^ 	c #C6C6C8",
"/ 	c #0640C4",
"( 	c #F6F6F8",
"_ 	c #C2E2FE",
": 	c #AEB9DA",
"< 	c #5A76B6",
"[ 	c #B6D6FE",
"} 	c #DADADE",
"| 	c #76B4EC",
"1 	c #163A92",
"2 	c #DEDEDE",
"3 	c #6282DE",
"4 	c #589EFA",
"5 	c #1050CC",
"6 	c #B2BEDE",
"7 	c #90B0FE",
"8 	c #FAFEFE",
"9 	c #869ECE",
"0 	c #064AF2",
"a 	c #B9B9BB",
"b 	c #1E62F2",
"c 	c #D2D2D5",
"d 	c #D6D6DA",
"e 	c #98B4DC",
"f 	c #E2E2E2",
"g 	c #9EC2FE",
"h 	c #82A5FD",
"i 	c #849ACA",
"j 	c #428EE2",
"k 	c #1458F8",
"l 	c #BEBEBF",
"m 	c #66AEF4",
"n 	c #2E76DA",
"o 	c #3682DE",
"p 	c #CACACB",
"q 	c #1A3E8E",
"r 	c #FAFAFB",
"s 	c #E6E6E7",
"t 	c #7ABEFE",
"u 	c #488EFA",
"v 	c #2E72FA",
"w 	c #367AFE",
"x 	c #6AA2E2",
"y 	c #367EF6",
"z 	c #6EAEFE",
"A 	c #EEEEF2",
"B 	c #0236B6",
"C 	c #264691",
"D 	c #A7B1D5",
"E 	c #7C90C3",
"F 	c #90ACD6",
"G 	c #98B8FE",
"H 	c #4696E6",
"I 	c #72B6FC",
"J 	c #2A6ED6",
"K 	c #0A46CA",
"L 	c #1A5ACE",
"M 	c #84C8FE",
"N 	c #E2E2EB",
"O 	c #4E8ED6",
"P 	c #72AEE8",
"Q 	c #60A6FC",
"R 	c #C2C2C4",
"S 	c #24428E",
"T 	c #5096FA",
"U 	c #CECECE",
"V 	c #DDDEEA",
"W 	c #0E51FA",
"X 	c #E5E6EE",
"Y 	c #FEFEFE",
"Z 	c #266AFA",
"` 	c #4086FA",
" .	c #52A4EC",
"..	c #1E5EFE",
"+.	c #9ABADE",
"@.	c #86AAFE",
"#.	c #AAB6D6",
"                                            ",
"  ]  .] H j > o * n J + + L 5 5 K / / B     ",
"] ~ ~ z m Q 4 T u ` y v Z b k W 0 = = '     ",
" .M t t I z Q 4 T u ` w v Z ..k W W 0 ' .   ",
"m _ _ % [ [ ) $ $ g g G G 7 @.h h h h 3 1   ",
"| Y Y Y Y r r Y r r r r r 8 r ( , , A : C   ",
"| r A s & s & Y r & & X s X s N N N , 6 C   ",
"| ( U R l R U r A U l R l l a l a ^ & : C   ",
"P Y Y Y Y Y Y Y Y Y Y 8 r r ( ( ( , , 6 C   ",
"| ( d p p p c Y , c p ^ ^ ^ ^ R R p X #.C   ",
"P r s 2 2 f f r r f } } } d d c d } & #.C   ",
"P Y r ( r ( r Y r ( , A A A & & X X & #.S   ",
"- ( } U U U } r A c p p ^ ^ ^ ^ R p N #.C   ",
"- r & 2 f f s ( , f } d d d c c c c N D S   ",
"- r r ( ( , ( r ( A & & & s X N N N N D S   ",
"- ( ^ a a a R , s l a { { { { { { a } D C   ",
"x Y ( , , , , ( , & & X X N N N V N V D S   ",
"- r r ( ( , , A A & & X X N V V V } d ; S   ",
"O +.e e F F # # 9 i i E E E @ @ @ E @ < q   ",
"                                            ",
"                                            ",
"                                            "};
