/* XPM */
static char * pm_save_xpm[] = {
"22 22 97 2",
"  	c None",
". 	c #323E72",
"+ 	c #667AAA",
"@ 	c #AEBEDC",
"# 	c #C2CEDC",
"$ 	c #364272",
"% 	c #4E5E9A",
"& 	c #D2DAE2",
"* 	c #8A9EC2",
"= 	c #DEE6EF",
"- 	c #A6B6D1",
"; 	c #EAEEF6",
"> 	c #52629A",
", 	c #5E6A92",
"' 	c #F2F6FA",
") 	c #9EAECC",
"! 	c #6E82B2",
"~ 	c #7E8EB7",
"{ 	c #96A6C6",
"] 	c #566A9E",
"^ 	c #F6FAFC",
"/ 	c #869ABE",
"( 	c #5E72A6",
"_ 	c #BACADE",
": 	c #B6C6DA",
"< 	c #667296",
"[ 	c #8296BA",
"} 	c #CAD6DE",
"| 	c #FAFAFD",
"1 	c #8E9EC2",
"2 	c #B2BADE",
"3 	c #A6B2CE",
"4 	c #9EAACA",
"5 	c #FAFEFE",
"6 	c #6E769A",
"7 	c #98A2CE",
"8 	c #B2BED8",
"9 	c #6A769A",
"0 	c #EEF2F6",
"a 	c #AEB6DA",
"b 	c #666E96",
"c 	c #DAE2EE",
"d 	c #E2E6F2",
"e 	c #7E92BA",
"f 	c #5A6EA2",
"g 	c #92A2C2",
"h 	c #52669A",
"i 	c #9AAAC9",
"j 	c #B6C2D6",
"k 	c #D6DEE5",
"l 	c #7686B2",
"m 	c #6276AA",
"n 	c #AABAD3",
"o 	c #5E6EA2",
"p 	c #A2B2CE",
"q 	c #E6EAF3",
"r 	c #626E96",
"s 	c #CAD2DE",
"t 	c #F6F6FA",
"u 	c #D2DAEE",
"v 	c #6A729A",
"w 	c #CED6EA",
"x 	c #C2CEE2",
"y 	c #A8B2D8",
"z 	c #F2F2FA",
"A 	c #A2AED6",
"B 	c #929ECA",
"C 	c #B2C2DE",
"D 	c #8292BA",
"E 	c #6E7EAE",
"F 	c #8A9ABE",
"G 	c #BEC6DA",
"H 	c #AEBAD7",
"I 	c #8696BE",
"J 	c #BAC6DF",
"K 	c #A2AECE",
"L 	c #5A6AA0",
"M 	c #56669E",
"N 	c #768AB4",
"O 	c #9AA6CE",
"P 	c #C6CEDD",
"Q 	c #CEDAEA",
"R 	c #92A2C7",
"S 	c #AEBADE",
"T 	c #FEFEFE",
"U 	c #A2AAD2",
"V 	c #C6D2E6",
"W 	c #EEEEFA",
"X 	c #BAC2DA",
"Y 	c #66729A",
"Z 	c #EEF2FA",
"` 	c #BECAE3",
" .	c #BAC6DA",
"..	c #CED6E2",
"+.	c #DADEE6",
"@.	c #B6C2DE",
"#.	c #B6C2DA",
"  6 9 9 9 v v < < < r r r r r , , ,         ",
"6 J  .T q 0 0 T T | T T T T | T D e $       ",
"9 X X T f f f | T T T | | T | ' D e $       ",
"v #.8 T f J #.T T | | T T t Z Z ~ 9 .       ",
"v 8 2 | f : J T T T T ^ ' Z ; q m f .       ",
"9 H n | | | | | T T t z Z q c S ( L .       ",
"< - - p K 4 i R R 1 F I I D l f f ] .       ",
"< 3 3 ) 4 i { g 1 F I I ~ e f f L M .       ",
"Y ) K i i R g 1 F / D D ~ N f L L M .       ",
"b i i i { g g F F I [ e ~ N ! ! ] M .       ",
"b { { ^ | t ^ ' z W ; q q u w w h > .       ",
"< R R t t ^ z 0 0 ; q d c ` _ x h h .       ",
"< 1 B ^ +.k & & } s s # X a n ` > > .       ",
"b * * t ' z z ; q = c &  .: @ X > % .       ",
"b I I t k & ..} s P j n - p p C > > .       ",
"b [ [ ' z 0 ; q k # J @.@ n n @ > % .       ",
"b D D ' & ..# G C @ n 3 p i i @ > > .       ",
"b ~ ~ a H a y 3 U U O 7 R 7 B * > % .       ",
"  $ $ $ $ $ $ $ $ $ $ . $ $ . . $ $         ",
"                                            ",
"                                            ",
"                                            "};
