/* XPM */
static char * pm_send_xpm[] = {
"24 24 55 1",
" 	c None",
".	c #2A2A2A",
"+	c #CACACA",
"@	c #5A5A5A",
"#	c #A2A2A2",
"$	c #868686",
"%	c #DADADA",
"&	c #626262",
"*	c #E6E6E6",
"=	c #464646",
"-	c #6A6A6A",
";	c #EEEEEE",
">	c #BABABA",
",	c #969696",
"'	c #727272",
")	c #323232",
"!	c #F2F2F2",
"~	c #363636",
"{	c #7E7E7E",
"]	c #AEAEAE",
"^	c #3A3A3A",
"/	c #D6D6D6",
"(	c #8E8E8E",
"_	c #F6F6F6",
":	c #525252",
"<	c #424242",
"[	c #767676",
"}	c #9E9E9E",
"|	c #C6C6C6",
"1	c #CECECE",
"2	c #AAAAAA",
"3	c #FAFAFA",
"4	c #DEDEDE",
"5	c #B2B2B2",
"6	c #7A7A7A",
"7	c #8A8A8A",
"8	c #3E3E3E",
"9	c #FEFEFE",
"0	c #BEBEBE",
"a	c #4E4E4E",
"b	c #828282",
"c	c #EAEAEA",
"d	c #E2E2E2",
"e	c #A6A6A6",
"f	c #6E6E6E",
"g	c #929292",
"h	c #9A9A9A",
"i	c #D2D2D2",
"j	c #666666",
"k	c #5E5E5E",
"l	c #B6B6B6",
"m	c #565656",
"n	c #4A4A4A",
"o	c #C2C2C2",
"p	c #2E2E2E",
"                        ",
"        ^8<<<<^~        ",
"      8=mfb77b'@<^      ",
"    ^<m6]14ddd/l$m8~    ",
"   ^=-#1*c**ccc*/2f<~   ",
"   <jei44%1/**44d/5f^   ",
"  ^:,+//i01c_!d///ie@^  ",
"  8[>|+|5|;999;/+||0b<  ",
" ^mg>>l2o;99999;105e$:~ ",
" ^&#]2#0;9999993*]76'@~ ",
" <f}#}>c33;393993ig'fk8 ",
" <'g,]d99i0!94139!l6f&8 ",
" <f$72d!1ge;3+$l;c]6f&< ",
" 8&6{$e]('}!9+{{#e$''k^ ",
" ^k'[[['[fh;3+b[[[['[k~ ",
" ^a'6[666[};91b6[[66'ap ",
"  <j{{{{{6#;317bb{{6-<. ",
"  ^:6$$$$$e;3|7$$$${:p  ",
"   8j$((((}+i2(((($&^.  ",
"   ~<-$g,,,}#h,,g7j<)   ",
"    )<k{gh}}}}h,{@8)    ",
"      ^=&6$$7b[k=).     ",
"        ~^=nn=8p.       ",
"                        "};
