/* XPM */
static char * pm_tux_xpm[] = {
"22 22 97 2",
"  	c None",
". 	c #020202",
"+ 	c #463E02",
"@ 	c #9A7802",
"# 	c #EAA202",
"$ 	c #BAB616",
"% 	c #FED61A",
"& 	c #DAD672",
"* 	c #FEF252",
"= 	c #6B6B6D",
"- 	c #FAC22A",
"; 	c #3E2602",
"> 	c #DEDE5A",
", 	c #F6E2A6",
"' 	c #B2B272",
") 	c #9A9A0A",
"! 	c #EEEE62",
"~ 	c #EEAA02",
"{ 	c #363638",
"] 	c #8A822A",
"^ 	c #202021",
"/ 	c #424242",
"( 	c #F6E6B2",
"_ 	c #C2BA76",
": 	c #F8C802",
"< 	c #E2DA7E",
"[ 	c #767676",
"} 	c #F2F2F4",
"| 	c #C2C27E",
"1 	c #D6CA92",
"2 	c #7E7E2E",
"3 	c #F4E610",
"4 	c #878791",
"5 	c #121212",
"6 	c #BEAA82",
"7 	c #525252",
"8 	c #BE7602",
"9 	c #E2D6B2",
"0 	c #7A5602",
"a 	c #503202",
"b 	c #A8A8B3",
"c 	c #C2C1C0",
"d 	c #FAEF37",
"e 	c #AFAFB1",
"f 	c #F6F6DE",
"g 	c #929292",
"h 	c #FECE02",
"i 	c #C6C6D2",
"j 	c #9A9A02",
"k 	c #E0E0E6",
"l 	c #EEB616",
"m 	c #E6E6EA",
"n 	c #D6D6BE",
"o 	c #765A2E",
"p 	c #AFAFBC",
"q 	c #CA9202",
"r 	c #0E0E0E",
"s 	c #575757",
"t 	c #FAD20E",
"u 	c #282829",
"v 	c #FBFAF8",
"w 	c #BABACA",
"x 	c #FEFA06",
"y 	c #62625D",
"z 	c #D2D2D7",
"A 	c #969696",
"B 	c #FEFA4B",
"C 	c #5A4C02",
"D 	c #F6BE02",
"E 	c #FAD60E",
"F 	c #E6DACE",
"G 	c #B6B6C1",
"H 	c #EBEAED",
"I 	c #CCCCCD",
"J 	c #0A0A0A",
"K 	c #5E3E02",
"L 	c #D6D6DD",
"M 	c #C6C262",
"N 	c #46464A",
"O 	c #2F2F2F",
"P 	c #9E9EAE",
"Q 	c #866202",
"R 	c #B8B8A8",
"S 	c #F6F6F8",
"T 	c #C0C0CC",
"U 	c #5E5E5E",
"V 	c #FBDE0B",
"W 	c #FEFEFE",
"X 	c #3C3C3D",
"Y 	c #746002",
"Z 	c #CE8202",
"` 	c #CDCDD8",
" .	c #9E9E9E",
"..	c #171717",
"+.	c #4C4C4D",
"@.	c #EEEEF1",
"#.	c #DADAE1",
"                                            ",
"                U s s +.X O 5               ",
"            = g b A = s +.X O ..            ",
"          U g @.W W z s 4 b  .N J           ",
"        u [ I W W } I e @.W W I O .         ",
"        X = k W W I y [ e v } L +.. .       ",
"      . O y R S H n ' _ 9 H k b ^ . .       ",
"      . ^ s U c #.! x V - F b X . . .       ",
"      . J X +.c S f * % , } L +.. . r .     ",
"    . . . ^ e W W W W ( } @.m z +.......    ",
"  . . . . s } W W W v @.H k k #.b u ^ ^ ^   ",
". . . . ..c W W W S } H k k z ` i = ^ ^ ^ ..",
"      . X S W v S @.H k #.L ` i T P u r     ",
"      . [ W v S H m k #.z I i T w b X       ",
"        A v } @.k k L z I T w G p P N       ",
"        g @.H k k z z i T w G p P 4         ",
"          e k #.L ` i T w p b b 4 {         ",
"          ] & < 1 c T G G R | _ ] C         ",
"      ) d B d V : l 6 G > B B d V : q a     ",
"      ) 3 V t D ~ Z o y $ 3 V t D # 8 ;     ",
"        + Y @ Q K         C Y @ 0 a         ",
"                                            "};
