/* XPM */
static char * pm_voice_xpm[] = {
"22 22 97 2",
"  	c None",
". 	c #024E0A",
"+ 	c #3A3A3A",
"@ 	c #B2B2B2",
"# 	c #8E8E8E",
"$ 	c #028E02",
"% 	c #525252",
"& 	c #02CE02",
"* 	c #7A7A7A",
"= 	c #029E02",
"- 	c #D2D2D2",
"; 	c #026206",
"> 	c #5E5E5E",
", 	c #02AA02",
"' 	c #02720A",
") 	c #A2A2A2",
"! 	c #C6C6C6",
"~ 	c #727272",
"{ 	c #02BA02",
"] 	c #02E602",
"^ 	c #027E02",
"/ 	c #3E3E3E",
"( 	c #6A6A6A",
"_ 	c #BEBEBE",
": 	c #424242",
"< 	c #828282",
"[ 	c #9A9A9A",
"} 	c #02DA02",
"| 	c #02CA02",
"1 	c #464646",
"2 	c #AEAEAE",
"3 	c #B6B6B6",
"4 	c #666666",
"5 	c #025A06",
"6 	c #4E4E4E",
"7 	c #02B202",
"8 	c #028202",
"9 	c #D6D6D6",
"0 	c #CECECE",
"a 	c #026606",
"b 	c #AAAAAA",
"c 	c #02C202",
"d 	c #969696",
"e 	c #029602",
"f 	c #02D602",
"g 	c #8A8A8A",
"h 	c #565656",
"i 	c #028A02",
"j 	c #02A602",
"k 	c #027602",
"l 	c #6E6E6E",
"m 	c #02EE02",
"n 	c #026E02",
"o 	c #7E7E7E",
"p 	c #BABABA",
"q 	c #767676",
"r 	c #868686",
"s 	c #626262",
"t 	c #4A4A4A",
"u 	c #DEDEDE",
"v 	c #929292",
"w 	c #A6A6A6",
"x 	c #02BE02",
"y 	c #02A202",
"z 	c #027A02",
"A 	c #C2C2C2",
"B 	c #9E9E9E",
"C 	c #029202",
"D 	c #02D202",
"E 	c #02AE02",
"F 	c #02B602",
"G 	c #028602",
"H 	c #DADADA",
"I 	c #5A5A5A",
"J 	c #02DE02",
"K 	c #025E06",
"L 	c #029A06",
"M 	c #52525A",
"N 	c #626266",
"O 	c #7A7A7E",
"P 	c #BEBEC2",
"Q 	c #C6C6CA",
"R 	c #B6B6BA",
"S 	c #929296",
"T 	c #029206",
"U 	c #8E8E92",
"V 	c #525256",
"W 	c #02B206",
"X 	c #028A06",
"Y 	c #76767A",
"Z 	c #028606",
"` 	c #5E5E62",
" .	c #AEAEB2",
"..	c #027606",
"+.	c #026E06",
"@.	c #027A06",
"#.	c #025E0A",
"              & f J ] m ] } &               ",
"          7 7 F x { { x { { x E , y         ",
"      = e y C                   C i $       ",
"    C ..'                           8 z     ",
"    +..                               k K   ",
"    K                                   5   ",
"              c | D f J f & c               ",
"          j , { 7 e i G G = , = e           ",
"        $ @.                    i ^         ",
"      G a                           n       ",
"      a       [ v [ ) b @ @ _               ",
"        < < q l ( s 4 ~ * # B @ p _         ",
"      o l ( s s s s ( * < # [ b 3 A P       ",
"      l 4 s s s ~ r d ) ) ) w  .p ! ! R     ",
"    l ( s s 4 * B 3 p p _ p @ p ! - - 3     ",
"    s 4 s s ( * < r < * < v d 3 0 H H b     ",
"    h 4 4 s s % 1 1 1 1 t h 4 2 9 u 0 S     ",
"      % ( ( ( I 1 + + + : 6 o ! u 0 w       ",
"        1 > ~ * ~ ( ( l * [ _ ! @ U         ",
"          / t > ~ o r v [ ) v Y Y           ",
"              : t 6 % s l q `               ",
"                t 6 % > N M                 "};
