/* XPM */
static char * sms_xpm[] = {
"11 17 33 1",
" 	c None",
".	c #324B80",
"+	c #9EBBDA",
"@	c #617DA7",
"#	c #D2E8FD",
"$	c #98ABC4",
"%	c #A7C8E6",
"&	c #526E94",
"*	c #7A8CAA",
"=	c #B3D0EF",
"-	c #39578E",
";	c #E8F3FC",
">	c #7C98C7",
",	c #50648B",
"'	c #BECEF6",
")	c #B2BACA",
"!	c #A8B4C8",
"~	c #8C9BB7",
"{	c #F8FCFD",
"]	c #627399",
"^	c #47638B",
"/	c #829DD3",
"(	c #455C87",
"_	c #A6BEEA",
":	c #8EA7DD",
"<	c #C8DEF6",
"[	c #B9D9F0",
"}	c #718BC3",
"|	c #6D7EA1",
"1	c #B8BAF9",
"2	c #BAC6DA",
"3	c #94B1D9",
"4	c #A6B2E8",
"         .]",
"         .]",
"         .,",
"[%~~**|]&(,",
"+!)!$$~~*|,",
"]~{{{;;#<1]",
"|~;{{;;#<1]",
"|~;2$$:~>}(",
"|*;*,(-....",
"]~#4>>>>}|-",
"&*#_::/>>}-",
",|<%443::>-",
",|[##<<<'1-",
"(]=[#<<[=1-",
"(@=[[[[==1-",
"(@%=%%%%_4(",
"+3&&&&^(--/"};
