/* XPM */
static char * status_cam_female_xpm[] = {
"14 19 65 1",
" 	c None",
".	c #A6128E",
"+	c #B63EA6",
"@	c #6E66A2",
"#	c #A29ADA",
"$	c #D0CAFE",
"%	c #F6F6FE",
"&	c #DE6ADE",
"*	c #AA9EDA",
"=	c #DEDAFE",
"-	c #CE0ECA",
";	c #CA76BE",
">	c #C248B6",
",	c #BDB6F0",
"'	c #7E72B2",
")	c #C432C0",
"!	c #B2AAEA",
"~	c #EF9AF0",
"{	c #E2DEFE",
"]	c #D63AD6",
"^	c #BC18B4",
"/	c #F2A2F6",
"(	c #EA3EF6",
"_	c #CE22CE",
":	c #948AC6",
"<	c #DA8ED4",
"[	c #C3BCF5",
"}	c #EEEAFE",
"|	c #9E2286",
"1	c #CA5AC2",
"2	c #EA46F6",
"3	c #DA2AD6",
"4	c #D7D2FE",
"5	c #E232DE",
"6	c #FEFEFE",
"7	c #C8C2FD",
"8	c #BE1EAE",
"9	c #E20EF2",
"0	c #D65AD6",
"a	c #E64AEA",
"b	c #BC2FB4",
"c	c #DA1EDA",
"d	c #9E96D3",
"e	c #E6E2FE",
"f	c #E715F2",
"g	c #DE1EDE",
"h	c #EA8EEA",
"i	c #BA0AB2",
"j	c #EE4EF6",
"k	c #EA3AF6",
"l	c #E62AF2",
"m	c #CBC6FE",
"n	c #988ECA",
"o	c #FAFAFE",
"p	c #D3CEFE",
"q	c #E422F2",
"r	c #E9E6FE",
"s	c #DBD6FE",
"t	c #E71AF2",
"u	c #EE54F6",
"v	c #F6AAFA",
"w	c #F1EEFE",
"x	c #D676D2",
"y	c #9B92CF",
"z	c #C6BEFE",
" *4========$y ",
" }6666666666= ",
",owrrrrreee%wn",
",%=pmz7$ppp%}:",
",%$  x<<;  o}:",
",%$ &/vv~1 %rn",
",%m aujjkc }=n",
"[%z gttff- rsn",
"[%z 8355_. r4n",
"z%z >+++++ e4y",
"z%,0~~~~hh>epy",
"7%7]uu((lq^{$y",
"7oscftf999i=md",
"m%s_qqqqqg^s$y",
"m%{bb)bbbb|smd",
"m%ww}{=4ps{$7#",
"zwww{s4p$77z7 ",
" me{=p$$$m7z! ",
"    '@@       "};
