/* XPM */
static char * status_mute_xpm[] = {
"16 16 62 1",
" 	c None",
".	c #186CBC",
"+	c #327ABC",
"@	c #3682C6",
"#	c #367EC0",
"$	c #266EB6",
"%	c #1262B0",
"&	c #1662B2",
"*	c #428AD2",
"=	c #5B9AD6",
"-	c #5EA2E6",
";	c #539DE3",
">	c #4A9BE9",
",	c #3690E6",
"'	c #1A82EE",
")	c #0E72D6",
"!	c #0A64AC",
"~	c #5496D6",
"{	c #4294EE",
"]	c #3D91EB",
"^	c #3296EE",
"/	c #298BE9",
"(	c #2287EA",
"_	c #0F81E3",
":	c #4E94DA",
"<	c #3B96EB",
"[	c #2F90EA",
"}	c #1B88ED",
"|	c #3189DC",
"1	c #62A2E2",
"2	c #80A2C2",
"3	c #669ACA",
"4	c #218EEA",
"5	c #DEE6EE",
"6	c #D2DEEE",
"7	c #81A7CF",
"8	c #6F9ECF",
"9	c #BECAD6",
"0	c #96BCDE",
"a	c #4793DD",
"b	c #0E79D6",
"c	c #0A5EA1",
"d	c #3373AF",
"e	c #CED8E4",
"f	c #F5F7FA",
"g	c #D6E6F2",
"h	c #8CB4DB",
"i	c #1188EB",
"j	c #FEFEFE",
"k	c #E0EBF4",
"l	c #0A6AB8",
"m	c #76A6D2",
"n	c #ECF2F4",
"o	c #0E7ED6",
"p	c #09599F",
"q	c #2692EC",
"r	c #D6E2F2",
"s	c #0C71C4",
"t	c #2A82CA",
"u	c #0666B6",
"v	c #1A629E",
"w	c #2686D6",
"     .+@#$%     ",
"   &*=-;>,')!   ",
"  .~-~{],^/(_!  ",
" &:->]]{<[(/}_! ",
" |1{:23]<32~4}) ",
"$~;{25678950a}bc",
"d;<<8efgefgha'i!",
"+:^<]86jjk0=4}_l",
"+{[^^mejjkh,}_i!",
"d,/(3enkgf574iop",
"d/q'2krhhgn0[osp",
" t/(ahm]am03}bu ",
" vw,/,/}}[|}blp ",
"  cw|4iiii_bsp  ",
"   ps____bs!p   ",
"     p!upcp     "};
