/* XPM */
static char * status_here_male_xpm[] = {
"14 19 65 1",
" 	c None",
".	c #060E7E",
"+	c #1664D0",
"@	c #9DCDFC",
"#	c #728ECE",
"$	c #517AC6",
"%	c #0581FA",
"&	c #3E76CA",
"*	c #0436A8",
"=	c #4E82CE",
"-	c #2D9BFE",
";	c #DAEEFE",
">	c #1A76E6",
",	c #064EC6",
"'	c #83ABE3",
")	c #3E7ACE",
"!	c #6692D6",
"~	c #3286E6",
"{	c #1696FE",
"]	c #77BEFE",
"^	c #2062C8",
"/	c #5A96DE",
"(	c #021E92",
"_	c #1686F6",
":	c #52ADFE",
"<	c #2E52AE",
"[	c #369EFE",
"}	c #2286F6",
"|	c #4A6EC2",
"1	c #0A3AAA",
"2	c #96CCFE",
"3	c #6EA2E2",
"4	c #AFD6FD",
"5	c #0E87FE",
"6	c #5AA6F2",
"7	c #195DC2",
"8	c #02269A",
"9	c #82A6E0",
"0	c #56AEFE",
"a	c #204FB3",
"b	c #1C44AB",
"c	c #1A66CE",
"d	c #268AFA",
"e	c #0389FE",
"f	c #10309F",
"g	c #37A5FE",
"h	c #296CCE",
"i	c #A5D5FE",
"j	c #0870E4",
"k	c #2594FE",
"l	c #42A2FE",
"m	c #66B5FE",
"n	c #365EB6",
"o	c #1A56BF",
"p	c #0A89FE",
"q	c #16369E",
"r	c #158FFE",
"s	c #022FA3",
"t	c #86C6FE",
"u	c #6EA6E6",
"v	c #2E72CE",
"w	c #193EA5",
"x	c #1E4AB0",
"y	c #86B2E8",
"z	c #BAD2F2",
"    &=$$$n    ",
"  )34;;;;z#<  ",
"  /@4444i4@|  ",
" v6]]]]]]m0~f ",
" h[llg-[[kp%8 ",
" 7__r_5ee%%j8 ",
" oj%p5%_5e%,( ",
"  o>ddkkd}+s  ",
"   a^hhhhoq   ",
" hh7aabbbwbab ",
"v3yy'y''9999!q",
"v2iiii@ii@22tw",
"hmmmmm:::[-k-1",
"+----krrreeee*",
"+555ppeeeeeees",
"7eeeeeeeeeeees",
"7{{{{{{{{{{{{*",
"7ggggggggggggf",
"wa<aabbbbbwwf."};
