/* XPM */
static char * status_ignore_xpm[] = {
"16 16 63 1",
" 	c None",
".	c #7A3414",
"+	c #8C492C",
"@	c #964E2E",
"#	c #844022",
"$	c #7B2B0B",
"%	c #723212",
"&	c #B25A2E",
"*	c #C8663D",
"=	c #D87042",
"-	c #D65E28",
";	c #D2561E",
">	c #BE4A17",
",	c #9E3E12",
"'	c #6A240A",
")	c #863414",
"!	c #CE6532",
"~	c #E07642",
"{	c #E46425",
"]	c #E45E1C",
"^	c #E2581C",
"/	c #DA5216",
"(	c #D04E16",
"_	c #C44817",
":	c #AC3C12",
"<	c #6E2A0C",
"[	c #5E2008",
"}	c #AE522A",
"|	c #B68266",
"1	c #BD6C4A",
"2	c #C27656",
"3	c #BA866E",
"4	c #C9582A",
"5	c #BE4616",
"6	c #95330E",
"7	c #783C22",
"8	c #DC652F",
"9	c #C98468",
"0	c #F1E1DB",
"a	c #E2D1C9",
"b	c #CEBAB2",
"c	c #DAA28A",
"d	c #D26636",
"e	c #E0CAC0",
"f	c #FEFDFC",
"g	c #EFD9CF",
"h	c #F2EEEE",
"i	c #D49379",
"j	c #B84316",
"k	c #CC7E5A",
"l	c #D69C86",
"m	c #C75223",
"n	c #A63612",
"o	c #F8F4F4",
"p	c #541A06",
"q	c #BC4E21",
"r	c #B27E6A",
"s	c #CE8E76",
"t	c #F6EAE6",
"u	c #862C0A",
"v	c #9F360F",
"w	c #602810",
"x	c #A34722",
"     .+@@#$     ",
"   %&*=--;>,'   ",
"  )!~={]^/(_:<  ",
" %!~{^]{^/((_:[ ",
" }={!|1^^234_56 ",
"7*8]90a92b0c45:'",
"+d^{2efgeh0i4j:'",
"+-/^^kaff0l*_5:'",
"+-/^4kaff0im5jn'",
"#4((1eh00o095j6p",
"7q_5r0gisgtl>:up",
" ,q5&s9m4ki1jv' ",
" wxm5m>55q}jv$p ",
"  'xq5jjj::6$p  ",
"   [)v:nv6$'p   ",
"     [''ppp     "};
