/* XPM */
static char * status_idle_xpm[] = {
"14 19 65 1",
" 	c None",
".	c #0E4696",
"+	c #687A0E",
"@	c #858F19",
"#	c #A6B7DD",
"$	c #A2A02E",
"%	c #9EAE9A",
"&	c #C1B53D",
"*	c #C2C27A",
"=	c #7E8A1E",
"-	c #466C8C",
";	c #BEB65A",
">	c #4A92B2",
",	c #C3CFE6",
"'	c #C6B626",
")	c #CEC2AA",
"!	c #225A9A",
"~	c #4A5ACE",
"{	c #FAF6DE",
"]	c #8C9358",
"^	c #D2BE42",
"/	c #5174D1",
"(	c #1A529A",
"_	c #9EAA66",
":	c #CEC68E",
"<	c #E9C839",
"[	c #2A52D6",
"}	c #CAC26E",
"|	c #CAB222",
"1	c #F4E6B0",
"2	c #0A4FC2",
"3	c #7478A8",
"4	c #76828C",
"5	c #93973E",
"6	c #768E62",
"7	c #145ED8",
"8	c #D6D08A",
"9	c #D2BA2E",
"0	c #D2C266",
"a	c #5A8E92",
"b	c #2F6AD2",
"c	c #E9C122",
"d	c #4A8AA6",
"e	c #1A51E1",
"f	c #F2DB83",
"g	c #D6CA76",
"h	c #B3AC45",
"i	c #92950F",
"j	c #6182CE",
"k	c #939823",
"l	c #D3DBEA",
"m	c #DEBA4E",
"n	c #7494AE",
"o	c #E5B81C",
"p	c #B0A524",
"q	c #1246CE",
"r	c #2A5DE0",
"s	c #B8B356",
"t	c #EDD05F",
"u	c #E6C238",
"v	c #7EA692",
"w	c #436BDE",
"x	c #EDC645",
"y	c #0A53DA",
"z	c #B7AF32",
"    s;;;sh    ",
"  sg1{{{{1*5  ",
"  011111111s  ",
" &gffffffft^@ ",
" zxtxtxxxcoo@ ",
" poc<cccccc|= ",
" p|ccccccccp= ",
"  p9u<<<<c|i  ",
"   pz&&&&z@   ",
" h_nn~3]kkk$k ",
"h%jwree[3:88}@",
"pjwr[7eeq:11f$",
"nw////wbevuxuk",
"/j,llll#b>oook",
"r/#l,,,#bdoooi",
"-ebrbr772aoooi",
"5qeyyy22!5oooi",
"$32y7y2!6mxxx@",
"i5]](.-65k5i=+"};
