/* XPM */
static char * status_away_xpm[] = {
"14 19 65 1",
" 	c None",
".	c #7A171B",
"+	c #8A4860",
"@	c #8E6E52",
"#	c #B0A828",
"$	c #E4C4C1",
"%	c #DAA29E",
"&	c #BEA23E",
"*	c #A20606",
"=	c #C2C27A",
"-	c #B06E64",
";	c #8A1A0A",
">	c #C6B626",
",	c #EAD3D0",
"'	c #9E425E",
")	c #DEB64E",
"!	c #5A720E",
"~	c #E2B2AE",
"{	c #AC1E0C",
"]	c #848E18",
"^	c #F5E8B6",
"/	c #B45A22",
"(	c #DEC888",
"_	c #D2BE42",
":	c #C42011",
"<	c #9E7A5A",
"[	c #B6764A",
"}	c #C2422D",
"|	c #E9C839",
"1	c #CAB222",
"2	c #C89284",
"3	c #CAC26E",
"4	c #B9B455",
"5	c #C1594B",
"6	c #BA2A26",
"7	c #D6D08A",
"8	c #949715",
"9	c #D2BA2E",
"0	c #6E364A",
"a	c #DD3318",
"b	c #FAF6DE",
"c	c #D6CA76",
"d	c #E9C122",
"e	c #A8912C",
"f	c #F2DA82",
"g	c #E04222",
"h	c #D2C266",
"i	c #B81009",
"j	c #B28E22",
"k	c #96982A",
"l	c #D24E38",
"m	c #B65E5E",
"n	c #D15B42",
"o	c #B6361A",
"p	c #C0B541",
"q	c #F3E2A0",
"r	c #E5B81C",
"s	c #B5A83E",
"t	c #EDC644",
"u	c #EBCE57",
"v	c #F2D97C",
"w	c #B67A46",
"x	c #E6C238",
"y	c #CC2E1D",
"z	c #BC8E54",
"    44444s    ",
"  pc^bbbb^=k  ",
"  hq^^^^^^q4  ",
" p(vffvvvvu_] ",
" 1|uututtxrr] ",
" srdddddddd9] ",
" #1xddddddd#] ",
"  #9|||||918  ",
"   #s>p>p#]   ",
" &z-mnwek8k#k ",
"szmlgay}z7773]",
"&5gaaya:o(qqqk",
"wlnnnl}}:-xxt8",
"ln$,,,,%y'rrd8",
"}n~$$$$26'rrr8",
"/yayy::i*+rrr8",
"j{:::ii*.<rrr8",
"#/{iii*;@)ttx]",
"kkje;.0@ekkk]!"};
