/* XPM */
static char * status_here_xpm[] = {
"14 19 65 1",
" 	c None",
".	c #5A720E",
"+	c #9E9E2A",
"@	c #F2E3A6",
"#	c #BCAC32",
"$	c #D6D18A",
"%	c #C2AE3A",
"&	c #C6C274",
"*	c #EEC246",
"=	c #C6B626",
"-	c #E9C63C",
";	c #76820E",
">	c #D2C266",
",	c #CAB222",
"'	c #F2DA80",
")	c #FAF6DE",
"!	c #D6B216",
"~	c #D2BA2E",
"{	c #868E0E",
"]	c #EAC221",
"^	c #B6A616",
"/	c #D6CA76",
"(	c #BBB559",
"_	c #9A9E2A",
":	c #DACA7A",
"<	c #EABA2A",
"[	c #EECE55",
"}	c #B6B656",
"|	c #8A8E0E",
"1	c #F5E3A1",
"2	c #E8C237",
"3	c #E2CE66",
"4	c #A6A42E",
"5	c #E7BA19",
"6	c #8A921E",
"7	c #EDCA48",
"8	c #BCB24A",
"9	c #F3E9BA",
"0	c #969A12",
"a	c #F1D570",
"b	c #929616",
"c	c #AAAA42",
"d	c #E5B61A",
"e	c #E9BE22",
"f	c #919625",
"g	c #C2B739",
"h	c #BBAF3D",
"i	c #B5A626",
"j	c #F2DE92",
"k	c #929A3E",
"l	c #B2AE2E",
"m	c #F6E6AE",
"n	c #979A24",
"o	c #EECE62",
"p	c #E8BE2A",
"q	c #BAB232",
"r	c #EBCA3F",
"s	c #94960E",
"t	c #DBD28C",
"u	c #ACA52A",
"v	c #EAC22A",
"w	c #84901E",
"x	c #D2BE42",
"y	c #A2A22C",
"z	c #7E8A1E",
"    8(((8c    ",
"  8/9))))9&k  ",
"  >@99mmmm@}  ",
" h3a'''''ao~6 ",
" #[[[777r*pd{ ",
" i5vvvep]ee!{ ",
" u,<]]]eee]^; ",
"  u~--rrrxqb  ",
"   4qgqg=l6   ",
" h#4yy___fnyn ",
"#/ttttttt$t$&6",
"h1mmmmmmmm1@jn",
"#'a'aa[[[-*v-n",
"#rrrr-vve55550",
"^e5e55d55dddds",
"id555d5dddddds",
"i<<<<<<<<<<<<b",
"42**-*-******{",
"fy44y+n++nffz."};
