/* XPM */
static char * status_cam_xpm[] = {
"14 19 65 1",
" 	c None",
".	c #92962A",
"+	c #6E66A2",
"@	c #AAAE46",
"#	c #C6BE5E",
"$	c #EEEAFE",
"%	c #C6C276",
"&	c #BFB8F1",
"*	c #EDDF9D",
"=	c #BAAA2C",
"-	c #D2CEFE",
";	c #AAAA3E",
">	c #DEC23A",
",	c #C6AE16",
"'	c #F2E2A2",
")	c #7E72B2",
"!	c #F6E6AE",
"~	c #CAAE2A",
"{	c #E2DEFE",
"]	c #9990CC",
"^	c #F6F6FE",
"/	c #CEAE26",
"(	c #C6BEFA",
"_	c #DBD6FE",
":	c #D2BE32",
"<	c #D2C25E",
"[	c #B2AAEA",
"}	c #9A9A1A",
"|	c #CCB63E",
"1	c #D6B62A",
"2	c #D2CA7A",
"3	c #D0CAFE",
"4	c #FEFEFE",
"5	c #DACA72",
"6	c #E6B719",
"7	c #948AC6",
"8	c #A69CDA",
"9	c #B6A612",
"0	c #DAC236",
"a	c #EADC94",
"b	c #C8C2FD",
"c	c #E6E2FE",
"d	c #C2B23A",
"e	c #B6A61E",
"f	c #EED15A",
"g	c #DABA26",
"h	c #BEAE36",
"i	c #9E96D3",
"j	c #E8BC1E",
"k	c #ECC84A",
"l	c #EAC223",
"m	c #CBC6FE",
"n	c #B5AA31",
"o	c #FAFAFE",
"p	c #DEDAFE",
"q	c #CABA2E",
"r	c #D6D292",
"s	c #D7D1FE",
"t	c #E9E6FE",
"u	c #BEB652",
"v	c #EABB28",
"w	c #EAC236",
"x	c #B4B046",
"y	c #EECE52",
"z	c #F1EEFE",
" 8_pppppppp3] ",
" z4444444444{ ",
"&^ztttttccc^z]",
"&^p-m(b3---^$7",
"&^3  2rr%  ot7",
"&^3 5'!''# ^t]",
"&^m kfyyk1 $p]",
"&^( 1lljj, t_]",
"(^( n:>0q} cs]",
"(^( uxxx;; cs]",
"(^&<a***aaxc-]",
"b^b|yfkkwjh{3]",
"b^_1vjj6669p3i",
"mop~vvvvv6e_3]",
"b^{;hhh==n._mi",
"m^z^$p_ss_p3b8",
"(zztc_s33mb(( ",
" b{{_s--mmb([ ",
"    )++       "};
