/* XPM */
static char * status_cam_male_xpm[] = {
"14 19 65 1",
" 	c None",
".	c #0A3EAE",
"+	c #3661BD",
"@	c #5292DE",
"#	c #4EAAFE",
"$	c #A6D4FE",
"%	c #8AAADE",
"&	c #0262DE",
"*	c #F7F7FE",
"=	c #A69CDA",
"-	c #426EC6",
";	c #1376E5",
">	c #B2AAEA",
",	c #5686D6",
"'	c #D7D2FE",
")	c #EBE7FE",
"!	c #6E66A2",
"~	c #467ACE",
"{	c #6E92D2",
"]	c #167EEA",
"^	c #9ECEFE",
"/	c #3286E2",
"(	c #C6BEFA",
"_	c #CBC6FE",
":	c #7E72B2",
"<	c #028AFE",
"[	c #948AC6",
"}	c #E4E0FE",
"|	c #8AAEE2",
"1	c #329EFE",
"2	c #1E46AA",
"3	c #6CA0E2",
"4	c #2A62C2",
"5	c #068AFE",
"6	c #92C1F6",
"7	c #86BAF2",
"8	c #2682EE",
"9	c #0256CE",
"0	c #FEFEFE",
"a	c #F4F2FE",
"b	c #D0CAFE",
"c	c #128AFE",
"d	c #2A74D4",
"e	c #429AF6",
"f	c #DBD6FE",
"g	c #F1EEFE",
"h	c #9E96D3",
"i	c #0E8EFE",
"j	c #BFB8F1",
"k	c #369EFE",
"l	c #3EA2FE",
"m	c #2296FE",
"n	c #1E6EDE",
"o	c #115DCB",
"p	c #1695FE",
"q	c #9990CC",
"r	c #96C7F7",
"s	c #227AE6",
"t	c #3868C2",
"u	c #DEDAFE",
"v	c #D3CEFE",
"w	c #C8C2FD",
"x	c #0B86FE",
"y	c #47A7FE",
"z	c #286CCD",
" =fuuuuuuuubq ",
" g0000000000} ",
"j*a)))})})}*gq",
"j*fb_(_bvbv*)[",
"jav  3||{  *)[",
"jab 3^$$r, *)q",
"j*_ eyyy1] )uq",
"(a( ;cxxx& )fq",
"(*( od88n. }'q",
"(*( ~tt+++ )'q",
"(*j@r66667-}vq",
"w*(/yylkmio}bq",
"w*';cc<5<<9ubh",
"_0f;ppppppofbq",
"w*}4ddzzz42f_h",
"_ag*)uf'vuuvw=",
"(gg)}f'vb_((( ",
" _}}u'vbb__(> ",
"    :!!       "};
