/* XPM */
static char * status_here_female_xpm[] = {
"14 19 65 1",
" 	c None",
".	c #760A4A",
"+	c #F2A2F6",
"@	c #DE89DA",
"#	c #C356B7",
"$	c #B61EA8",
"%	c #BC50AE",
"&	c #BE0EAE",
"*	c #C134B9",
"=	c #FADAFE",
"-	c #C22EB6",
";	c #DE0ADE",
">	c #961677",
",	c #C632BC",
"'	c #C222BE",
")	c #D65ED6",
"!	c #C246B6",
"~	c #CA32BE",
"{	c #F59DFA",
"]	c #A4268D",
"^	c #C646BE",
"/	c #CE1EC2",
"(	c #CE6AC6",
"_	c #C62AC2",
":	c #F0BCF2",
"<	c #F27CF6",
"[	c #DA3ADA",
"}	c #DA72D6",
"|	c #C676BA",
"1	c #8A0A66",
"2	c #E73FF6",
"3	c #AE3A9E",
"4	c #E322F2",
"5	c #D21AD2",
"6	c #E612F2",
"7	c #DA26D2",
"8	c #921A72",
"9	c #F6ABFA",
"0	c #E662EA",
"a	c #EE4AF6",
"b	c #9E3A86",
"c	c #F28EF6",
"d	c #DE76DE",
"e	c #EE33F2",
"f	c #BD1EB4",
"g	c #EE5BF6",
"h	c #E71BF2",
"i	c #AC2599",
"j	c #ED3AF3",
"k	c #920672",
"l	c #961E7A",
"m	c #E70EF2",
"n	c #F6B2FA",
"o	c #E72DEE",
"p	c #9D2083",
"q	c #E916F2",
"r	c #B626A6",
"s	c #DE0EF0",
"t	c #A2128A",
"u	c #EE3EF6",
"v	c #EE72F6",
"w	c #9B0B81",
"x	c #AE2A9C",
"y	c #F26AF6",
"z	c #A32188",
"    !###%3    ",
"  !dn====:|b  ",
"  )+nnnnn9+%  ",
" *0<<<v<<vg[> ",
" -aaaa2jjoqsw ",
" rh44hqqqmm;k ",
" $5hhqqhqqh&1 ",
"  $7oeeeeo/w  ",
"   i_~~~,r8   ",
" **r]]zzzpziz ",
"*}@@@@@@@@@@(l",
"~{999999+{{{cp",
"_yyyyyggg2oojt",
"'jjjjo4hh66ssw",
"fhqqh666s;mmmw",
"fm66ms66ssss;w",
"f444444444h44w",
"i222222222222>",
"8]x]]]ppp]pl8."};
