/* XPM */
static char * stealth_on_xpm[] = {
"16 15 29 1",
" 	c None",
".	c #AF803F",
"+	c #9F6F30",
"@	c #BF903F",
"#	c #B0883F",
"$	c #D0AF40",
"%	c #EFD050",
"&	c #FFE05F",
"*	c #EFCF4F",
"=	c #DFAF60",
"-	c #FFE88F",
";	c #FFEF90",
">	c #FFEF8F",
",	c #FFE86F",
"'	c #FFDF4F",
")	c #FFF0AF",
"!	c #FFF7BF",
"~	c #FFEF7F",
"{	c #FFF09F",
"]	c #FFD740",
"^	c #EFC040",
"/	c #F0D76F",
"(	c #6078C0",
"_	c #FFCF30",
":	c #FFC72F",
"<	c #DFA03F",
"[	c #BF5830",
"}	c #F0D050",
"|	c #CF783F",
"     ..++..     ",
"   @#$%&&*$#@   ",
"  .=-;;>,&''$@  ",
" @=;)!!)>~,''$@ ",
" .-)!--!{,],]]# ",
".=;!-@^!{^@&']$.",
"./;)-(^!{^(&&_^.",
"+,;)---){&&&&:]+",
"+&~;))){>~,&':]+",
".*&==>>~~,,<=:^.",
".$]^[/,,,&}[<_$.",
" #']<|$}}$|<:]# ",
" @$]_<|[[|<:_<@ ",
"  @$]_::::__<#  ",
"   @#$^]]^$#@   "};
