/* XPM */
static char * stealth_off_xpm[] = {
"16 16 33 1",
" 	c None",
".	c #9FAAB3",
"+	c #B5C2CE",
"@	c #CFD6E0",
"#	c #D9E2E8",
"$	c #E2EAEE",
"%	c #AABAC2",
"&	c #BAC6D2",
"*	c #F2F2FA",
"=	c #A2B0BA",
"-	c #E6EBEF",
";	c #DCDEE0",
">	c #C8CADA",
",	c #AEB6C0",
"'	c #A8B6BE",
")	c #EEF2F5",
"!	c #DFE2E7",
"~	c #C3CED4",
"{	c #D2DEE6",
"]	c #CBD1DD",
"^	c #FEFAFE",
"/	c #B6BEC6",
"(	c #A7B2BC",
"_	c #D2DAE0",
":	c #BECDD2",
"<	c #E1E6EC",
"[	c #B1BEC6",
"}	c #F2F6FB",
"|	c #E2EEEE",
"1	c #C5D2D8",
"2	c #FAFAFE",
"3	c #EAEEF2",
"4	c #DADEE8",
"      .....     ",
"      ,//%,     ",
"    (%]!-#~''   ",
"   (@))*-$$<@(  ",
"  (@}}}})33<!1( ",
"  %)}22}*33|;;' ",
".,>@+/+<}#[[[&[=",
"./#!@4{$}<@@1~~,",
".+333*}}))3<$_@[",
".[#<33|33--$!_1,",
".(:<<|$<<<<<{@[(",
"  '_##4{#44;@@' ",
"  =+_1%...'~]~( ",
"   =+]1]~~~@~(  ",
"    ==+:~>['=   ",
"      =''''[    "};
