/* XPM */
static char * webcam_xpm[] = {
"16 16 17 1",
" 	c None",
".	c #FFFFFF",
"+	c #CCCCCC",
"@	c #99CC99",
"#	c #999999",
"$	c #669966",
"%	c #BB0000",
"&	c #EEEEEE",
"*	c #DDDDDD",
"=	c #BBBBBB",
"-	c #AAAAAA",
";	c #888888",
">	c #777777",
",	c #555555",
"'	c #444444",
")	c #000000",
"!	c #C8C8C8",
"      )-**)     ",
"     *-...*=)   ",
"    +.>;...+=   ",
"   )=)->;..*-)  ",
"   )-')>>&&*-)  ",
"   )=)->;&&=-)  ",
"    -.>>=*+-=   ",
"    )+-=+=--)   ",
"    ),==-;;)-   ",
"   .&&+,,&&=-)  ",
" ).&&&@&&&&.-)  ",
"=&&&&&$&&&&&.;  ",
"))#==&;&&&&&&;) ",
"     ))==&;&&.) ",
"         )))=+; ",
"             )) "};
