/* XPM */
static char *left[] = {
/* width height num_colors chars_per_pixel */
"    24    24       49            1",
/* colors */
". c #000000",
"# c #181818",
"a c #2b2b2b",
"b c #37592f",
"c c #3a5934",
"d c #3b5e31",
"e c #3f6534",
"f c #445840",
"g c #4b7040",
"h c #537c49",
"i c #59814f",
"j c #5d8554",
"k c #749868",
"l c #749a6b",
"m c #759b6c",
"n c #759c6d",
"o c #7ea476",
"p c None None",
"q c #80a776",
"r c #84a778",
"s c #82a87b",
"t c #83aa7a",
"u c #83aa7c",
"v c #85a879",
"w c #86a97c",
"x c #87ac7d",
"y c #88ac80",
"z c #90b387",
"A c #9abb8f",
"B c #9dbb90",
"C c #b1c7ac",
"D c #c9d8c5",
"E c #cbdac7",
"F c #cedccb",
"G c #d4e0d1",
"H c #d7e3d5",
"I c #dee7dc",
"J c #e1eadf",
"K c #e4ebe2",
"L c #e5ece3",
"M c #ebf1ea",
"N c #edf2eb",
"O c #eef3ed",
"P c #eff3ee",
"Q c #f0f4ef",
"R c #f1f5f0",
"S c #f3f7f3",
"T c #f4f7f4",
"U c #ffffff",
/* pixels */
"pppppppppppppppppppppppp",
"pppppppppppppppppppppppp",
"pppppppppppppppppppppppp",
"pppppppppppppppppppppppp",
"pppppppppppppppppppppppp",
"pppppppppppppppp..pppppp",
"pppppppppppppp..J.pppppp",
"pppppppppppp..GQU.pppppp",
"pppppppppp..FQNSU.pppppp",
"pppppppp..DRMPRTU.pppppp",
"pppppp.#EQLMMPPPU.pppppp",
"pppp..COIHIKMPPPUapppppp",
"pppp..cimrovuyuyB.pppppp",
"pppppp..fhnwrsxtA.pppppp",
"pppppppp..ghkvqxA.pppppp",
"pppppppppp..dhlqz.pppppp",
"pppppppppppp..bju.pppppp",
"pppppppppppppp..e.pppppp",
"pppppppppppppppp..pppppp",
"pppppppppppppppppppppppp",
"pppppppppppppppppppppppp",
"pppppppppppppppppppppppp",
"pppppppppppppppppppppppp",
"pppppppppppppppppppppppp"
};
