/* XPM */
static char * ganim8_edit_xpm[] = {
"22 22 269 2",
"  	c None",
". 	c #7F625A",
"+ 	c #846B63",
"@ 	c #997C6D",
"# 	c #B6967F",
"$ 	c #B99882",
"% 	c #A2816E",
"& 	c #827E7E",
"* 	c #A09995",
"= 	c #B0A59D",
"- 	c #BCAB9E",
"; 	c #CCB09D",
"> 	c #C9A589",
", 	c #A8856D",
"' 	c #919191",
") 	c #C0BFBF",
"! 	c #D4D3D3",
"~ 	c #CECDCD",
"{ 	c #BCB9B5",
"] 	c #BCAA9D",
"^ 	c #C2A185",
"/ 	c #BB9373",
"( 	c #8A6E5D",
"_ 	c #C4C2B6",
": 	c #BBB6AA",
"< 	c #A69F99",
"[ 	c #CCC7C4",
"} 	c #E0DBD6",
"| 	c #DBD4CE",
"1 	c #D2CFCC",
"2 	c #C8C8C7",
"3 	c #B4B0AC",
"4 	c #A8907F",
"5 	c #AA846B",
"6 	c #7B6356",
"7 	c #C2C1BB",
"8 	c #CFCDC4",
"9 	c #DBD8CC",
"0 	c #E8E2D5",
"a 	c #D8CEBF",
"b 	c #C9BAAD",
"c 	c #DACEC3",
"d 	c #E8DBD2",
"e 	c #E3D2C4",
"f 	c #D6C2B1",
"g 	c #CFC2B7",
"h 	c #C5C1BE",
"i 	c #A1A1A1",
"j 	c #857571",
"k 	c #8E6B61",
"l 	c #68534F",
"m 	c #BFBEB8",
"n 	c #D5D4CE",
"o 	c #E1E1DA",
"p 	c #EEEDE4",
"q 	c #EFEBDE",
"r 	c #E5DACC",
"s 	c #DDCEC1",
"t 	c #E7D9CF",
"u 	c #EBDED3",
"v 	c #E5D2C2",
"w 	c #DCC2AC",
"x 	c #D6B9A1",
"y 	c #CCB39D",
"z 	c #B2A49A",
"A 	c #8D8A88",
"B 	c #746666",
"C 	c #785A58",
"D 	c #5E4C4B",
"E 	c #C3C1B8",
"F 	c #D8D5CC",
"G 	c #E4E2DB",
"H 	c #F2F1EB",
"I 	c #F9F8F2",
"J 	c #F4F1E9",
"K 	c #E6DDD1",
"L 	c #DECFC2",
"M 	c #E6D9CE",
"N 	c #EDE1D7",
"O 	c #E5D4C4",
"P 	c #DDC4AD",
"Q 	c #D8BCA2",
"R 	c #D2B39A",
"S 	c #C2A187",
"T 	c #A28A78",
"U 	c #8B847E",
"V 	c #716868",
"W 	c #625151",
"X 	c #ACAAA3",
"Y 	c #E1DED5",
"Z 	c #EFECE2",
"` 	c #F7F5ED",
" .	c #FAF8F1",
"..	c #F7F4ED",
"+.	c #E8E0D6",
"@.	c #DFD1C5",
"#.	c #E6D8CD",
"$.	c #ECE0D5",
"%.	c #E7D5C5",
"&.	c #DDC5AE",
"*.	c #DABCA4",
"=.	c #D3B49A",
"-.	c #C6A488",
";.	c #B99476",
">.	c #9D826D",
",.	c #837A74",
"'.	c #656362",
").	c #AEADA7",
"!.	c #DEDBD5",
"~.	c #F4F1E7",
"{.	c #F7F5EC",
"].	c #F5F2EA",
"^.	c #E9E0D6",
"/.	c #E0D2C5",
"(.	c #ECDFD5",
"_.	c #E6D5C5",
":.	c #D9BDA3",
"<.	c #D3B59C",
"[.	c #C7A488",
"}.	c #BE9778",
"|.	c #B38C6E",
"1.	c #8A7261",
"2.	c #655F5A",
"3.	c #BAB9B5",
"4.	c #DEDCD6",
"5.	c #F3EFE7",
"6.	c #E8DED3",
"7.	c #E8DBD0",
"8.	c #DDC3AD",
"9.	c #D9BCA2",
"0.	c #BC9676",
"a.	c #B78F6F",
"b.	c #A38269",
"c.	c #716358",
"d.	c #B3B0AC",
"e.	c #C1B8AF",
"f.	c #DAC9BB",
"g.	c #E5D5C9",
"h.	c #EBDED2",
"i.	c #E6D4C4",
"j.	c #D9BBA3",
"k.	c #C5A387",
"l.	c #BC9576",
"m.	c #B78E6E",
"n.	c #A9886F",
"o.	c #9E8D7E",
"p.	c #847E78",
"q.	c #A29084",
"r.	c #D2BCAC",
"s.	c #DEC7B3",
"t.	c #DFC6B0",
"u.	c #DDC2AB",
"v.	c #D9BCA3",
"w.	c #C6A388",
"x.	c #B68E6F",
"y.	c #A98971",
"z.	c #A49383",
"A.	c #B3ACA2",
"B.	c #B9B6AD",
"C.	c #A1A097",
"D.	c #BBA79B",
"E.	c #E3D2C5",
"F.	c #E8D5C5",
"G.	c #DEC5AE",
"H.	c #D8B99F",
"I.	c #D3B39A",
"J.	c #A49484",
"K.	c #B3ADA3",
"L.	c #CBC7BC",
"M.	c #DEDBCF",
"N.	c #D8D5C9",
"O.	c #ADABA2",
"P.	c #B09A90",
"Q.	c #D7C6BD",
"R.	c #F2E9E1",
"S.	c #F3EAE1",
"T.	c #E8D6C9",
"U.	c #D8BAA4",
"V.	c #C8A58A",
"W.	c #A59484",
"X.	c #B5B0A6",
"Y.	c #CBC8BF",
"Z.	c #DEDACF",
"`.	c #EBE8DA",
" +	c #F1EDDF",
".+	c #DEDACE",
"++	c #C0ACA2",
"@+	c #E9DCD5",
"#+	c #F5EDE7",
"$+	c #F1E6DE",
"%+	c #E5D3C9",
"&+	c #D3B9A8",
"*+	c #BF9E84",
"=+	c #B69071",
"-+	c #A49384",
";+	c #CCCBC2",
">+	c #DFDDD3",
",+	c #EBE8DC",
"'+	c #F1EEE0",
")+	c #F3F0E1",
"!+	c #D8D5C8",
"~+	c #9E9C94",
"{+	c #D6C4BA",
"]+	c #F1E8E0",
"^+	c #F1E5DE",
"/+	c #E7D5CC",
"(+	c #D8C2B8",
"_+	c #C5ADA0",
":+	c #B39682",
"<+	c #A78872",
"[+	c #CDCCC2",
"}+	c #E1E1D7",
"|+	c #EEECE1",
"1+	c #F3F1E5",
"2+	c #F4F1E5",
"3+	c #F1EFE1",
"4+	c #C0BEB3",
"5+	c #8D8A84",
"6+	c #666562",
"7+	c #6A6460",
"8+	c #B9ADA6",
"9+	c #E6D8D1",
"0+	c #D9C3B9",
"a+	c #C5AFA4",
"b+	c #AD978D",
"c+	c #998275",
"d+	c #98887C",
"e+	c #B3AEA6",
"f+	c #CCC9C0",
"g+	c #E0DED4",
"h+	c #EEEBE0",
"i+	c #F2F0E4",
"j+	c #E5E3D8",
"k+	c #C5C4BB",
"l+	c #B8B6AD",
"m+	c #686866",
"n+	c #8B8784",
"o+	c #AFA19A",
"p+	c #C9B5AA",
"q+	c #998479",
"r+	c #877469",
"s+	c #847167",
"t+	c #928D88",
"u+	c #B6B5B0",
"v+	c #DFDED5",
"w+	c #EEEBE1",
"x+	c #F1EEE2",
"y+	c #E6E3D7",
"z+	c #C6C4BA",
"A+	c #94938D",
"B+	c #878681",
"C+	c #4D4E4E",
"D+	c #6A6C6C",
"E+	c #60605F",
"F+	c #6C625C",
"G+	c #8B786C",
"H+	c #887469",
"I+	c #B0AEAA",
"J+	c #D6D5CF",
"K+	c #E5E2D8",
"L+	c #C5C2B9",
"M+	c #97958E",
"N+	c #7C7B76",
"O+	c #484949",
"P+	c #545556",
"Q+	c #434444",
"R+	c #464342",
"S+	c #B5B3AF",
"T+	c #A8A6A0",
"                                .           ",
"                            + @ # $ %       ",
"                          & * = - ; > ,     ",
"                        ' ) ! ~ { ] ^ / (   ",
"                _ :   < [ } | 1 2 3 4 5 6   ",
"          7 8 9 0 a b c d e f g h i j k l   ",
"      m n o p q r s t u v w x y z A B C D   ",
"  E F G H I J K L M N O P Q R S T U V W     ",
"X Y Z `  ...+.@.#.$.%.&.*.=.-.;.>.,.'.      ",
").!.~.{.].^./.t (._.P :.<.[.}.|.1.2.        ",
"  3.4.5.6.L 7.N %.8.9.<.-.0.a.b.c.          ",
"    d.e.f.g.h.i.8.j.<.k.l.m.n.o.p.          ",
"      q.r.s.t.u.v.=.w.l.x.y.z.A.B.C.        ",
"      D.E.F.G.H.I.[.0.m.y.J.K.L.M.N.O.      ",
"    P.Q.R.S.T.U.V.}.a.n.W.X.Y.Z.`. +.+O.    ",
"    ++@+#+$+%+&+*+=+n.-+X.;+>+,+'+)+'+!+~+  ",
"    {+]+^+/+(+_+:+<+z.X.[+}+|+1+2+3+M.4+5+6+",
"  7+8+9+/+0+a+b+c+d+e+f+g+h+1+i+j+k+l+      ",
"  m+n+o+p+P.q+r+s+t+u+v+w+x+y+z+A+B+        ",
"C+D+E+F+G+H+        I+J+K+L+M+N+            ",
"O+P+Q+R+              S+T+                  ",
"                                            "};
