/* XPM */
static char * ganim8_rotate_xpm[] = {
"22 22 42 1",
" 	c None",
".	c #797979",
"+	c #73768C",
"@	c #6A6DA9",
"#	c #6168C8",
"$	c #6569B8",
"%	c #666BB3",
"&	c #6468B7",
"*	c #747687",
"=	c #6A6FA9",
"-	c #6168C6",
";	c #5F67CE",
">	c #6068CB",
",	c #6F719C",
"'	c #73748A",
")	c #747587",
"!	c #6E739F",
"~	c #6468BB",
"{	c #5E66CD",
"]	c #6A6DA7",
"^	c #757584",
"/	c #77777A",
"(	c #767681",
"_	c #6C6FA3",
":	c #6F7196",
"<	c #6168C4",
"[	c #707295",
"}	c #737488",
"|	c #76767B",
"1	c #717490",
"2	c #646AB7",
"3	c #77777E",
"4	c #787879",
"5	c #6E709D",
"6	c #6367BE",
"7	c #6C6FA1",
"8	c #6068C7",
"9	c #A2A2A2",
"0	c #868686",
"a	c #6269C1",
"b	c #6F7396",
"c	c #73748E",
"                      ",
"        ......        ",
"      +@##$%%&@+      ",
"    *=-;>,'  ),!=*    ",
"    ~;{]^      /(_.   ",
"   :#;<.        ...   ",
"   =;;[    .     ...  ",
"   =;;}    .     ...  ",
".|1<;;234  .      ..  ",
" 5{;;;;6'  .      ... ",
"  7;;;8+ 90.....  ... ",
"   5>a)    .      ... ",
"    bc     .      ..  ",
"           .     ...  ",
"           .     ..   ",
"           .    ...   ",
"              ....    ",
"            ....      ",
"          ....        ",
"                      ",
"                      ",
"                      "};
