/* XPM */
static char * ganim8_help_xpm[] = {
"24 24 28 1",
" 	c None",
".	c #D9D5B5",
"+	c #CDC590",
"@	c #C7BE7D",
"#	c #D4CDA3",
"$	c #E0DDC8",
"%	c #B3A546",
"&	c #C0B56B",
"*	c #E6E6DA",
"=	c #BAAE58",
"-	c #8B8036",
";	c #786F2E",
">	c #C5BF95",
",	c #877E49",
"'	c #141307",
")	c #000000",
"!	c #807738",
"~	c #4F4F4F",
"{	c #353535",
"]	c #848484",
"^	c #6A6A6A",
"/	c #BBB065",
"(	c #50491F",
"_	c #3B3717",
":	c #9F933D",
"<	c #9E9E9E",
"[	c #1B1B1B",
"}	c #A5A180",
"                        ",
"         .+@@@#$        ",
"       #%%%%%%%%&*      ",
"       @%%%%%%%%%=      ",
"       @%%-;-%%%%%>     ",
"       @,')))'%%%%!     ",
"        ~)){~{;%%%;]    ",
"        ~^    /%%%(~    ",
"             .%%%%'~    ",
"            +%%%%_)]    ",
"          @%%%%:_))     ",
"          %%%%()))<     ",
"          %%%%))[<      ",
"          %%%%)]        ",
"          .___)         ",
"           ))))         ",
"         .%%%%}         ",
"         .%%%%.         ",
"         .%%%%_<        ",
"          <))))<        ",
"          <))))<        ",
"                        ",
"                        ",
"                        "};
