/* XPM */
static char * ganim8_insert_xpm[] = {
"20 12 87 1",
" 	c None",
".	c #FFFFFF",
"+	c #002A48",
"@	c #00385C",
"#	c #073A62",
"$	c #104069",
"%	c #184671",
"&	c #12426B",
"*	c #1D4C78",
"=	c #23507E",
"-	c #285583",
";	c #315D8E",
">	c #3F6B9C",
",	c #416D9E",
"'	c #3E6A9B",
")	c #2D598A",
"!	c #063961",
"~	c #093C64",
"{	c #224F7D",
"]	c #356192",
"^	c #4571A2",
"/	c #4B75AA",
"(	c #507EB7",
"_	c #5B88C0",
":	c #6C9BCF",
"<	c #7CA8D9",
"[	c #90B9E3",
"}	c #A4CBEC",
"|	c #B0D3F1",
"1	c #B3D7F2",
"2	c #8EB8E3",
"3	c #4A74A9",
"4	c #00345A",
"5	c #174570",
"6	c #406C9D",
"7	c #6291C5",
"8	c #6493C7",
"9	c #5E8BC3",
"0	c #5986BE",
"a	c #5583BC",
"b	c #78A4D5",
"c	c #93BCE6",
"d	c #ADD1F0",
"e	c #A6CBED",
"f	c #13436C",
"g	c #090909",
"h	c #003052",
"i	c #1C4A75",
"j	c #6F9DD0",
"k	c #6696CA",
"l	c #5885BD",
"m	c #4F7DB6",
"n	c #5280B9",
"o	c #84B0DD",
"p	c #9FC6EA",
"q	c #6190C4",
"r	c #00233C",
"s	c #4C79B1",
"t	c #5482BB",
"u	c #517FB8",
"v	c #5784BC",
"w	c #73A0D2",
"x	c #9BC3E8",
"y	c #194772",
"z	c #002F50",
"A	c #001D32",
"B	c #6392C6",
"C	c #5D8AC2",
"D	c #99C2E8",
"E	c #5F8CC4",
"F	c #0D3D66",
"G	c #001E36",
"H	c #4671A5",
"I	c #6494C9",
"J	c #80ABDB",
"K	c #003154",
"L	c #9DC5EA",
"M	c #1A4873",
"N	c #002C4C",
"O	c #002D4E",
"P	c #204D7B",
"Q	c #15436E",
"R	c #00182A",
"S	c #00223A",
"T	c #043A5F",
"U	c #001C30",
"V	c #000A12",
"                   .",
"  +@#$%$&%*=-;>,')! ",
"  ~{]>^/(_:<[}|1234 ",
"  +567890a_8bcde9fg ",
"   hi/jkl(mn9opqig  ",
"   rh*s:7tuvwxkyz   ",
"    A+%^B7CbDEFA    ",
"     GziHIJcE5r     ",
"      rKiaLEMN      ",
"       rOP9QN       ",
"        RSTU        ",
"         VV         "};
