/* XPM */
static char * ganim8_preview_xpm[] = {
"24 24 72 1",
" 	c None",
".	c #858585",
"+	c #808080",
"@	c #999999",
"#	c #969696",
"$	c #828282",
"%	c #ADADAD",
"&	c #BCBCBC",
"*	c #9F9F9F",
"=	c #B6B6B6",
"-	c #DCDCDC",
";	c #C8C8C8",
">	c #A4A4A4",
",	c #939393",
"'	c #878787",
")	c #B7B7B7",
"!	c #E9E9E9",
"~	c #E4E4E4",
"{	c #C9C9C9",
"]	c #A2A2A2",
"^	c #8C8C8C",
"/	c #E8E8E8",
"(	c #E7E7E7",
"_	c #E2E2E2",
":	c #CCCCCC",
"<	c #9C9C9C",
"[	c #8E8E8E",
"}	c #848484",
"|	c #AFAFAF",
"1	c #DEDEDE",
"2	c #D8D8D8",
"3	c #E0E0E0",
"4	c #A1A1A1",
"5	c #929292",
"6	c #7F7F7F",
"7	c #AAAAAA",
"8	c #D3D3D3",
"9	c #D1D1D1",
"0	c #A3A3A3",
"a	c #A8A8A8",
"b	c #D5D5D5",
"c	c #CACACA",
"d	c #C2C2C2",
"e	c #C4C4C4",
"f	c #A0A0A0",
"g	c #8B8B8B",
"h	c #A5A5A5",
"i	c #CECECE",
"j	c #C6C6C6",
"k	c #C1C1C1",
"l	c #C7C7C7",
"m	c #D6D6D6",
"n	c #E1E1E1",
"o	c #989898",
"p	c #C3C3C3",
"q	c #CBCBCB",
"r	c #A6A6A6",
"s	c #C5C5C5",
"t	c #BABABA",
"u	c #8A8A8A",
"v	c #9E9E9E",
"w	c #BDBDBD",
"x	c #B9B9B9",
"y	c #949494",
"z	c #919191",
"A	c #CFCFCF",
"B	c #BFBFBF",
"C	c #8D8D8D",
"D	c #9A9A9A",
"E	c #B1B1B1",
"F	c #A7A7A7",
"G	c #9B9B9B",
"                        ",
"                        ",
"       .                ",
"      +@#               ",
"      $%&*              ",
"      .=-;>,            ",
"      ')!~{]^           ",
"      ^=/(_:<[          ",
"      }|~123;45         ",
"      67-8;93;05        ",
"      6abcde81;fg       ",
"      6hijkdlmn;o}      ",
"      6]jekp{qer[}      ",
"      6*kss{ct>,u       ",
"      }vw;:ix>y[        ",
"      z]xcAB],[         ",
"      Cv={whzC          ",
"      'DE)>y^           ",
"      .#F4y[            ",
"      $zGz              ",
"      +gg               ",
"       $                ",
"                        ",
"                        "};
