/* XPM */
static char * ganim8_left_xpm[] = {
"21 17 59 1",
" 	c None",
".	c #7F7F7F",
"+	c #A0A0A0",
"@	c #939393",
"#	c #CDCDCD",
"$	c #AEAEAE",
"%	c #9F9F9F",
"&	c #DFDFDF",
"*	c #E5E5E5",
"=	c #E9E9E9",
"-	c #BEBEBE",
";	c #979797",
">	c #888888",
",	c #8E8E8E",
"'	c #8A8A8A",
")	c #8B8B8B",
"!	c #868686",
"~	c #BFBFBF",
"{	c #EDEDED",
"]	c #D7D7D7",
"^	c #B9B9B9",
"/	c #A4A4A4",
"(	c #D3D3D3",
"_	c #DCDCDC",
":	c #DDDDDD",
"<	c #8D8D8D",
"[	c #898989",
"}	c #CECECE",
"|	c #EEEEEE",
"1	c #D0D0D0",
"2	c #B4B4B4",
"3	c #A7A7A7",
"4	c #A9A9A9",
"5	c #D4D4D4",
"6	c #D5D5D5",
"7	c #D6D6D6",
"8	c #CFCFCF",
"9	c #B8B8B8",
"0	c #BCBCBC",
"a	c #B2B2B2",
"b	c #A5A5A5",
"c	c #B6B6B6",
"d	c #BBBBBB",
"e	c #A8A8A8",
"f	c #8C8C8C",
"g	c #909090",
"h	c #ADADAD",
"i	c #ABABAB",
"j	c #B3B3B3",
"k	c #B7B7B7",
"l	c #ACACAC",
"m	c #858585",
"n	c #9A9A9A",
"o	c #989898",
"p	c #919191",
"q	c #848484",
"r	c #949494",
"s	c #9D9D9D",
"t	c #878787",
"                     ",
"                     ",
"          .+         ",
"         @#$         ",
"        %&*%         ",
"       $=&-;>,'>,)   ",
"     !~{]^/~(_:(~<   ",
"    [}|1234~56789<   ",
"   '0(~a3bb4c00def   ",
"    !g%4$hijk^9jl<   ",
"     mfn$je%onno;>   ",
"       [obbp>mmqq)   ",
"        !rsg         ",
"         !gf         ",
"          qt         ",
"                     ",
"                     "};
