/* XPM */
static char * ganim8_palette_xpm[] = {
"22 22 181 2",
"  	c None",
". 	c #645E5A",
"+ 	c #746F6B",
"@ 	c #6B6764",
"# 	c #5B5855",
"$ 	c #B9A797",
"% 	c #DAC5B2",
"& 	c #CBBFB7",
"* 	c #696561",
"= 	c #C8B6A5",
"- 	c #E1CBB4",
"; 	c #CBA586",
"> 	c #B19989",
", 	c #66615F",
"' 	c #65615E",
") 	c #C5B7AA",
"! 	c #E4D0BA",
"~ 	c #D0AA86",
"{ 	c #B49172",
"] 	c #7B695C",
"^ 	c #514E4C",
"/ 	c #484848",
"( 	c #605454",
"_ 	c #645353",
": 	c #615151",
"< 	c #CCBDAE",
"[ 	c #E4CEB8",
"} 	c #CFAB87",
"| 	c #B18F71",
"1 	c #836F5F",
"2 	c #BA7A7A",
"3 	c #CD7C7C",
"4 	c #BC7474",
"5 	c #E4CFB9",
"6 	c #D0AB87",
"7 	c #B19072",
"8 	c #7E6B5E",
"9 	c #56514D",
"0 	c #BC7373",
"a 	c #CC7A7A",
"b 	c #5D5956",
"c 	c #CFAA86",
"d 	c #B08F72",
"e 	c #826E5F",
"f 	c #534F4C",
"g 	c #896060",
"h 	c #926464",
"i 	c #67615C",
"j 	c #C1B0A0",
"k 	c #E2CCB6",
"l 	c #D0AA87",
"m 	c #6F6C68",
"n 	c #C4BCAF",
"o 	c #7E7A75",
"p 	c #AA9786",
"q 	c #B8A290",
"r 	c #736559",
"s 	c #AC8D6F",
"t 	c #BAA794",
"u 	c #8D7F73",
"v 	c #BAA797",
"w 	c #DFC8B3",
"x 	c #CDA685",
"y 	c #B39172",
"z 	c #7C7873",
"A 	c #EDE2D1",
"B 	c #908B84",
"C 	c #CBB19B",
"D 	c #DDC1A7",
"E 	c #816F5E",
"F 	c #D1AC87",
"G 	c #DCC3AF",
"H 	c #D7C8C0",
"I 	c #E2CEBE",
"J 	c #C39F81",
"K 	c #AC8C70",
"L 	c #D8B99B",
"M 	c #D8C6B7",
"N 	c #E2D7D0",
"O 	c #CEB9AF",
"P 	c #AB9386",
"Q 	c #56514E",
"R 	c #595956",
"S 	c #7D7D77",
"T 	c #5F5F5C",
"U 	c #6C6C56",
"V 	c #727158",
"W 	c #6A6A65",
"X 	c #ABAAA0",
"Y 	c #B6AAA5",
"Z 	c #CBBAB1",
"` 	c #96847B",
" .	c #84786A",
"..	c #6A6656",
"+.	c #F2F1DD",
"@.	c #939289",
"#.	c #BCBA73",
"$.	c #CCCB7A",
"%.	c #C0BE78",
"&.	c #989889",
"*.	c #C0BFAA",
"=.	c #817C78",
"-.	c #7C746E",
";.	c #7D785F",
">.	c #80805E",
",.	c #757559",
"'.	c #C1C079",
").	c #9A9A8A",
"!.	c #A9A989",
"~.	c #898965",
"{.	c #76755A",
"].	c #858660",
"^.	c #898960",
"/.	c #7A7A5B",
"(.	c #686865",
"_.	c #81815E",
":.	c #5B5B4F",
"<.	c #747359",
"[.	c #606051",
"}.	c #656553",
"|.	c #5E5E50",
"1.	c #717771",
"2.	c #CBDDCB",
"3.	c #818981",
"4.	c #6EAD6E",
"5.	c #73BC73",
"6.	c #566E56",
"7.	c #69A069",
"8.	c #526352",
"9.	c #5E825E",
"0.	c #5E815E",
"a.	c #597359",
"b.	c #546854",
"c.	c #4D544D",
"d.	c #777D77",
"e.	c #DDF2DD",
"f.	c #DEF2DE",
"g.	c #899389",
"h.	c #7ACC7A",
"i.	c #597459",
"j.	c #6DAC6D",
"k.	c #536753",
"l.	c #618A61",
"m.	c #5B7A5B",
"n.	c #566D56",
"o.	c #608960",
"p.	c #4E564E",
"q.	c #68A068",
"r.	c #5C5C5F",
"s.	c #898993",
"t.	c #656568",
"u.	c #737380",
"v.	c #797988",
"w.	c #4F4F5B",
"x.	c #595974",
"y.	c #4D4D56",
"z.	c #55556A",
"A.	c #515161",
"B.	c #4E4E59",
"C.	c #535365",
"D.	c #4C4C54",
"E.	c #77777D",
"F.	c #DDDDF2",
"G.	c #AAAAC8",
"H.	c #B8B8DA",
"I.	c #6D6DAC",
"J.	c #535367",
"K.	c #656595",
"L.	c #5E5E81",
"M.	c #56566D",
"N.	c #61618A",
"O.	c #525263",
"P.	c #565659",
"Q.	c #676770",
"R.	c #6B6B75",
"S.	c #4C4C52",
"T.	c #515160",
"U.	c #4E4E5A",
"V.	c #4C4C53",
"W.	c #50505D",
"X.	c #4B4B50",
"                                    . + @   ",
"                                  # $ % & @ ",
"                                * = - ; > , ",
"                              ' ) ! ~ { ] ^ ",
"/ / / / ( _ :               ' < [ } | 1 ^   ",
"/     / 2 3 4 /           * ) 5 6 7 8 9     ",
"/     / 0 a 4 /         b < 5 c d e f       ",
"/     / g h g /       i j k l | 8 f         ",
"m n n o p q p r s t u v w x y 1 9           ",
"z A A B C D C E F G H I J K 8 ^             ",
"z A A B C D C E L M N O P 8 Q               ",
"R S S T U V U W X Y Z `  ...                ",
"S +.+.@.#.$.%.&.*.=.-.;.>.,.                ",
"S +.+.@.#.$.'.).!.~.{.].^./.                ",
"T @.@.(./._./.:.<.<.[.}.}.|./ / /           ",
"1.2.2.3.4.5.4.6.7.7.8.9.0.a.b.0.9.c.        ",
"d.e.f.g.5.h.5.i.j.j.k.l.l.m.n.o.l.p.        ",
"1.2.2.3.4.5.4.6.q.q.8.0.0.a.b.0.0.c.        ",
"r.s.s.t.u.v.u.w.x.x.y.z.z.A.B.C.C.D.        ",
"E.F.F.s.G.H.G.x.I.I.J.K.K.L.M.N.N.O.        ",
"E.F.F.s.G.H.G.x.I.I.J.K.K.L.M.N.N.O.        ",
"P.E.E.r.Q.R.Q.y.J.J.S.T.T.U.V.W.W.X.        "};
