/* XPM */
static char * ganim8_right_xpm[] = {
"21 17 59 1",
" 	c None",
".	c #A0A0A0",
"+	c #7F7F7F",
"@	c #AEAEAE",
"#	c #CDCDCD",
"$	c #939393",
"%	c #9F9F9F",
"&	c #E5E5E5",
"*	c #DFDFDF",
"=	c #8B8B8B",
"-	c #8E8E8E",
";	c #888888",
">	c #8A8A8A",
",	c #979797",
"'	c #BEBEBE",
")	c #E9E9E9",
"!	c #8D8D8D",
"~	c #BFBFBF",
"{	c #D3D3D3",
"]	c #DDDDDD",
"^	c #DCDCDC",
"/	c #A4A4A4",
"(	c #B9B9B9",
"_	c #D7D7D7",
":	c #EDEDED",
"<	c #868686",
"[	c #B8B8B8",
"}	c #CFCFCF",
"|	c #D6D6D6",
"1	c #D5D5D5",
"2	c #D4D4D4",
"3	c #A9A9A9",
"4	c #A7A7A7",
"5	c #B4B4B4",
"6	c #D0D0D0",
"7	c #EEEEEE",
"8	c #CECECE",
"9	c #898989",
"0	c #8C8C8C",
"a	c #A8A8A8",
"b	c #BBBBBB",
"c	c #BCBCBC",
"d	c #B6B6B6",
"e	c #A5A5A5",
"f	c #B2B2B2",
"g	c #ACACAC",
"h	c #B3B3B3",
"i	c #B7B7B7",
"j	c #ABABAB",
"k	c #ADADAD",
"l	c #909090",
"m	c #989898",
"n	c #9A9A9A",
"o	c #858585",
"p	c #848484",
"q	c #919191",
"r	c #9D9D9D",
"s	c #949494",
"t	c #878787",
"                     ",
"                     ",
"         .+          ",
"         @#$         ",
"         %&*%        ",
"   =-;>-;,'*)@       ",
"   !~{]^{~/(_:~<     ",
"   ![}|12~3456789    ",
"   0abccd3ee4f~{c>   ",
"   !gh[(ihjk@3%l<    ",
"   ;,mnnm%ah@n0o     ",
"   =ppoo;qeem9       ",
"         lrs<        ",
"         0l<         ",
"         tp          ",
"                     ",
"                     "};
