/* XPM */
static char * ganim8_grey_xpm[] = {
"24 24 32 1",
" 	c None",
".	c #929292",
"+	c #535353",
"@	c #282828",
"#	c #131212",
"$	c #F4F4F4",
"%	c #7E7E7E",
"&	c #151515",
"*	c #100F0F",
"=	c #0F0E0E",
"-	c #0E0D0D",
";	c #404040",
">	c #111111",
",	c #0D0C0C",
"'	c #CECECE",
")	c #2B2B2B",
"!	c #111010",
"~	c #101010",
"{	c #CDCDCD",
"]	c #121212",
"^	c #0C0B0B",
"/	c #161616",
"(	c #0B0A0A",
"_	c #0A0909",
":	c #545454",
"<	c #090808",
"[	c #2A2A2A",
"}	c #3F3F3F",
"|	c #7D7D7D",
"1	c #919191",
"2	c #525252",
"3	c #272626",
"                        ",
"        .+@#$$$$        ",
"      %&*==-$$$$$$      ",
"     ;>*==-,$$$$$$$'    ",
"    )!*~=-,,$$$$$$$${   ",
"   ;]>*=-,,^$$$$$$$$$   ",
"  %]!*=--,^^$$$$$$$$$$  ",
"  /]>*=-,^^($$$$$$$$$$  ",
" .]]>~--,^(_$$$$$$$$$$$ ",
" :]!*=-,,^(_$$$$$$$$$$$ ",
" )]!*=-,^(_<$$$$$$$$$$$ ",
" /]>*=-,^(_<$$$$$$$$$$$ ",
" /]>~=-,^(_<$$$$$$$$$$$ ",
" )]>~=-,^(_<$$$$$$$$$$$ ",
" :]>~=-,^(_<$$$$$$$$$$$ ",
" .]>*=-,^(_<$$$$$$$$$$$ ",
"  /!*=-,^^(<$$$$$$$$$$  ",
"  %]*=-,,^(_$$$$$$$$$$  ",
"   ;>~=-,^(_$$$$$$$$$   ",
"    [*=-,,^($$$$$$$${   ",
"     }~=-,^^$$$$$$${    ",
"      |#--,^$$$$$$      ",
"        123!$$$$        ",
"                        "};
