/* XPM */
static char * ganim8_ok_xpm[] = {
"24 24 128 2",
"  	c None",
". 	c #7AC452",
"+ 	c #86C165",
"@ 	c #6BC43B",
"# 	c #77C44C",
"$ 	c #44C000",
"% 	c #78C450",
"& 	c #48C504",
"* 	c #39A100",
"= 	c #8ABC6F",
"- 	c #7DC456",
"; 	c #52C512",
"> 	c #3AA400",
", 	c #359700",
"' 	c #7FC459",
") 	c #5FC427",
"! 	c #329000",
"~ 	c #83C360",
"{ 	c #67C435",
"] 	c #2C7F00",
"^ 	c #89BE6B",
"/ 	c #3EAF00",
"( 	c #2E8200",
"_ 	c #236300",
": 	c #87C068",
"< 	c #4BC509",
"[ 	c #55A52B",
"} 	c #80AD68",
"| 	c #6AC439",
"1 	c #2F8600",
"2 	c #246800",
"3 	c #143B00",
"4 	c #57C51B",
"5 	c #2C7E00",
"6 	c #5EA637",
"7 	c #84AE6D",
"8 	c #86C167",
"9 	c #71C443",
"0 	c #49C505",
"a 	c #349500",
"b 	c #328D00",
"c 	c #266D00",
"d 	c #184400",
"e 	c #1E2C17",
"f 	c #80C35C",
"g 	c #2B7B00",
"h 	c #65A443",
"i 	c #339200",
"j 	c #287100",
"k 	c #1C5100",
"l 	c #061300",
"m 	c #5E5E5E",
"n 	c #609940",
"o 	c #316515",
"p 	c #328F00",
"q 	c #3D8316",
"r 	c #7BC455",
"s 	c #50C510",
"t 	c #297600",
"u 	c #1E5500",
"v 	c #091A00",
"w 	c #555954",
"x 	c #898989",
"y 	c #597549",
"z 	c #123300",
"A 	c #2E8400",
"B 	c #349400",
"C 	c #308A00",
"D 	c #439218",
"E 	c #6BA64B",
"F 	c #59C51D",
"G 	c #3CAA00",
"H 	c #1E5700",
"I 	c #0C2500",
"J 	c #444642",
"K 	c #848484",
"L 	c #6C6C6C",
"M 	c #212A1B",
"N 	c #163E00",
"O 	c #2F8700",
"P 	c #44901C",
"Q 	c #7AAB60",
"R 	c #8DB677",
"S 	c #63C42D",
"T 	c #205C00",
"U 	c #163605",
"V 	c #252525",
"W 	c #717171",
"X 	c #030900",
"Y 	c #1A4B00",
"Z 	c #428120",
"` 	c #133800",
" .	c #131313",
"..	c #8D8D8D",
"+.	c #636662",
"@.	c #1A4C00",
"#.	c #318C00",
"$.	c #368809",
"%.	c #42861D",
"&.	c #3FB200",
"*.	c #369900",
"=.	c #153D00",
"-.	c #767676",
";.	c #4B4B4B",
">.	c #142909",
",.	c #174100",
"'.	c #24341C",
").	c #343434",
"!.	c #183209",
"~.	c #1C2E13",
"{.	c #505050",
"].	c #102F00",
"^.	c #215F00",
"/.	c #091C00",
"(.	c #7B7B7B",
"_.	c #2E362A",
":.	c #1F5A00",
"<.	c #0C2200",
"[.	c #494E47",
"}.	c #676767",
"|.	c #2C3925",
"1.	c #276E00",
"2.	c #102D00",
"3.	c #3C4139",
"4.	c #226200",
"5.	c #232821",
"6.	c #000000",
"7.	c #131E0E",
"                                              . ",
"                                            + @ ",
"                                            # $ ",
"                                          % & * ",
"                                      = - ; > , ",
"                                    = ' ) * , ! ",
"                                    ~ { , , , ] ",
"      ^ # ^                       ~ { / , , ( _ ",
"    : # < [ }                   ~ | $ , , 1 2 3 ",
"  ^ . 4 , 5 6 7               8 9 0 , a b c d e ",
"  f ) , , , g h               . < , , i j k l m ",
"# n o 5 , , p q h           r s > , p t u v w x ",
"- y z _ A B , C D E       ' F G , p g H I J K   ",
"  L M N 2 O B , O P Q R ~ S G , i ] T U V x     ",
"    W X Y c b , , O Z : 9 > , , A _ `  .        ",
"    ..+.l @.j #., i $.%.&.*., A 2 =.M -.        ",
"      ..;.>.k t b , i 1 , , O c ,.'.m           ",
"          ).!.u g ! , , , b j Y ~.{.            ",
"            V ].^.] , , , t u /.;.              ",
"            (._.z _ g g g :.<.[.K               ",
"              }.|.3 _ 1.^.2.3.(.                ",
"                m e d 4.` 5.(.                  ",
"                  m l ,.6.K                     ",
"                    w 7.W                       "};
