/* XPM */
static char * ganim8_save_xpm[] = {
"22 22 236 2",
"  	c None",
". 	c #666666",
"+ 	c #6E6B70",
"@ 	c #6D6279",
"# 	c #6E5F81",
"$ 	c #6F5F81",
"% 	c #6E5F80",
"& 	c #6C5D7D",
"* 	c #6A5B7A",
"= 	c #68597A",
"- 	c #675877",
"; 	c #665777",
"> 	c #655675",
", 	c #655674",
"' 	c #645674",
") 	c #635573",
"! 	c #625473",
"~ 	c #5C5665",
"{ 	c #595759",
"] 	c #505050",
"^ 	c #807F80",
"/ 	c #959198",
"( 	c #A296AF",
"_ 	c #AF9DC2",
": 	c #B19FC4",
"< 	c #AE9CC1",
"[ 	c #AA99BD",
"} 	c #A695B8",
"| 	c #A392B6",
"1 	c #A190B4",
"2 	c #A090B2",
"3 	c #9F8FB1",
"4 	c #9F8EB1",
"5 	c #9E8EB0",
"6 	c #9D8DAE",
"7 	c #998AAB",
"8 	c #7F7787",
"9 	c #6C6B6E",
"0 	c #585858",
"a 	c #7D7D7D",
"b 	c #989899",
"c 	c #CECDD0",
"d 	c #F1EFF4",
"e 	c #F4F2F7",
"f 	c #F3F1F6",
"g 	c #F2F0F5",
"h 	c #F1EEF4",
"i 	c #F0EEF4",
"j 	c #F0EEF3",
"k 	c #EFEDF3",
"l 	c #EFEDF1",
"m 	c #E5E4E7",
"n 	c #A2A1A2",
"o 	c #6C6C6C",
"p 	c #565656",
"q 	c #999999",
"r 	c #D3D2D3",
"s 	c #F2EFF6",
"t 	c #F1EBF7",
"u 	c #EFE9F6",
"v 	c #EBE4F3",
"w 	c #E5DDEE",
"x 	c #E1D9EA",
"y 	c #E0D8E8",
"z 	c #DFD8E8",
"A 	c #DFD7E7",
"B 	c #E2DCE9",
"C 	c #E5E2E8",
"D 	c #A5A5A5",
"E 	c #838383",
"F 	c #D2D1D3",
"G 	c #EFEBF4",
"H 	c #ECE5F4",
"I 	c #EAE2F3",
"J 	c #E5DBEF",
"K 	c #DCD1E8",
"L 	c #D6CCE3",
"M 	c #D5CAE1",
"N 	c #D4CADF",
"O 	c #D3CADF",
"P 	c #D3C8DE",
"Q 	c #D9D0E2",
"R 	c #E1DDE5",
"S 	c #A5A4A5",
"T 	c #747474",
"U 	c #595959",
"V 	c #818181",
"W 	c #A3A3A3",
"X 	c #D1D0D1",
"Y 	c #F0ECF4",
"Z 	c #EEE8F5",
"` 	c #F0EAF6",
" .	c #F0EBF7",
"..	c #E5DCEE",
"+.	c #DFD6E8",
"@.	c #DCD4E6",
"#.	c #DCD3E5",
"$.	c #DBD3E5",
"%.	c #D9D1E3",
"&.	c #DFD7E6",
"*.	c #E2DFE5",
"=.	c #737373",
"-.	c #7F7F7F",
";.	c #A0A0A0",
">.	c #CDCCCE",
",.	c #EBE5F1",
"'.	c #E9E0F2",
").	c #EBE4F4",
"!.	c #EDE6F5",
"~.	c #E9E0F3",
"{.	c #DFD5EB",
"].	c #D7CCE3",
"^.	c #D3C7DF",
"/.	c #D2C7DE",
"(.	c #D1C6DD",
"_.	c #D0C4DC",
":.	c #D6CDDF",
"<.	c #DEDBE2",
"[.	c #A3A3A4",
"}.	c #727272",
"|.	c #9C9C9C",
"1.	c #C9C8CA",
"2.	c #E6E2EC",
"3.	c #E1D8EB",
"4.	c #E2D8EB",
"5.	c #E3DAED",
"6.	c #E1D7EB",
"7.	c #DCD3E7",
"8.	c #D8CEE3",
"9.	c #D6CCE0",
"0.	c #D3CADE",
"a.	c #D3C9DD",
"b.	c #D8D0E1",
"c.	c #DFDCE2",
"d.	c #A2A2A2",
"e.	c #717171",
"f.	c #575757",
"g.	c #7A7A7A",
"h.	c #C6C4C7",
"i.	c #DFD9E6",
"j.	c #D5C9E2",
"k.	c #D4C7E2",
"l.	c #D6CAE4",
"m.	c #D4C8E2",
"n.	c #D0C4DE",
"o.	c #CBBFD9",
"p.	c #CABDD8",
"q.	c #C8BCD6",
"r.	c #C7BBD6",
"s.	c #C6BAD4",
"t.	c #CEC4D9",
"u.	c #DAD6DF",
"v.	c #A1A1A2",
"w.	c #707070",
"x.	c #787878",
"y.	c #939393",
"z.	c #BFBFBF",
"A.	c #EBEBEB",
"B.	c #F3F2F4",
"C.	c #F3F1F4",
"D.	c #F2F1F3",
"E.	c #F1F0F2",
"F.	c #F0EEF1",
"G.	c #EFEEF0",
"H.	c #EEECEE",
"I.	c #EDEBEE",
"J.	c #DDDDDE",
"K.	c #9A9A9A",
"L.	c #6E6E6E",
"M.	c #757575",
"N.	c #898989",
"O.	c #B5B5B5",
"P.	c #BDBDBD",
"Q.	c #BCBCBC",
"R.	c #BBBBBB",
"S.	c #BABABA",
"T.	c #B8B8B8",
"U.	c #B7B7B7",
"V.	c #B4B4B4",
"W.	c #B2B2B2",
"X.	c #696969",
"Y.	c #858585",
"Z.	c #888888",
"`.	c #878787",
" +	c #6B6B6B",
".+	c #545454",
"++	c #808080",
"@+	c #828282",
"#+	c #848484",
"$+	c #6A6A6A",
"%+	c #676767",
"&+	c #646464",
"*+	c #535353",
"=+	c #7B7B7B",
"-+	c #9D9D9D",
";+	c #B1B1B1",
">+	c #B3B3B3",
",+	c #AEAEAE",
"'+	c #AAAAAA",
")+	c #969696",
"!+	c #5F5F5F",
"~+	c #626262",
"{+	c #777777",
"]+	c #CCCCCC",
"^+	c #CACACA",
"/+	c #D4D4D4",
"(+	c #CDCDCD",
"_+	c #C7C7C7",
":+	c #AFAFAF",
"<+	c #5C5C5C",
"[+	c #616161",
"}+	c #686868",
"|+	c #B6B6B6",
"1+	c #8D8D8D",
"2+	c #8E8E8E",
"3+	c #D9D9D9",
"4+	c #D2D2D2",
"5+	c #5A5A5A",
"6+	c #656565",
"7+	c #868686",
"8+	c #D6D6D6",
"9+	c #D0D0D0",
"0+	c #C9C9C9",
"a+	c #636363",
"b+	c #7E7E7E",
"c+	c #ABABAB",
"d+	c #D3D3D3",
"e+	c #8A8A8A",
"f+	c #C8C8C8",
"g+	c #C4C4C4",
"h+	c #ADADAD",
"i+	c #6F6F6F",
"j+	c #5D5D5D",
"k+	c #8C8C8C",
"l+	c #4E4E4E",
"m+	c #4C4C4C",
"                                            ",
"    . + @ # $ % & * = - ; > , ' ) ! ~ { ]   ",
"    ^ / ( _ : < [ } | 1 2 3 4 5 6 7 8 9 0   ",
"    a b c d e e f g h i j j j k l m n o p   ",
"    a q r s t t u v w x y z z A B C D o p   ",
"    E D F G H H I J K L M N O P Q R S T U   ",
"    V W X Y Z `  .H ..+.@.#.$.%.&.*.S =.0   ",
"    -.;.>.,.'.).!.~.{.].^./.(._.:.<.[.}.0   ",
"    a |.1.2.3.4.5.6.7.8.9.N 0.a.b.c.d.e.f.  ",
"    g.q h.i.j.k.l.m.n.o.p.q.r.s.t.u.v.w.p   ",
"    x.y.z.A.B.C.B.B.D.E.F.G.H.I.I.J.K.L.p   ",
"    M.N.|.O.P.Q.Q.R.S.S.T.U.O.V.W.d.a X.p   ",
"    }.E Y.N.N.Z.`.`.Y.E V -.a g.x.}. +. .+  ",
"    w.-.++++@+#+E @+V -.a g.M.L.$+%+. &+*+  ",
"    L.=+=+++-+;+>+W.;+,+'+D )+x.L.&+!+~+*+  ",
"     +x.{+V T.]+Q.R.^+/+(+_+:+#+{+&+<+[+*+  ",
"    }+T T V S.|+1+2+U.3+4+^+W.`.x.&+5+[+*+  ",
"    6+e.e.a U.,+E 7+;+8+9+0+;+Y.{+a+5+[+*+  ",
"    ~+L.L.g.>+'+a b+c+d+(+_+:+@+T [+5+[+*+  ",
"      6+$+{+:+,+e+e+,+(+f+g+h+-.i+j+U [+*+  ",
"        p <+a e+@+@+N.2+k+e+a ~+U ] l+*+m+  ",
"                                            "};
