/* XPM */
static char * ganim8_delete_xpm[] = {
"22 22 131 2",
"  	c None",
". 	c #3E3E3E",
"+ 	c #636364",
"@ 	c #9D9D9D",
"# 	c #626262",
"$ 	c #7A7A7A",
"% 	c #AFAFAF",
"& 	c #757575",
"* 	c #777B7B",
"= 	c #646763",
"- 	c #9CA09F",
"; 	c #4A4A4A",
"> 	c #5C5C5D",
", 	c #5F5F5F",
"' 	c #575757",
") 	c #595959",
"! 	c #8A8A8A",
"~ 	c #B1B1B1",
"{ 	c #E5E5E5",
"] 	c #F9F9F9",
"^ 	c #E6E6E6",
"/ 	c #8A8A82",
"( 	c #787C7C",
"_ 	c #918E87",
": 	c #8D9494",
"< 	c #6B6B6C",
"[ 	c #B3B3B4",
"} 	c #C5C5C5",
"| 	c #838383",
"1 	c #737373",
"2 	c #454A4A",
"3 	c #A6AEAE",
"4 	c #F0F0F0",
"5 	c #F8F8F8",
"6 	c #FCFCFC",
"7 	c #E2E2E2",
"8 	c #CACAC9",
"9 	c #C4C5C5",
"0 	c #CCCCCC",
"a 	c #80807D",
"b 	c #4E4E4E",
"c 	c #A8A8A8",
"d 	c #CFCFCF",
"e 	c #C6C6C6",
"f 	c #ADADAE",
"g 	c #9D9D9E",
"h 	c #565858",
"i 	c #A6ACAC",
"j 	c #C6C6C7",
"k 	c #C9C9CA",
"l 	c #E4E4E4",
"m 	c #EBEBEB",
"n 	c #F5F5F5",
"o 	c #EEEEEE",
"p 	c #E8E8E8",
"q 	c #989890",
"r 	c #A3A3A3",
"s 	c #AAAAAA",
"t 	c #999999",
"u 	c #818181",
"v 	c #787878",
"w 	c #4A4E4E",
"x 	c #919A9A",
"y 	c #E1E1E1",
"z 	c #DBDBDB",
"A 	c #C3C3C4",
"B 	c #BEBEBE",
"C 	c #B4B4B4",
"D 	c #979797",
"E 	c #949494",
"F 	c #939393",
"G 	c #717171",
"H 	c #606767",
"I 	c #A4A6A6",
"J 	c #BDBDBE",
"K 	c #D1D1D2",
"L 	c #D9D9DA",
"M 	c #B8B8B9",
"N 	c #AEAEAF",
"O 	c #919191",
"P 	c #878787",
"Q 	c #5C5C5C",
"R 	c #444444",
"S 	c #B7B7B8",
"T 	c #D2D2D2",
"U 	c #C4C4C5",
"V 	c #BFBFC0",
"W 	c #B6B6B6",
"X 	c #A6A6A7",
"Y 	c #909090",
"Z 	c #919192",
"` 	c #686868",
" .	c #4C4C4C",
"..	c #CECECF",
"+.	c #D8D8D9",
"@.	c #C7C7C7",
"#.	c #B1B1B2",
"$.	c #A8A8A9",
"%.	c #7F7F7F",
"&.	c #B3B3B3",
"*.	c #D4D4D4",
"=.	c #ACACAD",
"-.	c #ADADAD",
";.	c #555555",
">.	c #A9A9AA",
",.	c #BBBBBC",
"'.	c #929292",
").	c #A9A9A9",
"!.	c #646464",
"~.	c #BCBCBC",
"{.	c #D8D8D8",
"].	c #848484",
"^.	c #747A7A",
"/.	c #474949",
"(.	c #767676",
"_.	c #EDEDED",
":.	c #FAFAFA",
"<.	c #CBCBCC",
"[.	c #9A9A9A",
"}.	c #7D7F7F",
"|.	c #4C5757",
"1.	c #3F4040",
"2.	c #525252",
"3.	c #A0A0A0",
"4.	c #BABABA",
"5.	c #DCDCDC",
"6.	c #A1A1A1",
"7.	c #7B7B7B",
"8.	c #6B6B6B",
"9.	c #646465",
"0.	c #515151",
"                                            ",
"              . . + @                       ",
"          # $ % & * = - ; > , '             ",
"    ) ! ~ { ] ^ / ( _ : < [ } ~ | 1         ",
"    2 3 4 5 6 7 8 9 0 a b c d e f g .       ",
"    h i j k l m n o p q r s c t u v .       ",
"    w x { y z A B C C D D E t F v G         ",
"      H I J K L y M M M M N O P Q R         ",
"      | S T U V W c X Y Y Z D $ `  .        ",
"      | X ..m +.@.0 #.$.$.%.O v ,  .        ",
"      | X ..4 &.V *.X =.-.;.O v ,  .        ",
"      | X ..o >.,.*.X X $.;.'.v ,  .        ",
"      | X ..o >.,.*.X X $.;.O v ,  .        ",
"      | X ..o >.,.*.X X $.;.O v ,  .        ",
"      | X ..o >.,.*.X X $.;.O v ,  .        ",
"      | X ..o >.,.*.X X $.;.O v ,  .        ",
"      | X ..o >.,.*.X X $.;.O v ,  .        ",
"      | )...o >.,.*.X X $.;.O $ !. .        ",
"      | ~.{.o >.,.*.X X $.` '.].^./.        ",
"      (.0 _.:.<...*.[.[ $.| Y }.|.1.        ",
"        2.3.4.{.5.k M M 6.7.` # .           ",
"              ` 8.9.9.9.) 0.                "};
