/* XPM */
static char * ganim8_cancel_xpm[] = {
"24 24 30 1",
" 	c None",
".	c #ECD2DF",
"+	c #E3BBCF",
"@	c #F6E9EF",
"#	c #AA336F",
"$	c #AA4176",
"%	c #AAAAAA",
"&	c #C7C7C7",
"*	c #D08EAF",
"=	c #AA7590",
"-	c #4B1731",
";	c #1D1D1D",
">	c #972D62",
",	c #000000",
"'	c #8E8E8E",
")	c #B44A7F",
"!	c #13060C",
"~	c #BD618F",
"{	c #250B18",
"]	c #71224A",
"^	c #5E1C3D",
"/	c #727272",
"(	c #391125",
"_	c #842856",
":	c #393939",
"<	c #C6779F",
"[	c #913463",
"}	c #D9A5BF",
"|	c #C1A7B4",
"1	c #555555",
"                        ",
"                        ",
"   .++++.    @+++++     ",
"   @####$%&  *####=%%   ",
"    *####-; .####>,,'   ",
"     )####!'~####{,;    ",
"     .####]-####^,,&    ",
"      *####>###>!,/     ",
"      @)#######(,;      ",
"       +######_,,%      ",
"        ~#####!,:       ",
"        <####>!,        ",
"       +######^;        ",
"       )#######{/       ",
"      *####>###>,&      ",
"     .####_-####-;      ",
"     ~####{,[####!'     ",
"    }####^,,|####_,     ",
"    ####>!,/ *####-:    ",
"   <####-,;   ####>!'   ",
"     1,,,,'     ,,,,;   ",
"                        ",
"                        ",
"                        "};
