/* XPM */
static char * ganim8_reload_xpm[] = {
"22 22 168 2",
"  	c None",
". 	c #879780",
"+ 	c #8E9D87",
"@ 	c #8C9986",
"# 	c #7D8D76",
"$ 	c #71816A",
"% 	c #6B7567",
"& 	c #76876F",
"* 	c #889781",
"= 	c #ADB9A6",
"- 	c #C5D3BE",
"; 	c #C0D3B7",
"> 	c #AAC19F",
", 	c #90A885",
"' 	c #7C9270",
") 	c #6B7466",
"! 	c #5F645D",
"~ 	c #5D605C",
"{ 	c #81927A",
"] 	c #A0AD99",
"^ 	c #C5D1C0",
"/ 	c #C9DAC0",
"( 	c #B1C8A5",
"_ 	c #8CA480",
": 	c #708368",
"< 	c #687462",
"[ 	c #60665D",
"} 	c #5E625D",
"| 	c #5F635D",
"1 	c #9AA894",
"2 	c #CED9C8",
"3 	c #C5D8BB",
"4 	c #A0BC92",
"5 	c #7E9773",
"6 	c #697563",
"7 	c #5A5A5A",
"8 	c #5B5B5B",
"9 	c #5E605D",
"0 	c #5D5F5C",
"a 	c #85957F",
"b 	c #BAC5B4",
"c 	c #CDDEC5",
"d 	c #A3C195",
"e 	c #85A178",
"f 	c #6A7664",
"g 	c #5F625D",
"h 	c #5B5D5B",
"i 	c #96A390",
"j 	c #C9D6C2",
"k 	c #B7D0AB",
"l 	c #8EAE81",
"m 	c #73876A",
"n 	c #62695F",
"o 	c #A7B3A1",
"p 	c #C5D7BD",
"q 	c #A1C292",
"r 	c #85A477",
"s 	c #667162",
"t 	c #667362",
"u 	c #697663",
"v 	c #6C7B65",
"w 	c #788871",
"x 	c #BDD1B4",
"y 	c #96BA85",
"z 	c #81A273",
"A 	c #646C60",
"B 	c #687563",
"C 	c #6D7E66",
"D 	c #697664",
"E 	c #626860",
"F 	c #899683",
"G 	c #B3C1AC",
"H 	c #C3D0BE",
"I 	c #C7D5C0",
"J 	c #ADC9A1",
"K 	c #8EB67C",
"L 	c #97B58B",
"M 	c #AAB9A2",
"N 	c #B9C7B3",
"O 	c #A7B6A1",
"P 	c #667262",
"Q 	c #858585",
"R 	c #717171",
"S 	c #6B7468",
"T 	c #8A9F80",
"U 	c #A6C29A",
"V 	c #ACCC9E",
"W 	c #99BF89",
"X 	c #8EB77C",
"Y 	c #A2C290",
"Z 	c #A8C59A",
"` 	c #99B38E",
" .	c #798773",
"..	c #9B9B9B",
"+.	c #A9A9A9",
"@.	c #8B8B8B",
"#.	c #6E6E6E",
"$.	c #666F61",
"%.	c #7C9670",
"&.	c #8EB37E",
"*.	c #94BD81",
"=.	c #9EC18A",
"-.	c #9FC08B",
";.	c #85A176",
">.	c #6D7C67",
",.	c #959595",
"'.	c #BEBEBE",
").	c #A8A8A8",
"!.	c #9D9D9D",
"~.	c #898989",
"{.	c #6B6B6B",
"].	c #646D60",
"^.	c #758B6A",
"/.	c #8DAD7D",
"(.	c #96B783",
"_.	c #819D73",
":.	c #6B7964",
"<.	c #999999",
"[.	c #838383",
"}.	c #8D8D8D",
"|.	c #9F9F9F",
"1.	c #909090",
"2.	c #6D6D6D",
"3.	c #667061",
"4.	c #79946D",
"5.	c #6D7D66",
"6.	c #989898",
"7.	c #B9B9B9",
"8.	c #A1A1A1",
"9.	c #808080",
"0.	c #737373",
"a.	c #7A7A7A",
"b.	c #8F8F8F",
"c.	c #9C9C9C",
"d.	c #888888",
"e.	c #6A7663",
"f.	c #797979",
"g.	c #969696",
"h.	c #878787",
"i.	c #787878",
"j.	c #7E7E7E",
"k.	c #868686",
"l.	c #777777",
"m.	c #626262",
"n.	c #5C5C5C",
"o.	c #757575",
"p.	c #A6A6A6",
"q.	c #5F5F5F",
"r.	c #B0B0B0",
"s.	c #8C8C8C",
"t.	c #979797",
"u.	c #B5B5B5",
"v.	c #A0A0A0",
"w.	c #7D7D7D",
"x.	c #646464",
"y.	c #7B7B7B",
"z.	c #B7B7B7",
"A.	c #ACACAC",
"B.	c #6F6F6F",
"C.	c #666666",
"D.	c #6A6A6A",
"E.	c #686868",
"F.	c #ADADAD",
"G.	c #B6B6B6",
"H.	c #939393",
"I.	c #656565",
"J.	c #B3B3B3",
"K.	c #696969",
"                  . + @ # $ %               ",
"            & * = - ; > , ' ) ! ~           ",
"          { ] ^ / ( _ : < [ } } | |         ",
"          1 2 3 4 5 6 7         8 9 0       ",
"        a b c d e f g               h       ",
"        i j k l m n                         ",
"        o p q r s                           ",
"t u v w o x y z A B C D                     ",
"E F G H I J K L M N O P       Q R           ",
"  S T U V W X Y Z `  .      ..+.@.#.        ",
"    $.%.&.*.=.-.;.>.      ,.'.).!.~.{.      ",
"      ].^./.(._.:.      ..'.<.[.}.|.1.2.    ",
"        3.^.4.5.      6.7.8.9.0.a.b.c.d.2.  ",
"          $.e.      f.8.g.Q h.i.f.j.k.~.l.m.",
"                    7 7 n.o.p.h.9.o.q.7 7 7 ",
"                          Q r.@.[.o.        ",
"                        Q ..r.s.Q 2.        ",
"      7               9.t.u.v.@.w.x.        ",
"      8 8 7         y.6.z.A.s.~.B.          ",
"        C.D.E.i.d.t.F.G.+.H.~.o.x.          ",
"          I.{.[.<.).J...H.9.E.q.            ",
"              C.K.2.R B.B.                  "};
