/* XPM */
static char * ganim8_stop_xpm[] = {
"24 24 185 2",
"  	c None",
". 	c #5E5E5E",
"+ 	c #8B7A79",
"@ 	c #AC8F8D",
"# 	c #AC8E8D",
"$ 	c #AB8D8C",
"% 	c #AA8D8B",
"& 	c #A98D8A",
"* 	c #A98C8A",
"= 	c #A88B89",
"- 	c #A78B88",
"; 	c #A78A88",
"> 	c #756B6B",
", 	c #8F7F7E",
"' 	c #E3CAC8",
") 	c #F4E9E8",
"! 	c #F3EAE8",
"~ 	c #F2E9E8",
"{ 	c #F2E8E7",
"] 	c #F0E6E5",
"^ 	c #EFE5E4",
"/ 	c #EEE4E4",
"( 	c #E4D9D8",
"_ 	c #C1B3B1",
": 	c #998582",
"< 	c #656160",
"[ 	c #8B7B7A",
"} 	c #E4CAC8",
"| 	c #F2E6E6",
"1 	c #E1CAC8",
"2 	c #DBC1BF",
"3 	c #DAC0BF",
"4 	c #D9BFBD",
"5 	c #D8BEBC",
"6 	c #D7BDBB",
"7 	c #D5BBBA",
"8 	c #CBAFAC",
"9 	c #C2A4A2",
"0 	c #A87F7F",
"a 	c #836B6A",
"b 	c #676161",
"c 	c #D9BEBC",
"d 	c #F6EDEC",
"e 	c #DCC4C2",
"f 	c #D6B6B4",
"g 	c #D5B5B3",
"h 	c #D4B4B3",
"i 	c #D2B3B1",
"j 	c #D0AFAE",
"k 	c #CEADAA",
"l 	c #CBA9A7",
"m 	c #C7A3A1",
"n 	c #C09694",
"o 	c #B47E7E",
"p 	c #A07473",
"q 	c #D8BDBA",
"r 	c #D5B4B3",
"s 	c #DEC2C1",
"t 	c #D8B7B6",
"u 	c #D8B8B6",
"v 	c #D5B5B4",
"w 	c #D2B1B0",
"x 	c #CFAEAC",
"y 	c #CCAAA7",
"z 	c #CAA7A4",
"A 	c #C69F9B",
"B 	c #B88381",
"C 	c #B27B7A",
"D 	c #A37675",
"E 	c #866C6B",
"F 	c #625F5F",
"G 	c #F5EAE8",
"H 	c #E1C9C7",
"I 	c #E1C8C7",
"J 	c #FAF6F6",
"K 	c #E6D2D0",
"L 	c #DABAB8",
"M 	c #D8B9B8",
"N 	c #D1B0AF",
"O 	c #CEACAA",
"P 	c #E8DAD8",
"Q 	c #EADEDC",
"R 	c #C29995",
"S 	c #B47C7B",
"T 	c #B17B7A",
"U 	c #997271",
"V 	c #786666",
"W 	c #E3CBC9",
"X 	c #FFFFFF",
"Y 	c #FCFBFB",
"Z 	c #E7D2D1",
"` 	c #DABBBA",
" .	c #D7B7B5",
"..	c #D2B1AF",
"+.	c #E8D9D8",
"@.	c #FAFAF9",
"#.	c #F9F9F8",
"$.	c #EDE4E3",
"%.	c #A37575",
"&.	c #886C6C",
"*.	c #6D6363",
"=.	c #D5B6B3",
"-.	c #E7D2D0",
";.	c #E8D5D3",
">.	c #D8BAB9",
",.	c #EDE0DF",
"'.	c #FBFBFB",
").	c #F9F9F9",
"!.	c #F2EDEC",
"~.	c #C7A19D",
"{.	c #A77676",
"].	c #8B6D6D",
"^.	c #EFE2E1",
"/.	c #FDFDFD",
"(.	c #F3EFEE",
"_.	c #D2B6B4",
":.	c #BD908B",
"<.	c #6D6262",
"[.	c #D3B3B1",
"}.	c #DBBBBA",
"|.	c #FEFEFE",
"1.	c #FCFCFC",
"2.	c #FBFBFA",
"3.	c #D2B6B3",
"4.	c #C6A09D",
"5.	c #D8BEBB",
"6.	c #D2B2AF",
"7.	c #D7B7B6",
"8.	c #FDFDFC",
"9.	c #DFCCCB",
"0.	c #C7A4A2",
"a.	c #C29B97",
"b.	c #BC8E89",
"c.	c #D8C1BF",
"d.	c #BF948F",
"e.	c #B88682",
"f.	c #EEE4E3",
"g.	c #CEAEAB",
"h.	c #FCFCFB",
"i.	c #F8F8F7",
"j.	c #F4F2F1",
"k.	c #D0B0AE",
"l.	c #B57E7C",
"m.	c #EAE0DF",
"n.	c #D3B8B6",
"o.	c #CBA7A4",
"p.	c #E7DAD8",
"q.	c #D2B5B3",
"r.	c #F7F7F7",
"s.	c #D2B2B1",
"t.	c #A57676",
"u.	c #8A6D6D",
"v.	c #CBBDBB",
"w.	c #C5A6A3",
"x.	c #BB8C8A",
"y.	c #C69E9B",
"z.	c #C39B98",
"A.	c #BF9490",
"B.	c #DEC9C9",
"C.	c #B07A7A",
"D.	c #A07373",
"E.	c #876B6B",
"F.	c #A08C8A",
"G.	c #AF8A88",
"H.	c #B37E7C",
"I.	c #B6817E",
"J.	c #BF8E8D",
"K.	c #EBE1E1",
"L.	c #BB8B87",
"M.	c #B6807E",
"N.	c #B98483",
"O.	c #926F6F",
"P.	c #646060",
"Q.	c #A07573",
"R.	c #B27C7A",
"S.	c #9F7373",
"T.	c #906E6E",
"U.	c #796767",
"V.	c #A47675",
"W.	c #786767",
"X.	c #896D6C",
"Y.	c #9E7373",
"Z.	c #A67676",
"`.	c #656060",
" +	c #7C6767",
"                                                ",
"                . . . . . . . . .               ",
"              + @ # $ % & * = - ; >             ",
"            , ' ) ! ~ { ] ^ / ( _ : <           ",
"          [ } | 1 2 3 4 5 6 7 8 9 0 a b         ",
"        [ c d e f g h i j k l m n o p a <       ",
"      , } d q r s t u v w x y z A B C D E F     ",
"    + ' G H g I J K L M g N O P Q R S T U V b   ",
"  . @ ) W u s J X Y Z `  ...+.@.#.$.S S %.&.*.  ",
"  . # ! 2 =.t -.Y X X ;.>.,.'.).!.~.S S {.].*.  ",
"  . $ ~ 3 h u L Z X X X ^./.'.(._.:.S S {.].<.  ",
"  . % { 4 [.v M }.;.X X |.1.2.3.4.:.S S {.].*.  ",
"  . & ] 5.j 6.r 7.>.^.|.8.2.9.0.a.b.S S {.].*.  ",
"  . * ^ 6 k x N ..,./.1.2.).#.c.d.e.S S {.].<.  ",
"  . = f.7 l y g.P h.'.2.9.#.i.j.k.l.S S {.].*.  ",
"  . - m.n.4.o.p.@.).(.q.0.c.j.r.r.s.S S t.u.<.  ",
"  . ; v.w.x.y.Q #.!._.4.z.A.k.r.r.B.S C.D.E.*.  ",
"    > F.G.H.I.J.K.~.:.:.L.M.l.s.B.N.T %.O.V P.  ",
"      < a Q.R.S S S S S S S S S S T S.T.U..     ",
"        b a V.T S S S S S S S S C.%.T.W.P.      ",
"          < X.Y.%.Z.{.{.{.{.{.t.p O.U.P.        ",
"            `. +&.].].].].].].u.E.V .           ",
"              b *.*.*.*.*.*.*.*.*.P.            ",
"                                                "};
