/* XPM */
static char * gtksnap_logo_xpm[] = {
"146 31 66 1",
" 	c None",
".	c #6B7EDD",
"+	c #7674D3",
"@	c #8576CF",
"#	c #5D7CE0",
"$	c #AE7DC6",
"%	c #517AE3",
"&	c #6F76D7",
"*	c #A07CC8",
"=	c #9278CC",
"-	c #32569E",
";	c #5B65A9",
">	c #6365AD",
",	c #535787",
"'	c #4D4C75",
")	c #6C5F8D",
"!	c #8B6CAB",
"~	c #0F0F0F",
"{	c #7067B2",
"]	c #9D76B8",
"^	c #423748",
"/	c #575D97",
"(	c #151B27",
"_	c #201B22",
":	c #765E83",
"<	c #2C4C87",
"[	c #203256",
"}	c #9F79C6",
"|	c #252737",
"1	c #52445B",
"2	c #9C71B0",
"3	c #1B273E",
"4	c #7C679B",
"5	c #263F6E",
"6	c #463E57",
"7	c #3E6ECE",
"8	c #876898",
"9	c #A078C1",
"0	c #8171BF",
"a	c #816DB7",
"b	c #8E73BB",
"c	c #8474C7",
"d	c #7C67A7",
"e	c #6B72CA",
"f	c #6677CC",
"g	c #665579",
"h	c #2B324C",
"i	c #77618B",
"j	c #564968",
"k	c #7A6494",
"l	c #343246",
"m	c #9C75B6",
"n	c #3762B7",
"o	c #302934",
"p	c #5F6EBC",
"q	c #4F62A8",
"r	c #4667B9",
"s	c #64516E",
"t	c #364878",
"u	c #7E6AAF",
"v	c #3F466B",
"w	c #494667",
"x	c #313D63",
"y	c #8E70B7",
"z	c #9B72B3",
"A	c #3B538F",
"                                                                                                                                                  ",
"                                                                                                                                                  ",
"                                                                                                                                                  ",
"                                                                                                                                                  ",
"          .+@@@.#             $$            .+@@@.%                                                      $$                                       ",
"        &*$$$$$$$=&  #@@      $$-         %*$$$$$$$=                                                     $$;                       &@&            ",
"       @$$=>,')!$$$  .$$      $$~        %*$*{,')]$$                                                     $$^                       @$@            ",
"      @$$/(~~~~~_:$< .$$[     $$~        @$}|~~~~~123                                                    $$^                       @$4<           ",
"     #$$'~~3<--53~^~ .$$~     $$~        $$6~(5--5(_~       ..%       #...%           ..#        ...%    $$^             %..#      @$:[           ",
"     =$!~~-      7[~@$$$$$$$  $$~   .$$. $$^(7     <(  $$.&$$$$+    +$$$$$$=%    $$.&$$$$=%    +$$$$$*.  $$^ $$$$      %=$$$$*.   $$$$$$$@        ",
"     $$^~-         -@$$$$$$$  $$~  .$$.  *$8-       7  $$*$*@9$$.   @$*0ab$$*%   $$*$*@b$$=   @$$=aa$$@  $$2$*@9$$    %*$$ca9$$.  $$$$$$$@        ",
"    #$$_3            '$$~~~~~ $$~ .$$;~~-+$$b.         $$2;<~~8$d   #5~~~~_$$e   $$2;<~~^$$f #$$,~~~~1g- $$2;<~~8$d   =$}h~~~:$$%  :$:~~~~[       ",
"    .$$~-            '$$~~~~~ $$~#$$;~~-  i$$$$=+#     $$^(~([j$$-   [~([[3:$i7  $$^(~([38$k .$$~~3[[~~[ $$^(~([j$$- #$$l~~[[(2${  :$:~~~~[       ",
"    .$$~7   #@@@@@@  .$$~     $$_*$;~~-   512$$$$$=%   $$^(-   $$[         }$:<  $$^(-   >$2-#$$^-    <5 $$^(-  .$$[ &$m~(7   )$87 @$:[           ",
"    .$$~    .$$$$$$  .$$~     $$2$0~~-     [~_^:m$$*   $$^-    $$~  %+$$$$$$$:[  $$^-    .$$[ b$$*@.%    $$^-   .$$~ @$:~n    .$$5 @$:[           ",
"    #$$o    %p'')$$[ .$$~     $$$$$^-       <(~~~1$$e  $$^-    $$~  *$$+;q54$:[  $$^-    .$$( rs$$$$$@   $$^-   .$$~ @$:(     .$$3 @$:[           ",
"     $$1     -~~^$$~ .$$~     $$_i$]%         7-[(8$i  $$^-    $$~ &$$t~~~~:$:[  $$^-    .$$~  3~oj!$$+  $$^-   .$$~ @$:[     .$$~ @$:[           ",
"     0$2n    7--;$$~ .$$~     $$~_2$9             u$:< $$^-    $$~ @$i~~5-n@$:[  $$^-    +$8~  75~~~s$$  $$^-   .$$~ &$2[     +$8~ @$:[           ",
"     #$$u       .$$~ .$$~     $$~7v$$c   @        *$1[ $$^-    $$~ @$:~7   @$:[  $$^-    *$1~     n<w$$5 $$^-   .$$~ #$$v     *$s~ @$:[           ",
"      )$$@%     .$$~ #$$^     $$~ 7j$$.  $*&     @$$_[ $$^-    $$~ &$$x   +$$:[  $$1-   @$$_3 =#    @$8~ $$^-   .$$~  y$z%   @$$_3 +$2x           ",
"      ns$$$=@@@*$$$~  9$$@@*  $$~  n:$$# $$$$@@@$$$6~< $$^-    $$~ %]$$@@$$*$:[  $$$9@@*$$6~< $$*@@*$$^~ $$^-   .$$~  r2$$@@*$$6~5 #$$]@@@        ",
"       5o8$$$$$$=>_~  r2$$$$  $$~   A2$9% s$$$$$$=v~~7 $$^-    $$~  /2$$$*#d$:[  $$8$$$$*'~~7 {$$$$$*'~3 $$^-   .$$~   h8$$$$*'~~7  ,$$$$@        ",
"        5~~^w''[(~~~   (o^'[( -~~    [~~n ~~o^''x~~~-   ~~-    -~~  7(^^v[~~(~[  $$^~6''(~~-  -~o6'v(~~-  ~~-    -~~   7(_^'v(~~-   n~^6v[[       ",
"         n3~~~~~~3<7   7(~~~~ -~~    7(~(7 5~~~~~~3n    ~~-    -~~   -(~~~(n[~[  $$^3~~~~(-   75~~~~~(-   ~~-    -~~    73~~~~(-     -~~~~[       ",
"            ----         n--                 n---7                     --n       $$^- ---        n--n                     7--n         --n        ",
"                                                                                 $$^-                                                             ",
"                                                                                 @:o-                                                             ",
"                                                                                  ~~-                                                             ",
"                                                                                  [[n                                                             ",
"                                                                                                                                                  ",
"                                                                                                                                                  "};
