/* XPM */
static char * gtksnap_capture_xpm[] = {
"22 22 191 2",
"  	c None",
". 	c #151515",
"+ 	c #303030",
"@ 	c #434343",
"# 	c #474747",
"$ 	c #464646",
"% 	c #424242",
"& 	c #2D2D2D",
"* 	c #101010",
"= 	c #3A3A3A",
"- 	c #4F4F4F",
"; 	c #616161",
"> 	c #AAAAAA",
", 	c #DBDBDB",
"' 	c #EEEEEE",
") 	c #F2F2F2",
"! 	c #EFEFEF",
"~ 	c #D6D6D6",
"{ 	c #898989",
"] 	c #373737",
"^ 	c #2A2A2A",
"/ 	c #141414",
"( 	c #2E2E2E",
"_ 	c #717171",
": 	c #8C8C8C",
"< 	c #C8C8C8",
"[ 	c #E1E1E1",
"} 	c #D4D4D4",
"| 	c #BABABA",
"1 	c #BFBFBF",
"2 	c #C2C2C2",
"3 	c #C1C1C1",
"4 	c #AEAEAE",
"5 	c #959595",
"6 	c #919191",
"7 	c #868686",
"8 	c #585858",
"9 	c #535353",
"0 	c #383838",
"a 	c #353535",
"b 	c #D1D1D1",
"c 	c #C4C4C4",
"d 	c #ABABAB",
"e 	c #A2A2A2",
"f 	c #A5A5A5",
"g 	c #A4A4A4",
"h 	c #9E9E9E",
"i 	c #686868",
"j 	c #797979",
"k 	c #444444",
"l 	c #1F1F1F",
"m 	c #767674",
"n 	c #E9E9E8",
"o 	c #CBCBC8",
"p 	c #BDBDBA",
"q 	c #AEAEAD",
"r 	c #B6B6B6",
"s 	c #C7C7C7",
"t 	c #D8D8D8",
"u 	c #DDDDDD",
"v 	c #DADADA",
"w 	c #CACACA",
"x 	c #B4B4B4",
"y 	c #8F8F8F",
"z 	c #515151",
"A 	c #6B6B6B",
"B 	c #212120",
"C 	c #C4C4C0",
"D 	c #C3C2B9",
"E 	c #8D8C7E",
"F 	c #7A796C",
"G 	c #6F6E65",
"H 	c #8F8F8E",
"I 	c #B4B4B5",
"J 	c #CDCDCD",
"K 	c #A8A8A8",
"L 	c #6F6F6F",
"M 	c #696969",
"N 	c #989898",
"O 	c #B0B0B0",
"P 	c #CECECE",
"Q 	c #494949",
"R 	c #212121",
"S 	c #D4D4CF",
"T 	c #AAAA9C",
"U 	c #686753",
"V 	c #585744",
"W 	c #4A4A3A",
"X 	c #686862",
"Y 	c #9F9FA0",
"Z 	c #C5C5C5",
"` 	c #8E8E8E",
" .	c #454545",
"..	c #E5E5E5",
"+.	c #D3D3D3",
"@.	c #ADADAD",
"#.	c #9F9F9F",
"$.	c #2F2F2F",
"%.	c #D1D1CC",
"&.	c #A8A89A",
"*.	c #656552",
"=.	c #565643",
"-.	c #454434",
";.	c #5B5A53",
">.	c #969696",
",.	c #B5B5B5",
"'.	c #E4E4E4",
").	c #676767",
"!.	c #818181",
"~.	c #626262",
"{.	c #202020",
"].	c #D1D1CB",
"^.	c #A9A99B",
"/.	c #555642",
"(.	c #444434",
"_.	c #595952",
":.	c #929292",
"<.	c #AFAFAF",
"[.	c #E8E8E8",
"}.	c #A0A0A0",
"|.	c #323232",
"1.	c #AAAA9B",
"2.	c #676653",
"3.	c #575644",
"4.	c #56564F",
"5.	c #8D8D8D",
"6.	c #A7A7A7",
"7.	c #7F7F7F",
"8.	c #6D6D6D",
"9.	c #7C7C7C",
"0.	c #ACACAC",
"a.	c #3E3E3E",
"b.	c #555543",
"c.	c #565650",
"d.	c #8C8C8D",
"e.	c #B3B3B4",
"f.	c #B9B9B9",
"g.	c #B3B3B3",
"h.	c #C0C0C0",
"i.	c #B2B2B2",
"j.	c #6C6C6C",
"k.	c #656565",
"l.	c #737373",
"m.	c #9A9A9A",
"n.	c #A3A3A3",
"o.	c #333333",
"p.	c #A8A899",
"q.	c #646350",
"r.	c #56554F",
"s.	c #8A8A8A",
"t.	c #C6C6C6",
"u.	c #C3C3C3",
"v.	c #939393",
"w.	c #252525",
"x.	c #CCCCC7",
"y.	c #A3A293",
"z.	c #5F5F4B",
"A.	c #52523F",
"B.	c #444332",
"C.	c #53534C",
"D.	c #848484",
"E.	c #BEBEBE",
"F.	c #BBBBBB",
"G.	c #262626",
"H.	c #1E1E1E",
"I.	c #7F7F7A",
"J.	c #7F7F73",
"K.	c #4F4F42",
"L.	c #46463A",
"M.	c #403F35",
"N.	c #565652",
"O.	c #999999",
"P.	c #777777",
"Q.	c #1C1C1B",
"R.	c #555553",
"S.	c #50504D",
"T.	c #4D4D4B",
"U.	c #51504E",
"V.	c #656564",
"W.	c #7E7E7E",
"X.	c #949494",
"Y.	c #9C9C9C",
"Z.	c #9B9B9B",
"`.	c #808080",
" +	c #767676",
".+	c #757575",
"++	c #2C2C2C",
"@+	c #3B3B3B",
"#+	c #404040",
"$+	c #3F3F3F",
"%+	c #3C3C3C",
"                                            ",
"                                            ",
"          . + @ # # $ % & *                 ",
"      = - ; > , ' ) ! ~ { ] ^ /             ",
"  ( _ : < [ } | 1 2 3 4 5 6 7 8 9 0         ",
"  a ' , b < c d e f g h e 5 h i j k         ",
"l m n o p q r s t u v w x y y z A %         ",
"B C D E F G H I J K L M N O P 1 g Q         ",
"R S T U V W X Y Z ` $  .K ..+.@.#.j $.      ",
"B %.&.*.=.-.;.>.1 ,.O O '.c ).).; !.~.{.    ",
"B ].^.*./.(._.:.d <.O O [.}.{ 1 _ ~.: |.    ",
"B ].1.2.3.-.4.5.6.4 <.@.u 7.8.` _ 9.0.a.    ",
"B ].^.*.b.(.c.d.e.f.| g.h.i.j.k.l.m.n.o.    ",
"B ].p.q.b.(.r.s.1 t.u.h.@.,.v.j.!.0.l.w.    ",
"{.x.y.z.A.B.C.D.r E.F.,.#.h 6.g }.L G.      ",
"H.I.J.K.L.M.N.!.> O <.K O.v.7 P._ 0 .       ",
"  Q.R.S.T.U.V.W.X.Y.Z.X.: { `. +.+= .       ",
"  . +++ + |.a @+#+% % #+$+a.%+0 a {.        ",
"                                            ",
"                                            ",
"                                            ",
"                                            "};
