/* XPM */
static char * ganim8_open_xpm[] = {
"22 22 193 2",
"  	c None",
". 	c #3F3F3F",
"+ 	c #6B645E",
"@ 	c #6B645D",
"# 	c #69625C",
"$ 	c #85796E",
"% 	c #BCA996",
"& 	c #B0A090",
"* 	c #AFA090",
"= 	c #A69687",
"- 	c #918477",
"; 	c #68615A",
"> 	c #B1A090",
", 	c #DECAB6",
"' 	c #E6D4C0",
") 	c #E5D3BD",
"! 	c #DEC8B3",
"~ 	c #BDAA97",
"{ 	c #9C8D7E",
"] 	c #6E675F",
"^ 	c #DDC7B2",
"/ 	c #E8D7C4",
"( 	c #E8D6C3",
"_ 	c #E5D0BA",
": 	c #DFC8B1",
"< 	c #D4BBA5",
"[ 	c #BDA793",
"} 	c #B49F8C",
"| 	c #AC9987",
"1 	c #84786D",
"2 	c #726A62",
"3 	c #E5D1BA",
"4 	c #E8D9C4",
"5 	c #E4CFBA",
"6 	c #D3BBA5",
"7 	c #BAA593",
"8 	c #AE9C8D",
"9 	c #AB9A8C",
"0 	c #A8988A",
"a 	c #A7978A",
"b 	c #A79688",
"c 	c #A69688",
"d 	c #A69587",
"e 	c #A59586",
"f 	c #A59486",
"g 	c #9D8F82",
"h 	c #7A726B",
"i 	c #605F5D",
"j 	c #E5D2BB",
"k 	c #E8D5C1",
"l 	c #DAC4AD",
"m 	c #B49F8D",
"n 	c #9B938C",
"o 	c #AAA8A7",
"p 	c #B1B0AE",
"q 	c #B0AEAE",
"r 	c #AEADAB",
"s 	c #ABA9A8",
"t 	c #A7A6A5",
"u 	c #A4A2A2",
"v 	c #A09F9E",
"w 	c #9E9C9C",
"x 	c #9A9998",
"y 	c #949393",
"z 	c #8F8F8F",
"A 	c #8E8E8E",
"B 	c #8D8D8D",
"C 	c #575757",
"D 	c #E5D0B9",
"E 	c #E3CEB9",
"F 	c #CAB49E",
"G 	c #A5988C",
"H 	c #BBB9B7",
"I 	c #E8E8E8",
"J 	c #EFEFEE",
"K 	c #EDEDEC",
"L 	c #E8E8E7",
"M 	c #E2E2E2",
"N 	c #DBDBDB",
"O 	c #D6D6D6",
"P 	c #D0D0D0",
"Q 	c #CACACA",
"R 	c #C4C4C4",
"S 	c #BDBDBD",
"T 	c #B7B7B7",
"U 	c #B0B0B0",
"V 	c #A9A9A9",
"W 	c #969696",
"X 	c #626262",
"Y 	c #E3CDB6",
"Z 	c #DCC4AE",
"` 	c #B6A290",
" .	c #A09A94",
"..	c #CDCDCD",
"+.	c #E9E9E8",
"@.	c #ECECEC",
"#.	c #EBEBEB",
"$.	c #E7E7E6",
"%.	c #E2E2E1",
"&.	c #DADADA",
"*.	c #D4D4D4",
"=.	c #C7C7C7",
"-.	c #C0C0C0",
";.	c #B9B9B9",
">.	c #B1B1B1",
",.	c #A8A8A8",
"'.	c #999999",
").	c #747474",
"!.	c #716962",
"~.	c #E0C7AF",
"{.	c #CDB6A0",
"].	c #A2968A",
"^.	c #AFAEAD",
"/.	c #DDDDDD",
"(.	c #ECECEB",
"_.	c #EAEAE9",
":.	c #E5E5E4",
"<.	c #DEDEDE",
"[.	c #D7D7D7",
"}.	c #D1D1D0",
"|.	c #C3C3C3",
"1.	c #BBBBBB",
"2.	c #B4B4B4",
"3.	c #A7A7A7",
"4.	c #888888",
"5.	c #716861",
"6.	c #DBC1A8",
"7.	c #B7A290",
"8.	c #99938E",
"9.	c #E0E0E0",
"0.	c #E6E6E5",
"a.	c #EBEBEA",
"b.	c #DCDCDC",
"c.	c #D0D0CF",
"d.	c #C9C9C9",
"e.	c #C2C2C2",
"f.	c #BABABA",
"g.	c #9F9F9F",
"h.	c #6E6E6E",
"i.	c #706860",
"j.	c #CDB49D",
"k.	c #9C8F83",
"l.	c #A8A8A6",
"m.	c #D8D8D8",
"n.	c #DEDEDD",
"o.	c #E4E4E3",
"p.	c #D2D2D1",
"q.	c #CCCCCB",
"r.	c #C6C6C5",
"s.	c #BFBFBF",
"t.	c #ABABAB",
"u.	c #8B8B8B",
"v.	c #5F5F5F",
"w.	c #6B635C",
"x.	c #B39F8C",
"y.	c #948F8A",
"z.	c #DFDFDE",
"A.	c #DFDFDF",
"B.	c #DDDDDC",
"C.	c #D1D1D1",
"D.	c #CCCCCC",
"E.	c #C1C1C1",
"F.	c #625B55",
"G.	c #96887C",
"H.	c #CBCBCB",
"I.	c #CECECE",
"J.	c #D3D3D3",
"K.	c #D7D7D6",
"L.	c #BCBCBC",
"M.	c #B5B5B5",
"N.	c #AAAAAA",
"O.	c #8A8A8A",
"P.	c #656565",
"Q.	c #514E4D",
"R.	c #8D8784",
"S.	c #B9B8B8",
"T.	c #ADADAD",
"U.	c #818181",
"V.	c #505050",
"W.	c #999898",
"X.	c #AEAEAE",
"Y.	c #A0A0A0",
"Z.	c #848484",
"`.	c #525252",
" +	c #7E7E7E",
".+	c #7D7D7D",
"++	c #808080",
"@+	c #7B7B7B",
"#+	c #797979",
"$+	c #777777",
"%+	c #757575",
"&+	c #6F6F6F",
"*+	c #5C5C5C",
"                                            ",
"                  . . . . . .     .         ",
"            . . .         . . . . .         ",
"          . . .             . . . .         ",
"                              . . .         ",
"      + @ #                   . . .         ",
"  $ % & * = -                               ",
"; > , ' ) ! ~ {                             ",
"] ^ / ( _ : < [ } } } } } } } | 1           ",
"2 3 4 5 6 7 8 9 0 a b c d e f g h i         ",
"2 j k l m n o p q r s t u v w x y z A B B C ",
"2 D E F G H I J K L M N O P Q R S T U V W X ",
"2 Y Z `  ...+.@.#.$.%.&.*...=.-.;.>.,.'.).  ",
"!.~.{.].^./.I (.K _.:.<.[.}.Q |.1.2.3.4.    ",
"5.6.7.8.Q 9.0.a._.0.%.b.O c.d.e.f.>.g.h.    ",
"i.j.k.l.m.n.o.0.o.9.b.[.p.q.r.s.T t.u.v.    ",
"w.x.y.=.*.&.z.A.B.&.O C.D.=.E.f.>.g.h.      ",
"F.G.u H.I.J.K.[.O J.P q.=.e.L.M.N.O.P.      ",
"Q.R.S.R =.Q ......Q =.R -.f.M.T.'.U.        ",
"V.W.;.T f.L.S S L.f.T 2.>.X.N.Y.Z.          ",
"`. + +.+ +++++++ +.+.+@+#+$+%+&+*+          ",
"                                            "};
