/* XPM */
static char * gtksnap_compress_xpm[] = {
"22 22 343 2",
"  	c None",
". 	c #474534",
"+ 	c #474747",
"@ 	c #1F1E18",
"# 	c #9F9A72",
"$ 	c #E0D99F",
"% 	c #757154",
"& 	c #737163",
"* 	c #DFDED2",
"= 	c #9F9F9E",
"- 	c #1F1F21",
"; 	c #3F3C29",
"> 	c #948E62",
", 	c #E4DB97",
"' 	c #F2E9A1",
") 	c #EAE098",
"! 	c #6F6941",
"~ 	c #7B796D",
"{ 	c #F1E9B7",
"] 	c #F6F1C4",
"^ 	c #F8F3CD",
"/ 	c #EEEBD7",
"( 	c #9B9A90",
"_ 	c #42413D",
": 	c #322F1F",
"< 	c #827C4C",
"[ 	c #DDD183",
"} 	c #EADE8B",
"| 	c #D9CB7A",
"1 	c #CDC25A",
"2 	c #C4BD2E",
"3 	c #F5ECB8",
"4 	c #F7F1C7",
"5 	c #F8F2C9",
"6 	c #F4EAA8",
"7 	c #F4EDB6",
"8 	c #F7F1C2",
"9 	c #EAE7C7",
"0 	c #8C8A76",
"a 	c #363530",
"b 	c #6D653B",
"c 	c #C5B766",
"d 	c #DCCD73",
"e 	c #DECE74",
"f 	c #D8C871",
"g 	c #CFC06A",
"h 	c #B8AB51",
"i 	c #A8A31F",
"j 	c #AAA80B",
"k 	c #AEAE04",
"l 	c #DBCC75",
"m 	c #D8CB7E",
"n 	c #DED396",
"o 	c #F1EDD2",
"p 	c #F1E9AF",
"q 	c #F2E7A3",
"r 	c #F2E9A4",
"s 	c #F5EDB6",
"t 	c #DCD7AC",
"u 	c #797765",
"v 	c #83793D",
"w 	c #D2C05C",
"x 	c #AA9A4E",
"y 	c #91843A",
"z 	c #807724",
"A 	c #7D790A",
"B 	c #858207",
"C 	c #8E8D04",
"D 	c #969604",
"E 	c #C0B464",
"F 	c #BFB364",
"G 	c #B8AE60",
"H 	c #B7AD60",
"I 	c #D2CBA1",
"J 	c #E5DFB3",
"K 	c #F5EEB9",
"L 	c #F0E490",
"M 	c #958F61",
"N 	c #020204",
"O 	c #9D9462",
"P 	c #7F7845",
"Q 	c #665E26",
"R 	c #524E12",
"S 	c #57540C",
"T 	c #615D0C",
"U 	c #6A660B",
"V 	c #73700A",
"W 	c #79790A",
"X 	c #A69D53",
"Y 	c #A59B53",
"Z 	c #9F974E",
"` 	c #9D944E",
" .	c #99904D",
"..	c #9D9557",
"+.	c #A69D6E",
"@.	c #988E61",
"#.	c #A2A098",
"$.	c #3A3624",
"%.	c #ADA46B",
"&.	c #E4D684",
"*.	c #99904B",
"=.	c #56511A",
"-.	c #49460F",
";.	c #4E4A0C",
">.	c #56520B",
",.	c #5F5B0C",
"'.	c #8B8340",
").	c #888040",
"!.	c #857F3D",
"~.	c #7F783B",
"{.	c #857D46",
"].	c #B6AB7F",
"^.	c #E6E1CB",
"/.	c #A09E8C",
"(.	c #3A3A3A",
"_.	c #605E51",
":.	c #ADA77B",
"<.	c #CBC288",
"[.	c #D2C887",
"}.	c #938D53",
"|.	c #4A4617",
"1.	c #3D390D",
"2.	c #47420C",
"3.	c #746F33",
"4.	c #706C2E",
"5.	c #726B36",
"6.	c #ABA26D",
"7.	c #D5CDA1",
"8.	c #B5AF84",
"9.	c #756F3D",
"0.	c #39300B",
"a.	c #90908E",
"b.	c #E9E4D0",
"c.	c #BFBBA2",
"d.	c #9E9B7C",
"e.	c #D2CCA0",
"f.	c #E9E4BC",
"g.	c #7D785D",
"h.	c #7E7963",
"i.	c #837A35",
"j.	c #918A45",
"k.	c #E8DC9B",
"l.	c #C0B97C",
"m.	c #6A611C",
"n.	c #726A0B",
"o.	c #868108",
"p.	c #525104",
"q.	c #FEFDEC",
"r.	c #FAF7E5",
"s.	c #E5E1C6",
"t.	c #B7B295",
"u.	c #ADAA8D",
"v.	c #A8A78B",
"w.	c #B3B196",
"x.	c #BDAE3F",
"y.	c #B6A14B",
"z.	c #887F31",
"A.	c #786E09",
"B.	c #918C07",
"C.	c #939204",
"D.	c #8F8D04",
"E.	c #4E4C04",
"F.	c #909083",
"G.	c #FEFBE7",
"H.	c #FEFCE0",
"I.	c #FEFCDE",
"J.	c #FEFAD6",
"K.	c #EEE8C1",
"L.	c #BEBA98",
"M.	c #BCB69F",
"N.	c #828103",
"O.	c #726F03",
"P.	c #656203",
"Q.	c #6B6803",
"R.	c #6A6703",
"S.	c #636203",
"T.	c #5D5C03",
"U.	c #333303",
"V.	c #908E81",
"W.	c #FEFADE",
"X.	c #FEFBD5",
"Y.	c #FEFAD0",
"Z.	c #FEFAC9",
"`.	c #FEF8C5",
" +	c #FAF4BA",
".+	c #F1EBBC",
"++	c #323231",
"@+	c #8D8D8C",
"#+	c #4C4C4C",
"$+	c #2B2B2B",
"%+	c #0C0C0D",
"&+	c #828282",
"*+	c #9F9F9F",
"=+	c #323232",
"-+	c #908F80",
";+	c #FEFAD3",
">+	c #FEFACE",
",+	c #FEFAC6",
"'+	c #FEF8BD",
")+	c #FEFAB7",
"!+	c #FEF8B4",
"~+	c #FEF9B1",
"{+	c #424241",
"]+	c #B0B0AE",
"^+	c #6A6A68",
"/+	c #7A7A79",
"(+	c #454545",
"_+	c #131314",
":+	c #A4A4A4",
"<+	c #7E7E7C",
"[+	c #B1B1B1",
"}+	c #828280",
"|+	c #1C1C1B",
"1+	c #060502",
"2+	c #211C0C",
"3+	c #382F15",
"4+	c #6E6546",
"5+	c #AA926E",
"6+	c #B6A274",
"7+	c #D5C47C",
"8+	c #EBE3A6",
"9+	c #FAF5B1",
"0+	c #FEF7A7",
"a+	c #FEF6A6",
"b+	c #210B0A",
"c+	c #6A2221",
"d+	c #2F6E2A",
"e+	c #375660",
"f+	c #1F2D69",
"g+	c #095153",
"h+	c #572A66",
"i+	c #6A424C",
"j+	c #6C6928",
"k+	c #8F5523",
"l+	c #2D1A0B",
"m+	c #DFBD84",
"n+	c #E2C086",
"o+	c #E7C08A",
"p+	c #EABE7F",
"q+	c #EBAD74",
"r+	c #EDC6AE",
"s+	c #E2BAA4",
"t+	c #D1A787",
"u+	c #CAA581",
"v+	c #CFCC79",
"w+	c #E5DE8C",
"x+	c #2C0101",
"y+	c #8C0202",
"z+	c #0B8504",
"A+	c #023F53",
"B+	c #021C90",
"C+	c #028E90",
"D+	c #741C90",
"E+	c #8D3E53",
"F+	c #8F8804",
"G+	c #CD6204",
"H+	c #401E01",
"I+	c #FE8204",
"J+	c #FE810C",
"K+	c #FC8112",
"L+	c #F0844C",
"M+	c #DC9369",
"N+	c #D79A7B",
"O+	c #C99982",
"P+	c #705F52",
"Q+	c #67631D",
"R+	c #3D0304",
"S+	c #C20A0C",
"T+	c #0EB604",
"U+	c #025670",
"V+	c #0226C4",
"W+	c #02C2C4",
"X+	c #9E26C4",
"Y+	c #C25670",
"Z+	c #C6BE04",
"`+	c #4F2901",
" @	c #AB5103",
".@	c #AE5304",
"+@	c #B35504",
"@@	c #B75604",
"#@	c #B85705",
"$@	c #9F531A",
"%@	c #6E4F33",
"&@	c #6B523A",
"*@	c #604F35",
"=@	c #86812E",
"-@	c #BAB541",
";@	c #4C0102",
">@	c #F30305",
",@	c #11E404",
"'@	c #026B8A",
")@	c #022FF2",
"!@	c #02F3F2",
"~@	c #C62FF2",
"{@	c #F36B8A",
"]@	c #F3EE08",
"^@	c #FEA24C",
"/@	c #4F3318",
"(@	c #070300",
"_@	c #240F01",
":@	c #471F02",
"<@	c #652D03",
"[@	c #612B03",
"}@	c #342012",
"|@	c #7E7B51",
"1@	c #B7B349",
"2@	c #DBD453",
"3@	c #FAF175",
"4@	c #FEF57D",
"5@	c #4F1A16",
"6@	c #FE5347",
"7@	c #61F357",
"8@	c #56A0B4",
"9@	c #5B76FC",
"0@	c #70FEFC",
"a@	c #E376FC",
"b@	c #FEA0B4",
"c@	c #FEFA5A",
"d@	c #FEC17F",
"e@	c #4F3C28",
"f@	c #413F27",
"g@	c #928C47",
"h@	c #EFE777",
"i@	c #FEF26E",
"j@	c #4A362E",
"k@	c #EEAE92",
"l@	c #B9EAB5",
"m@	c #B6CED5",
"n@	c #C0C0EC",
"o@	c #EEEEEC",
"p@	c #EEC0EC",
"q@	c #EECED5",
"r@	c #EEECB6",
"s@	c #EED0A1",
"t@	c #4A4132",
"u@	c #11100A",
"v@	c #9F9845",
"w@	c #E0D862",
"x@	c #1E1E04",
"y@	c #010102",
"z@	c #000000",
"A@	c #47441D",
"B@	c #212106",
"                .         +                 ",
"            @ # $ %     & * = -             ",
"        ; > , ' ' ) ! ~ { ] ^ / ( _         ",
"    : < [ } } } | 1 2 3 4 5 6 7 8 9 0 a     ",
"  b c d e f g h i j k l m n o p q r s t u   ",
"    v w x y z A B C D E F G H I J K L M     ",
"  N O P Q R S T U V W X Y Z `  ...+.@.#.N   ",
"    $.%.&.*.=.-.;.>.,.'.).!.~.{.].^./.(.    ",
"      _.:.<.[.}.|.1.2.3.4.5.6.7.8.9.0.      ",
"      a.b.c.d.e.f.g.h.i.j.k.l.m.n.o.p.      ",
"      a.q.r.s.t.u.v.w.x.y.z.A.B.C.D.E.      ",
"      F.G.H.I.J.K.L.M.N.O.P.Q.R.S.T.U.      ",
"      V.W.X.Y.Z.`. +.+++= @+#+$+%+&+*+= = =+",
"      -+;+>+,+'+)+!+~+{+]+^+/+(+_+:+<+[+}+|+",
"1+2+3+4+5+6+7+8+9+0+a+b+c+d+e+f+g+h+i+j+k+l+",
"m+n+o+p+q+r+s+t+u+v+w+x+y+z+A+B+C+D+E+F+G+H+",
"I+I+J+J+K+L+M+N+O+P+Q+R+S+T+U+V+W+X+Y+Z+I+`+",
" @.@+@@@#@$@%@&@*@=@-@;@>@,@'@)@!@~@{@]@^@/@",
"(@_@:@<@[@}@|@1@2@3@4@5@6@7@8@9@0@a@b@c@d@e@",
"            f@g@h@i@i@j@k@l@m@n@o@p@q@r@s@t@",
"                u@v@w@x@y@z@z@z@z@z@z@z@z@z@",
"                    A@B@                    "};
