/* XPM */
static char * pyprint_preview_xpm[] = {
"24 24 332 2",
"  	c None",
". 	c #797979",
"+ 	c #626262",
"@ 	c #747474",
"# 	c #787878",
"$ 	c #707070",
"% 	c #686868",
"& 	c #606060",
"* 	c #5A5A5A",
"= 	c #515151",
"- 	c #4B4B4B",
"; 	c #454545",
"> 	c #404040",
", 	c #403F3F",
"' 	c #3F3E3D",
") 	c #1F1F1E",
"! 	c #D5D5D5",
"~ 	c #828282",
"{ 	c #CFCFCF",
"] 	c #FFFFFF",
"^ 	c #FFFEFE",
"/ 	c #FDFCFB",
"( 	c #FBF8F4",
"_ 	c #7D7B78",
": 	c #CECECE",
"< 	c #AFAFAF",
"[ 	c #E6E6E6",
"} 	c #929292",
"| 	c #979797",
"1 	c #B0B0B0",
"2 	c #A4A4A4",
"3 	c #C2C2C2",
"4 	c #868585",
"5 	c #FAF5EF",
"6 	c #7C7976",
"7 	c #000000",
"8 	c #DBDBDB",
"9 	c #F6F6F6",
"0 	c #E1E1E1",
"a 	c #DDDDDD",
"b 	c #E3E3E3",
"c 	c #F3F1EF",
"d 	c #FAF6F0",
"e 	c #F8F2E9",
"f 	c #7B7872",
"g 	c #7B7B7B",
"h 	c #B2B2B2",
"i 	c #C3C3C3",
"j 	c #CBCBCB",
"k 	c #D8D8D8",
"l 	c #D4D4D4",
"m 	c #F8F8F8",
"n 	c #CACACA",
"o 	c #898989",
"p 	c #585858",
"q 	c #4F4F4F",
"r 	c #555555",
"s 	c #505050",
"t 	c #949392",
"u 	c #C6C3C0",
"v 	c #F5EDE2",
"w 	c #7A7670",
"x 	c #727272",
"y 	c #E5E5E5",
"z 	c #EBEBEB",
"A 	c #E9E9E9",
"B 	c #444444",
"C 	c #7E7E7E",
"D 	c #BFBFBF",
"E 	c #C0C0C0",
"F 	c #B1B1B1",
"G 	c #BABABA",
"H 	c #676767",
"I 	c #343434",
"J 	c #A8A49F",
"K 	c #76716A",
"L 	c #7A7A7A",
"M 	c #6A6A6A",
"N 	c #C6C6C6",
"O 	c #A5A5A5",
"P 	c #646464",
"Q 	c #D2D2D2",
"R 	c #EFEFEF",
"S 	c #F2F2F1",
"T 	c #F9F8F8",
"U 	c #F9F9F8",
"V 	c #C1C0BF",
"W 	c #4D4D4D",
"X 	c #484848",
"Y 	c #808080",
"Z 	c #ADADAD",
"` 	c #636363",
" .	c #595959",
"..	c #F4F4F4",
"+.	c #FAFAFA",
"@.	c #D6D6D6",
"#.	c #E1DFDE",
"$.	c #EAE9E7",
"%.	c #ECEBE8",
"&.	c #DFDCD8",
"*.	c #AAA9A9",
"=.	c #6E6E6E",
"-.	c #A0A0A0",
";.	c #5D5D5D",
">.	c #848484",
",.	c #8E8E8E",
"'.	c #DFDFDF",
").	c #C6C5C4",
"!.	c #B8B4AE",
"~.	c #E5E4E0",
"{.	c #B7B1A7",
"].	c #D0CCC5",
"^.	c #E7E4E1",
"/.	c #E3E3E2",
"(.	c #8B8B8B",
"_.	c #444445",
":.	c #E2E2E2",
"<.	c #EAEAEA",
"[.	c #F5F5F5",
"}.	c #FCFBFB",
"|.	c #F2F1EF",
"1.	c #E5E3DF",
"2.	c #D2CDC7",
"3.	c #C8C4BC",
"4.	c #D5D2CC",
"5.	c #E4E1DE",
"6.	c #8D8C8B",
"7.	c #2B2B2B",
"8.	c #4D4D50",
"9.	c #DBDBDD",
"0.	c #F7F6F5",
"a.	c #EAE9E5",
"b.	c #D3CEC9",
"c.	c #CDC9C2",
"d.	c #D0CCC6",
"e.	c #DBD7D2",
"f.	c #A2A2A0",
"g.	c #2D2D2D",
"h.	c #717171",
"i.	c #494949",
"j.	c #C2C2C3",
"k.	c #CDCCCC",
"l.	c #E3E1E0",
"m.	c #F4F3F1",
"n.	c #EFEDEB",
"o.	c #E0DDD8",
"p.	c #D1CEC8",
"q.	c #C9C4BE",
"r.	c #BDB6AE",
"s.	c #B0A79C",
"t.	c #BCB7AE",
"u.	c #9B9997",
"v.	c #252525",
"w.	c #6D6D6D",
"x.	c #434343",
"y.	c #4E4E4E",
"z.	c #CAC9C9",
"A.	c #E0DEDC",
"B.	c #CFCBC5",
"C.	c #AEA79C",
"D.	c #C6C0B9",
"E.	c #BBB6AC",
"F.	c #BEB9B0",
"G.	c #948C80",
"H.	c #AEA79B",
"I.	c #BEB8AF",
"J.	c #D4D0CA",
"K.	c #8C8A87",
"L.	c #333333",
"M.	c #6C6C6C",
"N.	c #DBDBDA",
"O.	c #818181",
"P.	c #8B8A89",
"Q.	c #E3E1DE",
"R.	c #EAE8E6",
"S.	c #D2CEC8",
"T.	c #C9C5BE",
"U.	c #C3BDB5",
"V.	c #C9C4BC",
"W.	c #ADA79B",
"X.	c #B5AFA5",
"Y.	c #B8B5AE",
"Z.	c #51504E",
"`.	c #464646",
" +	c #6B6B6B",
".+	c #F0F0EF",
"++	c #C1C0BE",
"@+	c #BDBCBB",
"#+	c #E6E4E0",
"$+	c #D6D2CE",
"%+	c #C4BFB7",
"&+	c #C8C3BC",
"*+	c #C2BDB5",
"=+	c #C7C2BA",
"-+	c #72706F",
";+	c #161212",
">+	c #4D4C4C",
",+	c #E5E5F2",
"'+	c #CBCBE5",
")+	c #CAC8DF",
"!+	c #E0DCE4",
"~+	c #AEACA8",
"{+	c #4E4E4F",
"]+	c #9A9998",
"^+	c #D1CFCD",
"/+	c #E2DFDB",
"(+	c #CAC5BE",
"_+	c #C3BEB6",
":+	c #CDCAC3",
"<+	c #B1ADA7",
"[+	c #6E6C6A",
"}+	c #1B2727",
"|+	c #2EA4A4",
"1+	c #0E3C3C",
"2+	c #737373",
"3+	c #090909",
"4+	c #CBCBE4",
"5+	c #4B4AA4",
"6+	c #9593C3",
"7+	c #9491C0",
"8+	c #D9D3D6",
"9+	c #656571",
"0+	c #30302F",
"a+	c #7C7B79",
"b+	c #8E8D8A",
"c+	c #959491",
"d+	c #6C6A68",
"e+	c #414141",
"f+	c #0F0E0E",
"g+	c #1B7678",
"h+	c #5B9191",
"i+	c #6E6D6C",
"j+	c #2A2A2A",
"k+	c #FDFCFA",
"l+	c #6463AF",
"m+	c #F9F4ED",
"n+	c #9490BE",
"o+	c #C3BBCB",
"p+	c #5E5A93",
"q+	c #ADA599",
"r+	c #8E857B",
"s+	c #404042",
"t+	c #242424",
"u+	c #2F2F2F",
"v+	c #53504C",
"w+	c #756958",
"x+	c #726553",
"y+	c #052627",
"z+	c #2C2B2B",
"A+	c #666666",
"B+	c #0B0B0B",
"C+	c #3F3E3E",
"D+	c #6362AC",
"E+	c #625FA8",
"F+	c #ABA4C2",
"G+	c #F3E9DA",
"H+	c #CCC1C5",
"I+	c #5C5696",
"J+	c #92879E",
"K+	c #BEAE9A",
"L+	c #AC9D88",
"M+	c #A0927C",
"N+	c #9D8C74",
"O+	c #9F8D74",
"P+	c #A8957A",
"Q+	c #AE9B7E",
"R+	c #605648",
"S+	c #292929",
"T+	c #181818",
"U+	c #3F3E3C",
"V+	c #C8C5DA",
"W+	c #49489F",
"X+	c #ACA6C5",
"Y+	c #F4E9DC",
"Z+	c #F2E6D5",
"`+	c #8F87AF",
" @	c #8D84AB",
".@	c #8B80A4",
"+@	c #DCC9AF",
"@@	c #CDBA9E",
"#@	c #C1AD91",
"$@	c #BCA789",
"%@	c #BFA98A",
"&@	c #CBB393",
"*@	c #D2BA98",
"=@	c #908474",
"-@	c #3E3D3B",
";@	c #DFDAE0",
">@	c #C5BECF",
",@	c #CFC6CE",
"'@	c #F2E7D6",
")@	c #F0E3D0",
"!@	c #BEB2B9",
"~@	c #BCAEB4",
"{@	c #DECCB9",
"]@	c #E6D2B4",
"^@	c #E1CBAB",
"/@	c #DDC5A3",
"(@	c #DAC19F",
"_@	c #DBC29F",
":@	c #DFC5A1",
"<@	c #E0C7A3",
"[@	c #8B7E6C",
"}@	c #656565",
"|@	c #282828",
"1@	c #272727",
"2@	c #262626",
"3@	c #232323",
"4@	c #222222",
"5@	c #C1C1C1",
"6@	c #BEBEBE",
"7@	c #BCBCBC",
"8@	c #B8B8B8",
"9@	c #B5B5B5",
"0@	c #B3B3B3",
"a@	c #AEAEAE",
"b@	c #ACACAC",
"c@	c #A9A9A9",
"d@	c #A7A7A7",
"e@	c #9C9C9C",
"f@	c #1C1C1C",
"g@	c #202020",
"h@	c #393939",
"i@	c #383838",
"j@	c #373737",
"k@	c #363636",
"l@	c #353535",
"m@	c #323232",
"n@	c #313131",
"o@	c #080808",
"p@	c #101010",
"q@	c #060606",
"  . + @ # $ % & * = - ; > > , ' )               ",
". ! ~ { ] ] ] ] ] ] ] ] ] ^ / ( _               ",
"+ ~ + { : < [ } | } { 1 2 3 4 5 6 7 7           ",
"@ { { 8 ] ] ] ] 9 0 a 8 b c d e f g h 7         ",
". ] i j k l m n o p q r s t u v w g h 7         ",
"x ] 0 y z A 2 B C D E F G H I J K L h 7         ",
"M ] 2 [ N O P Q m A R S T U V W X Y Z 7         ",
"` ] ] ] E  .l ..+.@.8 #.$.%.&.*.I =.-.7         ",
";.] 2 [ >.,.A '.{ ).!.~.{.].^./.+ s (.7         ",
"r ] 0 Q _.: :.<.[.}.|.1.2.3.4.5.6.7.L 7         ",
"q ] i n 8.9.] ] ] 0.a.&.b.c.d.e.f.g.h.7         ",
"i.] 2 1 8.j.k.l.m.n.o.p.q.r.s.t.u.v.w.7         ",
"x.] ] Q y.z.A.B.C.D.E.F.G.H.I.J.K.L.M.7         ",
"> ] : N.O.P.Q.R.S.T.U.V.W.I.X.Y.Z.`. +7         ",
"> ] [ .+++`.@+#+$+d.%+&+t.*+=+-+;+>+M.7         ",
"> ,+'+)+!+~+{+]+^+/+(+_+:+<+[+}+|+1+2+3+        ",
"> 4+5+6+7+8+9+0+r a+b+c+d+e+f+g+h+i+x.j+        ",
", k+l+m+n+o+p+q+r+s+t+u+v+w+x+y+z+A+h.B+        ",
"C+( D+E+F+G+H+I+J+K+L+M+N+O+P+Q+R+S+A+M.T+      ",
"U+V+W+X+Y+Z+`+ @.@+@@@#@$@%@&@*@=@e+j+ +M.      ",
"-@;@>@,@'@)@!@~@{@]@^@/@(@_@:@<@[@w.}@j+A+@     ",
"7 7 7 |@|@1@2@2@2@v.v.t+t+3@3@4@4@$ -.S+2@P M.T+",
"    7 i 5@6@7@G 8@9@0@F a@b@c@d@O c@e@f@  j+}@g@",
"    7 h@h@i@j@j@k@l@l@I L.L.m@n@n@n@2@7   o@p@q@"};
