/* XPM */
static char * pyprint_printer_big_xpm[] = {
"50 50 176 2",
"  	c None",
". 	c #F8F7F8",
"+ 	c #E8E7E8",
"@ 	c #F5F5F6",
"# 	c #F5F4F5",
"$ 	c #CBCBCC",
"% 	c #EFEFF0",
"& 	c #E4E2E5",
"* 	c #FFFFFF",
"= 	c #C2C2C2",
"- 	c #FAFAFA",
"; 	c #E3E0E3",
"> 	c #BCBABD",
", 	c #F2F1F2",
"' 	c #F4F4F3",
") 	c #DDDBDE",
"! 	c #BABABB",
"~ 	c #B9B6B9",
"{ 	c #ECEAED",
"] 	c #DADADB",
"^ 	c #EFEDF0",
"/ 	c #CFCBD0",
"( 	c #BBB6BD",
"_ 	c #B2ABB4",
": 	c #C8C2C9",
"< 	c #EEEFEF",
"[ 	c #B1ABB2",
"} 	c #B9B5BA",
"| 	c #BEB8BF",
"1 	c #CCC8CD",
"2 	c #AEA8AF",
"3 	c #AAA4AD",
"4 	c #C2BCC3",
"5 	c #A7A2A9",
"6 	c #ECECED",
"7 	c #ADA9AE",
"8 	c #BEBBC0",
"9 	c #EBECEB",
"0 	c #E8EAE7",
"a 	c #EBEDEA",
"b 	c #A7A4A7",
"c 	c #B3AEB5",
"d 	c #99959A",
"e 	c #FBFAFB",
"f 	c #F9F7FA",
"g 	c #F3EEF5",
"h 	c #F1ECF3",
"i 	c #DFD7E2",
"j 	c #C1B7C6",
"k 	c #BBB0C1",
"l 	c #BCAEC1",
"m 	c #BEAFC4",
"n 	c #B9ABBE",
"o 	c #AEA2B3",
"p 	c #A79DAC",
"q 	c #A699AC",
"r 	c #A497AA",
"s 	c #BBACC1",
"t 	c #A99FAE",
"u 	c #F2EDF4",
"v 	c #F0EBF2",
"w 	c #D6C9DE",
"x 	c #C1AACB",
"y 	c #B499C0",
"z 	c #AB8EB9",
"A 	c #A686B5",
"B 	c #A27AB5",
"C 	c #9F74B3",
"D 	c #9E6CB5",
"E 	c #9B68B5",
"F 	c #9A5FB6",
"G 	c #9550B9",
"H 	c #974BBA",
"I 	c #9649BA",
"J 	c #9747BC",
"K 	c #9646BB",
"L 	c #964FBA",
"M 	c #975AB7",
"N 	c #9A63B6",
"O 	c #9D71B2",
"P 	c #A582B5",
"Q 	c #B79EC3",
"R 	c #C8B7D2",
"S 	c #EDE7F0",
"T 	c #B8A1C4",
"U 	c #965AB5",
"V 	c #933FBA",
"W 	c #9136BB",
"X 	c #923ABB",
"Y 	c #9034BB",
"Z 	c #923BBA",
"` 	c #AC93B8",
" .	c #D1C2D9",
"..	c #9254AF",
"+.	c #8B40B1",
"@.	c #AD90BB",
"#.	c #9442BB",
"$.	c #9540BD",
"%.	c #8D3CB3",
"&.	c #A17AB3",
"*.	c #9D6EB1",
"=.	c #873CAD",
"-.	c #B095BE",
";.	c #B7A4BF",
">.	c #D7D7D6",
",.	c #CDCACF",
"'.	c #D0CCD1",
").	c #D2CED3",
"!.	c #D7D4D9",
"~.	c #D3D0D5",
"{.	c #B3B2B3",
"].	c #9251B0",
"^.	c #8A40AD",
"/.	c #AD9AB5",
"(.	c #C6C6C5",
"_.	c #B1B1B2",
":.	c #B0B0B1",
"<.	c #ADABAE",
"[.	c #EAE8EB",
"}.	c #B5B3B6",
"|.	c #9D999E",
"1.	c #8C4AAB",
"2.	c #BEA7C8",
"3.	c #A08EA9",
"4.	c #A9A8A9",
"5.	c #9C9B9C",
"6.	c #979496",
"7.	c #C2C0C3",
"8.	c #C5C5C5",
"9.	c #E2E2E2",
"0.	c #EBEBEC",
"a.	c #A19EA1",
"b.	c #918E8F",
"c.	c #924CAF",
"d.	c #8C55A6",
"e.	c #C6B3D0",
"f.	c #8D58A5",
"g.	c #8C50A5",
"h.	c #CAC1CE",
"i.	c #9D9D9E",
"j.	c #A3A3A3",
"k.	c #A1A1A1",
"l.	c #B9B9B9",
"m.	c #F5F6F3",
"n.	c #9B8DA0",
"o.	c #9143B6",
"p.	c #8F68A5",
"q.	c #933BBC",
"r.	c #D4D4D4",
"s.	c #D6D6D6",
"t.	c #8E3EB7",
"u.	c #9478A3",
"v.	c #E2D8E7",
"w.	c #9C6DB4",
"x.	c #9962B3",
"y.	c #E1DEE1",
"z.	c #E6E8E5",
"A.	c #E4E6E3",
"B.	c #963FBE",
"C.	c #8F3DB6",
"D.	c #9E8CA7",
"E.	c #8C3BB6",
"F.	c #9248B5",
"G.	c #9775A8",
"H.	c #946FA6",
"I.	c #936CA5",
"J.	c #9267A6",
"K.	c #8D40B5",
"L.	c #9B7EA9",
"M.	c #7F4B9A",
"N.	c #814D9C",
"O.	c #81449D",
"P.	c #81469D",
"Q.	c #82489D",
"R.	c #83559A",
"S.	c #D7D1DA",
"                                                                                                    ",
"                                                                                                    ",
"                                                                                                    ",
"                                                                                                    ",
"                                                                                                    ",
"                                                                                                    ",
"                                                                                                    ",
"                                                                                                    ",
"                        . + @ # # # # # # # # # # # # # # # # # # # # # . $ %                       ",
"                        . & * * * * * * * * * * * * * * * * * * * * * * * = %                       ",
"                        - ; * * * * * * * * * * * * * * * * * * * * * * * > ,                       ",
"                        * ; * * * * * * * * * * * * * * * * * * * * * * * > '                       ",
"                          ) * * * * * * * * * * * * * * * * * * * * * * * ! #                       ",
"                          ; - * * * * * * * * * * * * * * * * * * * * * - ~ -                       ",
"                  * . { ; ] - * * * * * * * * * * * * * * * * * * * * * , ~ ) ; %                   ",
"                * ^ / ( _ : - * * * * * * * * * * * * * * * * * * * * * < [ _ } | ) *               ",
"                % 1 2 2 3 4 - * * * * * * * * * * * * * * * * * * * * * % 3 3 2 _ 5 6               ",
"                + } 2 [ 7 8 9 0 0 0 0 0 0 0 0 0 0 0 0 + 0 0 0 0 0 0 0 a ] b 2 c c d +               ",
"      e f # g h i j k l m n o p p q q q r r r r r r r r r q q q q q p p p o s n k t i u g # f *     ",
"    v w x y z A B C D E F F G G H I J K K K K K K K K K K K K K J H L G M N N D O B P A z Q x R v   ",
"  S T U V W X Y Y Y Y Y X X X Y X X X X X Z Z Z Z Z Z Z X X X X X X X X X X W W Y Y W X X V I G `   ",
"   .F Y X V V V V V V V V V V V V V V V V V V V V V V V V V V V V V V V V V V V V V V V V V X V ..  ",
"  T I V V V V V V V V V V V V V V V V V V V V V V V V V V V V V V V V V V V V V V V V V V V V V +.  ",
"  @.#.V V V V V V V V V V V V V V V V V V V V V V V V V V V V V V V V V V V V V V V V V V V V $.%.  ",
"  P V V V V V V V V V V V V V V V V V V V V V V V V V V V V V V V V V V V V V V V V V V V V V $.%.  ",
"  &.V V V V V V V V V V V V V V V V V V V V V V V V V V V V V V V V V V V V V V V V V V V V V V %.  ",
"  &.V V V V V V V V V V V V V V V V V V V V V V V V V V V V V V V V V V V V V V V V V V V V V V %.  ",
"  P V V V V V V V V V V V V V V V V V V V V V V V V V V V V V V V V V V V V V V V V V V V V V V %.  ",
"  P #.V V V V V X Y Y Y Y Y Y Y Y Y Y Y Y Y Y Y Y Y Y Y Y Y Y Y Y Y Y Y Y Y Y Y Y Y V V V V V $.%.  ",
"  z #.V V V V V N &.C C C C O O O O O O O O O O O O O O O O O O O O O O O O C C C *.K V V V V $.=.  ",
"  -.K V V V V X ;.>.,.,.,.,.'.).!.!.!.!.!.!.!.!.!.!.!.!.!.!.!.!.!.!.!.~./ / ,.,.'.{.].Z V V V $.^.  ",
"  Q I V V V V X /.(._.:.<.= [.] :.{.{.{.{.{.{.{.{.{.{.{.{.{.{.{.{.{.:.$ { ) :.:.}.|.1.V V V V V 1.  ",
"  2.I V V V V Z 3.4.5.5.6.7.* < = 8.8.8.8.8.8.8.8.8.8.8.8.8.8.8.8.8.= 9.* 0.a.5.a.b.c.V V V V V d.  ",
"  e.G V V V V V ].f.d.d.g.h.* 9.i.j.j.j.j.j.j.j.j.j.j.j.j.j.j.j.j.j.k.l.* m.n.d.d.f.o.V V V V V p.  ",
"   .U V V V V V V q.q.Y #.i * ' r.s.s.s.s.s.s.s.s.s.s.s.s.s.s.s.s.s.r.9.* * o Y q.V V V V V V t.u.  ",
"  v.w.V $.V V V V V $.X x.y.0 z.a a a a a a a a a a a a a a a a a a a 0 A.0 {.t.$.V V V V V B.C.D.  ",
"  u O t.C.C.C.C.C.C.C.E.F.G.H.I.I.I.I.I.I.I.I.I.I.I.I.I.I.I.I.I.I.I.I.I.H.H.J.K.C.C.C.C.C.C.X =.n   ",
"  - L.M.N.N.N.N.N.N.N.N.N.O.O.P.P.P.P.P.P.P.P.P.P.P.P.P.P.P.P.P.P.P.P.P.P.P.Q.N.N.N.N.N.N.N.N.R.S.  ",
"                                                                                                    ",
"                                                                                                    ",
"                                                                                                    ",
"                                                                                                    ",
"                                                                                                    ",
"                                                                                                    ",
"                                                                                                    ",
"                                                                                                    ",
"                                                                                                    ",
"                                                                                                    ",
"                                                                                                    ",
"                                                                                                    "};
