/* XPM */
static char * pyprint_printer_xpm[] = {
"24 24 133 2",
"  	c None",
". 	c #B4B4B5",
"+ 	c #EEEEEF",
"@ 	c #EAEAEA",
"# 	c #EAE9EA",
"$ 	c #E9E8EA",
"% 	c #E6E5E7",
"& 	c #A3A3A6",
"* 	c #AEADAF",
"= 	c #E0E0E0",
"- 	c #929094",
"; 	c #BAB9BB",
"> 	c #EFEFEF",
", 	c #9B9A9E",
"' 	c #C5C4C8",
") 	c #CECDD2",
"! 	c #F4F4F5",
"~ 	c #A9A7AF",
"{ 	c #8D8B93",
"] 	c #C1C0C4",
"^ 	c #AEADB4",
"/ 	c #ECEBEE",
"( 	c #F9F8FB",
"_ 	c #F8F7FA",
": 	c #F6F5F9",
"< 	c #F7F7FA",
"[ 	c #F8F8FA",
"} 	c #F9F8FA",
"| 	c #A3A1A8",
"1 	c #828188",
"2 	c #8D8D90",
"3 	c #ACAAB6",
"4 	c #B3B0C0",
"5 	c #A49FBA",
"6 	c #736A98",
"7 	c #847AAC",
"8 	c #887EB1",
"9 	c #857BAF",
"0 	c #8177AC",
"a 	c #8176AC",
"b 	c #857BAE",
"c 	c #877DB0",
"d 	c #8A80B1",
"e 	c #665D8F",
"f 	c #615786",
"g 	c #726A90",
"h 	c #8D88A4",
"i 	c #8F8C9C",
"j 	c #ABA6BE",
"k 	c #ABA4C8",
"l 	c #8A80B2",
"m 	c #625498",
"n 	c #3E2E81",
"o 	c #332278",
"p 	c #322278",
"q 	c #332378",
"r 	c #332478",
"s 	c #322178",
"t 	c #37277C",
"u 	c #3F2F81",
"v 	c #594C92",
"w 	c #7065A0",
"x 	c #4E4180",
"y 	c #8A82AE",
"z 	c #6C609E",
"A 	c #493A87",
"B 	c #403181",
"C 	c #3B2B7E",
"D 	c #3A2A7D",
"E 	c #3C2C7E",
"F 	c #413282",
"G 	c #41337F",
"H 	c #2E235E",
"I 	c #6F649F",
"J 	c #4E3F8A",
"K 	c #362776",
"L 	c #2C2258",
"M 	c #615595",
"N 	c #453584",
"O 	c #362775",
"P 	c #5F5392",
"Q 	c #443584",
"R 	c #36267C",
"S 	c #352675",
"T 	c #625792",
"U 	c #504289",
"V 	c #584D86",
"W 	c #564A85",
"X 	c #574A85",
"Y 	c #564985",
"Z 	c #564B85",
"` 	c #564A86",
" .	c #594D86",
"..	c #403379",
"+.	c #2B2158",
"@.	c #625790",
"#.	c #5B4F89",
"$.	c #BCBBBA",
"%.	c #D3D3D2",
"&.	c #CCCBCC",
"*.	c #DDDDDC",
"=.	c #E4E4E2",
"-.	c #E4E4E3",
";.	c #D5D5D5",
">.	c #D1D1D1",
",.	c #C3C3C1",
"'.	c #4D4376",
").	c #291E54",
"!.	c #52487C",
"~.	c #372C61",
"{.	c #5C586C",
"].	c #5F5B71",
"^.	c #767285",
"/.	c #E1E1E2",
"(.	c #B1B1B1",
"_.	c #B2B2B2",
":.	c #AEAEAE",
"<.	c #A1A0A5",
"[.	c #625D73",
"}.	c #5D596E",
"|.	c #332A56",
"1.	c #2A214E",
"2.	c #747083",
"3.	c #5C566F",
"4.	c #5C586E",
"5.	c #5F5D6D",
"6.	c #7F7F81",
"7.	c #888889",
"8.	c #878788",
"9.	c #76757A",
"0.	c #5B576B",
"a.	c #5A566E",
"b.	c #625E73",
"                                                ",
"                                                ",
"                                                ",
"                                                ",
"                                                ",
"                                                ",
"          . + @ # # # # # # # # $ % &           ",
"          *                       = -           ",
"          ;                       > ,           ",
"        ' ) !                       ~ {         ",
"        ] ^ / ( _ : : : : : : < [ } | 1 2       ",
"    3 4 5 6 7 8 9 0 a a a a a b c d e f g h i   ",
"  j k l m n o p q r r r r r r q p s t u v w x   ",
"  y z A B C D D D D D D D D D D D D D E F G H   ",
"  I J D D D D D D D D D D D D D D D D D D K L   ",
"  M N D D D D D D D D D D D D D D D D D D O L   ",
"  P Q R R R R R R R R R R R R R R R R R R S L   ",
"  T U V W X W W Y Y Y Y Y Y Y Y Y W Z `  ...+.  ",
"  @.#.$.%.&.*.=.=.=.=.=.=.=.=.=.=.-.;.>.,.'.).  ",
"  !.~.{.].^./.(.(.(.(.(.(.(.(.(._.:.<.[.}.|.1.  ",
"  2.3.4.4.5.6.7.7.7.7.7.7.7.7.7.7.8.9.0.}.a.b.  ",
"                                                ",
"                                                ",
"                                                "};
