/* XPM */
static char * ism_load_xpm[] = {
"24 24 248 2",
"  	c None",
". 	c #000000",
"+ 	c #45321F",
"@ 	c #453320",
"# 	c #45321E",
"$ 	c #432E1A",
"% 	c #5A4026",
"& 	c #D0955B",
"* 	c #F9BC7C",
"= 	c #F9BF7D",
"- 	c #F8BA78",
"; 	c #694B2D",
"> 	c #342314",
", 	c #CB935B",
"' 	c #FEC78C",
") 	c #FED099",
"! 	c #FED196",
"~ 	c #FEC98D",
"{ 	c #C99057",
"] 	c #855B34",
"^ 	c #3F2D1B",
"/ 	c #FDBD7B",
"( 	c #FED098",
"_ 	c #FED197",
": 	c #FEC787",
"< 	c #FBBA77",
"[ 	c #F6AF69",
"} 	c #EBA35E",
"| 	c #CF8E4F",
"1 	c #BA8048",
"2 	c #9D6D3E",
"3 	c #402D19",
"4 	c #402E1C",
"5 	c #FEC380",
"6 	c #FED298",
"7 	c #F5B06B",
"8 	c #CA8A4F",
"9 	c #A37449",
"0 	c #9E734C",
"a 	c #9E724C",
"b 	c #9D724B",
"c 	c #9C714A",
"d 	c #9C7049",
"e 	c #9B7048",
"f 	c #9A6F48",
"g 	c #996E47",
"h 	c #815E3E",
"i 	c #302821",
"j 	c #2C2C2C",
"k 	c #FEC482",
"l 	c #FECF96",
"m 	c #FCBD7D",
"n 	c #DB9554",
"o 	c #805C3D",
"p 	c #84807D",
"q 	c #999999",
"r 	c #979797",
"s 	c #949494",
"t 	c #90908F",
"u 	c #8C8C8B",
"v 	c #878787",
"w 	c #838382",
"x 	c #7F7F7F",
"y 	c #7B7B7B",
"z 	c #767676",
"A 	c #727272",
"B 	c #6E6E6E",
"C 	c #6A6A69",
"D 	c #686868",
"E 	c #676767",
"F 	c #1A1A1A",
"G 	c #FEC280",
"H 	c #F4B06B",
"I 	c #B47B47",
"J 	c #7D7064",
"K 	c #D2D2D1",
"L 	c #ECECEC",
"M 	c #EAEAE9",
"N 	c #E6E6E6",
"O 	c #E0E0DF",
"P 	c #D8D8D8",
"Q 	c #D1D1D0",
"R 	c #CACAC9",
"S 	c #C2C2C2",
"T 	c #BCBCBB",
"U 	c #B5B5B4",
"V 	c #ADADAB",
"W 	c #A5A5A4",
"X 	c #9E9E9D",
"Y 	c #959593",
"Z 	c #8E8E8D",
"` 	c #737373",
" .	c #282828",
"..	c #FEC07E",
"+.	c #FDBE7D",
"@.	c #E19A58",
"#.	c #836040",
"$.	c #979592",
"%.	c #DEDEDD",
"&.	c #E6E6E5",
"*.	c #E7E7E7",
"=.	c #E5E5E4",
"-.	c #D7D7D6",
";.	c #CFCFCD",
">.	c #C7C7C6",
",.	c #BFBFBE",
"'.	c #B7B7B6",
").	c #AFAFAE",
"!.	c #A6A6A5",
"~.	c #9D9D9D",
"{.	c #959594",
"].	c #898988",
"^.	c #787876",
"/.	c #3D3D3C",
"(.	c #FEBB75",
"_.	c #F7B16C",
":.	c #B97D47",
"<.	c #6A6058",
"[.	c #C5C5C5",
"}.	c #DCDCDC",
"|.	c #E9E9E8",
"1.	c #E8E8E7",
"2.	c #E4E4E3",
"3.	c #DDDDDB",
"4.	c #D5D5D4",
"5.	c #CDCDCC",
"6.	c #C5C5C3",
"7.	c #B4B4B3",
"8.	c #ABABA9",
"9.	c #A1A1A1",
"0.	c #989896",
"a.	c #888887",
"b.	c #5F5F5D",
"c.	c #402E1B",
"d.	c #FDB66D",
"e.	c #E69E5A",
"f.	c #7C5B3E",
"g.	c #D6D6D6",
"h.	c #DADAD9",
"i.	c #E7E7E6",
"j.	c #E1E1E0",
"k.	c #DBDBD9",
"l.	c #D4D4D2",
"m.	c #CCCCCB",
"n.	c #C4C4C3",
"o.	c #A1A1A0",
"p.	c #969694",
"q.	c #7D7D7C",
"r.	c #3A3A39",
"s.	c #402D1B",
"t.	c #F9AE64",
"u.	c #BB7D45",
"v.	c #52483E",
"w.	c #CACACA",
"x.	c #CFCFCE",
"y.	c #E2E2E1",
"z.	c #DFDFDE",
"A.	c #D5D5D3",
"B.	c #C8C8C6",
"C.	c #C0C0BE",
"D.	c #B8B8B7",
"E.	c #B1B1B0",
"F.	c #A8A8A6",
"G.	c #9E9E9C",
"H.	c #8E8E8E",
"I.	c #6B6B69",
"J.	c #161615",
"K.	c #3F2C19",
"L.	c #E29B57",
"M.	c #6D4E31",
"N.	c #A09F9D",
"O.	c #C8C8C8",
"P.	c #CECECD",
"Q.	c #DBDBDA",
"R.	c #D9D9D8",
"S.	c #D6D6D5",
"T.	c #C1C1C0",
"U.	c #BABAB8",
"V.	c #B3B3B2",
"W.	c #ACACAA",
"X.	c #A2A2A1",
"Y.	c #979796",
"Z.	c #848482",
"`.	c #323231",
" +	c #3A2715",
".+	c #AF7540",
"++	c #64584F",
"@+	c #D2D2D0",
"#+	c #D0D0CF",
"$+	c #C6C6C5",
"%+	c #C0C0BF",
"&+	c #BABAB9",
"*+	c #ADADAC",
"=+	c #9C9C9B",
"-+	c #626261",
";+	c #171717",
">+	c #2B1C0F",
",+	c #6F4C2D",
"'+	c #888685",
")+	c #B6B6B5",
"!+	c #C6C6C4",
"~+	c #C2C2C1",
"{+	c #BEBEBD",
"]+	c #AEAEAD",
"^+	c #A7A7A6",
"/+	c #A0A09F",
"(+	c #949493",
"_+	c #818180",
":+	c #3B3B3A",
"<+	c #0C0906",
"[+	c #605953",
"}+	c #AAAAA9",
"|+	c #ACACAB",
"1+	c #B9B9B8",
"2+	c #B5B5B5",
"3+	c #B2B2B1",
"4+	c #A9A9A8",
"5+	c #A3A3A2",
"6+	c #969695",
"7+	c #868685",
"8+	c #595958",
"9+	c #121111",
"0+	c #757574",
"a+	c #9B9B9A",
"b+	c #A1A19F",
"c+	c #A3A3A1",
"d+	c #A2A2A0",
"e+	c #939393",
"f+	c #90908E",
"g+	c #8D8D8C",
"h+	c #868684",
"i+	c #717170",
"j+	c #3D3D3B",
"k+	c #141414",
"l+	c #4D4D4D",
"m+	c #454545",
"n+	c #444444",
"o+	c #464645",
"p+	c #474746",
"q+	c #474747",
"r+	c #454544",
"s+	c #434343",
"t+	c #424242",
"u+	c #404040",
"v+	c #3E3E3E",
"w+	c #3C3C3B",
"x+	c #2D2D2C",
"y+	c #0C0C0C",
"                                                ",
"                    . . . . . .       .         ",
"              . . .         . . . . . .         ",
"            . . .             . . . . .         ",
"            .                   . . . .         ",
"                                . . . .         ",
"      + @ # $                                   ",
"  % & * = - & ;                                 ",
"> , ' ) ! ~ * { ]                               ",
"^ / ( _ : < [ } | 1 1 1 1 1 1 1 1 2 3           ",
"4 5 6 ~ 7 8 9 0 0 0 a b c d e f g h i j         ",
"4 k l m n o p q q r s t u v w x y z A B C D E F ",
"4 G ~ H I J K L M N O P Q R S T U V W X Y Z `  .",
"4 ..+.@.#.$.%.&.*.=.%.-.;.>.,.'.).!.~.{.].^./.  ",
"4 (._.:.<.[.}.=.|.1.2.3.4.5.6.T 7.8.9.0.a.b.    ",
"c.d.e.f.s g.h.2.i.=.j.k.l.m.n.T 7.8.o.p.q.r.    ",
"s.t.u.v.w.x.h.y.y.z.h.A.;.B.C.D.E.F.G.H.I.J.    ",
"K.L.M.N.O.P.-.Q.R.S.K 5.>.T.U.V.W.X.Y.Z.`.      ",
" +.+++,.,.O.x.@+#+P.R $+%+&+7.*+!.=+Z -+;+      ",
">+,+'+)+&+C.6.B.>.!+~+{+U.7.]+^+/+(+_+:+        ",
"<+[+}+|+E.7.'.1+&+D.2+3+]+4+5+X 6+7+8+          ",
"9+0+5+a+X b+X.c+d+/+X a+r e+f+g+h+i+j+          ",
"k+l+m+n+o+p+q+q+p+o+r+s+t+u+v+w+:+x+y+          ",
"                                                "};
