/* XPM */
static char * help_xpm[] = {
"14 22 14 1",
" 	c None",
".	c #DBDF7C",
"+	c #9FB26E",
"@	c #94A96B",
"#	c #C3CC76",
"$	c #083F4B",
"%	c #829C67",
"&	c #ABBB71",
"*	c #7C9766",
"=	c #CFD679",
"-	c #1F5050",
";	c #D2D879",
">	c #91A66A",
",	c #4E745B",
"              ",
"              ",
"              ",
"  ......      ",
"  ..+@#..     ",
"   $$$$%.&    ",
"        ..$   ",
"        ..$   ",
"        .*$   ",
"       .=-$   ",
"     ..;-$    ",
"    ..>$$     ",
"    ..$$      ",
"    ..$       ",
"     $$       ",
"              ",
"    ..        ",
"    ..,       ",
"     $$       ",
"              ",
"              ",
"              "};
