/* XPM */
static char *pyprint_printer_big[] = {
/* columns rows colors chars-per-pixel */
"48 48 240 2",
"   c #000000",
".  c #000212",
"X  c #00041c",
"o  c #000424",
"O  c #00052d",
"+  c #00073c",
"@  c #1f252d",
"#  c #23263b",
"$  c #01094b",
"%  c #060e50",
"&  c #0a1254",
"*  c #0f1759",
"=  c #121a5c",
"-  c #161e60",
";  c #1b225a",
":  c #192163",
">  c #1f2769",
",  c #12336c",
"<  c #262940",
"1  c #292c45",
"2  c #2e324e",
"3  c #2f355d",
"4  c #35395a",
"5  c #232b6b",
"6  c #262e70",
"7  c #293173",
"8  c #2e3678",
"9  c #323865",
"0  c #373f6d",
"q  c #393d60",
"w  c #323a7c",
"e  c #42476f",
"r  c #414673",
"t  c #43497c",
"y  c #484d79",
"u  c #405b78",
"i  c #4f547e",
"p  c #58607e",
"a  c #363e80",
"s  c #184798",
"d  c #1f4d9b",
"f  c #194ca3",
"g  c #3b4385",
"h  c #3f4789",
"j  c #3b5480",
"k  c #2153aa",
"l  c #2258b3",
"z  c #355cb5",
"x  c #2364d5",
"c  c #2266da",
"v  c #3473dd",
"b  c #424c84",
"n  c #424a8c",
"m  c #464e90",
"M  c #425f90",
"N  c #4a5294",
"B  c #4f5799",
"V  c #4d599d",
"C  c #505686",
"Z  c #515788",
"A  c #51599b",
"S  c #454da2",
"D  c #4951a6",
"F  c #565ea0",
"G  c #535cb1",
"H  c #5e688a",
"J  c #52609a",
"K  c #5961a3",
"L  c #5e66a8",
"P  c #5961b5",
"I  c #5f67b9",
"U  c #5275b2",
"Y  c #65739e",
"T  c #626aac",
"R  c #666eb0",
"E  c #6169bb",
"W  c #677fbf",
"Q  c #6b73b5",
"!  c #6e76b8",
"~  c #7c6fad",
"^  c #737bbd",
"/  c #6c74c3",
"(  c #6b74ca",
")  c #777fc1",
"_  c #757dc8",
"`  c #31a8b2",
"'  c #0086cb",
"]  c #1d93c8",
"[  c #3d98cd",
"{  c #3d99d1",
"}  c #6c80b7",
"|  c #7980b6",
" . c #69b8a5",
".. c #4782e8",
"X. c #7e86cf",
"o. c #7c84d3",
"O. c #7499d8",
"+. c #789ad3",
"@. c #6f9ff1",
"#. c #7aafdc",
"$. c #6fa3fc",
"%. c #75a8ff",
"&. c #74c4ec",
"*. c #816843",
"=. c #c61610",
"-. c #cb2117",
";. c #dc2c24",
":. c #de3535",
">. c #d54f19",
",. c #e64f48",
"<. c #e57f6c",
"1. c #f16d7c",
"2. c #8cc155",
"3. c #f2ce10",
"4. c #fff528",
"5. c #fefc3d",
"6. c #fadc7c",
"7. c #fffa53",
"8. c #fdf666",
"9. c #8c8a86",
"0. c #8d8988",
"q. c #8896b7",
"w. c #988ebc",
"e. c #a8a6a6",
"r. c #828acc",
"t. c #868ed1",
"y. c #8c93cd",
"u. c #889ac2",
"i. c #8790df",
"p. c #829dd1",
"a. c #8b93d5",
"s. c #8d95d9",
"d. c #979dcd",
"f. c #929adc",
"g. c #8b94e0",
"h. c #959de0",
"j. c #8daad9",
"k. c #9fa4d2",
"l. c #8cabe0",
"z. c #8fb0ee",
"x. c #85b2fd",
"c. c #8cb0f0",
"v. c #9aa2e5",
"b. c #9da5e8",
"n. c #99b5ea",
"m. c #a3a8d5",
"M. c #a5abd8",
"N. c #abaddd",
"B. c #a7b5d8",
"V. c #a0a7e8",
"C. c #a3abec",
"Z. c #a6aef0",
"A. c #abb2ec",
"S. c #aab2f4",
"D. c #aeb6f8",
"F. c #b3b9ee",
"G. c #b0b7f5",
"H. c #b2bafc",
"J. c #93c0b6",
"K. c #92c2c8",
"L. c #aec9de",
"P. c #b7c1d3",
"I. c #bdcfdc",
"U. c #afc2e5",
"Y. c #afc4eb",
"T. c #a7c2f2",
"R. c #a4c5ff",
"E. c #a8c7ff",
"W. c #accaff",
"Q. c #b2cdff",
"!. c #bbc0f1",
"~. c #bcc3fe",
"^. c #b4d3e1",
"/. c #b6d0ff",
"(. c #bbd3fe",
"). c #d3acbf",
"_. c #d2bab8",
"`. c #eb8782",
"'. c #ee9590",
"]. c #f2adaa",
"[. c #fabfbd",
"{. c #c2b6c9",
"}. c #dcde99",
"|. c #cde786",
" X c #eed88b",
".X c #c5c2c2",
"XX c #ccc2dc",
"oX c #d0ced5",
"OX c #d1cfdb",
"+X c #d4d3d3",
"@X c #dbd5d8",
"#X c #dddbdf",
"$X c #c9c3e1",
"%X c #c1c7f5",
"&X c #c0c7ff",
"*X c #c5c9f4",
"=X c #c3caff",
"-X c #c8cdf3",
";X c #c9cffc",
":X c #c1d6fe",
">X c #c4d8fe",
",X c #ccd1f6",
"<X c #cdd2fe",
"1X c #caddff",
"2X c #d4ddee",
"3X c #dcd8ea",
"4X c #d0d4f7",
"5X c #d1d6fe",
"6X c #d5dafe",
"7X c #d9ddfd",
"8X c #c2e3f6",
"9X c #d4e3ff",
"0X c #dde1fe",
"qX c #dce8ff",
"wX c #e2dcca",
"eX c #e0ddda",
"rX c #fbcdcd",
"tX c #f8dfc3",
"yX c #f2dfde",
"uX c #f9dcdd",
"iX c #e5e2da",
"pX c #f2e0de",
"aX c #fbfccc",
"sX c #e9e4e4",
"dX c #e1e4fd",
"fX c #e4ecfe",
"gX c #e9e7f2",
"hX c #eaedff",
"jX c #e7f4e1",
"kX c #e4f5f9",
"lX c #ebf2fe",
"zX c #fbe7e6",
"xX c #fffee5",
"cX c #f3f3f1",
"vX c #f2f4fe",
"bX c #f6f8ff",
"nX c #fdf3f3",
"mX c #fffdf4",
"MX c #fdfdfe",
"NX c None",
/* pixels */
"NXNXNXNXNXNXNXNXNXNXNXNXNXNXNXNXNXNXNXNXNXNXNXNXNXNXNXNXNXNXNXNXNXNXNXNXNXNXNXNXNXNXNXNXNXNXNXNX",
"NXNXNXNXNXNXNXNXNXNXNXNXNXNXNXNXNXNXNXNXNXNXNXNXNXNXNXNX%.x.NXNXNXNXNXNXNXNXNXNXNXNXNXNXNXNXNXNX",
"NXNXNXNXNXNXNXNXNXNXNXNXNXNXNXNXNXNXNXNXNXNXNXNXNXNXNX%.%.%.%.%.%.%.NXNXNXNXNXNXNXNXNXNXNXNXNXNX",
"NXNXNXNXNXNXNXNXNXNXNXNXNXNXNXNXNXNXNXNXNXNXNXNXNXNXNX%.MXMXMXMXlX1X%.%.%.%.%.NXNXNXNXNXNXNXNXNX",
"NXNXNXNXNXNXNXNXNXNXNXNXNXNXNXNXNXNXNXNXNXNXNXNXNXNX%.x.MXbXbXMXbXMXMXMXvXqX(.%.%.%.%.NXNXNXNXNX",
"NXNXNXNXNXNXNXNXNXNXNXNXNXNXNXNXNXNXNXNXNXNXNXNXNXNX%.MXMXbXbXvXvXvXvXlXbXbXbXMXbXlX9X$...NXNXNX",
"NXNXNXNXNXNXNXNXNXNXNXNXNXNXNXNXNXNXNXNXNXNXNXNXNX%.bXMXbXbXvXlXlXlXlXlXkXkXfXfXlXlXlXx k NXNXNX",
"NXNXNXNXNXNXNXNXNXNXNXNXNXNXNXNXNXNXNXNXNXNXNXNXNX%.bXbXbXvXlXlXlXlXfXfXfXfXfXqXqXqX:Xx NXNXNXNX",
"NXNXNXNXNXNXNXNXNXNXNXNXNXNXNXNXNXNXNXNXNXNXNXNX%.bXMXvXlXlXlXlXlXfXfXfXfXfXqXqX9X6Xx d NXNXNXNX",
"NXNXNXNXNXNXNXNXNXNXNXNXNXNXNXNXNXNXNXNXNXNXNXNX%.MXbXlXlXlXlXlXfXkXfXqX9X9X1X1X9X:Xx NXNXNXNXNX",
"NXNXNXNXNXNXNXNXNXNXNXNXNXNXNXNXNXNXNXNXNXNXNX%.bXMXlXlXlXhXkXfX1X(.(.(.(.>X1X1X1Xx k NXNXNXNXNX",
"NXNXNXNXNXNXNXNXNXNXNXNXNXNXNXNXNXNXNXNXNXNXNX%.bXbXlXlXfXkX9XW.W.W./.(.(.>X1X1X(.x NXNXNXNXNXNX",
"NXNXNXNXNXNXNXNXNXNXNXNXNXNXNXNXNXNXNXNXNXNX%.bXbXlXkXfXfX9XR.R.W.(.(.:X:X>X>X1Xx k NXNXNXNXNXNX",
"NXNXNXNXNXNXNXNXNXNXNXNXNXNXNXNXNXNXNXNXNXNX%.bXvXhXfXfXqXR.E.W.W.(.(.:X>X>X1X:Xx NXNXNXNXNXNXNX",
"NXNXNXNXNXNXNXNXNXNXNXNXNXNXNXNXNXNXNXNXNX%.vXbXkXfXfXfXW.W.W.W.(.(.:X>X>X>X1Xx l NXNXNXNXNXNXNX",
"NXNXNXNXNXNXNXNXNXNXNXNXNXNXNXNXNXNXNXNXNX%.MXlXfXfXfX>XW.W.W.(.(.(.:X>X>X>X>Xx NXNXNXNXNXNXNXNX",
"NXNXNXNXNXNXNXNXNXNXNXNXNXNXNXNXNXNXNXNX%.vXbXkXfXqX1XW.W.Q.(.(.(.:X:X>X>X>Xc.x NXNXNXNXNXNXNXNX",
"NXNXNXNXNXNXNXNXNXNXNXNXNXf.h.h.j.V.V.A.%.bXlXqXqX(.W.W.W.(.(.(.:X:X:X:X>X>Xx NXNXNXNXNXNXNXNXNX",
"NXNXNXNXNXNXNXNXNXNXh.h.f.MXbXbXR C.h.W 2XqX1X(.W.W.Q.Q.(.(.(.(.:X:X:X:X>Xz.x NXNXNXNXNXNXNXNXNX",
"NXNXNXNXNXNXNXNXNXh.h.bXMXMXbXR Z.V.Z.Q N J ! p.T.Q.(.(.(.:X(.:X:X:X>X:X:Xx , NXNXNXNXNXNXNXNXNX",
"NXNXNXNXNXNXNXNXf.MXbXbXbXbXg N m Q s.f.f.y.Q F n t Y u.Y.:X:X:X>X>X:X:Xn.B NXNXNXNXNXNXNXNXNXNX",
"NXNXNXNXNXNXNXh.MXbXbXbXbXbXa * . o . - n T ! R L A h 8 5 0 H q.U.>X>X1Xz H.h.h.h.f.NXNXNXNXNXNX",
"NXNXNXNXNXNXNXf.vXvXvXvXbXbXvXvXT n 5 + O . X - a N N n g w 6 > = 4 p B.= ^ hXvXvXvXh.f.NXNXNXNX",
"NXNXNXNXNXNXf.vXvXMXMXMXbXvXvXvXvXvXbXvXV.w = X + o + = 5 8 7 5 5 : = $ N hXvXvXvXvXhXvXh.h.NXNX",
"NXNXNXNXNXNXf.hXhXbXbXMXMXMXMXbXvXvXvXvXvXvXvXvXX.8 $ O $ X * & = = X 6 hXvXvXvX<XV.f.h.D.f.f.NX",
"NXNXNXNXNXNX( h.F.,XhXhXvXvXMXMXMXMXMXvXvXvXvXvXvXbXvX6XR : . $ $   5 hXvXvXvX5Xh.f.f.f.h.v.g NX",
"NXNXNXNXNXNXf.;XF.v.i.V.F.7XhXhXvXbXMXMXMXMXbXbXlXlXbXvXvXvXvXC.N = dXvXvXvXhXV.f.f.f.v.t.S n NX",
"NXNXNXNXNXNXs.6X6X7X6X%XA.h.i.A.*X0XhXhXvXMXMXMXMXMXbXvXvXvXvXvXvXvXvXvXvXvX=Xf.f.h.v.o.D h.F NX",
"NXNXNXNXNXNXs.5X5X6X5Xd.k.-X6XF.V.i.h.F.4XhXhXvXvXMXMXMXMXbXvXvXvXhXvXvXhXvXS.f.b.b._ D v.S.A NX",
"NXNXNXNXNXNXa.=X=X;Xf.T T R ^ m.,X0X;XF.h.i.V.F.7XhXhXvXbXMXMXMXbXvXhXhXhX7XC.b.V./ G C.D.H.A NX",
"NXNXNXNXNXNXt.~.&X&Xn U V.r.N m N R M.4X7X7X-XA.h.g.A.-XdXhXhXvXbXvXhXhXhX<XC.C.I E S.H.H.H.B NX",
"NXNXNXNXNXNXt.D.H.H.@.<XG.A.Z.S.C.) N b N ^ %X7X0X6X!.C.i.v.F.-XhXfXhXhXhX~.C.P / H.H.H.~.H.B NX",
"NXNXNXNXNXNXr.S.S.%.MXMX8.hX;XS.C.Z.C.S.f.R m g N ^ H.dXdX;XF.v.g.C.F.7XhXG.G o.H.H.~.&X~.&XB NX",
"NXNXNXNXNXNX! ! %.MXMXmXMXzXMXMXfX=XS.C.Z.C.C.s.! J L n N 5X7XdX6X*XA.h.g.o.i.H.~.~.~.&X~.f.R NX",
"NXNXNXNXNXNXNX%.MXMXMXMX'.`.rXnXMXMXMXdX~.Z.Z.S.Z.V.t.! a H.6X6X6X7X6X7X5XH.~.&X~.~.=X&Xf.T NXNX",
"NXNXNXNXNXNX%.MXe.cXMX=.,.:.<. XaXjXlXMXMXbX7XH.C.Z.Z.s ) D.5X5X5X6X5X6X6X~.~.=X=X=X=Xv.L NXNXNX",
"NXNXNXNXNX%.MX9..X  _.tX-.>.3.4.|. .&.8XMXMXMXMXbX5Xf b r G.=X=X;X;X5X;X5X~.~.~.~.&Xb.K NXNXNXNX",
"NXNXNXNX%.MXMXiXyX[.yX@ ).tX5.2.` ' ] #.3XgXMXMXMXc J 9 r Z.&X&X&X=X=X=X;XH.~.~.~.b.K NXNXNXNXNX",
"NXNXNX%.MXMX8.MX].;.1.}.aXwXp e.[ [ j.XXw.XXMXMXc ^ ! e i V.H.H.H.~.~.&X~.~.H.H.C.J NXNXNXNXNXNX",
"NXNX%.MXMX8.MXMXMXuX6.5.7.J.u +XeXP.{.~ $XMXMXv NXNXNXNX4 # 4 y y.H.H.H.H.H.H.V.T NXNXNXNXNXNXNX",
"NX%.MXMX8.8.8.MXMXMXmXxXxXkX^.L.@XsX+X#XcXMXc NXNXNXNXNXNXNXNXNX2 1 4 Z f.S.V.J NXNXNXNXNXNXNXNX",
"%.%.%.qXMXMXMX8.8.8.MXMXMXMXMXbXoXOXbX9.MXx NXNXNXNXNXNXNXNXNXNXNXNXNXNX1 Z T NXNXNXNXNXNXNXNXNX",
"NXNXl.%.%.%.fXMXMXMX8.8.MXMXMXMXMXMXMXMXc NXNXNXNXNXNXNXNXNXNXNXNXNXNXNXNXNXNXNXNXNXNXNXNXNXNXNX",
"NXNXNXNXNX+.%.%.%.lXMXMX8.8.8.MXMXMXMXc NXNXNXNXNXNXNXNXNXNXNXNXNXNXNXNXNXNXNXNXNXNXNXNXNXNXNXNX",
"NXNXNXNXNXNXNXNXO.%.%.%.bXMXMX8.8.MXc NXNXNXNXNXNXNXNXNXNXNXNXNXNXNXNXNXNXNXNXNXNXNXNXNXNXNXNXNX",
"NXNXNXNXNXNXNXNXNXNXj %.%.%.%.bXMXc NXNXNXNXNXNXNXNXNXNXNXNXNXNXNXNXNXNXNXNXNXNXNXNXNXNXNXNXNXNX",
"NXNXNXNXNXNXNXNXNXNXNXNXNXM %.%.c NXNXNXNXNXNXNXNXNXNXNXNXNXNXNXNXNXNXNXNXNXNXNXNXNXNXNXNXNXNXNX",
"NXNXNXNXNXNXNXNXNXNXNXNXNXNXNXNXNXNXNXNXNXNXNXNXNXNXNXNXNXNXNXNXNXNXNXNXNXNXNXNXNXNXNXNXNXNXNXNX"
};
