/* XPM */
static char *close[] = {
/* columns rows colors chars-per-pixel */
"25 25 72 1",
"  c black",
". c #0a4967",
"X c #0c4a68",
"o c #114e6c",
"O c #13506e",
"+ c #165271",
"@ c #1a5574",
"# c #1f5978",
"$ c #245d7c",
"% c #276181",
"& c #2d6483",
"* c #306585",
"= c #346a8b",
"- c #386f8c",
"; c #3b6f90",
": c #3b718e",
"> c #3d7291",
", c #407594",
"< c #437798",
"1 c #447895",
"2 c #46799b",
"3 c #4b7d9d",
"4 c #4c7ea0",
"5 c #4f81a4",
"6 c #5183a4",
"7 c #5486a8",
"8 c #5788a5",
"9 c #5989a7",
"0 c #5b8aaa",
"q c #608dab",
"w c #6390ae",
"e c #6593b1",
"r c #6895b1",
"t c #6c99b5",
"y c #6e9bb8",
"u c #729eba",
"i c #74a0bc",
"p c #78a2bd",
"a c #7ba5c1",
"s c #7ea8c4",
"d c #81abc4",
"f c #84aec8",
"g c #86b0ca",
"h c #8ab0c7",
"j c #8ab3cc",
"k c #91b6cb",
"l c #93b8ce",
"z c #98bace",
"x c #92bad1",
"c c #99bfd4",
"v c #99c0d6",
"b c #a5c6d7",
"n c #a0c5d9",
"m c #a6cadd",
"M c #abccde",
"N c #a9cde0",
"B c #aed1e2",
"V c #b3d4e4",
"C c #b8d4e3",
"Z c #bbdbe9",
"A c #c0dbe8",
"S c #c3e1ed",
"D c #d5e4ed",
"F c #ddeaf2",
"G c #e2eff4",
"H c #e6f1f6",
"J c #e8f2f7",
"K c #ebf4f8",
"L c #f3f6f8",
"P c #f4f9fa",
"I c #fdfdfd",
"U c None",
/* pixels */
"UUUUUUUUUUUUUUUUUUUUUUUUU",
"UUUX$:111,,:::::-=-*#XUUU",
"UU.3kjapppiiiiiuuuuur=.UU",
"U.5z1**==:><2336700wtt*XU",
"U$k1$$$*=;;><24580qwrt9#U",
"U:j&$$&==;<<245790wrtye$U",
"U1a&$*==;><23670qwetyue%U",
"U1p===3LDy44670xKPtyipw$U",
"U<p;=;6GIDu770zKIFyupaq$U",
"U;p;=;,dJIDu0kKIFlipasq$U",
"U:p;;<<4gJIDMHIFlupass0#U",
"U,u<,<444jJIIIFjupasfg0$U",
"U>i2<44470AIIImupasfjj9#U",
"U:u324470kJIIIFlasfjxx9@U",
"U:u34770zJIDCKIGvgjxvv8@U",
"U-i6470zKIGjubLIHmxvmv8@U",
"U-u770tKIFlipaMPIJvmNm6+U",
"U=i000uPFlupasgCPIvNBN6OU",
"U=u0qqrasupssfjxmMNBCB5XU",
"U*uwwrtyippsfjxvvMBVZV-XU",
"U@rtrttipssfjxvnMBCZSv@XU",
"U.=tyuupassgjxvvmMBBv$XXU",
"UU.=0eew00000088865=@XXUU",
"UUU.@$%$$$$##@@+OXOo..UUU",
"UUUUUUUUUUUUUUUUUUUUUUUUU"
};
