/* XPM */
static char * ism_stop2_xpm[] = {
"24 24 78 1",
" 	c None",
".	c #1E1E1E",
"+	c #383838",
"@	c #404040",
"#	c #3F3F3F",
"$	c #3E3E3E",
"%	c #2F2F2F",
"&	c #131313",
"*	c #333333",
"=	c #848484",
"-	c #ADADAD",
";	c #B9B9B9",
">	c #BCBCBC",
",	c #B8B8B8",
"'	c #A4A4A4",
")	c #7C7C7C",
"!	c #3A3A3A",
"~	c #A8A8A8",
"{	c #D4D4D4",
"]	c #DFDFDF",
"^	c #E0E0E0",
"/	c #DEDEDE",
"(	c #DCDCDC",
"_	c #CACACA",
":	c #969696",
"<	c #4C4C4C",
"[	c #B2B2B2",
"}	c #CFCFCF",
"|	c #C4C4C4",
"1	c #B5B5B5",
"2	c #B3B3B3",
"3	c #A7A7A7",
"4	c #838383",
"5	c #4B4B4B",
"6	c #373737",
"7	c #C7C7C7",
"8	c #989898",
"9	c #979797",
"0	c #999999",
"a	c #9A9A9A",
"b	c #7D7D7D",
"c	c #4A4A4A",
"d	c #353535",
"e	c #C8C8C8",
"f	c #A0A0A0",
"g	c #909090",
"h	c #929292",
"i	c #959595",
"j	c #787878",
"k	c #494949",
"l	c #ACACAC",
"m	c #A1A1A1",
"n	c #9C9C9C",
"o	c #777777",
"p	c #949494",
"q	c #9B9B9B",
"r	c #9F9F9F",
"s	c #A2A2A2",
"t	c #9D9D9D",
"u	c #7E7E7E",
"v	c #C3C3C3",
"w	c #9E9E9E",
"x	c #A5A5A5",
"y	c #818181",
"z	c #292929",
"A	c #868686",
"B	c #888888",
"C	c #8C8C8C",
"D	c #919191",
"E	c #8F8F8F",
"F	c #717171",
"G	c #434343",
"H	c #171717",
"I	c #474747",
"J	c #525252",
"K	c #4E4E4E",
"L	c #4D4D4D",
"M	c #2C2C2C",
"                        ",
"                        ",
"                        ",
"                        ",
"                        ",
"                        ",
"      .+@###@@$+%&      ",
"      *=-;>>>>,')!      ",
"      !~{]^///(_:<      ",
"      +[}|>122[345      ",
"      627'8990a:bc      ",
"      d-efgghi8ijk      ",
"      dlemhhi8n8ok      ",
"      dl|fpp8qrnjk      ",
"      dles99qtmmuc      ",
"      *3vmnwfsxmyc      ",
"      zA0BCggDEAFG      ",
"      HIJKKKKKL5GM      ",
"                        ",
"                        ",
"                        ",
"                        ",
"                        ",
"                        "};
