/* XPM */
static char *magick[] = {
"24 24 37 1",
"  c #1d7600",
". c #1f7900",
"X c #218400",
"o c #238c00",
"O c #259400",
"+ c #279c00",
"@ c #289e00",
"# c #29a500",
"$ c #2bab00",
"% c #2db300",
"& c #2fbc00",
"* c #30bf00",
"= c #31c400",
"- c #33cc00",
"; c #39cd07",
": c #3cce0b",
"> c #40cf10",
", c #43d014",
"< c #47d119",
"1 c #4ad21d",
"2 c #4ed322",
"3 c #51d326",
"4 c #56d52c",
"5 c #58d52e",
"6 c #5bd632",
"7 c #62d83b",
"8 c #66d940",
"9 c #6ada44",
"0 c #6edb49",
"q c #71dc4e",
"w c #75dd53",
"e c #79dd57",
"r c #7cde5b",
"t c #80df60",
"y c #83e064",
"u c Gray100",
"i c None",
"iiiiiiiiiiiiiiiiiiiiiiii",
"iiiiiiiiiiiiiiiiiiiiiiii",
"iiiiiiiiii02iiiiiiiiiiii",
"iiiiiiiiir9-iiiiiiiiiiii",
"iiiiiiiiye3$i374iiiiiiii",
"iiiiiiiyr7=Oii<1:ii44iii",
"iiiiiiyr7,%Oiii:;=i12,ii",
"iqerrye6,-$Oiii::&ii:;=i",
"iww0q95:;=$Oiiii>=$ii:&i",
"i652<::---%Oiiii<-$ii:&i",
"i51;-----=%Oiiii2;#ii1&i",
"i51;-----=%Oiiii3:#ii2&i",
"i41;-----=$Oiiii5:#ii2&i",
"i41;-=---=%Oiiii6:Oii,#i",
"i,=%%==--=%Oiiii6=oi4=+i",
"i%o X+%=-=%Oiiii4$Xi:$ii",
"iiiiio#&==%Oiii8:Oi=%+ii",
"iiiiii#$&&$Oiii4%Xiiiiii",
"iiiiiii##%#Oii2=oiiiiiii",
"iiiiiiii###oi;&Oiiiiiiii",
"iiiiiiiii#OXiiiiiiiiiiii",
"iiiiiiiiii#Oiiiiiiiiiiii",
"iiiiiiiiiiiiiiiiiiiiiiii",
"iiiiiiiiiiiiiiiiiiiiiiii"
};
