/* XPM */
static char * ism_edit2_xpm[] = {
"24 24 345 2",
"  	c None",
". 	c #6C1805",
"+ 	c #6E1905",
"@ 	c #73220B",
"# 	c #852D09",
"$ 	c #C05B13",
"% 	c #DE782C",
"& 	c #BF5D1F",
"* 	c #92370C",
"= 	c #3F3536",
"- 	c #6C544B",
"; 	c #947057",
"> 	c #AB7E59",
", 	c #DF945F",
"' 	c #F59753",
") 	c #E77A1F",
"! 	c #9D3F09",
"~ 	c #48484A",
"{ 	c #8C8C8C",
"] 	c #BFBFBE",
"^ 	c #C8C8C7",
"/ 	c #ABA9A8",
"( 	c #AD8867",
"_ 	c #DD8C4B",
": 	c #F3831E",
"< 	c #E16D07",
"[ 	c #853004",
"} 	c #989074",
"| 	c #9B9070",
"1 	c #695E56",
"2 	c #9E9996",
"3 	c #D4D0CC",
"4 	c #DAD3CD",
"5 	c #CBC8C5",
"6 	c #ABAAAA",
"7 	c #AE8764",
"8 	c #D57015",
"9 	c #D56105",
"0 	c #652C04",
"a 	c #9F977E",
"b 	c #D1C8A7",
"c 	c #ECE1BA",
"d 	c #D4BE93",
"e 	c #B08962",
"f 	c #C8A587",
"g 	c #E9D0BA",
"h 	c #F1D5BB",
"i 	c #E8BC93",
"j 	c #D5B79C",
"k 	c #C5BFB8",
"l 	c #B3B3B2",
"m 	c #838181",
"n 	c #8A401D",
"o 	c #B43F05",
"p 	c #501503",
"q 	c #989482",
"r 	c #D6D1BB",
"s 	c #EEE6C5",
"t 	c #FEF2CB",
"u 	c #F7E3BA",
"v 	c #E8BD8F",
"w 	c #EABB94",
"x 	c #F8D4B3",
"y 	c #FAD4B0",
"z 	c #FAC089",
"A 	c #F7A75D",
"B 	c #E69D5A",
"C 	c #CDAE91",
"D 	c #9C9793",
"E 	c #565556",
"F 	c #561413",
"G 	c #821204",
"H 	c #2A0301",
"I 	c #A6A18E",
"J 	c #CCC8B5",
"K 	c #FCF9E3",
"L 	c #FFFCE6",
"M 	c #FEF7DA",
"N 	c #F6E2BC",
"O 	c #E8BC8C",
"P 	c #ECBD97",
"Q 	c #FBDCC2",
"R 	c #FBD6B6",
"S 	c #FAAA5E",
"T 	c #FBA556",
"U 	c #F59D4F",
"V 	c #CF813E",
"W 	c #846650",
"X 	c #575452",
"Y 	c #4E1818",
"Z 	c #5F0A05",
"` 	c #350202",
" .	c #B6AF94",
"..	c #D1C9AD",
"+.	c #FAF5DC",
"@.	c #FFFDE9",
"#.	c #FFFDEB",
"$.	c #FEFCE8",
"%.	c #F6E7CA",
"&.	c #E9BF94",
"*.	c #ECC097",
"=.	c #FAD9BB",
"-.	c #FBD6B5",
";.	c #FAC18B",
">.	c #FAAB64",
",.	c #FBA559",
"'.	c #F59E50",
").	c #E88634",
"!.	c #C96310",
"~.	c #814E27",
"{.	c #6C645F",
"].	c #361F20",
"^.	c #310406",
"/.	c #928C77",
"(.	c #EDE5C8",
"_.	c #FFF5D3",
":.	c #FFF8DC",
"<.	c #FFFCE8",
"[.	c #F8ECD3",
"}.	c #E8BF98",
"|.	c #EDC09A",
"1.	c #F9D6B8",
"2.	c #FBD6B4",
"3.	c #FAC28D",
"4.	c #FAAD66",
"5.	c #FBA55B",
"6.	c #F69D51",
"7.	c #E78634",
"8.	c #E27213",
"9.	c #CF6307",
"0.	c #7E4B24",
"a.	c #504944",
"b.	c #202020",
"c.	c #989381",
"d.	c #D1CCBA",
"e.	c #F9F0D4",
"f.	c #FEF9E2",
"g.	c #F7E6CA",
"h.	c #EAC39D",
"i.	c #ECBE9A",
"j.	c #FAD8BD",
"k.	c #FBD5B4",
"l.	c #FAC18C",
"m.	c #FAAA62",
"n.	c #FBA65A",
"o.	c #E88532",
"p.	c #E27312",
"q.	c #E36D07",
"r.	c #BA5606",
"s.	c #4B280D",
"t.	c #26221E",
"u.	c #9E9B8E",
"v.	c #CDC8B7",
"w.	c #FAF4DD",
"x.	c #F6E5C7",
"y.	c #E8BF97",
"z.	c #ECBE99",
"A.	c #FBDDC2",
"B.	c #FAC18D",
"C.	c #FAAA61",
"D.	c #FAA456",
"E.	c #F59C4F",
"F.	c #E88632",
"G.	c #E17111",
"H.	c #E36C06",
"I.	c #CC5E06",
"J.	c #8E4A15",
"K.	c #1E1108",
"L.	c #9D998D",
"M.	c #ADA18E",
"N.	c #E7B78A",
"O.	c #EDBE95",
"P.	c #FAD4B4",
"Q.	c #FAAB65",
"R.	c #FBA458",
"S.	c #E78734",
"T.	c #E27313",
"U.	c #CC5D06",
"V.	c #A75D21",
"W.	c #886D4F",
"X.	c #3B362B",
"Y.	c #794F31",
"Z.	c #D49261",
"`.	c #F7B47C",
" +	c #FAB06D",
".+	c #FBB97D",
"++	c #FAAC65",
"@+	c #FBA55A",
"#+	c #F69D4F",
"$+	c #E26C07",
"%+	c #CA5F09",
"&+	c #A65F24",
"*+	c #9E805D",
"=+	c #AEA68B",
"-+	c #9C957B",
";+	c #6C6753",
">+	c #A1633E",
",+	c #E9B083",
"'+	c #FBC697",
")+	c #FCB574",
"!+	c #FBA151",
"~+	c #FBA152",
"{+	c #F69F52",
"]+	c #E17011",
"^+	c #E36B06",
"/+	c #A55F26",
"(+	c #9E825F",
"_+	c #B3A889",
":+	c #D1C9A9",
"<+	c #E4DBB7",
"[+	c #BEB696",
"}+	c #736E58",
"|+	c #A66542",
"1+	c #C88D6D",
"2+	c #FDD8B9",
"3+	c #FEE9D3",
"4+	c #FEDDBF",
"5+	c #FCB67C",
"6+	c #F69646",
"7+	c #E98630",
"8+	c #E37213",
"9+	c #A65F26",
"0+	c #9E8463",
"a+	c #B3AB8F",
"b+	c #CFC5A3",
"c+	c #E9DFB9",
"d+	c #F8EDC4",
"e+	c #F9F0C7",
"f+	c #C0B796",
"g+	c #736D58",
"h+	c #AA6947",
"i+	c #E7B397",
"j+	c #FEE8D4",
"k+	c #FFEDDA",
"l+	c #FDDEC6",
"m+	c #F8BC96",
"n+	c #ED9451",
"o+	c #E0771E",
"p+	c #E26C08",
"q+	c #9E8260",
"r+	c #B3AC92",
"s+	c #CFCAAE",
"t+	c #E7DFBD",
"u+	c #F7ECC1",
"v+	c #FDF2C8",
"w+	c #FFF5CB",
"x+	c #F8EEC6",
"y+	c #C1B895",
"z+	c #67624E",
"A+	c #CE8F6D",
"B+	c #FAD7BC",
"C+	c #FFEAD7",
"D+	c #FDDCC5",
"E+	c #F7C3A6",
"F+	c #EAA784",
"G+	c #D98C5B",
"H+	c #D26E21",
"I+	c #C85E0A",
"J+	c #A55F25",
"K+	c #9E8361",
"L+	c #B4AE95",
"M+	c #D1CEB4",
"N+	c #E9E4C6",
"O+	c #F7EFCB",
"P+	c #FDF5CF",
"Q+	c #FFF5CC",
"R+	c #FFF6CC",
"S+	c #FBF3CC",
"T+	c #E0D6AE",
"U+	c #989174",
"V+	c #333026",
"W+	c #DFAA8E",
"X+	c #FEE3CD",
"Y+	c #FDDBC5",
"Z+	c #EBAA89",
"`+	c #D69171",
" @	c #C07955",
".@	c #B36129",
"+@	c #A35D26",
"@@	c #9E8363",
"#@	c #B4AC93",
"$@	c #D0CBB0",
"%@	c #E9E5C9",
"&@	c #F8F3D5",
"*@	c #FDF8D6",
"=@	c #FFFAD8",
"-@	c #FBF5D1",
";@	c #F5EEC9",
">@	c #ABA78A",
",@	c #7F7962",
"'@	c #2F2C24",
")@	c #231610",
"!@	c #735A4D",
"~@	c #E0B39A",
"{@	c #F7C3A7",
"]@	c #ECAB89",
"^@	c #D79373",
"/@	c #B47457",
"(@	c #935636",
"_@	c #774321",
":@	c #826A52",
"<@	c #B3AD99",
"[@	c #CEC9AC",
"}@	c #E7E1BF",
"|@	c #F8EFCB",
"1@	c #FEF4CC",
"2@	c #FEF6CF",
"3@	c #F2ECC8",
"4@	c #BDB9A0",
"5@	c #76725E",
"6@	c #393D3D",
"7@	c #585F5E",
"8@	c #60483D",
"9@	c #D39372",
"0@	c #AF7050",
"a@	c #894C26",
"b@	c #723A16",
"c@	c #5F3011",
"d@	c #746F62",
"e@	c #A6A495",
"f@	c #E4E1C6",
"g@	c #F7F3D3",
"h@	c #FBF6D5",
"i@	c #EAE3BF",
"j@	c #D2C9A5",
"k@	c #625E4E",
"l@	c #2E2D28",
"m@	c #0F1112",
"n@	c #3B4444",
"o@	c #202526",
"p@	c #1D1008",
"q@	c #6C360F",
"r@	c #6A330D",
"s@	c #98958A",
"t@	c #C7C3B2",
"u@	c #EBE3C4",
"v@	c #BCB494",
"w@	c #746E5A",
"x@	c #2D2B23",
"y@	c #0A0C0C",
"z@	c #1C2021",
"A@	c #040505",
"B@	c #020100",
"C@	c #9D9A8E",
"D@	c #817C6B",
"                                  . +           ",
"                              @ # $ % & *       ",
"                            = - ; > , ' ) !     ",
"                          ~ { ] ^ / ( _ : < [   ",
"                  } |   1 2 3 4 5 ] 6 7 8 9 0   ",
"              a b c d e f g h i j k l m n o p   ",
"          q r s t u v w x y z A B C D E F G H   ",
"      I J K L M N O P Q R z S T U V W X Y Z `   ",
"   ...+.@.#.$.%.&.*.=.-.;.>.,.'.).!.~.{.].^.    ",
"/.(._.:.L <.[.}.|.1.2.3.4.5.6.7.8.9.0.a.b.      ",
"c.d.e.:.f.g.h.i.j.k.l.m.n.6.o.p.q.r.s.t.        ",
"  u.v.w.x.y.z.A.-.B.C.D.E.F.G.H.I.J.K.          ",
"    L.M.N.O.P.R l.Q.R.U S.T.H.U.V.W.X.          ",
"      Y.Z.`. +.+++@+#+o.T.$+%+&+*+=+-+;+        ",
"      >+,+'+)+!+~+{+o.]+^+%+/+(+_+:+<+[+}+      ",
"    |+1+2+3+4+5+6+7+8+^+U.9+0+a+b+c+d+e+f+g+    ",
"    h+i+j+k+l+m+n+o+p+I.V.q+r+s+t+u+v+w+x+y+z+  ",
"    A+B+C+D+E+F+G+H+I+J+K+L+M+N+O+P+Q+R+S+T+U+V+",
"    W+X+Y+E+Z+`+ @.@+@@@#@$@%@&@*@=@-@;@>@,@'@  ",
"  )@!@~@{@]@^@/@(@_@:@<@[@}@|@1@2@3@4@5@        ",
"  6@7@8@9@0@a@b@c@  d@e@f@g@h@i@j@k@l@          ",
"m@n@o@p@q@r@          s@t@u@v@w@x@              ",
"y@z@A@B@                C@D@                    ",
"                                                "};
