/* XPM */
static char * jserver_xpm[] = {
"24 24 174 2",
"  	c None",
". 	c #FFFFFF",
"+ 	c #FDFDFD",
"@ 	c #FCEAEB",
"# 	c #F09EA3",
"$ 	c #F7C8CC",
"% 	c #FAFAFA",
"& 	c #C3C3C3",
"* 	c #EE9298",
"= 	c #DB212F",
"- 	c #D5000C",
"; 	c #D70F1C",
"> 	c #EA7A84",
", 	c #FBE5E6",
"' 	c #F2F2F2",
") 	c #A9A9A9",
"! 	c #F6C3C9",
"~ 	c #D60818",
"{ 	c #D4000B",
"] 	c #D60717",
"^ 	c #D50213",
"/ 	c #D20001",
"( 	c #E76B74",
"_ 	c #F3F3F3",
": 	c #ACACAC",
"< 	c #E76F7A",
"[ 	c #D30007",
"} 	c #D30009",
"| 	c #E65C67",
"1 	c #F09FA7",
"2 	c #D4000E",
"3 	c #D60515",
"4 	c #D10001",
"5 	c #E55C67",
"6 	c #CECCE3",
"7 	c #D9D6E5",
"8 	c #DBD7E6",
"9 	c #DBD7E5",
"0 	c #F8F7FA",
"a 	c #FFFDFE",
"b 	c #E45562",
"c 	c #D4000C",
"d 	c #D4000A",
"e 	c #D40009",
"f 	c #E03844",
"g 	c #F5BCC1",
"h 	c #F6F6F6",
"i 	c #AEAEAE",
"j 	c #D8D3E2",
"k 	c #D7D3E1",
"l 	c #D1CBDB",
"m 	c #CEC9D9",
"n 	c #F4F3F7",
"o 	c #FFFBFC",
"p 	c #F9B2B8",
"q 	c #E94F5B",
"r 	c #F2878D",
"s 	c #FFF8F9",
"t 	c #FCFCFC",
"u 	c #F9F9F9",
"v 	c #EDEDED",
"w 	c #A7A7A7",
"x 	c #D2CCDE",
"y 	c #CBC6D8",
"z 	c #040404",
"A 	c #060705",
"B 	c #D3D3D3",
"C 	c #DFDFDF",
"D 	c #D5D5D5",
"E 	c #D7D7D7",
"F 	c #D7DBDB",
"G 	c #D8E2E1",
"H 	c #D9E3E2",
"I 	c #D8E2E2",
"J 	c #D8DDDD",
"K 	c #CECECE",
"L 	c #AFAFAF",
"M 	c #909090",
"N 	c #888888",
"O 	c #898989",
"P 	c #808080",
"Q 	c #5A5A5A",
"R 	c #D0CBDD",
"S 	c #CDC7D8",
"T 	c #000000",
"U 	c #555555",
"V 	c #4A4A4A",
"W 	c #414141",
"X 	c #424242",
"Y 	c #636264",
"Z 	c #727076",
"` 	c #3C3C3C",
" .	c #CFCBDD",
"..	c #C9C4D6",
"+.	c #38363A",
"@.	c #938F9C",
"#.	c #D1CBDD",
"$.	c #CCC5D7",
"%.	c #524F55",
"&.	c #938E9C",
"*.	c #D2CDDD",
"=.	c #CEC8D9",
"-.	c #4B474F",
";.	c #CAC4D6",
">.	c #302F31",
",.	c #938D9C",
"'.	c #313035",
").	c #8D899B",
"!.	c #CDC8DD",
"~.	c #CBC5D6",
"{.	c #343338",
"].	c #767395",
"^.	c #CAC5DD",
"/.	c #CEC7D8",
"(.	c #333035",
"_.	c #CCC6D8",
":.	c #010000",
"<.	c #353338",
"[.	c #747293",
"}.	c #CEC9DC",
"|.	c #C7C2D8",
"1.	c #827F9F",
"2.	c #918DAA",
"3.	c #817F9D",
"4.	c #827F9E",
"5.	c #807C9C",
"6.	c #7E7B9A",
"7.	c #807B9B",
"8.	c #817E9C",
"9.	c #767396",
"0.	c #C8C3D8",
"a.	c #BFB8CC",
"b.	c #BAB5C5",
"c.	c #C3BDCF",
"d.	c #C7C0D4",
"e.	c #C8C1D6",
"f.	c #CAC4D5",
"g.	c #C7C1D5",
"h.	c #C5C0D5",
"i.	c #C1BBD5",
"j.	c #C2BCD5",
"k.	c #B9B4D3",
"l.	c #B6B2D0",
"m.	c #AEAAC6",
"n.	c #AAA6C0",
"o.	c #A09CAA",
"p.	c #6F6D8D",
"q.	c #9A95B4",
"r.	c #8D8898",
"s.	c #8A8597",
"t.	c #A29DAB",
"u.	c #AAA5B5",
"v.	c #9E99A8",
"w.	c #8E8A96",
"x.	c #8A8697",
"y.	c #8A8696",
"z.	c #8B8694",
"A.	c #8A8695",
"B.	c #898592",
"C.	c #85818E",
"D.	c #797681",
"E.	c #6B6875",
"F.	c #626270",
"G.	c #585573",
"H.	c #767383",
"I.	c #76727E",
"J.	c #716D79",
"K.	c #6F6B76",
"L.	c #595772",
"M.	c #5A5871",
"N.	c #5B586F",
"O.	c #5A5872",
"P.	c #58556F",
"Q.	c #55546B",
"                                                ",
"          . . . . . . . . . . . . . . . . . . + ",
"          . . . . . . . . @ # $ . . . . . . % & ",
"          . . . . . . . * = - ; > , . . . . ' ) ",
"          . . . . . . ! ~ { ] ^ / ( . . . . _ : ",
"          . . . . . . < [ ~ ~ ~ } | . . . . _ : ",
"          . . . . . . 1 2 3 ~ ~ 4 5 . . . . _ : ",
"  6 7 8 9 0 . . . . . a b c d e f g . . . . h i ",
"  j k l m n . . . . . . o p q r s . . t u u v w ",
"  x y z A B C D E E E E F G H I J K L M N O P Q ",
"  R S T T U V W X X X X X X X X Y Z X ` ` ` `   ",
"   ...T T T T T T T T T T T T T +.@.            ",
"  #.$.T T T T T T T T T T T T T %.&.            ",
"  *.=.T T T T T T T T T T T T T -.&.            ",
"  #.;.T T T T T T T T T T T T T >.,.            ",
"  R S T T T T T T T T T T T T T '.).            ",
"  !.~.T T T T T T T T T T T T T {.].            ",
"  ^./.T T T T T T T T T T T T T (.].            ",
"  R _.T :.:.:.:.:.T T T T T T T <.[.            ",
"  }.|.1.2.3.4.4.4.5.6.6.6.6.6.7.8.9.            ",
"  0.a.b.c.d.e.f.g.h.i.j.k.l.m.n.o.p.            ",
"  q.r.s.t.u.v.w.x.y.z.A.B.C.D.E.F.G.            ",
"        H.I.J.K.L.M.N.O.O.P.Q.                  ",
"                                                "};
