/* XPM */
static char * ism_reload_xpm[] = {
"24 24 196 2",
"  	c None",
". 	c #34681D",
"+ 	c #43732E",
"@ 	c #456C33",
"# 	c #2F5D1B",
"$ 	c #1C5204",
"% 	c #153509",
"& 	c #174C00",
"* 	c #396D23",
"= 	c #80A56F",
"- 	c #A9D296",
"; 	c #A3DD88",
"> 	c #85CC65",
", 	c #5AAB36",
"' 	c #349509",
") 	c #21490F",
"! 	c #091E00",
"~ 	c #030900",
"{ 	c #285D11",
"] 	c #6B9955",
"^ 	c #B6D0A9",
"/ 	c #B4EA9B",
"( 	c #8BD669",
"_ 	c #4AA422",
": 	c #237500",
"< 	c #123D00",
"[ 	c #081B00",
"} 	c #061300",
"| 	c #050F00",
"1 	c #071900",
"2 	c #82AD6D",
"3 	c #C7E2B8",
"4 	c #A5E38A",
"5 	c #5CBF30",
"6 	c #2F8808",
"7 	c #154600",
"8 	c #000000",
"9 	c #061400",
"0 	c #366A20",
"a 	c #CAE4BB",
"b 	c #AEE596",
"c 	c #55C125",
"d 	c #38950F",
"e 	c #154400",
"f 	c #040C00",
"g 	c #010500",
"h 	c #78A466",
"i 	c #D0EFC2",
"j 	c #6CD33F",
"k 	c #3CA70E",
"l 	c #206502",
"m 	c #396924",
"n 	c #B5D1A7",
"o 	c #97E276",
"p 	c #54C125",
"q 	c #2D8606",
"r 	c #0E2E00",
"s 	c #3D6F27",
"t 	c #C4DABA",
"u 	c #6CD23F",
"v 	c #3DBB06",
"w 	c #2A8104",
"x 	c #0D3300",
"y 	c #103B00",
"z 	c #144400",
"A 	c #164B00",
"B 	c #3D7027",
"C 	c #B7D4A9",
"D 	c #62C935",
"E 	c #39B702",
"F 	c #298501",
"G 	c #030D00",
"H 	c #144600",
"I 	c #103C00",
"J 	c #0D0D0D",
"K 	c #030C00",
"L 	c #446A34",
"M 	c #9CCE87",
"N 	c #C9EAB9",
"O 	c #C4EBB2",
"P 	c #9BD77D",
"Q 	c #3FC306",
"R 	c #37B800",
"S 	c #70B951",
"T 	c #A3D98C",
"U 	c #BAE3A8",
"V 	c #8BB977",
"W 	c #4D4D4D",
"X 	c #434343",
"Y 	c #081900",
"Z 	c #1F6500",
"` 	c #4FAD26",
" .	c #65D735",
"..	c #5ED12D",
"+.	c #3ABF00",
"@.	c #44C20B",
"#.	c #71D438",
"$.	c #5FC234",
"%.	c #3E9518",
"&.	c #123B00",
"*.	c #4E4E4E",
"=.	c #939393",
"-.	c #707070",
";.	c #353535",
">.	c #121212",
",.	c #051200",
"'.	c #1E6300",
").	c #329E04",
"!.	c #4AD112",
"~.	c #42C308",
"{.	c #70D532",
"].	c #55C11A",
"^.	c #257901",
"/.	c #103500",
"(.	c #404040",
"_.	c #ACACAC",
":.	c #848484",
"<.	c #666666",
"[.	c #6D6D6D",
"}.	c #195300",
"|.	c #2C9000",
"1.	c #5EC822",
"2.	c #4DB813",
"3.	c #505050",
"4.	c #ABABAB",
"5.	c #767676",
"6.	c #444444",
"7.	c #3F3F3F",
"8.	c #656565",
"9.	c #727272",
"0.	c #414141",
"a.	c #0C0C0C",
"b.	c #257900",
"c.	c #9C9C9C",
"d.	c #858585",
"e.	c #292929",
"f.	c #242424",
"g.	c #676767",
"h.	c #6A6A6A",
"i.	c #111111",
"j.	c #1B5700",
"k.	c #949494",
"l.	c #828282",
"m.	c #545454",
"n.	c #2B2B2B",
"o.	c #252525",
"p.	c #343434",
"q.	c #424242",
"r.	c #636363",
"s.	c #616161",
"t.	c #020202",
"u.	c #7B7B7B",
"v.	c #555555",
"w.	c #2A2A2A",
"x.	c #494949",
"y.	c #010101",
"z.	c #1E1E1E",
"A.	c #606060",
"B.	c #101010",
"C.	c #333333",
"D.	c #A0A0A0",
"E.	c #5F5F5F",
"F.	c #363636",
"G.	c #0F0F0F",
"H.	c #3D3D3D",
"I.	c #474747",
"J.	c #565656",
"K.	c #2C2C2C",
"L.	c #373737",
"M.	c #A6A6A6",
"N.	c #6C6C6C",
"O.	c #4F4F4F",
"P.	c #6E6E6E",
"Q.	c #A4A4A4",
"R.	c #3C3C3C",
"S.	c #585858",
"T.	c #202020",
"U.	c #212121",
"V.	c #131313",
"W.	c #3B3B3B",
"X.	c #4B4B4B",
"Y.	c #9D9D9D",
"Z.	c #9B9B9B",
"`.	c #757575",
" +	c #4C4C4C",
".+	c #303030",
"++	c #090909",
"@+	c #0B0B0B",
"#+	c #262626",
"$+	c #808080",
"%+	c #868686",
"&+	c #5B5B5B",
"*+	c #575757",
"=+	c #161616",
"-+	c #1B1B1B",
";+	c #1A1A1A",
"                    . + @ # $ %                 ",
"              & * = - ; > , ' ) ! ~             ",
"            { ] ^ / ( _ : < [ } | [ 1           ",
"          & 2 3 4 5 6 7 8         8 ~ 9         ",
"          0 a b c d e |               f g       ",
"        & h i j k l |                     8     ",
"        m n o p q r                             ",
"        s t u v w 8                             ",
"x y z A B C D E F G H & I         J             ",
"K L M N O P Q R S T U V r       W X J           ",
"  Y Z `  ...+.@.#.$.%.&.      *.=.-.;.>.        ",
"    ,.'.).!.~.{.].^./.      (._.:.<.[.;.J       ",
"      ,.}.|.1.2.^.r       3.4.5.6.7.8.9.0.a.    ",
"        Y }.|.b./.      3.c.d.X e.f.(.g.h.;.i.  ",
"          ,.j./.      (.k.l.m.(.n.o.p.q.r.s.;.a.",
"            8         8 8 8 t.u.v.w.x.i.y.8 8 8 ",
"                            z.=.A.w.W B.        ",
"                            C.D.E.F.3.G.        ",
"    8                     H.-.c.I.J.K.8         ",
"      8 y.              L.<.M.N.6.O.J           ",
"        t.y.8         C.P.Q.:.R.S.F.8           ",
"          T.U.V.W.X.r.Y.Z.`. +S..+++            ",
"            @+#+3.[.$+%+&+*+X i.8               ",
"                a.i.=+-+-+;+                    "};
