/* XPM */
static char * ism_play2_xpm[] = {
"24 24 94 2",
"  	c None",
". 	c #0C0C0C",
"+ 	c #020202",
"@ 	c #343434",
"# 	c #2D2D2D",
"$ 	c #060606",
"% 	c #5C5C5C",
"& 	c #7A7A7A",
"* 	c #404040",
"= 	c #0B0B0B",
"- 	c #6D6D6D",
"; 	c #B9B9B9",
"> 	c #919191",
", 	c #494949",
"' 	c #282828",
") 	c #0F0F0F",
"! 	c #707070",
"~ 	c #D3D3D3",
"{ 	c #CACACA",
"] 	c #939393",
"^ 	c #464646",
"/ 	c #191919",
"( 	c #1A1A1A",
"_ 	c #6E6E6E",
": 	c #D1D1D1",
"< 	c #CFCFCF",
"[ 	c #C5C5C5",
"} 	c #999999",
"| 	c #3A3A3A",
"1 	c #1E1E1E",
"2 	c #0A0A0A",
"3 	c #606060",
"4 	c #C9C9C9",
"5 	c #BDBDBD",
"6 	c #B1B1B1",
"7 	c #C2C2C2",
"8 	c #929292",
"9 	c #444444",
"0 	c #262626",
"a 	c #000000",
"b 	c #565656",
"c 	c #BABABA",
"d 	c #A7A7A7",
"e 	c #A3A3A3",
"f 	c #C1C1C1",
"g 	c #474747",
"h 	c #515151",
"i 	c #ABABAB",
"j 	c #969696",
"k 	c #868686",
"l 	c #8A8A8A",
"m 	c #424242",
"n 	c #181818",
"o 	c #4B4B4B",
"p 	c #9E9E9E",
"q 	c #8E8E8E",
"r 	c #838383",
"s 	c #858585",
"t 	c #909090",
"u 	c #AEAEAE",
"v 	c #C4C4C4",
"w 	c #323232",
"x 	c #090909",
"y 	c #454545",
"z 	c #898989",
"A 	c #848484",
"B 	c #888888",
"C 	c #949494",
"D 	c #979797",
"E 	c #4E4E4E",
"F 	c #1D1D1D",
"G 	c #3F3F3F",
"H 	c #8C8C8C",
"I 	c #8B8B8B",
"J 	c #959595",
"K 	c #767676",
"L 	c #272727",
"M 	c #151515",
"N 	c #3D3D3D",
"O 	c #7B7B7B",
"P 	c #747474",
"Q 	c #2A2A2A",
"R 	c #242424",
"S 	c #A0A0A0",
"T 	c #7F7F7F",
"U 	c #1B1B1B",
"V 	c #353535",
"W 	c #646464",
"X 	c #6F6F6F",
"Y 	c #292929",
"Z 	c #2E2E2E",
"` 	c #505050",
" .	c #373737",
"..	c #171717",
"                                                ",
"                                                ",
"              .                                 ",
"            + @ #                               ",
"            $ % & *                             ",
"            = - ; > , '                         ",
"            ) ! ~ { ] ^ /                       ",
"            ( _ : < [ } | 1                     ",
"            2 3 4 5 6 7 8 9 0                   ",
"            a b c d > e f 8 g 0                 ",
"            a h i j k l d 5 8 m n               ",
"            a o p q r s t u v > w x             ",
"            a y q z A B C D z E F x             ",
"            a G A H I C J K , L M               ",
"            x N O > } p P , Q 1                 ",
"            R y P j S T y ' 1                   ",
"            U N _ C O o R U                     ",
"            ) V W X , Y /                       ",
"            = Z ` 9 Y 1                         ",
"            $ R  .R                             ",
"            + ....                              ",
"              $                                 ",
"                                                ",
"                                                "};
