/* XPM */
static char * ism_next_xpm[] = {
"24 24 163 2",
"  	c None",
". 	c #030004",
"+ 	c #030106",
"@ 	c #16697F",
"# 	c #06202C",
"$ 	c #03060D",
"% 	c #4098A7",
"& 	c #23849C",
"* 	c #093647",
"= 	c #050C15",
"- 	c #5BA9B5",
"; 	c #89DAE7",
"> 	c #3B8FA4",
", 	c #093244",
"' 	c #05111C",
") 	c #5EABB8",
"! 	c #D1F2FA",
"~ 	c #99E3EF",
"{ 	c #45A2B8",
"] 	c #093245",
"^ 	c #04060E",
"/ 	c #06141F",
"( 	c #071724",
"_ 	c #06121C",
": 	c #05101A",
"< 	c #071B29",
"[ 	c #4AA4B5",
"} 	c #C8EFF8",
"| 	c #8AE2EE",
"1 	c #96E3EF",
"2 	c #3B8FA5",
"3 	c #0A3B4F",
"4 	c #103544",
"5 	c #1F7088",
"6 	c #297890",
"7 	c #3D7D94",
"8 	c #3C7D93",
"9 	c #347B91",
"0 	c #21758E",
"a 	c #41A2BA",
"b 	c #C6EBF6",
"c 	c #6CCFE0",
"d 	c #6ECEE0",
"e 	c #95DEEA",
"f 	c #134A5D",
"g 	c #86CDDC",
"h 	c #D3F2FA",
"i 	c #E8FBFF",
"j 	c #E8FCFF",
"k 	c #C5EFF8",
"l 	c #A2E7F1",
"m 	c #80DEEB",
"n 	c #6ED7E5",
"o 	c #2AC1D4",
"p 	c #0ABED0",
"q 	c #5DCCDD",
"r 	c #95E0EC",
"s 	c #46A2B8",
"t 	c #154E61",
"u 	c #B2D6E4",
"v 	c #87DCE9",
"w 	c #84E8F2",
"x 	c #81E7F1",
"y 	c #7BDBE9",
"z 	c #77DAE8",
"A 	c #65D3E3",
"B 	c #30CADA",
"C 	c #0BB8CE",
"D 	c #0CB3CA",
"E 	c #15BCD0",
"F 	c #5DCEDE",
"G 	c #09384B",
"H 	c #1A5366",
"I 	c #C0DDEA",
"J 	c #61C6D9",
"K 	c #21C7D6",
"L 	c #1FC6D6",
"M 	c #20C6D6",
"N 	c #23C3D5",
"O 	c #21BED3",
"P 	c #0DBACF",
"Q 	c #0CB2CA",
"R 	c #0CB0C8",
"S 	c #0CB4CB",
"T 	c #18C2D4",
"U 	c #64D5E3",
"V 	c #3B8EA4",
"W 	c #062330",
"X 	c #1A4E62",
"Y 	c #BFDBE8",
"Z 	c #6BD0E1",
"` 	c #0EB7CD",
" .	c #0EB5CC",
"..	c #0EB2C9",
"+.	c #0CB1C9",
"@.	c #0FBCD1",
"#.	c #15C8D8",
"$.	c #1BCBD6",
"%.	c #3B9CB4",
"&.	c #0C4A63",
"*.	c #061622",
"=.	c #174B5E",
"-.	c #AFD5E3",
";.	c #62D5E3",
">.	c #17CBDA",
",.	c #24D2DD",
"'.	c #1ACFDB",
").	c #15C9D9",
"!.	c #13BDD2",
"~.	c #10B9CF",
"{.	c #10BCD1",
"].	c #15CBDA",
"^.	c #19C7D4",
"/.	c #1192AC",
"(.	c #0D4B64",
"_.	c #092436",
":.	c #0C3C4E",
"<.	c #6CB5C9",
"[.	c #1F92AB",
"}.	c #1193AA",
"|.	c #1896AC",
"1.	c #1395AB",
"2.	c #10A5BC",
"3.	c #10B5CC",
"4.	c #14C4D6",
"5.	c #13C8D9",
"6.	c #29D2DA",
"7.	c #1192AB",
"8.	c #0D556F",
"9.	c #071C29",
"0.	c #0A3045",
"a.	c #0A3044",
"b.	c #0B3349",
"c.	c #0E6984",
"d.	c #0FA8BF",
"e.	c #15CFDC",
"f.	c #0E7F9B",
"g.	c #0C4760",
"h.	c #030208",
"i.	c #040810",
"j.	c #050E18",
"k.	c #071A28",
"l.	c #125A74",
"m.	c #12A0B7",
"n.	c #19C7D3",
"o.	c #108EA7",
"p.	c #09273A",
"q.	c #05121C",
"r.	c #155168",
"s.	c #138BA5",
"t.	c #1089A2",
"u.	c #0D516B",
"v.	c #050C16",
"w.	c #13465E",
"x.	c #156A87",
"y.	c #0C475F",
"z.	c #092435",
"A.	c #04060D",
"B.	c #0D384E",
"C.	c #0D435A",
"D.	c #082232",
"E.	c #0A2E41",
"F.	c #06121E",
"                                                ",
"                                                ",
"                      .                         ",
"                    + @ #                       ",
"                    $ % & *                     ",
"                    = - ; > ,                   ",
"                    ' ) ! ~ { ]                 ",
"        ^ / ( _ : : < [ } | 1 2 3               ",
"        4 5 6 7 8 9 0 a b c d e 2 ]             ",
"        f g h i j k l m n o p q r s ,           ",
"        t u v w x y z A B C D E F r 2 G         ",
"        H I J K L M N O P Q R S T U e V W       ",
"        X Y Z P P P `  ...R +.@.#.$.%.&.*.      ",
"        =.-.;.>.,.,.'.).!.~.{.].^./.(._.        ",
"        :.<.[.}.|.|.1.2.3.4.5.6.7.8._.          ",
"        9.0.a.0.0.0.b.c.d.e.6.f.g._.            ",
"        h.i.j.: : : k.l.m.n.o.g.p.              ",
"                    q.r.s.t.u._.                ",
"                    v.w.x.y.z.                  ",
"                    A.B.C.D.                    ",
"                    + E.F.                      ",
"                      .                         ",
"                                                ",
"                                                "};
