/* XPM */
static char * ism_cancel_xpm[] = {
"24 24 2 1",
" 	c None",
".	c #FF0000",
"                        ",
"                        ",
"                        ",
"                        ",
"   .....           .    ",
"   ......         ..    ",
"    ......       ..     ",
"     ......     ..      ",
"      ......   ..       ",
"       ...... ..        ",
"        .... ..         ",
"         .. ...         ",
"        .. .....        ",
"       ..  ......       ",
"      ..    ......      ",
"     ..      ......     ",
"    ..        ......    ",
"   ..          ......   ",
"  ..            ......  ",
"                        ",
"                        ",
"                        ",
"                        ",
"                        "};
