/* XPM */
static char * ism_choosesnd_xpm[] = {
"24 24 63 1",
" 	c None",
".	c #000000",
"+	c #010101",
"@	c #020202",
"#	c #060606",
"$	c #616161",
"%	c #BFBFBF",
"&	c #101010",
"*	c #404040",
"=	c #9F9F9F",
"-	c #6D6D6D",
";	c #202020",
">	c #808080",
",	c #333333",
"'	c #786606",
")	c #715504",
"!	c #2B1D01",
"~	c #B39909",
"{	c #A68307",
"]	c #312402",
"^	c #876405",
"/	c #F0D10C",
"(	c #E8B809",
"_	c #AD7103",
":	c #A67805",
"<	c #EDC40B",
"[	c #E5B209",
"}	c #CE7B03",
"|	c #E2AB08",
"1	c #DEA007",
"2	c #CE7903",
"3	c #5B3B02",
"4	c #D18204",
"5	c #C56501",
"6	c #683F02",
"7	c #694202",
"8	c #633400",
"9	c #311900",
"0	c #321B00",
"a	c #301700",
"b	c #131313",
"c	c #4A4A4A",
"d	c #7F7F7F",
"e	c #C9C9C9",
"f	c #858585",
"g	c #262626",
"h	c #665605",
"i	c #776305",
"j	c #4E3F03",
"k	c #634F04",
"l	c #E8CF0C",
"m	c #F2D20C",
"n	c #C69507",
"o	c #281C01",
"p	c #604603",
"q	c #D09807",
"r	c #DFA308",
"s	c #D28304",
"t	c #321C01",
"u	c #5A3902",
"v	c #6A4402",
"w	c #633401",
"x	c #261200",
"               .        ",
"            +@..        ",
"         ...#$%.        ",
"         &*=%-..        ",
"         ;>,.  .        ",
"         .     .        ",
"         .     .        ",
"      .. .  ')!.        ",
"     .~{]. ^/(_.        ",
"    .:<[}. ^|12.        ",
"     3445.  678         ",
"      90a         .     ",
"                ...     ",
"              .bcd.     ",
"              .ef*g     ",
"              ..        ",
"              .         ",
"              .         ",
"              .         ",
"           hij.         ",
"          klmno         ",
"          pqrst         ",
"           uvwx         ",
"                        "};
