/* XPM */
static char * ism_setup_xpm[] = {
"89 30 59 1",
" 	c None",
".	c #A9E0E9",
"+	c #75CDDC",
"@	c #63C7D8",
"#	c #86D4E1",
"$	c #BAE6EE",
"%	c #97DAE5",
"&	c #5AA7B4",
"*	c #8E8E8E",
"=	c #7BBDC9",
"-	c #AAAAAA",
";	c #92B4B9",
">	c #8ED0DC",
",	c #C7C7C7",
"'	c #B8DADF",
")	c #9AB0B4",
"!	c #000000",
"~	c #0B1618",
"{	c #376E77",
"]	c #58B0BF",
"^	c #393939",
"/	c #73C1CE",
"(	c #428590",
"_	c #2C5860",
":	c #5EA1AC",
"<	c #4D9BA8",
"[	c #214248",
"}	c #555555",
"|	c #42585C",
"1	c #C7DDE1",
"2	c #727272",
"3	c #1D1D1D",
"4	c #E3E3E3",
"5	c #5A7B81",
"6	c #5598A3",
"7	c #60AEBB",
"8	c #3C6870",
"9	c #71B4BF",
"0	c #DDF3F6",
"a	c #83BAC3",
"b	c #80CDDA",
"c	c #CBECF2",
"d	c #9BC7CF",
"e	c #84C7D2",
"f	c #162C2F",
"g	c #4C787F",
"h	c #253032",
"i	c #586E72",
"j	c #BCC7C9",
"k	c #80A1A7",
"l	c #34565B",
"m	c #8BB7BE",
"n	c #6D8E94",
"o	c #707B7D",
"p	c #7BA7AF",
"q	c #61BAC9",
"r	c #6BC4D3",
"s	c #6B989F",
"t	c #A2ADAF",
"                                                                                         ",
"                                                                                         ",
"                                                                                         ",
"                                                                                         ",
"     .+@@#$                                                                              ",
"    @@@@@@@#     @@@@@@@@@@@@% @@@@@@@@@@@@@@@@   @@%            @@%   @@@@@@@@@#        ",
"   @@@@@@@@@&*   @@@@@@@@@@@@=-@@@@@@@@@@@@@@@@--;@@>--,         @@>-- @@@@@@@@@@@'      ",
"  .@@+)!~{@]~!^  @@/(((((((((_!(:%(((<@@]((((((!![@@=!!}         @@=!! @@/(((((@@@@|,    ",
"  +@@1!!!!_!!!!^ @@;!!!!!!!!!!!!} !!![@@(!!!!!!!![@@=!!}         @@=!! @@;!!!!!!(@@<!-   ",
"  @@@2!!3, 42!3  @@;!!^}}}}}}}}}* }}}5@@6!!3}}}}}5@@=!!}         @@=!! @@;!!^}}}}7@@!!,  ",
"  @@@8!!,    *   @@;!!-               @@=!!}      @@=!!}         @@=!! @@;!!-    $@@[!^  ",
"  %@@@{~         @@;!!-               @@=!!}      @@=!!}         @@=!! @@;!!-    .@@|!!  ",
"   @@@@@90       @@a[[                @@=!!}      @@=!!}         @@=!! @@;!!-    +@@*!!- ",
"    @@@@@@bc     @@@@@@@@@@           @@=!!}      @@=!!}         @@=!! @@;!!-   %@@#2!!, ",
"     d]@@@@@e    @@@@@@@@@@---        @@=!!}      @@=!!}         @@=!! @@/((=%%@@@@ 3!!  ",
"      -f(@@@@g-  @@/(((((((!!!        @@=!!}      @@=!!}         @@=!! @@@@@@@@@@@ }!!^  ",
"        *h]@@]!} @@;!!!!!!!!!!        @@=!!}      @@=!!}         @@=!! @@@@@@@@@7i!!!!   ",
"          j@@@f!k@@;!!^}}}}}}}        @@=!!}      @@=!!}         @@=!! @@a[[[[[~!!!!!-   ",
"           %@@[!l@@;!!-               @@=!!}      @@=!!}        %@@m!! @@;!!!!!!!!!^,    ",
"           %@@[![@@;!!-               @@=!!}      @@@~!}        +@@;!! @@;!!2-----       ",
"  @        +@@i![@@;!!-               @@=!!}      +@@(!}       .@@@}!! @@;!!-            ",
" @@@  ,   %@@+}![@@;!!-               @@=!!}      $@@@(!      .@@@.3!! @@;!!-            ",
" %@@@<n $#@@@$3![@@/((=%%%%%%$        @@=!!}       %@@@]:   .+@@@#2!!! @@;!!-            ",
"  +@@@@@@@@@%}!!l@@@@@@@@@@@@%        @@=!!}        %@@@@@@@@@@@#o!!!2 @@;!!-            ",
"   .@@@@@@@p^!!!k@@@@@@@@@@@@:}}*     @@=!!}         $q@@@@@@@rs3!!!^  @@;!!-            ",
"     8((([~!!!!}   ;[[[[[[[[[f!!}       )!!}           i_((({[!!!!!^     t!!-            ",
"      2!!!!!!!*    -!!!!!!!!!!!!}       -!!}            *3!!!!!!!3*      -!!-            ",
"        *}}}-       ------------,        --,              ,*}}}2-         --             ",
"                                                                                         ",
"                                                                                         "};
