/* XPM */
static char * ism_save_xpm[] = {
"24 24 297 2",
"  	c None",
". 	c #2B2B2B",
"+ 	c #363338",
"@ 	c #331F47",
"# 	c #340862",
"$ 	c #360A65",
"% 	c #350963",
"& 	c #320760",
"* 	c #31055E",
"= 	c #2F055C",
"- 	c #2E035A",
"; 	c #2D0359",
"> 	c #2C0257",
", 	c #2B0156",
"' 	c #2A0155",
") 	c #290054",
"! 	c #290053",
"~ 	c #1F1529",
"{ 	c #1D1C1D",
"] 	c #121212",
"^ 	c #4E4E4E",
"/ 	c #706C73",
"( 	c #6F508F",
"_ 	c #7731BE",
": 	c #7C36C3",
"< 	c #7A35C1",
"[ 	c #7530BB",
"} 	c #6E2AB4",
"| 	c #6824AD",
"1 	c #6320A8",
"2 	c #601EA4",
"3 	c #5F1DA3",
"4 	c #5E1DA1",
"5 	c #5C1C9F",
"6 	c #5B1C9E",
"7 	c #5A1B9C",
"8 	c #5A1B9B",
"9 	c #571898",
"0 	c #403150",
"a 	c #3B3A3C",
"b 	c #1C1C1C",
"c 	c #4D4D4D",
"d 	c #6A6A6B",
"e 	c #9F9CA2",
"f 	c #E5DEEC",
"g 	c #EFE8F7",
"h 	c #EFE8F6",
"i 	c #EEE7F5",
"j 	c #EDE6F5",
"k 	c #ECE5F4",
"l 	c #ECE5F3",
"m 	c #EBE4F2",
"n 	c #EAE3F1",
"o 	c #E9E2EF",
"p 	c #D0C9D7",
"q 	c #5A595C",
"r 	c #363636",
"s 	c #1B1B1B",
"t 	c #4B4B4B",
"u 	c #4F4F4F",
"v 	c #A5A5A5",
"w 	c #F2F0F4",
"x 	c #F8F1FF",
"y 	c #F7F0FF",
"z 	c #F6EEFF",
"A 	c #F4EAFE",
"B 	c #F1E7FC",
"C 	c #EFE5FA",
"D 	c #EEE4F9",
"E 	c #EEE4F8",
"F 	c #ECE2F6",
"G 	c #F0EAF7",
"H 	c #DEDDDF",
"I 	c #5C5C5C",
"J 	c #292929",
"K 	c #1A1A1A",
"L 	c #505050",
"M 	c #797979",
"N 	c #A6A6A6",
"O 	c #E0C1FF",
"P 	c #DEBEFE",
"Q 	c #DFC0FE",
"R 	c #DAB6FE",
"S 	c #CFA5FB",
"T 	c #C295F0",
"U 	c #B98DE7",
"V 	c #B689E4",
"W 	c #B489E2",
"X 	c #B489E1",
"Y 	c #B388E0",
"Z 	c #B287DE",
"` 	c #CBAFE8",
" .	c #D7D2DC",
"..	c #5F5F5F",
"+.	c #3D3D3D",
"@.	c #787878",
"#.	c #F0ECF3",
"$.	c #EFDFFF",
"%.	c #EEDEFF",
"&.	c #EFE0FF",
"*.	c #EDDCFF",
"=.	c #E8D4FD",
"-.	c #E1CBF8",
";.	c #DCC6F3",
">.	c #DAC4F1",
",.	c #D9C3F0",
"'.	c #D8C3EF",
").	c #D7C2EE",
"!.	c #D5C0EC",
"~.	c #E1D4F0",
"{.	c #DAD7DC",
"].	c #757575",
"^.	c #A1A1A1",
"/.	c #ECE6F2",
"(.	c #E6CEFF",
"_.	c #EBD7FF",
":.	c #E4CCFE",
"<.	c #DABCF8",
"[.	c #D1B3F0",
"}.	c #CDAFEC",
"|.	c #CBAEEA",
"1.	c #CAADE9",
"2.	c #C9ABE7",
"3.	c #C7AAE5",
"4.	c #D7C5EB",
"5.	c #D7D4DA",
"6.	c #5E5E5E",
"7.	c #3C3C3C",
"8.	c #717171",
"9.	c #9B9B9B",
"0.	c #E7E0EE",
"a.	c #E1C4FF",
"b.	c #E1C4FE",
"c.	c #E7CFFE",
"d.	c #E7D0FE",
"e.	c #DFC2FE",
"f.	c #D2AFF7",
"g.	c #C8A4ED",
"h.	c #C29EE7",
"i.	c #C09CE5",
"j.	c #BF9BE3",
"k.	c #BE9AE2",
"l.	c #BC99E0",
"m.	c #D0B9E7",
"n.	c #D5D1D9",
"o.	c #5D5D5D",
"p.	c #494949",
"q.	c #6D6D6D",
"r.	c #979797",
"s.	c #E3DDE9",
"t.	c #D9C0F2",
"u.	c #D3B5F2",
"v.	c #D6B8F5",
"w.	c #D7B9F6",
"x.	c #D5B8F3",
"y.	c #D1B3EF",
"z.	c #CEB0EC",
"A.	c #CBAFE9",
"B.	c #CAADE8",
"C.	c #C8ACE6",
"D.	c #C7ABE5",
"E.	c #C6AAE3",
"F.	c #D6C3E9",
"G.	c #D5D2D8",
"H.	c #5B5B5B",
"I.	c #3A3A3A",
"J.	c #464646",
"K.	c #696969",
"L.	c #939393",
"M.	c #DED6E6",
"N.	c #CAA7ED",
"O.	c #C298ED",
"P.	c #C59BF1",
"Q.	c #C79EF2",
"R.	c #C49BEF",
"S.	c #BE95E8",
"T.	c #B890E3",
"U.	c #B68DE0",
"V.	c #B48CDE",
"W.	c #B38BDD",
"X.	c #B28ADB",
"Y.	c #B189DA",
"Z.	c #C8AEE2",
"`.	c #D2CED6",
" +	c #5A5A5A",
".+	c #393939",
"++	c #434343",
"@+	c #646464",
"#+	c #878787",
"$+	c #D9D9D9",
"%+	c #F3F3F3",
"&+	c #F2F2F2",
"*+	c #F1F1F1",
"=+	c #F0F0F0",
"-+	c #EFEFEF",
";+	c #EDEDED",
">+	c #ECECEC",
",+	c #EBEBEB",
"'+	c #EAEAEA",
")+	c #C2C2C2",
"!+	c #545454",
"~+	c #373737",
"{+	c #191919",
"]+	c #414141",
"^+	c #989898",
"/+	c #ADADAD",
"(+	c #ACACAC",
"_+	c #ABABAB",
":+	c #AAAAAA",
"<+	c #A9A9A9",
"[+	c #A7A7A7",
"}+	c #A4A4A4",
"|+	c #A3A3A3",
"1+	c #9F9F9F",
"2+	c #353535",
"3+	c #3E3E3E",
"4+	c #626262",
"5+	c #666666",
"6+	c #656565",
"7+	c #636363",
"8+	c #606060",
"9+	c #595959",
"0+	c #565656",
"a+	c #515151",
"b+	c #424242",
"c+	c #383838",
"d+	c #333333",
"e+	c #181818",
"f+	c #3B3B3B",
"g+	c #575757",
"h+	c #555555",
"i+	c #4C4C4C",
"j+	c #4A4A4A",
"k+	c #484848",
"l+	c #454545",
"m+	c #404040",
"n+	c #313131",
"o+	c #171717",
"p+	c #525252",
"q+	c #585858",
"r+	c #7A7A7A",
"s+	c #838383",
"t+	c #828282",
"u+	c #818181",
"v+	c #7F7F7F",
"w+	c #7D7D7D",
"x+	c #767676",
"y+	c #6F6F6F",
"z+	c #2E2E2E",
"A+	c #2F2F2F",
"B+	c #C6C6C6",
"C+	c #CBCBCB",
"D+	c #C9C9C9",
"E+	c #C5C5C5",
"F+	c #C1C1C1",
"G+	c #BABABA",
"H+	c #B3B3B3",
"I+	c #A8A8A8",
"J+	c #212121",
"K+	c #474747",
"L+	c #6A6A6A",
"M+	c #D0D0D0",
"N+	c #929292",
"O+	c #686868",
"P+	c #CECECE",
"Q+	c #BDBDBD",
"R+	c #B2B2B2",
"S+	c #1F1F1F",
"T+	c #272727",
"U+	c #303030",
"V+	c #CACACA",
"W+	c #CCCCCC",
"X+	c #C3C3C3",
"Y+	c #BBBBBB",
"Z+	c #B0B0B0",
"`+	c #2D2D2D",
" @	c #3F3F3F",
".@	c #C8C8C8",
"+@	c #C0C0C0",
"@@	c #B9B9B9",
"#@	c #AFAFAF",
"$@	c #676767",
"%@	c #1E1E1E",
"&@	c #282828",
"*@	c #616161",
"=@	c #B5B5B5",
"-@	c #2A2A2A",
";@	c #BCBCBC",
">@	c #858585",
",@	c #6C6C6C",
"'@	c #9A9A9A",
")@	c #B6B6B6",
"!@	c #B1B1B1",
"~@	c #1D1D1D",
"{@	c #0C0C0C",
"]@	c #131313",
"^@	c #0E0E0E",
"                                                ",
"    . + @ # $ % # & * = - ; > , ' ) ! ! ~ { ]   ",
"    ^ / ( _ : < [ } | 1 2 3 4 5 6 7 8 9 0 a b   ",
"    c d e f g h i j k l m m m m m n o p q r s   ",
"    t u v w x y x z A B C D E E E F G H I J K   ",
"    L M N k O P Q R S T U V W X Y Z `  ...+.b   ",
"    u @.v #.$.%.&.*.=.-.;.>.,.'.).!.~.{...+.b   ",
"    c ].^./.(.(._._.:.<.[.}.|.1.2.3.4.5.6.7.b   ",
"    t 8.9.0.a.b.c.d.e.f.g.h.i.j.k.l.m.n.o.7.s   ",
"    p.q.r.s.t.u.v.w.x.y.z.A.B.C.D.E.F.G.H.I.s   ",
"    J.K.L.M.N.O.P.Q.R.S.T.U.V.W.X.Y.Z.`. +.+K   ",
"    ++@+#+$+%+%+%+%+%+&+*+=+-+;+>+,+'+)+!+~+{+  ",
"    ]+6.q.^+/+/+(+(+_+:+<+[+N }+|+^.1+M ++2+{+  ",
"    3+ +I 4+5+6+@+7+4+8+6.I 9+0+!+a+^ b+c+d+e+  ",
"    f+0+g+g+h+L ^ c i+j+k+l+++m+3+I.~+~+2+n+o+  ",
"    c+p+p+a+q+r+s+t+u+v+w+M x+y+i+7..+. z+A+o+  ",
"    r c ^ t 5+B+C+C+D+E+F+G+H+I+@+t J.J+J A+o+  ",
"    d+p.j+K+L+M+N+O+].:+P+E+Q+R+L+L j+S+T+A+o+  ",
"    U+l+J.++O+V+r+L 4+1+W+X+Y+Z+K.u p.S+T+A+o+  ",
"    `+]+b+ @@+B+@.u 8+9..@+@@@#@$@t K+%@T+A+o+  ",
"    &@7.3+f+*@F+8.b+p+L.X+Y+=@(+@+K+b+b T+A+o+  ",
"      -@.+~+H.;@>@*@,@'@;@)@!@:+*@]+f+{+T+A+o+  ",
"        s {+&@9+q+h+0+q+9+0+h+p+z+~@s {@]@o+^@  ",
"                                                "};
