/* XPM */
static char * ism_nosound_xpm[] = {
"24 24 251 2",
"  	c None",
". 	c #616161",
"+ 	c #696969",
"@ 	c #5B5B5B",
"# 	c #555555",
"$ 	c #4E4E4E",
"% 	c #484848",
"& 	c #424242",
"* 	c #383838",
"= 	c #2F2F2F",
"- 	c #0B0B0B",
"; 	c #969696",
"> 	c #EAEAEA",
", 	c #EEEEEE",
"' 	c #E6E6E6",
") 	c #D2D2D2",
"! 	c #3C3C3C",
"~ 	c #3B3B3B",
"{ 	c #949494",
"] 	c #F7F7F7",
"^ 	c #FFFFFF",
"/ 	c #FEFEFE",
"( 	c #F2F2F2",
"_ 	c #A4A4A4",
": 	c #919191",
"< 	c #606060",
"[ 	c #F5F5F5",
"} 	c #B8B8B8",
"| 	c #404040",
"1 	c #8F8F8F",
"2 	c #6D6D6D",
"3 	c #F3F3F3",
"4 	c #F1F1F1",
"5 	c #8D8D8D",
"6 	c #7B7B7B",
"7 	c #D3D3D3",
"8 	c #8B8B8B",
"9 	c #9E9E9E",
"0 	c #777776",
"a 	c #696866",
"b 	c #565553",
"c 	c #3A3937",
"d 	c #201E1E",
"e 	c #070707",
"f 	c #888888",
"g 	c #F6F5F3",
"h 	c #EAE8E4",
"i 	c #D3D0CA",
"j 	c #B2ABA4",
"k 	c #958F8A",
"l 	c #222020",
"m 	c #868686",
"n 	c #FBF9F8",
"o 	c #F1EEEB",
"p 	c #DED4CB",
"q 	c #BFB7AF",
"r 	c #2C2A28",
"s 	c #848484",
"t 	c #FFDFDF",
"u 	c #FEE7E6",
"v 	c #FEFEFD",
"w 	c #FDF5F2",
"x 	c #FCD9D5",
"y 	c #FBD3CD",
"z 	c #F1E7DE",
"A 	c #DCD1C7",
"B 	c #33302E",
"C 	c #828282",
"D 	c #E08080",
"E 	c #ED504F",
"F 	c #FEE6E6",
"G 	c #FEFCFA",
"H 	c #FEADA9",
"I 	c #FD5754",
"J 	c #D03B39",
"K 	c #F7EADF",
"L 	c #E5D8CB",
"M 	c #35322F",
"N 	c #808080",
"O 	c #E4D4D4",
"P 	c #AB2C2C",
"Q 	c #FE4949",
"R 	c #FEC8C8",
"S 	c #FEFCF9",
"T 	c #FEB2AF",
"U 	c #FE4D4C",
"V 	c #D00C0C",
"W 	c #BB7772",
"X 	c #F5E6D9",
"Y 	c #E4D4C6",
"Z 	c #35312E",
"` 	c #7D7D7D",
" .	c #EDEDED",
"..	c #EF2B2B",
"+.	c #FEB4B4",
"@.	c #FEF7F3",
"#.	c #FCB5AE",
"$.	c #FD514F",
"%.	c #CD0F0E",
"&.	c #BC8580",
"*.	c #F0E2D7",
"=.	c #F4E2D3",
"-.	c #E2D0C0",
";.	c #34302C",
">.	c #DFCFCF",
",.	c #B83939",
"'.	c #EE2121",
").	c #FD7471",
"!.	c #FC2C2A",
"~.	c #D00202",
"{.	c #BC847F",
"].	c #EEE1D7",
"^.	c #F2E5DA",
"/.	c #F2DECD",
"(.	c #E2CDBB",
"_.	c #342F2B",
":.	c #797979",
"<.	c #FCFBFB",
"[.	c #DFCBCA",
"}.	c #AB2A2A",
"|.	c #FE0202",
"1.	c #BB7571",
"2.	c #F1E1D6",
"3.	c #F5E3D8",
"4.	c #F3E0D1",
"5.	c #F1DAC7",
"6.	c #E0C9B6",
"7.	c #342E2A",
"8.	c #777777",
"9.	c #FEFDFC",
"0.	c #FCFAF7",
"a.	c #FAE1DF",
"b.	c #FD6362",
"c.	c #DF0202",
"d.	c #EE0202",
"e.	c #FC726C",
"f.	c #F6D8CC",
"g.	c #F4E0D0",
"h.	c #F2DCCA",
"i.	c #EFD6C1",
"j.	c #DEC5B0",
"k.	c #342E29",
"l.	c #747474",
"m.	c #FEFDFD",
"n.	c #FEFCFB",
"o.	c #FCFAF9",
"p.	c #FAE6E3",
"q.	c #FD6E6D",
"r.	c #AD6864",
"s.	c #B73431",
"t.	c #FB8D86",
"u.	c #F5C4B6",
"v.	c #F2D8C5",
"w.	c #EDD2BA",
"x.	c #DDC2AB",
"y.	c #332D28",
"z.	c #727272",
"A.	c #F6F6F5",
"B.	c #FDFAF7",
"C.	c #FDF7F4",
"D.	c #FBF7F2",
"E.	c #FD7372",
"F.	c #D01010",
"G.	c #EFE0D2",
"H.	c #D8BAAE",
"I.	c #A92724",
"J.	c #FE2929",
"K.	c #FC7975",
"L.	c #F2C3B0",
"M.	c #ECCEB5",
"N.	c #DCBFA6",
"O.	c #332C26",
"P.	c #707070",
"Q.	c #F5F2F0",
"R.	c #FBF6F1",
"S.	c #FAEFEA",
"T.	c #FDA4A3",
"U.	c #F3E2D2",
"V.	c #F2DFCE",
"W.	c #E2CCBB",
"X.	c #A82521",
"Y.	c #EF2121",
"Z.	c #F9807B",
"`.	c #EACAAE",
" +	c #DABB9F",
".+	c #332B25",
"++	c #6F6F6F",
"@+	c #F3F0EC",
"#+	c #F9F2EB",
"$+	c #FAADA8",
"%+	c #CF1C1C",
"&+	c #BB837D",
"*+	c #EDDED3",
"=+	c #F3E1D2",
"-+	c #F4DFCF",
";+	c #F1DAC8",
">+	c #F0D8C2",
",+	c #D2AE9A",
"'+	c #B42F29",
")+	c #EF504E",
"!+	c #E9C6A8",
"~+	c #D9B79A",
"{+	c #322A24",
"]+	c #F2EDE7",
"^+	c #F8EEE5",
"/+	c #F8CDC4",
"(+	c #E0AEA4",
"_+	c #EFDED0",
":+	c #F2DDCB",
"<+	c #F0D9C6",
"[+	c #EFD5C0",
"}+	c #EACDB3",
"|+	c #DAAE96",
"1+	c #E7AC95",
"2+	c #E7C3A3",
"3+	c #D8B496",
"4+	c #322A23",
"5+	c #6E6D6D",
"6+	c #EBE3DC",
"7+	c #EFE2D8",
"8+	c #EDDFD2",
"9+	c #ECDCCD",
"0+	c #EBD8C8",
"a+	c #EAD4C3",
"b+	c #E8D1BD",
"c+	c #E7CDB7",
"d+	c #E6CAB2",
"e+	c #E4C6AD",
"f+	c #E3C2A7",
"g+	c #E1BFA2",
"h+	c #E0BC9D",
"i+	c #DFBA9B",
"j+	c #D3AF90",
"k+	c #322921",
"l+	c #363433",
"m+	c #6C6763",
"n+	c #6B6560",
"o+	c #6A645E",
"p+	c #6A625B",
"q+	c #696059",
"r+	c #695F56",
"s+	c #685D54",
"t+	c #675B51",
"u+	c #675A4F",
"v+	c #66584D",
"w+	c #65574A",
"x+	c #655548",
"y+	c #645345",
"z+	c #645243",
"A+	c #645141",
"B+	c #191410",
"        . + . @ # $ % & * = -                   ",
"        ; > , , , , , , ' ) ! ~                 ",
"        { ] ^ ^ ^ ^ ^ ^ / ( $ _ ~               ",
"        : ] ^ ^ ^ ^ ^ ^ ^ ^ < [ } |             ",
"        1 ] ^ ^ ^ ^ ^ ^ ^ ^ 2 3 4 } ~           ",
"        5 ] ^ ^ ^ ^ ^ ^ ^ ^ 6 7 3 [ _ ~         ",
"        8 ] ^ ^ ^ ^ ^ ^ ^ ^ 9 0 a b c d e       ",
"        f ] ^ ^ ^ ^ ^ ^ ^ ^ ^ g h i j k l       ",
"        m ] ^ ^ ^ ^ ^ ^ ^ ^ ^ / n o p q r       ",
"        s ] ^ t u ^ ^ ^ ^ ^ v w x y z A B       ",
"        C ] ^ D E F / / / v G H I J K L M       ",
"        N ] ^ O P Q R / v S T U V W X Y Z       ",
"        ` ] ^ /  .P ..+.@.#.$.%.&.*.=.-.;.      ",
"        6 ] ^ / / >.,.'.).!.~.{.].^./.(._.      ",
"        :.] ^ / / <.[.}.|.~.1.2.3.4.5.6.7.      ",
"        8.] ^ / 9.0.a.b.c.d.e.f.g.h.i.j.k.      ",
"        l.] m.n.o.p.q.V r.s.'.t.u.v.w.x.y.      ",
"        z.A.B.C.D.E.F.1.G.H.I.J.K.L.M.N.O.      ",
"        P.Q.R.S.T.%.{.].U.V.W.X.Y.Z.`. +.+      ",
"        ++@+#+$+%+&+*+=+-+;+>+,+'+)+!+~+{+      ",
"        ++]+^+/+(+_+4.:+<+[+w.}+|+1+2+3+4+      ",
"        5+6+7+8+9+0+a+b+c+d+e+f+g+h+i+j+k+      ",
"        l+m+n+o+p+q+r+s+t+u+v+w+x+y+z+A+B+      ",
"                                                "};
