/* XPM */
static char * ism_help_xpm[] = {
"24 24 137 2",
"  	c None",
". 	c #6C6300",
"+ 	c #5E4B00",
"@ 	c #523600",
"# 	c #4E2D00",
"$ 	c #482A00",
"% 	c #3E2300",
"& 	c #341800",
"* 	c #1A0000",
"= 	c #000000",
"- 	c #948700",
"; 	c #9A812B",
"> 	c #AD9AA7",
", 	c #92742B",
"' 	c #78502F",
") 	c #6E412B",
"! 	c #72431D",
"~ 	c #7E3B75",
"{ 	c #83409F",
"] 	c #7D167C",
"^ 	c #480300",
"/ 	c #040000",
"( 	c #060000",
"_ 	c #B5AA8C",
": 	c #96757E",
"< 	c #866400",
"[ 	c #462700",
"} 	c #260800",
"| 	c #662300",
"1 	c #711FC4",
"2 	c #6D1DC8",
"3 	c #733656",
"4 	c #360000",
"5 	c #010101",
"6 	c #BCB391",
"7 	c #A181B4",
"8 	c #6E3100",
"9 	c #815D24",
"0 	c #8F68C9",
"a 	c #7022DB",
"b 	c #6D0C3E",
"c 	c #968900",
"d 	c #C2B4AB",
"e 	c #7B32A1",
"f 	c #3E0800",
"g 	c #7E6100",
"h 	c #A689AC",
"i 	c #7B44D7",
"j 	c #680EBB",
"k 	c #260000",
"l 	c #A78AD3",
"m 	c #7A116F",
"n 	c #020000",
"o 	c #AFA288",
"p 	c #8357D2",
"q 	c #650BCA",
"r 	c #2C0300",
"s 	c #87662C",
"t 	c #916AD1",
"u 	c #70159A",
"v 	c #361800",
"w 	c #5E5400",
"x 	c #BFB49E",
"y 	c #8E64D3",
"z 	c #7429BA",
"A 	c #280000",
"B 	c #6B3C2C",
"C 	c #7E4BD2",
"D 	c #6D29DE",
"E 	c #8A597C",
"F 	c #8F712A",
"G 	c #937610",
"H 	c #B1A32E",
"I 	c #B69FD6",
"J 	c #8657CC",
"K 	c #7A2371",
"L 	c #402200",
"M 	c #6F0F9C",
"N 	c #691FE4",
"O 	c #8960CD",
"P 	c #9876D1",
"Q 	c #9977BC",
"R 	c #723D00",
"S 	c #9E7DD4",
"T 	c #7121CA",
"U 	c #4A0100",
"V 	c #680322",
"W 	c #6B0BA8",
"X 	c #752BD0",
"Y 	c #7A2FAE",
"Z 	c #6E6400",
"` 	c #D9CCE7",
" .	c #9C79DC",
"..	c #7323CC",
"+.	c #4E0000",
"@.	c #2C0000",
"#.	c #520100",
"$.	c #A29800",
"%.	c #C9BDB2",
"&.	c #9D78E7",
"*.	c #782CC5",
"=.	c #620600",
"-.	c #A483F0",
";.	c #7125CE",
">.	c #726B00",
",.	c #E2D9E4",
"'.	c #9D7AEB",
").	c #762ED7",
"!.	c #C3BD94",
"~.	c #C5B1DC",
"{.	c #8C64C9",
"].	c #7016A9",
"^.	c #B8AF11",
"/.	c #D7CEC4",
"(.	c #A888E3",
"_.	c #7A2FCE",
":.	c #500500",
"<.	c #9F8B2C",
"[.	c #AC90D7",
"}.	c #7336D9",
"|.	c #6A0CB9",
"1.	c #7A5800",
"2.	c #823C8F",
"3.	c #1E0000",
"4.	c #7C5557",
"5.	c #76435A",
"6.	c #683300",
"7.	c #774B24",
"8.	c #CDBCD7",
"9.	c #AE92E3",
"0.	c #813EB5",
"a.	c #2A0600",
"b.	c #481900",
"c.	c #94618D",
"d.	c #803BB6",
"e.	c #710C51",
"f.	c #2A0500",
"                  . + @ # $ % & *               ",
"            = - ; > , ' ) ! ~ { ] ^ /           ",
"          ( _ : < [         } | 1 2 3 4         ",
"        5 6 7 8                 9 0 a b         ",
"        c d e f                 g h i j k       ",
"        ; l m n                 n o p q r       ",
"        s t u v                 w x y z A       ",
"        B C D E F G /           H I J K *       ",
"        L M N O P Q R         . d S T U         ",
"          ( V W X Y U       Z `  ...+.          ",
"            5 @.#.4       $.%.&.*.=.            ",
"                        Z %.-.;.=.              ",
"                      >.,.'.).+.                ",
"                    n !.~.{.]./                 ",
"                    ^./.(._.:.                  ",
"                    <.[.}.|.A                   ",
"                    1.2.|.V *                   ",
"                      3.A *                     ",
"                                                ",
"                        =                       ",
"                      4.5.6.                    ",
"                    7.8.9.0.a.                  ",
"                    b.c.d.e.*                   ",
"                      f.A *                     "};
