/* XPM */
static char *default[] = {
/* columns rows colors chars-per-pixel */
"40 40 257 2",
"   c #000000",
".  c #00030b",
"X  c #05080d",
"o  c #050710",
"O  c #0f1113",
"+  c #151516",
"@  c #040c24",
"#  c #071437",
"$  c #1a1f31",
"%  c #070c35",
"&  c #2a2c2e",
"*  c #252628",
"=  c #262a37",
"-  c #2f3033",
";  c #333333",
":  c #393a3a",
">  c #32353a",
",  c #0a1e48",
"<  c #0f1a51",
"1  c #0e204a",
"2  c #1b2e56",
"3  c #13234a",
"4  c #172b64",
"5  c #16326a",
"6  c #153372",
"7  c #393b41",
"8  c #333c55",
"9  c #273147",
"0  c #232e63",
"q  c #253f6e",
"w  c #283e76",
"e  c #3f4042",
"r  c #39404f",
"t  c #37435a",
"y  c #24437d",
"u  c #354566",
"i  c #364677",
"p  c #3e547e",
"a  c #2a436a",
"s  c #444546",
"d  c #464c57",
"f  c #4f5155",
"g  c #555658",
"h  c #555757",
"j  c #4a546a",
"k  c #485877",
"l  c #5a5e65",
"z  c #515d76",
"x  c #5d6067",
"c  c #546279",
"v  c #616263",
"b  c #6b6c6c",
"n  c #666b75",
"m  c #67707c",
"M  c #727579",
"N  c #7b7c7c",
"B  c #737677",
"V  c #274787",
"C  c #2b4f90",
"Z  c #2f518c",
"A  c #2d5494",
"S  c #344b82",
"D  c #33538c",
"F  c #395385",
"G  c #315491",
"H  c #345b9b",
"J  c #375898",
"K  c #365ba2",
"L  c #39609e",
"P  c #3962a2",
"I  c #485887",
"U  c #415a96",
"Y  c #496398",
"T  c #586887",
"R  c #576894",
"E  c #5c759b",
"W  c #43628a",
"Q  c #486aa7",
"!  c #596eb1",
"~  c #5b76a4",
"^  c #587cb3",
"/  c #616b83",
"(  c #647189",
")  c #687486",
"_  c #667699",
"`  c #767c86",
"'  c #737990",
"]  c #616fa6",
"[  c #657ba4",
"{  c #60ab60",
"}  c #79a87a",
"|  c #7bb77f",
" . c #6d8b6e",
".. c #5982b9",
"X. c #6e809f",
"o. c #7e8081",
"O. c #7a818d",
"+. c #788193",
"@. c #779096",
"#. c #6a82a7",
"$. c #6589bc",
"%. c #6788b7",
"&. c #7688a8",
"*. c #7489b6",
"=. c #7f93af",
"-. c #7792ba",
";. c #7fb880",
":. c #5c88c2",
">. c #5b86c2",
",. c #628bc3",
"<. c #688dc0",
"1. c #6892c7",
"2. c #7896ca",
"3. c #789cd6",
"4. c #6e8ccc",
"5. c #79a0ce",
"6. c #76a0d2",
"7. c #79a2d2",
"8. c #7ba0da",
"9. c #7ea2e2",
"0. c #817f80",
"q. c #828383",
"w. c #84868a",
"e. c #878888",
"r. c #8a8a8b",
"t. c #858b95",
"y. c #8d9095",
"u. c #9b9b9b",
"i. c #929395",
"p. c #8092ad",
"a. c #8698b5",
"s. c #969ba2",
"d. c #9199b5",
"f. c #80b181",
"g. c #9fa09f",
"h. c #9da2a6",
"j. c #95a4ba",
"k. c #b39f9f",
"l. c #a4a4a4",
"z. c #a2a6ab",
"x. c #a6a8a6",
"c. c #ababab",
"v. c #a7a6a6",
"b. c #acadb1",
"n. c #a5aab4",
"m. c #acb2b9",
"M. c #acb4b6",
"N. c #b3acad",
"B. c #b0b0af",
"V. c #b4b4b4",
"C. c #b8b8b7",
"Z. c #bbbbbb",
"A. c #b2b5ba",
"S. c #abb2ab",
"D. c #859ed0",
"F. c #859fc7",
"G. c #8aa3c7",
"H. c #88a5da",
"J. c #9aabc3",
"K. c #96a8c5",
"L. c #96a7d8",
"P. c #9ab1cb",
"I. c #9cb4d9",
"U. c #88a9e4",
"Y. c #83a5e3",
"T. c #95a9e5",
"R. c #99b5e5",
"E. c #a3aed4",
"W. c #a2b5cb",
"Q. c #a4b4c6",
"!. c #aabdd1",
"~. c #a5bad9",
"^. c #b6bdc3",
"/. c #b5bcdd",
"(. c #a4a4ef",
"). c #a6a9f4",
"_. c #a3bde7",
"`. c #b7b7f0",
"'. c #8c93ef",
"]. c #adceb3",
"[. c #bac4bb",
"{. c #a6c2d9",
"}. c #adc1d2",
"|. c #acc3da",
" X c #bcc1c4",
".X c #bcc1cb",
"XX c #b2c3dd",
"oX c #b4cbdb",
"OX c #bacddc",
"+X c #b5c4d5",
"@X c #bad1de",
"#X c #abc2e1",
"$X c #abc1e8",
"%X c #b6cce4",
"&X c #bccceb",
"*X c #b8c7e3",
"=X c #bbd2e1",
"-X c #b7d1e2",
";X c #ccadae",
":X c #c4b7b7",
">X c #efa3a4",
",X c #ebb4b9",
"<X c #f2b6b7",
"1X c #ed9193",
"2X c #c0c0be",
"3X c #c4c4c4",
"4X c #c8c8c6",
"5X c #cbcaca",
"6X c #c6c5c9",
"7X c #c4cad3",
"8X c #cbcdd2",
"9X c #c9ceda",
"0X c #c2d3dd",
"qX c #cad6d6",
"wX c #d1cdcd",
"eX c #d3d1cf",
"rX c #d3d3d3",
"tX c #d3d5d9",
"yX c #dbdada",
"uX c #d8d7d9",
"iX c #c9d2c8",
"pX c #c0cde2",
"aX c #c2d5e2",
"sX c #c4d9e4",
"dX c #ccd6e0",
"fX c #c9dae3",
"gX c #cbdde9",
"hX c #c7d6eb",
"jX c #c8d5f1",
"kX c #c7d6f1",
"lX c #d6dae4",
"zX c #d9ddf4",
"xX c #c9cdf5",
"cX c #dfe6df",
"vX c #cde1ea",
"bX c #d2e3ec",
"nX c #dae4ea",
"mX c #dae8f1",
"MX c #ecc6ce",
"NX c #f1c5c7",
"BX c #f3d8da",
"VX c #e1e1df",
"CX c #e4e4e3",
"ZX c #e5e9eb",
"AX c #eaebea",
"SX c #e5e6e7",
"DX c #e3ebf3",
"FX c #e6e9f0",
"GX c #ecf2f7",
"HX c #f6eeee",
"JX c #f2f0ee",
"KX c #f4f4f4",
"LX c #f4f6f9",
"PX c #f6f8f9",
"IX c #f8f5f5",
"UX c #fbfbfb",
"YX c None",
/* pixels */
"YX  O - : s : s 7 s 7 - +                             YXYXYXYXYXYXYXYXYXYXYXYXYX",
"YX+ s u.Z.Z.C.V.C.C.Z.g.s + X YXYXYXYXYXYXYXYXYXYXYXYXYXYXYXYXYXYXYXYXYXYXYXYXYX",
"YX& i.4X5X5X5XwX5X5XiX5Xv.h ; ; ; - & & & & = & 7 f - O X     YXYXYXYXYXYXYXYXYX",
"YX: c.yXAXSXAXAXAXAXAXAXAX4Xc.v.u.+.) T ( ( T +.Z.8Xz./ u j k 3 YXYXYXYXYXYXYXYX",
"YX: c.AXPXPXPXUXPXUXUXUXUXLXJXSX.XJ.Q.}.}.}.oXgXGXFXm.#.#.#.~ 2 .   YXYXYXYXYXYX",
"YX: c.SXIXSXQ.j.J.P.n.J.J.j.j.j.J.+X7X0XOXqXDXLXGXA.z i G A V 1 .   YXX X X   YX",
"YX: v.tXyX X&.j.P.Q.P.W.P.}.}.}.aXvXvXbXzXFXLXGX0Xj.~ G H G C 1 .     d k 2 %   ",
"YX: c.cXAX8Xd.+XsXqXvXvXvXvXbXbXmXmXnXbXbXLXUXGX~.P.#.D H H Y u O + b Q.~.*.0 @ ",
"YX: c.CXLXtXK.dXnXnXnXmXmXbXbXsXgXgXsX=XgXPXUXGXI.G.[ F J Q E.+.; 0.^.xXjXL.0 YX",
"YX: c.CXJX7Xa.OXsXfX@X@X@X=X0XvX@XsXsXhXbXLXLXkXH.1.Q Z Q XX~.t.f 6XFXFXjXT YX  ",
"YX: l.4X5XA.p.+X0X0XvXbXbXbXbXbXbXbXvXgX%XjX&X9.9.R.2.L.`.2.K j g 8XSXzX[ 3 YXYX",
"YX: l.rXCX8Xd.=XbXnXbXvXvXvXvXvXsXsX=XgXgXL.H.Y.R.H.D.L.! V i 8 _ 4.] [ t +   YX",
"YX: c.yXAX9Xj.-XbXvXsXvXsX=X=X=X@XoXfXDX&X3.4.U.D.U J ! Y w w d.L.y % < .       ",
"YX: c.yXAX7Xa.OX@X@XoX@X@XoXoX@X@XvXmXkXY.Y.T.G.! S T ] k k L.E.T $ O + YXYXYXYX",
"YX: l.4XrX^.p.}.oX@XoX=X@X@X=XoXvXGXhXU.Y._./.) d c x n _ L.E.R j h h x M N N b ",
"YX: l.3X5X Xp.}.@X@X=X=X=X=X=XvXmX&XU.9._./.) 7 s w U [ pX/.S w R &.G./.gXrXz.t.",
"YX: x.rXCX6Xp.}.-X-X@X-X-X-XsX%XR.R.U.$X%X( 8 p D y Y E.J.I 0 S R #.-.P. XS.n n ",
"YX: l.rXCX6Xa.}.oXoXoXoX|.=XsXI.H.H.$X&Xm t ~ 2.^ V ~ d.' / ' ' t.i.h.n.h.r.B x ",
"YX: l.8XcX X=.W.{.{.{.{.sXmX#XH.R.U.#X` 9 #.7.$.D H ^ ^ s.Z.6XwXuXcXSXSXcXnXyXN ",
"YX: x.qXtXM.*.K.~.{.{.-XmXkXU.8.8.#X) = %.7.<.A H >.6.^ j.4X8XSXAXKXKXPXLXUXJXr.",
"YX: u.Z.iXM.&.P.{.{.@XDX&XU.9.$X/.m 9 $.7.$.C H :.8.4.U @.} f.[.].;.{ | CXUXKXe.",
"YX: u.2XyX Xp.P.{.%XDXkXU.9._.#X) t #.7.%.G P :.7.,.J U d.9XvXtXzXfXqXAXUXUXHXe.",
"YX: u.4XyX X=.I.-XDX&XU.U.$XXX) t ~ 5.$.Z P :.6.,.P F [ E./.'.T.(.).jXUXUXUXKXe.",
"YX: s.5XyX7XK.{.=XkXU.9.R.{.O.t E 5.%.G L ..6.,.P D T N.9XtX(.&X`.`.zXUXUXUXIXr.",
"YX: u.wXZXDXFXhXI.I.U._.#X' 8 E 7.$.A H ,.3.1.H p ( e.k.,X>X,XNX,XNXIXUXUXUXIXe.",
"YX: b.nX7Xy.^./.8.8.#X~.) t #.7...G K $.7.1.H D z y.r.V.NX1X<X<X<XBXPXUXUXUXIXe.",
"YXg 8X7XN g l z *.$XG.c t ~ 5.%.J L :.7.,.H S c M u.u.4XJXHXIXIXIXPXUXUXUXUXIXr.",
"YXu.lXi.q.h._ T _ -XG.u E 7.$.G L >.7.,.H F z B N u.c.4XlXCXCXCXCXCXCXAXCXSXCXe.",
"YXZ.AX3X^.n.&.-.T OX0XE -.$.A P :.6.,.P D ) w.i.u.c.;X:X3X4X3X4X4X4X4X5X4X4X4Xq.",
"YXo.ZX/. Xz.X.-.=.bXM.a L G H :.7.1.L C j N i.v.b.7XtXtXyX4XeXV.5XlXyXyXuXuXyXe.",
"YX7 -.3.L.m.#.~.bXGXz 5 5 A :.7.$.L Z M h g g b v N v o.l.v g.h v b B r.e.Z.5Xe.",
"YX* j *.%X&X%XvXtX}.D 2 5 y ~ :.L G ( i.} y.u.c.B.C.V.C.Z.M.:XV.B.V.C.C.C.4XwXq.",
"YX& h x t.m.OXM.O.W ..Y a y A Z V ( y.h.N.r.0.u.l.c.V.l.e.v.N g.c.N.6XwX5X5X8Xe.",
"YX: w.N f x b z W ..6.:.H y y 5 k w.g.c.C.l.r. .M N u.l.N q.B  . .y.2X5X4X4XwXw.",
"YX; r.c.S.y.T %.1.1...P A V 5 1 r i.v.C.:X3XC.C.Z.:X:X.X:XZ.3X[.Z.:X6X5X5X4X5Xe.",
"YX: r.c. Xz.X.$...P H V 6 1 @ X e g.4XwXtXuXuXrX3XuXrXtXyXuXrX2XtXtXrXuXyXuXwXq.",
"YX; e.v.N.t.( Q H C 5 < # . . YXe N.eX2XZ.b.3X6X:XtXZ.B.C.wXwXC.5X^.V.c.:X3X3Xq.",
"YX& N r.r.b p V 6 1 @ .       YXs V.wXS.i.r.c.Z.:X7XB.r.y.3X2XV.3Xk.u.e.l.c.C.q.",
"  * f b v t 4 1 # YX    YXYXYXYXs v.A.c.v.v.N.b.A.V.c.l.l.c.V.N.:Xc.l.l.x.x.Z.e.",
"YX  * * 9 , # . .   YXYXYXYXYXYXe B ` 0.0.0.0. .q.q.o.o.` q.` 0.0.0.0.q.q.o.e.v "
};
