/* XPM */
static char * close_xpm[] = {
"16 20 26 1",
" 	c None",
".	c #CC723C",
"+	c #BB6D3D",
"@	c #BC6E3D",
"#	c #424E46",
"$	c #083F4B",
"%	c #BF6E3C",
"&	c #645743",
"*	c #745B42",
"=	c #324A47",
"-	c #A8683E",
";	c #B36B3D",
">	c #A0663F",
",	c #1D4449",
"'	c #B66C3D",
")	c #6B5843",
"!	c #B56C3D",
"~	c #B06A3E",
"{	c #334A47",
"]	c #8A6141",
"^	c #5C5444",
"/	c #545245",
"(	c #AE6A3E",
"_	c #906240",
":	c #5E5544",
"<	c #BA6D3D",
"                ",
"                ",
"  ..        ..  ",
"  +.@      ..#$ ",
"   %.&    ..*$  ",
"    ..=   .-$$  ",
"    ;.>  ..,$   ",
"     '.)..&$    ",
"      .!.~$     ",
"      ;..{$     ",
"      ...]      ",
"     ..&!.^     ",
"     .%$/.!     ",
"    ..{$ (._    ",
"   .._$   %.^   ",
"   .@,$    .!   ",
"  ..:$     <._  ",
"   $$       $$$ ",
"                ",
"                "};
