/* XPM */
static char *ganim8_icon[] = {
/* columns rows colors chars-per-pixel */
"48 48 177 2",
"   c #000000",
".  c #0b0b0b",
"X  c #131313",
"o  c #191919",
"O  c gray13",
"+  c #2c2d2d",
"@  c #2b2f30",
"#  c #2b3233",
"$  c #2c3638",
"%  c #2c393c",
"&  c #333535",
"*  c #333a3c",
"=  c #3b3c3c",
"-  c #2d3d41",
";  c #313e41",
":  c #2e4045",
">  c #2e444a",
",  c #2f484e",
"<  c #2f4c52",
"1  c #354245",
"2  c #31464c",
"3  c #30484e",
"4  c #3d4244",
"5  c #394649",
"6  c #39494d",
"7  c #304d53",
"8  c #3d4f52",
"9  c #305057",
"0  c #31535b",
"q  c #3c5157",
"w  c #3e565a",
"e  c #3c585e",
"r  c #315660",
"t  c #325a64",
"y  c #335d69",
"u  c #3c5d64",
"i  c #33616d",
"p  c #346572",
"a  c #356976",
"s  c #366c7b",
"d  c #386570",
"f  c #3c6d7a",
"g  c #37707f",
"h  c gray25",
"j  c #454748",
"k  c #434a4b",
"l  c #4b4c4d",
"z  c #4a4f50",
"x  c #415054",
"c  c #44565a",
"v  c #4c5253",
"b  c #4c5759",
"n  c #4a595d",
"m  c #525353",
"M  c #535a5b",
"N  c #5b5b5b",
"B  c #465e63",
"V  c #4c5e62",
"C  c #41626b",
"Z  c #446771",
"A  c #446973",
"S  c #46717c",
"D  c #4b727b",
"F  c #536e74",
"G  c #57747c",
"H  c #5a7075",
"J  c #616262",
"K  c #636b6d",
"L  c #696a6b",
"P  c #616f73",
"I  c #67777a",
"U  c #727374",
"Y  c #707779",
"T  c #727879",
"R  c #7b7c7c",
"E  c #367282",
"W  c #387585",
"Q  c #387688",
"!  c #397a8b",
"~  c #397e90",
"^  c #447683",
"/  c #477985",
"(  c #437e8e",
")  c #4b7d8a",
"_  c #527a84",
"`  c #577f89",
"'  c #5c7a82",
"]  c #3a8194",
"[  c #3a8498",
"{  c #3b899d",
"}  c #3c8da1",
"|  c #3d90a5",
" . c #3d94a8",
".. c #448190",
"X. c #4a8494",
"o. c #58838e",
"O. c #508a99",
"+. c #5a8793",
"@. c #5a8d9b",
"#. c #5c93a1",
"$. c #678890",
"%. c #77878c",
"&. c #79878b",
"*. c #768c91",
"=. c #788e92",
"-. c #7a9299",
";. c #6c97a4",
":. c #6b9ca9",
">. c #709fab",
",. c #7d9ea6",
"<. c #7da2ad",
"1. c #7ea6b3",
"2. c #67d7db",
"3. c #848484",
"4. c #828a8c",
"5. c #898a8a",
"6. c #808d90",
"7. c #84979b",
"8. c #8d9293",
"9. c #8b999c",
"0. c #949595",
"q. c #979b9c",
"w. c #9b9b9c",
"e. c #8b9fa4",
"r. c #9b9fa0",
"t. c #8ea0a4",
"y. c #8da6ac",
"u. c #8aabb4",
"i. c #8eaeb9",
"p. c #93a5aa",
"a. c #96a8ae",
"s. c #9ca1a2",
"d. c #9caaad",
"f. c #9caeb3",
"g. c #91b3bb",
"h. c #a3a3a3",
"j. c #a6abac",
"k. c #ababab",
"l. c #a3aeb1",
"z. c #a9afb0",
"x. c #a6b0b2",
"c. c #a6b8bd",
"v. c #aeb6b7",
"b. c #aeb9bd",
"n. c #b2b2b2",
"m. c #b9baba",
"M. c #a0bbc3",
"N. c #a7c5cc",
"B. c #afc3c7",
"V. c #a9c5cc",
"C. c #b1c2c6",
"Z. c #b1c7cd",
"A. c #bbc1c2",
"S. c #b4cbd1",
"D. c #bbcfd4",
"F. c #bbd0d6",
"G. c #c2c3c3",
"H. c #c3cacb",
"J. c #cacaca",
"K. c #c7d2d4",
"L. c #ccd1d3",
"P. c #c8dade",
"I. c #d2d3d4",
"U. c #d6dadc",
"Y. c #dbdbdc",
"T. c #d1dde0",
"R. c #d9dee0",
"E. c #d5e4e7",
"W. c #dee0e1",
"Q. c #dbe5e8",
"!. c #dde8eb",
"~. c #e3e3e3",
"^. c #e7eaea",
"/. c #ebecec",
"(. c #eef2f2",
"). c #f2f3f3",
"_. c None",
/* pixels */
"_._._._._._._._._._._._._._._._._._._._._._._._._._._._._._._._._._._._._._._._._._._._._._._._.",
"_._._._._._._._._._._._._._._._._._._._._._._._._._._._._._._._._._._._._._._._._._._._._._._._.",
"_._._._._._._._._._._._._._._._._._._._.!.C.y.$.A t 0 u F *.d.H.(._._._._._._._._._._._._._._._.",
"_._._._._._._._._._._._._._._._._._.U.,._ d y y y t t 0 0 9 < u H j.^._._._._._._._._._._._._._.",
"_._._._._._._._._._._._._._._._.Q.,.f a p i i i y y t r r 0 < < < , B l.(._._._._._._._._._._._.",
"_._._._._._._._._._._._._._._.Z.) s a a a a p i i y y r r r 0 0 9 < , 7 I U._._._._._._._._._._.",
"_._._._._._._._._._._._._._.u.W s s s s a s a p p i i y t r r 0 < < , , , n A._._._._._._._._._.",
"_._._._._._._._._._._._._.y.E E E E E E s s s a p p i y y r r 0 0 < 3 2 > : 6 A._._._._._._._._.",
"_._._._._._._._._._._._.g.E W W Q W W E E E s s a p p i y t r r 0 9 < 3 , > : 8 H._._._._._._._.",
"_._._._._._._._._._._.M.! Q Q ! Q ! Q W Q E E s s a p p y y t r 0 < < < , > : - b U._._._._._._.",
"_._._._._._._._._._.P...! ! ! ! ! ~ ~ ! Q W W E s s a p i y t r r 9 9 < , 2 : : - K _._._._._._.",
"_._._._._._._._._._.#.! ! ! ~ ] ] ~ ~ ~ ! Q Q E E s a a p i y t r 0 0 < 3 q 8 6 - - s._._._._._.",
"_._._._._._._._._.V.! ! ] ] [ [ ] [ ] ~ ~ ! Q Q E E s a p i y t 0 0 0 e &.z.k.r.P ; k /._._._._.",
"_._._._._._._._.(.O.! ~ ] ] [ [ [ [ [ [ ] ~ ! ! E E E a p p y t t 0 B x.Y.I.I.G.m.Y % 8._._._._.",
"_._._._._._._._.S.! ~ ] [ [ [ { { { [ [ [ ] ~ ! Q E s a p p i y t t 7.~.~.Y.Y.J.G.k.M b ~._._._.",
"_._._._._._._._.:.] ] ] [ { { } } } { { [ ] ~ ! Q E E s a p i y t G I./.^.~.Y.J.G.m.8.; k._._._.",
"_._._._._._._.E...~ ~ [ { } } } | | } { { ~ ~ ] Q Q g g p p i y y p./.)./.~.I.J.J.m.k.m K _._._.",
"_._._._._._._.V.! ~ ~ [ { }  . . . .} } { [ ] ~ Q W g g a p i y Z L.).).k.L l N 5.m.k.R v R._._.",
"_._._._._._._.>.! ~ ~ { { } }  . . .| } { [ ~ ~ ! W g g a p i y ' ~.).5.X . O . . L n.0.j m._._.",
"_._._._._._._.@.! ~ ~ [ { }  . . . .| } { ] ] ~ ! Q E g a a p y -.(.).o   U G.l . O k.w.k q._._.",
"_._._._._._.!.X.! ~ ] [ { } }  . . .| } { ] ] ] ! Q E s a a i y p.).).. . 3.~.R   + n.w.m U _._.",
"_._._._._._.P.( ! ~ ~ [ [ } } } | | } { [ ] ~ ~ Q E g g a p i y d.).).l   X J & X R n.w.l N _._.",
"_._._._._._.D.Q Q ! ] ] [ [ { { } } { [ [ ] ] ! Q E g a a p i y p./.).I.+ . .   = h.k.w.l h _._.",
"_._._._._._.D.E Q ! ~ ] ] [ { { { [ [ [ ] ] ! Q Q E g s a i i t h././.N . L N . . h k.w.v * _._.",
"_._._._._._.S.E W Q ! ~ ] ] ] [ [ [ ] ] ~ ! ! ! Q g s s p i i t e.^.M.  o n.Y.3.. X 0.0.v * _._.",
"_._._._._._.D.E E ..2.2.~ ] ] ] ] ] ] ] ~ 2.2.W E g s a i i y t =.Y.m.. X h.I.5.. X 0.0.j 4 _._.",
"_._._._._._.P.^ E 2.2.2.X.~ ~ ~ ~ ~ ! ! ! 2.2.E g s a p i i y r I L.Y.+   o N X   h h.5.= M _._.",
"_._._._._._.Q.) s 2.2.2.1.! ! 2.#.X.2.! ! @.:.s 2.2.p 2.2.y 2.2.C m.I.k.= X X X m 0.h.T # U _._.",
"_._.2.2.2.2.!.o.^ 2.<.2.2.W Q 2.2.2.2.2.E 2.2.s 2.2.2.2.2.2.2.2.2.9.L.I.J.n.h.k.n.k.w.m @ q._._.",
"_._.2._._.2.2.2.2.2.+.i.2.( E 2.2.Q 2.2.E 2.2.s 2.2.S 2.2.2.A 2.2.H m.J.J.G.G.n.k.h.3.& & m._._.",
"_._.2._._.2.2.2.2.2.2.2.2.<.E 2.2.s 2.2.s 2.2.a 2.2.y 2.2.2.r 2.2.0 &.G.G.G.m.n.h.q.M @ j W._._.",
"_._.2.2.2.2.2.2.2.2.M.2.2.2.s 2.2.s 2.2.s 2.2.p 2.2.y 2.2.2.r 2.2.< c w.m.n.k.k.h.L * @ J _._._.",
"_._.2.2.2.2.2.2.2.` p p 2.2./ 2.2.a 2.2.a 2.2.i 2.2.t 2.2.2.9 2.2.3 , c 4.r.q.0.L * # + k._._._.",
"_._._._._.2._._.B.y i i p p p p p a p p i i i y y y t r r 0 9 < < , > > 2 6 5 1 $ $ # l ~._._._.",
"_._.2.2.2._._._._.D y y i i i i p i i i i y y y t t r 0 0 9 < < 2 , > - - - % $ # # + 5._._._._.",
"_._._._._._._._._.c.y y y y y y y y y y y y y r r r 0 0 9 9 < 3 , > > - - % % $ $ + 4 ^._._._._.",
"_._._._._._._._._._.' t t t t y y y y t t r t r r 0 0 9 9 < 3 , > > > % - % # # # # w._._._._._.",
"_._._._._._._._._._.K.C t t r t r r r r r r r 0 0 9 9 < < 3 2 , > - - - % % $ $ @ J _._._._._._.",
"_._._._._._._._._._._.f.t 0 0 r r r 0 r 0 0 0 9 9 < < 3 3 , > - - - - % $ $ $ @ l I._._._._._._.",
"_._._._._._._._._._._._.e.0 0 9 0 9 0 r 0 < 9 < < < < 3 , > - > - % % % $ $ + 4 G._._._._._._._.",
"_._._._._._._._._._._._._.=.9 9 9 9 9 9 9 < < 7 3 , , , > > : - - % % $ # $ * m._._._._._._._._.",
"_._._._._._._._._._._._._._.7.w < < < < 3 7 3 2 , > > > : - - - % % $ # # l m._._._._._._._._._.",
"_._._._._._._._._._._._._._._.b.B 3 3 3 3 , , , > > > - - - - % % $ # * K I._._._._._._._._._._.",
"_._._._._._._._._._._._._._._._.R.&.7 , 2 , - > - - - - - % % % $ # k h._._._._._._._._._._._._.",
"_._._._._._._._._._._._._._._._._._.I.&.V 2 1 - - - - - % % % 1 M s.^._._._._._._._._._._._._._.",
"_._._._._._._._._._._._._._._._._._._._.R.v.9.P q ; - 1 b T q.G.(._._._._._._._._._._._._._._._.",
"_._._._._._._._._._._._._._._._._._._._._._._._._._._._._._._._._._._._._._._._._._._._._._._._.",
"_._._._._._._._._._._._._._._._._._._._._._._._._._._._._._._._._._._._._._._._._._._._._._._._."
};
